<?xml version="1.0" encoding="UTF-8" standalone="no"?><!DOCTYPE svg PUBLIC "-//W3C//DTD SVG 1.1//EN" "http://www.w3.org/Graphics/SVG/1.1/DTD/svg11.dtd"><svg width="100%" height="100%" viewBox="0 0 871 191" version="1.1" xmlns="http://www.w3.org/2000/svg" xmlns:xlink="http://www.w3.org/1999/xlink" xml:space="preserve" xmlns:serif="http://www.serif.com/" style="fill-rule:evenodd;clip-rule:evenodd;stroke-linecap:round;"><g id="Left"><path d="M41.876,183.609l786.621,0" style="fill:none;fill-rule:nonzero;stroke:#000;stroke-width:3.13px;"/><path d="M41.876,183.609l-31.884,0" style="fill:none;fill-rule:nonzero;stroke:#000;stroke-width:3.13px;"/><path d="M860.38,183.609l-31.883,0" style="fill:none;fill-rule:nonzero;stroke:#000;stroke-width:3.13px;"/><path d="M828.497,114.63l-786.621,-0" style="fill:none;fill-rule:nonzero;stroke:#000;stroke-width:3.13px;"/><path d="M828.497,114.63l34.829,-0" style="fill:none;fill-rule:nonzero;stroke:#000;stroke-width:3.13px;"/><path d="M7.03,114.63l34.846,-0" style="fill:none;fill-rule:nonzero;stroke:#000;stroke-width:3.13px;"/><path d="M41.876,115.234l786.621,0" style="fill:none;fill-rule:nonzero;stroke:#000;stroke-width:3.13px;"/><path d="M863.93,115.234l-0.604,-0.604" style="fill:none;fill-rule:nonzero;stroke:#000;stroke-width:3.13px;"/><path d="M863.93,115.234l-35.433,0" style="fill:none;fill-rule:nonzero;stroke:#000;stroke-width:3.13px;"/><path d="M6.442,115.234l0.588,-0.604" style="fill:none;fill-rule:nonzero;stroke:#000;stroke-width:3.13px;"/><path d="M41.876,115.234l-35.434,0" style="fill:none;fill-rule:nonzero;stroke:#000;stroke-width:3.13px;"/><path d="M863.93,115.234l-0,64.842" style="fill:none;fill-rule:nonzero;stroke:#000;stroke-width:3.13px;"/><path d="M828.497,180.076l35.433,-0" style="fill:none;fill-rule:nonzero;stroke:#000;stroke-width:3.13px;"/><path d="M828.497,180.076l-786.621,-0" style="fill:none;fill-rule:nonzero;stroke:#000;stroke-width:3.13px;"/><path d="M6.442,180.076l3.55,3.533" style="fill:none;fill-rule:nonzero;stroke:#000;stroke-width:3.13px;"/><path d="M6.442,180.076l35.434,-0" style="fill:none;fill-rule:nonzero;stroke:#000;stroke-width:3.13px;"/><path d="M863.93,180.076l-3.55,3.533" style="fill:none;fill-rule:nonzero;stroke:#000;stroke-width:3.13px;"/><path d="M6.442,115.234l0,64.842" style="fill:none;fill-rule:nonzero;stroke:#000;stroke-width:3.13px;"/><path d="M508.934,114.042l-41.196,0" style="fill:none;fill-rule:nonzero;stroke:#000;stroke-width:3.13px;"/><path d="M576.917,114.63l0,-0.588" style="fill:none;fill-rule:nonzero;stroke:#000;stroke-width:3.13px;"/><path d="M577.505,114.042l-0.588,0.588" style="fill:none;fill-rule:nonzero;stroke:#000;stroke-width:3.13px;"/><path d="M576.917,114.042l0.588,0" style="fill:none;fill-rule:nonzero;stroke:#000;stroke-width:3.13px;"/><path d="M577.505,114.042l-0,-24.445" style="fill:none;fill-rule:nonzero;stroke:#000;stroke-width:3.13px;"/><path d="M598.176,68.926c-11.409,-0 -20.671,9.262 -20.671,20.671" style="fill:none;fill-rule:nonzero;stroke:#000;stroke-width:3.13px;"/><path d="M863.93,114.63l-0.604,-0" style="fill:none;fill-rule:nonzero;stroke:#000;stroke-width:3.13px;"/><path d="M863.622,114.922l0.308,-0.292" style="fill:none;fill-rule:nonzero;stroke:#000;stroke-width:3.13px;"/><path d="M697.034,114.63l131.463,-0" style="fill:none;fill-rule:nonzero;stroke:#000;stroke-width:3.13px;"/><path d="M828.497,114.042l-131.705,0" style="fill:none;fill-rule:nonzero;stroke:#000;stroke-width:3.13px;"/><path d="M696.792,114.042l0.242,0.588" style="fill:none;fill-rule:nonzero;stroke:#000;stroke-width:3.13px;"/><path d="M574.559,114.042l-63.267,0" style="fill:none;fill-rule:nonzero;stroke:#000;stroke-width:3.13px;"/><path d="M511.292,114.042l0.246,0.588" style="fill:none;fill-rule:nonzero;stroke:#000;stroke-width:3.13px;"/><path d="M511.538,114.63l62.775,-0" style="fill:none;fill-rule:nonzero;stroke:#000;stroke-width:3.13px;"/><path d="M574.559,114.042l-0.246,0.588" style="fill:none;fill-rule:nonzero;stroke:#000;stroke-width:3.13px;"/><path d="M576.317,114.63l0.6,-0.588" style="fill:none;fill-rule:nonzero;stroke:#000;stroke-width:3.13px;"/><path d="M576.917,114.042l-2.358,0" style="fill:none;fill-rule:nonzero;stroke:#000;stroke-width:3.13px;"/><path d="M509.517,114.63l-0.583,-0.588" style="fill:none;fill-rule:nonzero;stroke:#000;stroke-width:3.13px;"/><path d="M511.292,114.042l-2.358,0" style="fill:none;fill-rule:nonzero;stroke:#000;stroke-width:3.13px;"/><path d="M695.034,114.63l-0.604,-0.588" style="fill:none;fill-rule:nonzero;stroke:#000;stroke-width:3.13px;"/><path d="M696.792,114.042l-2.362,0" style="fill:none;fill-rule:nonzero;stroke:#000;stroke-width:3.13px;"/><path d="M863.326,114.63l0.604,-0.588" style="fill:none;fill-rule:nonzero;stroke:#000;stroke-width:3.13px;"/><path d="M828.497,114.042l35.433,0" style="fill:none;fill-rule:nonzero;stroke:#000;stroke-width:3.13px;"/><path d="M863.326,114.63l-34.829,-0" style="fill:none;fill-rule:nonzero;stroke:#000;stroke-width:3.13px;"/><path d="M465.38,114.042l-63.854,0" style="fill:none;fill-rule:nonzero;stroke:#000;stroke-width:3.13px;"/><path d="M401.526,114.042l0.246,0.588" style="fill:none;fill-rule:nonzero;stroke:#000;stroke-width:3.13px;"/><path d="M401.772,114.63l63.362,-0" style="fill:none;fill-rule:nonzero;stroke:#000;stroke-width:3.13px;"/><path d="M465.38,114.042l-0.246,0.588" style="fill:none;fill-rule:nonzero;stroke:#000;stroke-width:3.13px;"/><path d="M467.151,114.63l0.587,-0.588" style="fill:none;fill-rule:nonzero;stroke:#000;stroke-width:3.13px;"/><path d="M467.738,114.042l-2.358,0" style="fill:none;fill-rule:nonzero;stroke:#000;stroke-width:3.13px;"/><path d="M281.638,114.042l-2.358,0" style="fill:none;fill-rule:nonzero;stroke:#000;stroke-width:3.13px;"/><path d="M279.28,114.042l-0.246,0.588" style="fill:none;fill-rule:nonzero;stroke:#000;stroke-width:3.13px;"/><path d="M281.051,114.63l0.587,-0.588" style="fill:none;fill-rule:nonzero;stroke:#000;stroke-width:3.13px;"/><path d="M279.28,114.042l-57.358,0" style="fill:none;fill-rule:nonzero;stroke:#000;stroke-width:3.13px;"/><path d="M221.922,114.042l0.245,0.588" style="fill:none;fill-rule:nonzero;stroke:#000;stroke-width:3.13px;"/><path d="M222.167,114.63l56.867,-0" style="fill:none;fill-rule:nonzero;stroke:#000;stroke-width:3.13px;"/><path d="M220.147,114.63l-0.584,-0.588" style="fill:none;fill-rule:nonzero;stroke:#000;stroke-width:3.13px;"/><path d="M221.922,114.042l-2.359,0" style="fill:none;fill-rule:nonzero;stroke:#000;stroke-width:3.13px;"/><path d="M399.755,114.63l-0.604,-0.588" style="fill:none;fill-rule:nonzero;stroke:#000;stroke-width:3.13px;"/><path d="M401.526,114.042l-2.375,0" style="fill:none;fill-rule:nonzero;stroke:#000;stroke-width:3.13px;"/><path d="M178.367,114.042l-2.362,0" style="fill:none;fill-rule:nonzero;stroke:#000;stroke-width:3.13px;"/><path d="M176.005,114.042l-0.242,0.588" style="fill:none;fill-rule:nonzero;stroke:#000;stroke-width:3.13px;"/><path d="M177.78,114.63l0.587,-0.588" style="fill:none;fill-rule:nonzero;stroke:#000;stroke-width:3.13px;"/><path d="M7.03,114.63l-0.588,-0.588" style="fill:none;fill-rule:nonzero;stroke:#000;stroke-width:3.13px;"/><path d="M6.442,114.042l35.434,0" style="fill:none;fill-rule:nonzero;stroke:#000;stroke-width:3.13px;"/><path d="M41.876,114.63l-34.846,-0" style="fill:none;fill-rule:nonzero;stroke:#000;stroke-width:3.13px;"/><path d="M176.005,114.042l-134.129,0" style="fill:none;fill-rule:nonzero;stroke:#000;stroke-width:3.13px;"/><path d="M41.876,114.63l133.887,-0" style="fill:none;fill-rule:nonzero;stroke:#000;stroke-width:3.13px;"/><path d="M863.93,114.042l-0,-104.05" style="fill:none;fill-rule:nonzero;stroke:#000;stroke-width:3.13px;"/><path d="M863.93,114.042l-0,0.588" style="fill:none;fill-rule:nonzero;stroke:#000;stroke-width:3.13px;"/><path d="M576.917,114.042l0,-24.445" style="fill:none;fill-rule:nonzero;stroke:#000;stroke-width:3.13px;"/><path d="M574.559,89.597l0,24.445" style="fill:none;fill-rule:nonzero;stroke:#000;stroke-width:3.13px;"/><path d="M597.588,68.926c-11.425,-0 -20.671,9.262 -20.671,20.671" style="fill:none;fill-rule:nonzero;stroke:#000;stroke-width:3.13px;"/><path d="M597.588,66.567c-6.121,0 -11.962,2.425 -16.291,6.738c-4.313,4.329 -6.738,10.187 -6.738,16.292" style="fill:none;fill-rule:nonzero;stroke:#000;stroke-width:3.13px;"/><path d="M673.759,66.567l-76.171,0" style="fill:none;fill-rule:nonzero;stroke:#000;stroke-width:3.13px;"/><path d="M597.588,68.926l76.171,-0" style="fill:none;fill-rule:nonzero;stroke:#000;stroke-width:3.13px;"/><path d="M694.43,89.597c-0,-11.409 -9.242,-20.671 -20.671,-20.671" style="fill:none;fill-rule:nonzero;stroke:#000;stroke-width:3.13px;"/><path d="M696.792,89.597c0,-6.105 -2.425,-11.963 -6.737,-16.292c-4.317,-4.313 -10.175,-6.738 -16.296,-6.738" style="fill:none;fill-rule:nonzero;stroke:#000;stroke-width:3.13px;"/><path d="M696.792,114.042l0,-24.445" style="fill:none;fill-rule:nonzero;stroke:#000;stroke-width:3.13px;"/><path d="M694.43,89.597l-0,24.445" style="fill:none;fill-rule:nonzero;stroke:#000;stroke-width:3.13px;"/><path d="M467.738,114.042l0,-31.412" style="fill:none;fill-rule:nonzero;stroke:#000;stroke-width:3.13px;"/><path d="M465.38,82.63l-0,31.412" style="fill:none;fill-rule:nonzero;stroke:#000;stroke-width:3.13px;"/><path d="M485.447,64.905c-9.784,-0 -17.709,7.946 -17.709,17.725" style="fill:none;fill-rule:nonzero;stroke:#000;stroke-width:3.13px;"/><path d="M485.447,62.547c-11.084,-0 -20.067,8.983 -20.067,20.083" style="fill:none;fill-rule:nonzero;stroke:#000;stroke-width:3.13px;"/><path d="M491.209,62.547l-5.762,-0" style="fill:none;fill-rule:nonzero;stroke:#000;stroke-width:3.13px;"/><path d="M485.447,64.905l5.762,-0" style="fill:none;fill-rule:nonzero;stroke:#000;stroke-width:3.13px;"/><path d="M508.934,82.63c0,-9.779 -7.942,-17.725 -17.725,-17.725" style="fill:none;fill-rule:nonzero;stroke:#000;stroke-width:3.13px;"/><path d="M511.292,82.63c0,-11.1 -8.983,-20.083 -20.083,-20.083" style="fill:none;fill-rule:nonzero;stroke:#000;stroke-width:3.13px;"/><path d="M511.292,114.042l0,-31.412" style="fill:none;fill-rule:nonzero;stroke:#000;stroke-width:3.13px;"/><path d="M508.934,82.63l0,31.412" style="fill:none;fill-rule:nonzero;stroke:#000;stroke-width:3.13px;"/><path d="M281.638,114.042l0,-24.445" style="fill:none;fill-rule:nonzero;stroke:#000;stroke-width:3.13px;"/><path d="M279.28,89.597l-0,24.445" style="fill:none;fill-rule:nonzero;stroke:#000;stroke-width:3.13px;"/><path d="M302.309,68.926c-11.408,-0 -20.671,9.262 -20.671,20.671" style="fill:none;fill-rule:nonzero;stroke:#000;stroke-width:3.13px;"/><path d="M302.309,66.567c-6.104,0 -11.962,2.425 -16.292,6.738c-4.312,4.329 -6.737,10.187 -6.737,16.292" style="fill:none;fill-rule:nonzero;stroke:#000;stroke-width:3.13px;"/><path d="M378.497,66.567l-76.188,0" style="fill:none;fill-rule:nonzero;stroke:#000;stroke-width:3.13px;"/><path d="M302.309,68.926l76.188,-0" style="fill:none;fill-rule:nonzero;stroke:#000;stroke-width:3.13px;"/><path d="M399.151,89.597c-0,-11.409 -9.246,-20.671 -20.654,-20.671" style="fill:none;fill-rule:nonzero;stroke:#000;stroke-width:3.13px;"/><path d="M401.526,89.597c-0,-6.105 -2.425,-11.963 -6.754,-16.292c-4.313,-4.313 -10.171,-6.738 -16.275,-6.738" style="fill:none;fill-rule:nonzero;stroke:#000;stroke-width:3.13px;"/><path d="M401.526,114.042l-0,-24.445" style="fill:none;fill-rule:nonzero;stroke:#000;stroke-width:3.13px;"/><path d="M399.151,89.597l-0,24.445" style="fill:none;fill-rule:nonzero;stroke:#000;stroke-width:3.13px;"/><path d="M178.367,114.042l0,-31.412" style="fill:none;fill-rule:nonzero;stroke:#000;stroke-width:3.13px;"/><path d="M176.005,82.63l-0,31.412" style="fill:none;fill-rule:nonzero;stroke:#000;stroke-width:3.13px;"/><path d="M196.076,64.905c-9.784,-0 -17.709,7.946 -17.709,17.725" style="fill:none;fill-rule:nonzero;stroke:#000;stroke-width:3.13px;"/><path d="M196.076,62.547c-11.084,-0 -20.071,8.983 -20.071,20.083" style="fill:none;fill-rule:nonzero;stroke:#000;stroke-width:3.13px;"/><path d="M201.838,62.547l-5.762,-0" style="fill:none;fill-rule:nonzero;stroke:#000;stroke-width:3.13px;"/><path d="M196.076,64.905l5.762,-0" style="fill:none;fill-rule:nonzero;stroke:#000;stroke-width:3.13px;"/><path d="M219.563,82.63c0,-9.779 -7.946,-17.725 -17.725,-17.725" style="fill:none;fill-rule:nonzero;stroke:#000;stroke-width:3.13px;"/><path d="M221.922,82.63c-0,-11.1 -8.984,-20.083 -20.084,-20.083" style="fill:none;fill-rule:nonzero;stroke:#000;stroke-width:3.13px;"/><path d="M221.922,114.042l-0,-31.412" style="fill:none;fill-rule:nonzero;stroke:#000;stroke-width:3.13px;"/><path d="M219.563,82.63l0,31.412" style="fill:none;fill-rule:nonzero;stroke:#000;stroke-width:3.13px;"/><path d="M6.442,9.992l3.55,-3.55" style="fill:none;fill-rule:nonzero;stroke:#000;stroke-width:3.13px;"/><path d="M9.992,6.442l31.884,0" style="fill:none;fill-rule:nonzero;stroke:#000;stroke-width:3.13px;"/><path d="M41.876,9.992l-35.434,0" style="fill:none;fill-rule:nonzero;stroke:#000;stroke-width:3.13px;"/><path d="M828.497,6.442l-786.621,0" style="fill:none;fill-rule:nonzero;stroke:#000;stroke-width:3.13px;"/><path d="M41.876,9.992l786.621,0" style="fill:none;fill-rule:nonzero;stroke:#000;stroke-width:3.13px;"/><path d="M863.93,9.992l-3.55,-3.55" style="fill:none;fill-rule:nonzero;stroke:#000;stroke-width:3.13px;"/><path d="M828.497,6.442l31.883,0" style="fill:none;fill-rule:nonzero;stroke:#000;stroke-width:3.13px;"/><path d="M863.93,9.992l-35.433,0" style="fill:none;fill-rule:nonzero;stroke:#000;stroke-width:3.13px;"/><path d="M6.442,114.042l0,-104.05" style="fill:none;fill-rule:nonzero;stroke:#000;stroke-width:3.13px;"/><path d="M140.638,31.93l0,6.837l3.063,0c1.171,0 2.05,-0.275 2.666,-0.845c0.65,-0.605 0.98,-1.45 0.98,-2.538c-0,-1.075 -0.33,-1.921 -0.98,-2.542c-0.616,-0.6 -1.495,-0.912 -2.666,-0.912l-3.063,-0Zm-2.475,-2.017l5.538,0c2.033,0 3.579,0.488 4.621,1.434c1.041,0.912 1.562,2.262 1.562,4.037c0,1.788 -0.521,3.125 -1.562,4.033c-1.042,0.913 -2.588,1.367 -4.621,1.367l-3.063,0l0,7.358l-2.475,0l0,-18.229Z" style="fill:#00f;fill-rule:nonzero;"/><path d="M161.83,39.613c0.554,0.179 1.075,0.571 1.562,1.171c0.521,0.571 1.009,1.354 1.5,2.346l2.538,5.012l-2.671,0l-2.342,-4.687c-0.62,-1.204 -1.204,-2.017 -1.758,-2.408c-0.571,-0.392 -1.333,-0.588 -2.279,-0.588l-2.671,0l0,7.683l-2.471,0l0,-18.229l5.534,0c2.083,0 3.612,0.438 4.62,1.304c1.042,0.875 1.563,2.196 1.563,3.971c-0,1.138 -0.258,2.084 -0.779,2.863c-0.521,0.75 -1.304,1.271 -2.346,1.562Zm-6.121,-7.683l0,6.512l3.063,0c1.204,0 2.116,-0.275 2.733,-0.845c0.604,-0.555 0.912,-1.367 0.912,-2.409c0,-1.075 -0.308,-1.887 -0.912,-2.408c-0.617,-0.554 -1.529,-0.85 -2.733,-0.85l-3.063,-0Z" style="fill:#00f;fill-rule:nonzero;"/><path d="M177.976,31.605c-1.792,-0 -3.192,0.683 -4.234,2.021c-1.041,1.3 -1.558,3.108 -1.558,5.404c0,2.308 0.517,4.133 1.558,5.467c1.042,1.35 2.442,2.016 4.234,2.016c1.825,0 3.254,-0.666 4.296,-2.016c1.041,-1.334 1.562,-3.159 1.562,-5.467c0,-2.296 -0.521,-4.104 -1.562,-5.404c-1.042,-1.338 -2.471,-2.021 -4.296,-2.021Zm-0,-2.017c2.554,0 4.591,0.879 6.121,2.604c1.562,1.692 2.341,3.971 2.341,6.838c0,2.862 -0.779,5.175 -2.341,6.9c-1.53,1.692 -3.567,2.537 -6.121,2.537c-2.571,0 -4.604,-0.845 -6.121,-2.537c-1.529,-1.692 -2.279,-3.988 -2.279,-6.9c-0,-2.867 0.75,-5.146 2.279,-6.838c1.517,-1.725 3.55,-2.604 6.121,-2.604Z" style="fill:#00f;fill-rule:nonzero;"/><path d="M202.734,45.538l0,-4.883l-4.037,-0l-0,-2.017l6.445,0l0,7.813c-0.962,0.65 -2.02,1.154 -3.191,1.496c-1.138,0.341 -2.342,0.52 -3.646,0.52c-2.833,0 -5.046,-0.812 -6.642,-2.475c-1.608,-1.641 -2.408,-3.97 -2.408,-6.962c-0,-2.946 0.8,-5.242 2.408,-6.904c1.596,-1.692 3.809,-2.538 6.642,-2.538c1.204,0 2.346,0.163 3.387,0.454c1.071,0.263 2.084,0.7 2.992,1.305l0,2.604c-0.908,-0.784 -1.887,-1.367 -2.929,-1.759c-1.008,-0.391 -2.083,-0.587 -3.254,-0.587c-2.213,-0 -3.892,0.637 -5.013,1.887c-1.091,1.221 -1.629,3.063 -1.629,5.538c0,2.471 0.538,4.346 1.629,5.596c1.121,1.221 2.8,1.825 5.013,1.825c0.912,-0 1.691,-0.067 2.341,-0.196c0.684,-0.163 1.321,-0.408 1.892,-0.717Z" style="fill:#00f;fill-rule:nonzero;"/><path d="M218.259,39.613c0.554,0.179 1.075,0.571 1.563,1.171c0.52,0.571 1.008,1.354 1.495,2.346l2.542,5.012l-2.671,0l-2.341,-4.687c-0.621,-1.204 -1.205,-2.017 -1.759,-2.408c-0.571,-0.392 -1.333,-0.588 -2.279,-0.588l-2.671,0l0,7.683l-2.471,0l0,-18.229l5.534,0c2.083,0 3.612,0.438 4.621,1.304c1.041,0.875 1.562,2.196 1.562,3.971c0,1.138 -0.258,2.084 -0.779,2.863c-0.521,0.75 -1.304,1.271 -2.346,1.562Zm-6.121,-7.683l0,6.512l3.063,0c1.204,0 2.116,-0.275 2.733,-0.845c0.6,-0.555 0.913,-1.367 0.913,-2.409c-0,-1.075 -0.313,-1.887 -0.913,-2.408c-0.617,-0.554 -1.529,-0.85 -2.733,-0.85l-3.063,-0Z" style="fill:#00f;fill-rule:nonzero;"/><path d="M232.076,32.322l-3.317,9.116l6.704,0l-3.387,-9.116Zm-1.367,-2.409l2.8,0l6.967,18.229l-2.604,0l-1.63,-4.687l-8.266,-0l-1.625,4.687l-2.609,0l6.967,-18.229Z" style="fill:#00f;fill-rule:nonzero;"/><path d="M243.13,29.913l3.646,0l4.687,12.434l4.621,-12.434l3.713,0l-0,18.229l-2.409,0l0,-16.016l-4.687,12.5l-2.475,-0l-4.754,-12.5l-0,16.016l-2.342,0l-0,-18.229Z" style="fill:#00f;fill-rule:nonzero;"/><path d="M294.805,31.347l-0,2.604c-0.829,-0.784 -1.725,-1.367 -2.667,-1.759c-0.912,-0.391 -1.891,-0.587 -2.933,-0.587c-2.083,-0 -3.692,0.654 -4.817,1.954c-1.091,1.271 -1.625,3.092 -1.625,5.471c0,2.437 0.534,4.279 1.625,5.533c1.125,1.267 2.734,1.888 4.817,1.888c1.042,-0 2.021,-0.163 2.933,-0.521c0.942,-0.392 1.838,-0.979 2.667,-1.758l-0,2.537c-0.879,0.621 -1.788,1.075 -2.733,1.367c-0.963,0.262 -1.988,0.391 -3.059,0.391c-2.737,0 -4.916,-0.812 -6.512,-2.475c-1.563,-1.691 -2.342,-4.004 -2.342,-6.962c0,-2.9 0.779,-5.208 2.342,-6.904c1.596,-1.692 3.775,-2.538 6.512,-2.538c1.071,0 2.096,0.163 3.059,0.454c0.991,0.263 1.904,0.7 2.733,1.305Z" style="fill:#00f;fill-rule:nonzero;"/><path d="M306.005,31.605c-1.792,-0 -3.192,0.683 -4.233,2.021c-1.042,1.3 -1.563,3.108 -1.563,5.404c0,2.308 0.521,4.133 1.563,5.467c1.041,1.35 2.441,2.016 4.233,2.016c1.821,0 3.254,-0.666 4.296,-2.016c1.041,-1.334 1.562,-3.159 1.562,-5.467c0,-2.296 -0.521,-4.104 -1.562,-5.404c-1.042,-1.338 -2.475,-2.021 -4.296,-2.021Zm-0,-2.017c2.554,0 4.587,0.879 6.117,2.604c1.562,1.692 2.345,3.971 2.345,6.838c0,2.862 -0.783,5.175 -2.345,6.9c-1.53,1.692 -3.563,2.537 -6.117,2.537c-2.571,0 -4.608,-0.845 -6.121,-2.537c-1.529,-1.692 -2.279,-3.988 -2.279,-6.9c-0,-2.867 0.75,-5.146 2.279,-6.838c1.513,-1.725 3.55,-2.604 6.121,-2.604Z" style="fill:#00f;fill-rule:nonzero;"/><path d="M318.326,29.913l3.321,0l8.07,15.234l0,-15.234l2.409,0l-0,18.229l-3.321,0l-8.138,-15.233l0,15.233l-2.341,0l-0,-18.229Z" style="fill:#00f;fill-rule:nonzero;"/><path d="M334.488,29.913l15.429,0l0,2.084l-6.512,-0l-0,16.145l-2.471,0l0,-16.145l-6.446,-0l0,-2.084Z" style="fill:#00f;fill-rule:nonzero;"/><path d="M360.901,39.613c0.554,0.179 1.075,0.571 1.562,1.171c0.521,0.571 1.013,1.354 1.5,2.346l2.538,5.012l-2.667,0l-2.346,-4.687c-0.616,-1.204 -1.204,-2.017 -1.758,-2.408c-0.571,-0.392 -1.333,-0.588 -2.279,-0.588l-2.667,0l0,7.683l-2.475,0l0,-18.229l5.533,0c2.084,0 3.613,0.438 4.621,1.304c1.042,0.875 1.563,2.196 1.563,3.971c-0,1.138 -0.259,2.084 -0.779,2.863c-0.521,0.75 -1.305,1.271 -2.346,1.562Zm-6.117,-7.683l0,6.512l3.058,0c1.205,0 2.117,-0.275 2.734,-0.845c0.604,-0.555 0.912,-1.367 0.912,-2.409c0,-1.075 -0.308,-1.887 -0.912,-2.408c-0.617,-0.554 -1.529,-0.85 -2.734,-0.85l-3.058,-0Z" style="fill:#00f;fill-rule:nonzero;"/><path d="M377.034,31.605c-1.792,-0 -3.192,0.683 -4.233,2.021c-1.042,1.3 -1.563,3.108 -1.563,5.404c0,2.308 0.521,4.133 1.563,5.467c1.041,1.35 2.441,2.016 4.233,2.016c1.821,0 3.254,-0.666 4.296,-2.016c1.042,-1.334 1.562,-3.159 1.562,-5.467c0,-2.296 -0.52,-4.104 -1.562,-5.404c-1.042,-1.338 -2.475,-2.021 -4.296,-2.021Zm0,-2.017c2.554,0 4.588,0.879 6.117,2.604c1.562,1.692 2.346,3.971 2.346,6.838c-0,2.862 -0.784,5.175 -2.346,6.9c-1.529,1.692 -3.563,2.537 -6.117,2.537c-2.575,0 -4.608,-0.845 -6.121,-2.537c-1.529,-1.692 -2.279,-3.988 -2.279,-6.9c0,-2.867 0.75,-5.146 2.279,-6.838c1.513,-1.725 3.546,-2.604 6.121,-2.604Z" style="fill:#00f;fill-rule:nonzero;"/><path d="M389.355,29.913l2.471,0l-0,16.146l8.854,0l-0,2.083l-11.325,0l-0,-18.229Z" style="fill:#00f;fill-rule:nonzero;"/><path d="M456.084,29.913l2.475,0l0,11.067c0,1.954 0.342,3.371 1.042,4.233c0.733,0.879 1.904,1.3 3.516,1.3c1.563,0 2.684,-0.421 3.384,-1.3c0.733,-0.862 1.108,-2.279 1.108,-4.233l0,-11.067l2.475,0l0,11.392c0,2.396 -0.587,4.2 -1.758,5.404c-1.175,1.175 -2.917,1.758 -5.209,1.758c-2.312,0 -4.07,-0.583 -5.275,-1.758c-1.17,-1.204 -1.758,-3.008 -1.758,-5.404l0,-11.392Z" style="fill:#00f;fill-rule:nonzero;"/><path d="M485.642,30.501l0,2.408c-0.958,-0.425 -1.854,-0.75 -2.67,-0.979c-0.83,-0.208 -1.625,-0.325 -2.409,-0.325c-1.35,-0 -2.391,0.262 -3.125,0.783c-0.746,0.521 -1.104,1.267 -1.104,2.213c0,0.783 0.225,1.4 0.713,1.825c0.52,0.387 1.45,0.712 2.8,0.975l1.5,0.325c1.82,0.358 3.158,0.975 4.033,1.887c0.862,0.879 1.304,2.05 1.304,3.517c0,1.742 -0.587,3.058 -1.758,3.971c-1.171,0.912 -2.913,1.366 -5.209,1.366c-0.879,0 -1.808,-0.112 -2.8,-0.325c-0.958,-0.162 -1.954,-0.425 -2.995,-0.779l-0,-2.541c1.041,0.57 2.037,1.008 2.995,1.304c0.946,0.258 1.888,0.387 2.8,0.387c1.434,0 2.509,-0.275 3.255,-0.846c0.783,-0.554 1.175,-1.333 1.175,-2.341c-0,-0.913 -0.296,-1.596 -0.85,-2.084c-0.521,-0.52 -1.413,-0.912 -2.667,-1.17l-1.5,-0.33c-1.871,-0.341 -3.221,-0.908 -4.033,-1.691c-0.83,-0.779 -1.238,-1.854 -1.238,-3.254c0,-1.596 0.554,-2.867 1.692,-3.775c1.171,-0.946 2.75,-1.434 4.754,-1.434c0.812,0 1.658,0.096 2.537,0.259c0.913,0.133 1.842,0.358 2.8,0.654Z" style="fill:#00f;fill-rule:nonzero;"/><path d="M490.576,29.913l11.521,0l-0,2.084l-9.05,-0l-0,5.404l8.658,-0l-0,2.083l-8.658,0l-0,6.575l9.245,0l0,2.083l-11.716,0l-0,-18.229Z" style="fill:#00f;fill-rule:nonzero;"/><path d="M514.972,39.613c0.554,0.179 1.075,0.571 1.562,1.171c0.521,0.571 1.008,1.354 1.496,2.346l2.542,5.012l-2.671,0l-2.342,-4.687c-0.621,-1.204 -1.204,-2.017 -1.758,-2.408c-0.571,-0.392 -1.338,-0.588 -2.279,-0.588l-2.671,0l-0,7.683l-2.471,0l-0,-18.229l5.533,0c2.084,0 3.613,0.438 4.621,1.304c1.042,0.875 1.563,2.196 1.563,3.971c-0,1.138 -0.259,2.084 -0.78,2.863c-0.52,0.75 -1.304,1.271 -2.345,1.562Zm-6.121,-7.683l-0,6.512l3.062,0c1.204,0 2.113,-0.275 2.734,-0.845c0.6,-0.555 0.912,-1.367 0.912,-2.409c0,-1.075 -0.312,-1.887 -0.912,-2.408c-0.621,-0.554 -1.53,-0.85 -2.734,-0.85l-3.062,-0Z" style="fill:#00f;fill-rule:nonzero;"/><path d="M618.226,32.159l-3.321,9.117l6.708,-0l-3.387,-9.117Zm-1.367,-2.408l2.8,-0l6.967,18.229l-2.604,-0l-1.63,-4.688l-8.266,0l-1.629,4.688l-2.605,-0l6.967,-18.229Z" style="fill:#00f;fill-rule:nonzero;"/><path d="M628.951,29.751l2.475,-0l-0,11.066c-0,1.955 0.341,3.371 1.041,4.234c0.734,0.879 1.905,1.3 3.517,1.3c1.563,-0 2.688,-0.421 3.383,-1.3c0.734,-0.863 1.109,-2.279 1.109,-4.234l-0,-11.066l2.475,-0l-0,11.391c-0,2.396 -0.588,4.2 -1.759,5.405c-1.17,1.17 -2.912,1.758 -5.208,1.758c-2.312,-0 -4.071,-0.588 -5.275,-1.758c-1.171,-1.205 -1.758,-3.009 -1.758,-5.405l-0,-11.391Z" style="fill:#00f;fill-rule:nonzero;"/><path d="M646.659,29.751l2.671,-0l4.492,6.771l4.558,-6.771l2.671,-0l-5.863,8.725l6.25,9.504l-2.666,-0l-5.08,-7.746l-5.208,7.746l-2.671,-0l6.513,-9.7l-5.667,-8.529Z" style="fill:#00f;fill-rule:nonzero;"/></g></svg>