<?xml version="1.0" encoding="UTF-8" standalone="no"?><!DOCTYPE svg PUBLIC "-//W3C//DTD SVG 1.1//EN" "http://www.w3.org/Graphics/SVG/1.1/DTD/svg11.dtd"><svg width="100%" height="100%" viewBox="0 0 1053 909" version="1.1" xmlns="http://www.w3.org/2000/svg" xmlns:xlink="http://www.w3.org/1999/xlink" xml:space="preserve" xmlns:serif="http://www.serif.com/" style="fill-rule:evenodd;clip-rule:evenodd;stroke-linecap:round;"><g id="Top"><path d="M864.476,863.93c9.391,-0 18.408,-3.729 25.046,-10.388c6.658,-6.637 10.387,-15.654 10.387,-25.045" style="fill:none;fill-rule:nonzero;stroke:#000;stroke-width:3.13px;"/><path d="M226.68,863.93l637.796,-0" style="fill:none;fill-rule:nonzero;stroke:#000;stroke-width:3.13px;"/><path d="M899.909,828.497l0,-786.605" style="fill:none;fill-rule:nonzero;stroke:#000;stroke-width:3.13px;"/><path d="M392.03,260.088c10.629,0 10.629,-15.933 -0,-15.933c-10.629,-0 -10.629,15.933 -0,15.933Zm-0,0l-0,0" style="fill:none;fill-rule:nonzero;stroke:#000;stroke-width:3.13px;"/><path d="M392.03,257.905c7.7,-0.017 7.7,-11.554 -0,-11.571c-7.7,0.017 -7.7,11.554 -0,11.571Zm-0,-0l-0,-0" style="fill:none;fill-rule:nonzero;stroke:#000;stroke-width:3.13px;"/><path d="M321.163,260.088c10.629,0 10.629,-15.933 0,-15.933c-10.629,-0 -10.629,15.933 0,15.933Zm0,0l0,0" style="fill:none;fill-rule:nonzero;stroke:#000;stroke-width:3.13px;"/><path d="M321.163,257.905c7.7,-0.017 7.7,-11.554 0,-11.571c-7.7,0.017 -7.7,11.554 0,11.571Zm0,-0l0,-0" style="fill:none;fill-rule:nonzero;stroke:#000;stroke-width:3.13px;"/><path d="M516.051,679.392c10.629,0 10.629,-15.954 -0,-15.954c-10.625,0 -10.625,15.954 -0,15.954Zm-0,0l-0,0" style="fill:none;fill-rule:nonzero;stroke:#000;stroke-width:3.13px;"/><path d="M516.051,677.192c7.7,-0.016 7.7,-11.554 -0,-11.57c-7.696,0.016 -7.696,11.554 -0,11.57Zm-0,0l-0,0" style="fill:none;fill-rule:nonzero;stroke:#000;stroke-width:3.13px;"/><path d="M445.188,679.392c10.625,0 10.625,-15.954 0,-15.954c-10.629,0 -10.629,15.954 0,15.954Zm0,0l0,0" style="fill:none;fill-rule:nonzero;stroke:#000;stroke-width:3.13px;"/><path d="M445.188,677.192c7.696,-0.016 7.696,-11.554 0,-11.57c-7.7,0.016 -7.7,11.554 0,11.57Zm0,0l0,0" style="fill:none;fill-rule:nonzero;stroke:#000;stroke-width:3.13px;"/><path d="M374.322,679.392c10.629,0 10.629,-15.954 -0,-15.954c-10.63,0 -10.63,15.954 -0,15.954Zm-0,0l-0,0" style="fill:none;fill-rule:nonzero;stroke:#000;stroke-width:3.13px;"/><path d="M374.322,677.192c7.7,-0.016 7.7,-11.554 -0,-11.57c-7.7,0.016 -7.7,11.554 -0,11.57Zm-0,0l-0,0" style="fill:none;fill-rule:nonzero;stroke:#000;stroke-width:3.13px;"/><path d="M338.888,679.392c10.629,0 10.629,-15.954 0,-15.954c-10.629,0 -10.629,15.954 0,15.954Zm0,0l0,0" style="fill:none;fill-rule:nonzero;stroke:#000;stroke-width:3.13px;"/><path d="M338.888,677.192c7.7,-0.016 7.7,-11.554 0,-11.57c-7.7,0.016 -7.7,11.554 0,11.57Zm0,0l0,0" style="fill:none;fill-rule:nonzero;stroke:#000;stroke-width:3.13px;"/><path d="M409.755,679.392c10.629,0 10.629,-15.954 -0,-15.954c-10.629,0 -10.629,15.954 -0,15.954Zm-0,0l-0,0" style="fill:none;fill-rule:nonzero;stroke:#000;stroke-width:3.13px;"/><path d="M409.755,677.192c7.696,-0.016 7.696,-11.554 -0,-11.57c-7.7,0.016 -7.7,11.554 -0,11.57Zm-0,0l-0,0" style="fill:none;fill-rule:nonzero;stroke:#000;stroke-width:3.13px;"/><path d="M480.622,679.392c10.625,0 10.625,-15.954 -0,-15.954c-10.63,0 -10.63,15.954 -0,15.954Zm-0,0l-0,0" style="fill:none;fill-rule:nonzero;stroke:#000;stroke-width:3.13px;"/><path d="M480.622,677.192c7.695,-0.016 7.695,-11.554 -0,-11.57c-7.7,0.016 -7.7,11.554 -0,11.57Zm-0,0l-0,0" style="fill:none;fill-rule:nonzero;stroke:#000;stroke-width:3.13px;"/><path d="M285.73,260.088c10.629,0 10.629,-15.933 -0,-15.933c-10.629,-0 -10.629,15.933 -0,15.933Zm-0,0l-0,0" style="fill:none;fill-rule:nonzero;stroke:#000;stroke-width:3.13px;"/><path d="M285.73,257.905c7.7,-0.017 7.7,-11.554 -0,-11.571c-7.696,0.017 -7.696,11.554 -0,11.571Zm-0,-0l-0,-0" style="fill:none;fill-rule:nonzero;stroke:#000;stroke-width:3.13px;"/><path d="M356.597,260.088c10.629,0 10.629,-15.933 -0,-15.933c-10.63,-0 -10.63,15.933 -0,15.933Zm-0,0l-0,0" style="fill:none;fill-rule:nonzero;stroke:#000;stroke-width:3.13px;"/><path d="M356.597,257.905c7.7,-0.017 7.7,-11.554 -0,-11.571c-7.7,0.017 -7.7,11.554 -0,11.571Zm-0,-0l-0,-0" style="fill:none;fill-rule:nonzero;stroke:#000;stroke-width:3.13px;"/><path d="M427.463,260.088c10.629,0 10.629,-15.933 0,-15.933c-10.629,-0 -10.629,15.933 0,15.933Zm0,0l0,0" style="fill:none;fill-rule:nonzero;stroke:#000;stroke-width:3.13px;"/><path d="M427.463,257.905c7.696,-0.017 7.696,-11.554 0,-11.571c-7.7,0.017 -7.7,11.554 0,11.571Zm0,-0l0,-0" style="fill:none;fill-rule:nonzero;stroke:#000;stroke-width:3.13px;"/><path d="M896.359,41.892l0,786.605" style="fill:none;fill-rule:nonzero;stroke:#000;stroke-width:3.13px;"/><path d="M896.359,41.892c0,-8.466 -3.354,-16.57 -9.342,-22.558c-5.975,-5.975 -14.079,-9.346 -22.541,-9.346" style="fill:none;fill-rule:nonzero;stroke:#000;stroke-width:3.13px;"/><path d="M899.909,41.892c0,-9.408 -3.729,-18.425 -10.387,-25.066c-6.638,-6.642 -15.655,-10.367 -25.046,-10.367" style="fill:none;fill-rule:nonzero;stroke:#000;stroke-width:3.13px;"/><path d="M226.68,9.988l637.796,0" style="fill:none;fill-rule:nonzero;stroke:#000;stroke-width:3.13px;"/><path d="M864.476,6.442l-637.796,0" style="fill:none;fill-rule:nonzero;stroke:#000;stroke-width:3.13px;"/><path d="M226.68,9.988c-8.463,0 -16.567,3.371 -22.558,9.346c-5.971,5.988 -9.325,14.092 -9.325,22.558" style="fill:none;fill-rule:nonzero;stroke:#000;stroke-width:3.13px;"/><path d="M226.68,6.459c-9.392,0 -18.408,3.725 -25.046,10.367c-6.658,6.641 -10.387,15.658 -10.387,25.066" style="fill:none;fill-rule:nonzero;stroke:#000;stroke-width:3.13px;"/><path d="M194.797,828.497l-0,-786.605" style="fill:none;fill-rule:nonzero;stroke:#000;stroke-width:3.13px;"/><path d="M191.247,41.892l-0,786.605" style="fill:none;fill-rule:nonzero;stroke:#000;stroke-width:3.13px;"/><path d="M194.797,828.497c-0,8.462 3.354,16.566 9.325,22.558c5.991,5.971 14.095,9.325 22.558,9.325" style="fill:none;fill-rule:nonzero;stroke:#000;stroke-width:3.13px;"/><path d="M191.247,828.497c-0,9.391 3.729,18.408 10.387,25.045c6.638,6.659 15.654,10.388 25.046,10.388" style="fill:none;fill-rule:nonzero;stroke:#000;stroke-width:3.13px;"/><path d="M864.476,860.38l-637.796,-0" style="fill:none;fill-rule:nonzero;stroke:#000;stroke-width:3.13px;"/><path d="M864.476,860.38c8.462,-0 16.566,-3.354 22.541,-9.325c5.988,-5.992 9.342,-14.096 9.342,-22.558" style="fill:none;fill-rule:nonzero;stroke:#000;stroke-width:3.13px;"/><path d="M537.701,135.447l-0,15.166c-0.196,4.492 -1.109,8.529 -2.734,11.979c-1.37,2.996 -3.454,5.863 -6.445,8.138c-2.996,2.412 -7.034,3.712 -12.438,3.712c-5.404,0 -9.633,-1.3 -12.629,-3.712c-2.996,-2.275 -4.946,-5.142 -6.25,-8.138c-1.692,-3.45 -2.604,-7.487 -2.733,-11.979l-0,-64.971c0.129,-4.3 1.041,-8.4 2.733,-11.85c1.304,-2.995 3.254,-5.991 6.25,-8.204c2.996,-2.279 7.225,-3.775 12.629,-3.775c5.404,0 9.442,1.496 12.438,3.775c2.991,2.213 5.075,5.209 6.445,8.204c1.625,3.45 2.538,7.55 2.734,11.85l-0,15.167l-15.171,0l-0,-15.167c-0,-2.995 -0.779,-5.079 -2.408,-6.904c-0.78,-0.716 -2.084,-1.171 -3.775,-1.171c-2.8,0 -4.167,2.084 -4.95,4.038c-0.455,1.237 -0.584,2.537 -0.717,4.037l-0,64.971c0.133,3.125 1.042,5.275 2.542,6.904c0.779,0.78 1.82,1.234 3.125,1.234c3.45,-0 4.816,-1.821 5.6,-4.1c0.454,-1.042 0.583,-2.409 0.583,-4.038l-0,-15.166l15.171,-0Z" style="fill:#00f;fill-rule:nonzero;"/><path d="M543.822,188.897c0.129,0.129 0.454,0.129 0.908,0.129c0.717,0.129 4.492,0.454 6.904,-1.367c2.408,-1.758 4.033,-4.362 4.946,-7.487c0.454,-1.496 0.587,-2.996 0.587,-4.492l-13.933,-84.442l14.842,0l5.991,50.392l0.325,4.167l0.588,-0l0.258,-4.167l5.992,-50.392l14.908,0l-14.583,88.154c-0.717,5.859 -2.996,11.588 -6.575,15.95c-3.646,4.363 -8.4,7.355 -14.388,7.355l-1.825,-0c-1.366,-0 -3.125,-0.196 -4.945,-0.325l-0,-13.475Z" style="fill:#00f;fill-rule:nonzero;"/><path d="M609.072,173.272l-15.171,-0l-0,-82.034l15.171,0l-0,6.904c0.258,-0.195 0.908,-0.783 1.82,-1.695c1.63,-1.625 3.842,-3.905 6.575,-5.405c1.367,-0.712 2.542,-1.041 3.909,-1.041c4.037,-0 6.9,2.412 8.658,5.404c1.821,3.192 2.733,7.229 2.733,10.679l0,67.188l-15.166,-0l-0,-64.975c-0,-3.125 -1.759,-3.58 -3.584,-3.58c-1.625,0 -2.537,0.909 -3.579,1.95c-0.458,0.588 -0.912,1.175 -1.366,1.955l-0,64.65Z" style="fill:#00f;fill-rule:nonzero;"/><path d="M661.855,70.992l-0,20.246l10.35,0l-0,13.609l-10.35,-0l-0,40.82c-0,2.538 -0,5.859 0.583,8.53c0.654,2.733 1.825,4.945 4.234,4.945c1.17,0 2.67,-0.129 3.775,-0.258c0.587,-0.133 1.17,-0.133 1.758,-0.325l-0,14.842c-0.717,0.196 -1.496,0.454 -2.213,0.65c-1.5,0.262 -3.45,0.391 -5.858,0.391c-8.854,0 -13.087,-4.491 -15.171,-10.154c-2.083,-5.729 -2.212,-12.633 -2.212,-17.45l-0,-41.991l-7.684,-0l0,-13.609l7.684,0l-0,-20.246l15.104,0Z" style="fill:#00f;fill-rule:nonzero;"/><path d="M695.48,173.272l-15.171,-0l0,-110.221l15.171,-0l-0,35.091c0.262,-0.195 0.912,-0.783 1.821,-1.695c1.629,-1.625 3.841,-3.905 6.579,-5.405c1.367,-0.712 2.537,-1.041 3.904,-1.041c4.038,-0 6.9,2.412 8.658,5.404c1.825,3.192 2.734,7.229 2.734,10.679l-0,67.188l-15.167,-0l0,-64.975c0,-3.125 -1.758,-3.58 -3.583,-3.58c-1.625,0 -2.538,0.909 -3.579,1.95c-0.455,0.588 -0.913,1.175 -1.367,1.955l-0,64.65Z" style="fill:#00f;fill-rule:nonzero;"/><path d="M730.847,63.051l15.17,-0l0,15.104l-15.17,-0l-0,-15.104Zm-0,110.221l-0,-82.034l15.17,0l0,82.034l-15.17,-0Z" style="fill:#00f;fill-rule:nonzero;"/><path d="M795.205,153.351c-0.458,7.941 -2.867,13.475 -8.075,17.837c-2.733,2.213 -6.446,3.254 -11.392,3.254c-9.766,0 -14.583,-5.404 -16.991,-10.741c-1.305,-3.192 -2.217,-6.771 -2.413,-10.809l0,-41.275c0.458,-7.941 2.867,-13.804 8.142,-18.295c2.537,-2.28 6.312,-3.321 11.262,-3.321c9.7,-0 14.646,5.404 17.054,10.679c1.371,3.125 2.28,6.575 2.413,10.483l-0,42.188Zm-14.258,-41.734c0.195,-3.125 -0.459,-5.404 -1.955,-7.225c-0.716,-0.716 -1.954,-1.175 -3.254,-1.175c-2.866,0 -4.104,1.955 -4.687,4.234c-0.459,1.171 -0.588,2.537 -0.459,4.166l0,41.275c-0.129,3.125 0.655,5.405 1.955,7.034c0.783,0.716 1.825,1.171 3.191,1.171c2.8,-0 4.167,-1.759 4.75,-4.038c0.459,-1.171 0.654,-2.537 0.459,-4.167l-0,-41.275Z" style="fill:#00f;fill-rule:nonzero;"/><path d="M820.726,173.272l-15.171,-0l-0,-82.034l15.171,0l-0,6.904c0.258,-0.195 0.908,-0.783 1.821,-1.695c1.629,-1.625 3.841,-3.905 6.575,-5.405c1.366,-0.712 2.541,-1.041 3.908,-1.041c4.033,-0 6.9,2.412 8.658,5.404c1.821,3.192 2.734,7.229 2.734,10.679l-0,67.188l-15.171,-0l-0,-64.975c-0,-3.125 -1.754,-3.58 -3.579,-3.58c-1.63,0 -2.538,0.909 -3.58,1.95c-0.458,0.588 -0.912,1.175 -1.366,1.955l-0,64.65Z" style="fill:#00f;fill-rule:nonzero;"/><path d="M611.351,183.963l5.4,0c2.346,0 4.687,0.588 6.512,2.279c1.759,1.692 2.996,4.492 2.996,8.659c0,4.233 -1.237,6.966 -2.996,8.658c-1.825,1.696 -4.166,2.413 -6.512,2.413l-0,14.712l-5.4,0l-0,-36.721Zm5.4,16.538c1.629,-0 2.671,-0.325 3.258,-1.171c0.65,-0.783 0.779,-2.15 0.779,-4.167c0,-2.083 -0.129,-3.516 -0.779,-4.429c-0.587,-0.912 -1.629,-1.3 -3.258,-1.3l-0,11.067Z" style="fill:#00f;fill-rule:nonzero;"/><path d="M640.842,214.042c-0.195,2.671 -0.979,4.492 -2.737,5.925c-0.908,0.78 -2.146,1.105 -3.775,1.105c-3.254,-0 -4.883,-1.821 -5.663,-3.58c-0.458,-1.041 -0.716,-2.279 -0.783,-3.579l0,-13.804c0.133,-2.604 0.913,-4.554 2.671,-6.054c0.846,-0.779 2.15,-1.108 3.775,-1.108c3.254,-0 4.883,1.758 5.667,3.516c0.454,1.042 0.779,2.217 0.845,3.517l0,14.062Zm-4.754,-13.933c0.067,-1.042 -0.196,-1.758 -0.65,-2.408c-0.262,-0.196 -0.65,-0.392 -1.108,-0.392c-0.975,0 -1.367,0.654 -1.563,1.433c-0.129,0.392 -0.195,0.846 -0.129,1.367l0,13.804c-0.066,1.042 0.196,1.759 0.65,2.342c0.263,0.196 0.588,0.392 1.042,0.392c0.912,-0 1.367,-0.588 1.562,-1.367c0.196,-0.392 0.263,-0.846 0.196,-1.367l0,-13.804Z" style="fill:#00f;fill-rule:nonzero;"/><path d="M655.472,220.684l-1.95,-13.021l-0.263,-1.562l-0.196,-0l-0.258,1.562l-1.954,13.021l-4.167,0l-4.037,-27.346l4.558,0l1.629,14.325l0.196,1.496l0.325,0l0.196,-1.496l2.146,-14.325l2.995,0l2.084,14.325l0.258,1.496l0.263,0l0.258,-1.496l1.562,-14.325l4.625,0l-4.037,27.346l-4.233,0Z" style="fill:#00f;fill-rule:nonzero;"/><path d="M678.717,210.851l0,3.191c-0.133,2.671 -0.979,4.492 -2.737,5.925c-0.908,0.78 -2.146,1.105 -3.842,1.105c-3.254,-0 -4.879,-1.821 -5.662,-3.58c-0.454,-1.041 -0.779,-2.279 -0.779,-3.579l-0,-13.804c0.129,-2.604 0.975,-4.554 2.795,-6.054c0.85,-0.779 2.084,-1.108 3.713,-1.108c3.254,-0 4.883,1.758 5.729,3.516c0.454,1.042 0.717,2.217 0.783,3.517l0,7.942l-8.333,-0l0,5.991c0.063,1.042 0.325,1.759 0.779,2.342c0.263,0.196 0.588,0.392 1.042,0.392c0.975,-0 1.433,-0.588 1.629,-1.367c0.129,-0.392 0.196,-0.846 0.196,-1.367l-0,-3.062l4.687,-0Zm-8.333,-6.9l3.646,-0l-0,-3.842c-0,-1.042 -0.196,-1.758 -0.717,-2.408c-0.262,-0.196 -0.654,-0.392 -1.108,-0.392c-0.913,0 -1.367,0.654 -1.563,1.433c-0.195,0.392 -0.195,0.846 -0.258,1.367l0,3.842Z" style="fill:#00f;fill-rule:nonzero;"/><path d="M692.176,198.547c-0.454,-0.196 -0.975,-0.196 -1.434,-0.196c-0.779,-0 -1.758,0.066 -2.537,0.846c-0.913,0.783 -1.108,1.629 -1.108,2.475l-0,19.012l-5.013,0l0,-27.346l5.013,0l-0,3.063c0.066,-0.392 0.391,-1.238 1.237,-2.021c0.783,-0.717 1.954,-1.433 3.842,-1.433l-0,5.6Z" style="fill:#00f;fill-rule:nonzero;"/><path d="M706.826,210.851l-0,3.191c-0.134,2.671 -0.979,4.492 -2.738,5.925c-0.908,0.78 -2.146,1.105 -3.837,1.105c-3.259,-0 -4.884,-1.821 -5.667,-3.58c-0.454,-1.041 -0.779,-2.279 -0.779,-3.579l-0,-13.804c0.129,-2.604 0.975,-4.554 2.8,-6.054c0.846,-0.779 2.083,-1.108 3.708,-1.108c3.254,-0 4.884,1.758 5.729,3.516c0.459,1.042 0.717,2.217 0.784,3.517l-0,7.942l-8.334,-0l0,5.991c0.063,1.042 0.325,1.759 0.78,2.342c0.262,0.196 0.587,0.392 1.041,0.392c0.979,-0 1.434,-0.588 1.629,-1.367c0.13,-0.392 0.196,-0.846 0.196,-1.367l0,-3.062l4.688,-0Zm-8.334,-6.9l3.646,-0l0,-3.842c0,-1.042 -0.196,-1.758 -0.716,-2.408c-0.263,-0.196 -0.65,-0.392 -1.109,-0.392c-0.912,0 -1.366,0.654 -1.562,1.433c-0.196,0.392 -0.196,0.846 -0.259,1.367l0,3.842Z" style="fill:#00f;fill-rule:nonzero;"/><path d="M723.051,220.684l-5.079,0l-0,-1.825c-0.846,0.846 -1.625,1.433 -2.538,1.888c-0.521,0.262 -1.042,0.325 -1.433,0.325c-1.429,-0 -2.409,-0.78 -2.992,-1.821c-0.654,-1.042 -0.912,-2.346 -0.912,-3.517l-0,-17.446c-0,-1.175 0.258,-2.475 0.912,-3.583c0.583,-0.975 1.563,-1.758 2.992,-1.758c0.912,-0 1.954,0.525 2.671,1.108c0.454,0.325 0.845,0.65 1.3,1.108l-0,-11.2l5.079,0l-0,36.721Zm-5.079,-21.354c-0,-0.783 -0.78,-1.629 -1.496,-1.629c-0.779,-0 -1.367,0.65 -1.367,1.629l0,15.362c0,0.913 0.588,1.63 1.367,1.63c0.716,-0 1.496,-0.717 1.496,-1.63l-0,-15.362Z" style="fill:#00f;fill-rule:nonzero;"/><path d="M734.738,183.963l5.013,0l-0,11.2c0.846,-0.846 1.629,-1.433 2.604,-1.887c0.454,-0.263 0.975,-0.329 1.433,-0.329c1.367,-0 2.342,0.783 2.996,1.758c0.583,1.108 0.908,2.408 0.908,3.583l0,17.446c0,1.171 -0.325,2.475 -0.908,3.517c-0.654,1.041 -1.629,1.821 -2.996,1.821c-0.979,-0 -1.954,-0.517 -2.737,-1.105c-0.454,-0.325 -0.846,-0.716 -1.3,-1.108l-0,1.825l-5.013,0l0,-36.721Zm5.013,30.729c-0,0.913 0.783,1.63 1.496,1.63c0.783,-0 1.37,-0.717 1.37,-1.63l0,-15.362c0,-0.979 -0.587,-1.629 -1.37,-1.629c-0.713,-0 -1.496,0.846 -1.496,1.629l-0,15.362Z" style="fill:#00f;fill-rule:nonzero;"/><path d="M750.251,225.892c0.062,0.063 0.191,0.063 0.325,0.063c0.258,-0 1.496,0.133 2.279,-0.454c0.846,-0.588 1.367,-1.496 1.692,-2.538c0.129,-0.458 0.195,-0.962 0.195,-1.483l-4.687,-28.125l4.946,-0l2.021,16.783l0.129,1.367l0.196,-0l0.062,-1.367l2.021,-16.783l4.946,-0l-4.884,29.362c-0.195,1.938 -0.975,3.892 -2.145,5.321c-1.238,1.45 -2.8,2.492 -4.821,2.492l-0.584,-0c-0.458,-0 -1.041,-0.083 -1.691,-0.146l-0,-4.492Z" style="fill:#00f;fill-rule:nonzero;"/><path d="M774.697,183.963l5.404,0l-0,31.709l7.096,-0l-0,5.012l-12.5,0l-0,-36.721Z" style="fill:#00f;fill-rule:nonzero;"/><path d="M803.763,183.963l0,29.167c-0.062,1.5 -0.325,2.867 -0.908,3.971c-0.458,1.041 -1.108,1.954 -2.15,2.737c-0.975,0.779 -2.346,1.234 -4.1,1.234c-1.825,-0 -3.258,-0.455 -4.233,-1.234c-0.975,-0.783 -1.63,-1.696 -2.084,-2.737c-0.587,-1.104 -0.846,-2.471 -0.912,-3.971l-0,-29.167l5.404,0l-0,29.167c-0,1.042 0.262,1.758 0.717,2.279c0.258,0.263 0.65,0.454 1.108,0.454c0.908,0 1.367,-0.65 1.562,-1.366c0.13,-0.388 0.192,-0.846 0.192,-1.367l0,-29.167l5.404,0Z" style="fill:#00f;fill-rule:nonzero;"/><path d="M813.401,201.542l-0.459,-1.691l-0.258,-0l0,20.833l-4.95,0l0,-36.721l4.754,0l5.275,19.142l0.454,1.692l0.325,-0l0,-20.834l4.95,0l0,36.721l-4.82,0l-5.271,-19.142Z" style="fill:#00f;fill-rule:nonzero;"/><path d="M825.997,220.684l5.533,-36.721l6.575,0l5.6,36.721l-5.271,0l-0.979,-7.487l-5.208,-0l-1.042,7.487l-5.208,0Zm9.116,-24.804l-0.133,-0.979l-0.325,-0l-0.129,0.979l-1.563,11.587l3.713,0l-1.563,-11.587Z" style="fill:#00f;fill-rule:nonzero;"/><path d="M839.409,72.813l10.288,0l-0,1.434l-4.3,-0l-0,10.741l-1.625,0l-0,-10.741l-4.363,-0l0,-1.434Z" style="fill:#00f;fill-rule:nonzero;"/><path d="M851.276,72.813l2.471,0l3.062,8.271l3.125,-8.271l2.475,0l0,12.175l-1.629,0l-0,-10.675l-3.125,8.334l-1.629,-0l-3.125,-8.334l-0,10.675l-1.625,0l-0,-12.175Z" style="fill:#00f;fill-rule:nonzero;"/><path d="M844.259,761.634l10.288,0l-0,1.433l-4.296,0l-0,10.742l-1.629,0l-0,-10.742l-4.363,0l0,-1.433Z" style="fill:#00f;fill-rule:nonzero;"/><path d="M856.142,761.634l2.471,0l3.063,8.267l3.125,-8.267l2.471,0l-0,12.175l-1.625,0l-0,-10.679l-3.125,8.333l-1.63,0l-3.125,-8.333l0,10.679l-1.625,0l0,-12.175Z" style="fill:#00f;fill-rule:nonzero;"/><path d="M707.705,701.134l1.104,-0.096l2.946,0.488l4.104,1.725l0,2.866l-4.104,1.709l-2.946,0.487l-1.104,-0.083l-0.588,4.412l1.092,0.213l2.733,1.221l3.517,2.716l-0.75,2.784l-4.412,0.587l-2.963,-0.296l-1.054,-0.37l-1.713,4.133l1.013,0.471l2.308,1.887l2.704,3.534l-1.45,2.491l-4.395,-0.554l-2.796,-1.058l-0.913,-0.638l-2.721,3.55l0.85,0.717l1.742,2.425l1.675,4.1l-2.021,2.037l-4.116,-1.679l-2.425,-1.741l-0.717,-0.846l-3.546,2.716l0.633,0.913l1.059,2.783l0.554,4.413l-2.492,1.433l-3.533,-2.687l-1.888,-2.313l-0.47,-1.008l-4.134,1.708l0.375,1.058l0.309,2.963l-0.605,4.412l-2.783,0.73l-2.717,-3.513l-1.22,-2.721l-0.196,-1.087l-4.425,0.583l0.079,1.108l-0.471,2.946l-1.725,4.1l-2.867,0l-1.725,-4.1l-0.47,-2.946l0.083,-1.108l-4.429,-0.583l-0.196,1.087l-1.238,2.721l-2.716,3.513l-2.767,-0.73l-0.604,-4.412l0.296,-2.963l0.375,-1.058l-4.121,-1.708l-0.471,1.008l-1.904,2.313l-3.533,2.687l-2.488,-1.433l0.567,-4.413l1.058,-2.783l0.638,-0.913l-3.55,-2.716l-0.717,0.846l-2.425,1.741l-4.117,1.679l-2.033,-2.037l1.692,-4.1l1.741,-2.425l0.846,-0.717l-2.717,-3.55l-0.912,0.638l-2.8,1.058l-4.413,0.554l-1.429,-2.491l2.7,-3.534l2.313,-1.887l0.991,-0.471l-1.708,-4.133l-1.042,0.37l-2.979,0.296l-4.396,-0.587l-0.745,-2.784l3.512,-2.716l2.738,-1.221l1.087,-0.213l-0.583,-4.412l-1.109,0.083l-2.945,-0.487l-4.1,-1.709l-0,-2.866l4.1,-1.725l2.945,-0.488l1.109,0.096l0.583,-4.425l-1.087,-0.196l-2.738,-1.237l-3.512,-2.717l0.745,-2.767l4.396,-0.604l2.979,0.292l1.042,0.375l1.708,-4.117l-0.991,-0.471l-2.313,-1.904l-2.7,-3.533l1.429,-2.492l4.413,0.571l2.8,1.058l0.912,0.634l2.717,-3.546l-0.846,-0.717l-1.741,-2.425l-1.692,-4.116l2.033,-2.038l4.117,1.696l2.425,1.742l0.717,0.845l3.55,-2.72l-0.638,-0.909l-1.058,-2.8l-0.567,-4.412l2.488,-1.434l3.533,2.705l1.904,2.308l0.471,0.996l4.121,-1.709l-0.375,-1.041l-0.296,-2.979l0.604,-4.396l2.767,-0.75l2.716,3.516l1.238,2.721l0.196,1.088l4.429,-0.571l-0.083,-1.104l0.47,-2.946l1.725,-4.104l2.867,-0l1.725,4.104l0.471,2.946l-0.079,1.104l4.425,0.571l0.196,-1.088l1.22,-2.721l2.717,-3.516l2.783,0.75l0.605,4.396l-0.309,2.979l-0.375,1.041l4.134,1.709l0.47,-0.996l1.888,-2.308l3.533,-2.705l2.492,1.434l-0.554,4.412l-1.059,2.8l-0.633,0.909l3.546,2.72l0.717,-0.845l2.425,-1.742l4.116,-1.696l2.021,2.038l-1.675,4.116l-1.742,2.425l-9.866,9.946l-27.471,-7.487l-22.054,24.82l24.866,29.134l17.025,-12.729l-13.654,-9.23l2.717,-8.345l37.975,-0.313Z" style="fill:#00f;fill-rule:nonzero;"/><path d="M547.155,764.742l-1.104,-0.095l-2.946,0.487l-4.104,1.708l-0,2.88l4.104,1.708l2.946,0.492l1.104,-0.1l0.587,4.429l-1.091,0.208l-2.717,1.221l-3.517,2.721l0.734,2.783l4.412,0.583l2.975,-0.291l1.042,-0.375l1.712,4.121l-1.012,0.487l-2.308,1.888l-2.688,3.529l1.433,2.491l4.409,-0.57l2.783,-1.059l0.929,-0.616l2.717,3.533l-0.846,0.717l-1.758,2.441l-1.675,4.1l2.033,2.034l4.104,-1.692l2.425,-1.742l0.734,-0.846l3.529,2.717l-0.634,0.913l-1.041,2.8l-0.571,4.408l2.492,1.433l3.529,-2.683l1.891,-2.313l0.471,-1.008l4.134,1.708l-0.375,1.042l-0.292,2.979l0.587,4.392l2.784,0.75l2.716,-3.517l1.221,-2.716l0.213,-1.092l4.408,0.587l-0.079,1.109l0.487,2.946l1.709,4.1l2.879,-0l1.712,-4.1l0.488,-2.946l-0.1,-1.109l4.429,-0.587l0.196,1.092l1.237,2.716l2.717,3.517l2.767,-0.75l0.6,-4.392l-0.292,-2.979l-0.375,-1.042l4.121,-1.708l0.471,1.008l1.904,2.313l3.533,2.683l2.488,-1.433l-0.567,-4.408l-1.058,-2.8l-0.621,-0.913l3.533,-2.717l0.717,0.846l2.425,1.742l4.117,1.692l2.033,-2.034l-1.692,-4.1l-1.741,-2.441l-0.846,-0.717l2.716,-3.533l0.913,0.616l2.8,1.059l4.412,0.57l1.43,-2.491l-2.684,-3.529l-2.312,-1.888l-1.009,-0.487l1.709,-4.121l1.041,0.375l2.98,0.291l4.395,-0.583l0.746,-2.783l-3.512,-2.721l-2.721,-1.221l-1.092,-0.208l0.571,-4.429l1.108,0.1l2.963,-0.492l4.083,-1.708l0,-2.88l-4.083,-1.708l-2.963,-0.487l-1.108,0.095l-0.571,-4.429l1.092,-0.208l2.721,-1.221l3.512,-2.721l-0.746,-2.783l-4.395,-0.583l-2.98,0.291l-1.041,0.375l-1.709,-4.116l1.009,-0.492l2.312,-1.888l2.684,-3.529l-1.43,-2.491l-4.412,0.57l-2.8,1.059l-0.913,0.616l-2.716,-3.533l0.846,-0.712l1.741,-2.442l1.692,-4.104l-2.033,-2.034l-4.117,1.692l-2.425,1.742l-0.717,0.846l-3.533,-2.717l0.621,-0.913l1.058,-2.8l0.567,-4.408l-2.488,-1.433l-3.533,2.687l-1.904,2.309l-0.471,1.008l-4.121,-1.708l0.375,-1.042l0.292,-2.979l-0.6,-4.392l-2.767,-0.75l-2.717,3.517l-1.237,2.716l-0.196,1.092l-4.429,-0.587l0.1,-1.105l-0.488,-2.945l-1.712,-4.105l-2.879,0l-1.709,4.105l-0.487,2.945l0.079,1.105l-4.408,0.587l-0.213,-1.092l-1.221,-2.716l-2.716,-3.517l-2.784,0.75l-0.587,4.392l0.292,2.979l0.375,1.042l-4.134,1.708l-0.471,-1.008l-1.891,-2.309l-3.529,-2.687l-2.492,1.433l0.571,4.408l1.041,2.8l0.634,0.913l-3.529,2.717l-0.734,-0.846l-2.425,-1.742l-4.104,-1.692l-2.033,2.034l1.675,4.104l1.758,2.442l9.85,9.941l27.471,-7.487l22.054,24.821l-24.867,29.137l-17.025,-12.729l13.671,-9.229l-2.716,-8.367l-37.992,-0.292Z" style="fill:#00f;fill-rule:nonzero;"/><path d="M742.909,673.776l0,-7.554c0,-1.3 -0.262,-2.275 -0.912,-3.059c-0.325,-0.325 -0.913,-0.521 -1.496,-0.521c-1.238,0 -1.825,0.913 -2.15,1.759c-0.196,0.587 -0.259,1.171 -0.259,1.821l0,29.495c0,1.367 0.388,2.275 1.042,3.059c0.325,0.325 0.779,0.521 1.367,0.521c1.3,-0 1.887,-0.784 2.146,-1.825c0.195,-0.455 0.262,-1.042 0.262,-1.755l0,-8.92l-2.867,-0l0,-6.055l10.092,0l0,24.413l-4.296,-0l-0.846,-2.342c-1.366,1.692 -3.254,2.863 -5.6,2.863c-2.341,-0 -3.97,-0.584 -5.141,-1.625c-1.175,-1.042 -2.021,-2.279 -2.542,-3.646c-0.583,-1.5 -0.846,-3.321 -0.779,-5.342l-0,-28.841c0.062,-1.95 0.454,-3.709 1.171,-5.271c0.587,-1.304 1.496,-2.671 2.8,-3.646c1.366,-1.042 3.191,-1.692 5.6,-1.692c2.408,0 4.229,0.65 5.533,1.692c1.367,0.975 2.279,2.342 2.863,3.646c0.783,1.562 1.175,3.321 1.237,5.271l0,7.554l-7.225,-0Z" style="fill:#00f;fill-rule:nonzero;"/><path d="M768.284,705.155l-3.779,-20.638l-1.888,0l0,20.638l-7.225,-0l0,-49.021l7.225,0c8.596,0 12.242,4.879 12.242,14.125c0,4.883 -1.237,9.313 -3.971,11.133l4.554,23.763l-7.158,-0Zm-5.667,-27.342c0.98,0 2.28,-0.133 3.388,-1.041c1.042,-0.98 1.887,-2.738 1.887,-6.188c0,-3.512 -0.845,-5.337 -1.887,-6.312c-1.108,-0.913 -2.408,-0.98 -3.388,-0.98l0,14.521Z" style="fill:#00f;fill-rule:nonzero;"/><path d="M779.447,656.134l16.47,0l0,7.421l-9.241,-0l-0,12.892l6.637,-0l0,7.812l-6.637,0l-0,13.475l9.241,0l0,7.421l-16.47,-0l-0,-49.021Z" style="fill:#00f;fill-rule:nonzero;"/><path d="M798.034,705.155l7.425,-49.021l8.788,0l7.42,49.021l-7.029,-0l-1.304,-10.025l-6.967,-0l-1.3,10.025l-7.033,-0Zm12.242,-33.071l-0.196,-1.237l-0.454,-0l-0.196,1.237l-2.021,15.492l4.883,-0l-2.016,-15.492Z" style="fill:#00f;fill-rule:nonzero;"/><path d="M820.984,663.555l0,-7.421l20.833,0l0,7.421l-6.837,-0l-0,41.6l-7.225,-0l-0,-41.6l-6.771,-0Z" style="fill:#00f;fill-rule:nonzero;"/><path d="M744.909,727.455c0,-1.563 -0.062,-3.388 -0.521,-4.817c-0.454,-1.304 -1.171,-2.216 -2.341,-2.216c-1.825,0.066 -2.475,1.954 -2.475,4.816c-0,1.696 0.783,3.454 1.825,5.275c1.041,1.888 2.47,3.842 3.837,5.859c1.696,2.475 3.388,5.016 4.625,7.487c1.238,2.475 2.146,5.013 2.146,7.683c-0,3.255 -0.521,6.317 -2.083,8.596c-1.496,2.275 -3.971,3.709 -7.942,3.709c-4.558,-0 -7.163,-1.692 -8.658,-4.363c-1.434,-2.667 -1.821,-6.25 -1.821,-9.896l7.096,-0.65c-0,2.084 0.062,4.1 0.583,5.663c0.458,1.562 1.304,2.671 2.8,2.671c2.15,-0 2.929,-2.28 2.929,-5.405c0,-1.629 -0.779,-3.45 -1.821,-5.404c-0.65,-0.908 -1.237,-1.95 -1.887,-2.929c-1.434,-2.017 -2.929,-4.296 -4.559,-6.771c-1.562,-2.408 -2.8,-4.946 -3.516,-7.55c-0.392,-1.304 -0.584,-2.604 -0.584,-3.975c0,-2.666 0.584,-5.533 2.146,-7.679c1.5,-2.15 3.842,-3.712 7.229,-3.779c4.359,-0.063 6.9,1.758 8.267,4.362c1.433,2.671 1.821,5.925 1.821,8.663l-7.096,0.65Z" style="fill:#00f;fill-rule:nonzero;"/><path d="M774.613,746.53l0,6.704c-0.062,2.021 -0.454,3.842 -1.237,5.338c-0.584,1.37 -1.496,2.608 -2.863,3.65c-1.304,1.041 -3.125,1.625 -5.533,1.625c-2.408,-0 -4.233,-0.584 -5.6,-1.625c-1.304,-1.042 -2.213,-2.28 -2.8,-3.65c-0.717,-1.496 -1.108,-3.317 -1.171,-5.338l0,-28.842c0.063,-1.95 0.454,-3.708 1.171,-5.27c0.587,-1.305 1.496,-2.671 2.8,-3.646c1.367,-1.042 3.192,-1.696 5.6,-1.696c2.408,-0 4.229,0.654 5.533,1.696c1.367,0.975 2.279,2.341 2.863,3.646c0.783,1.562 1.175,3.32 1.237,5.27l0,6.709l-6.771,-0l0,-6.709c0,-1.3 -0.325,-2.279 -1.041,-3.058c-0.325,-0.325 -0.913,-0.521 -1.692,-0.521c-1.237,0 -1.825,0.913 -2.15,1.759c-0.258,0.583 -0.325,1.17 -0.387,1.82l-0,28.842c0.062,1.433 0.52,2.346 1.17,3.063c0.325,0.387 0.78,0.583 1.367,0.583c1.563,-0 2.15,-0.846 2.475,-1.821c0.196,-0.458 0.258,-1.042 0.258,-1.825l0,-6.704l6.771,-0Z" style="fill:#00f;fill-rule:nonzero;"/><path d="M797.692,753.234c-0.062,2.021 -0.454,3.842 -1.237,5.338c-0.583,1.37 -1.496,2.608 -2.863,3.65c-1.304,1.041 -3.125,1.625 -5.533,1.625c-2.408,-0 -4.233,-0.584 -5.6,-1.625c-1.3,-1.042 -2.212,-2.28 -2.8,-3.65c-0.717,-1.496 -1.108,-3.317 -1.171,-5.338l0,-28.842c0.063,-1.95 0.454,-3.708 1.171,-5.27c0.588,-1.305 1.5,-2.671 2.8,-3.646c1.367,-1.042 3.192,-1.696 5.6,-1.696c2.408,-0 4.229,0.654 5.533,1.696c1.367,0.975 2.28,2.341 2.863,3.646c0.783,1.562 1.175,3.32 1.237,5.27l0,28.842Zm-7.225,-28.842c0,-1.3 -0.262,-2.279 -0.912,-3.058c-0.325,-0.325 -0.913,-0.521 -1.496,-0.521c-1.237,0 -1.825,0.913 -2.15,1.759c-0.196,0.583 -0.258,1.17 -0.258,1.82l-0,28.842c-0,1.433 0.387,2.346 1.041,3.063c0.325,0.387 0.78,0.583 1.367,0.583c1.3,-0 1.888,-0.846 2.146,-1.821c0.196,-0.458 0.262,-1.042 0.262,-1.825l0,-28.842Z" style="fill:#00f;fill-rule:nonzero;"/><path d="M799.338,721.726l0,-7.421l20.834,-0l-0,7.421l-6.838,-0l0,41.6l-7.225,-0l0,-41.6l-6.771,-0Z" style="fill:#00f;fill-rule:nonzero;"/><path d="M820.934,721.726l0,-7.421l20.833,-0l0,7.421l-6.833,-0l0,41.6l-7.229,-0l-0,-41.6l-6.771,-0Z" style="fill:#00f;fill-rule:nonzero;"/><path d="M694.942,788.438l0,-7.55c0,-1.304 -0.258,-2.279 -0.912,-3.058c-0.325,-0.329 -0.908,-0.521 -1.496,-0.521c-1.237,0 -1.825,0.908 -2.15,1.754c-0.196,0.588 -0.258,1.175 -0.258,1.825l-0,29.492c-0,1.367 0.391,2.279 1.041,3.058c0.325,0.329 0.78,0.521 1.367,0.521c1.3,0 1.888,-0.779 2.15,-1.821c0.192,-0.454 0.258,-1.041 0.258,-1.758l0,-8.921l-2.862,0l-0,-6.054l10.087,-0l0,24.417l-4.295,-0l-0.846,-2.346c-1.367,1.691 -3.254,2.866 -5.6,2.866c-2.342,0 -3.971,-0.587 -5.142,-1.629c-1.171,-1.041 -2.017,-2.279 -2.537,-3.646c-0.588,-1.495 -0.85,-3.32 -0.784,-5.337l0,-28.842c0.067,-1.954 0.454,-3.712 1.171,-5.275c0.588,-1.3 1.5,-2.666 2.8,-3.646c1.367,-1.041 3.192,-1.691 5.6,-1.691c2.408,-0 4.233,0.65 5.533,1.691c1.367,0.98 2.28,2.346 2.867,3.646c0.779,1.563 1.171,3.321 1.233,5.275l0,7.55l-7.225,0Z" style="fill:#00f;fill-rule:nonzero;"/><path d="M705.409,819.822l7.421,-49.025l8.787,-0l7.425,49.025l-7.033,-0l-1.3,-10.03l-6.967,0l-1.304,10.03l-7.029,-0Zm12.238,-33.075l-0.196,-1.238l-0.454,0l-0.196,1.238l-2.017,15.495l4.883,0l-2.02,-15.495Z" style="fill:#00f;fill-rule:nonzero;"/><path d="M732.363,819.822l0,-49.025l5.663,-0c6.641,-0 10.287,1.366 12.175,5.079c1.887,3.775 2.146,9.896 2.146,19.466c-0,9.634 -0.259,15.688 -2.146,19.4c-1.888,3.775 -5.534,5.08 -12.175,5.08l-5.663,-0Zm7.225,-7.23c2.409,0 3.842,-0.258 4.559,-2.666c0.325,-1.109 0.583,-2.867 0.65,-5.146c0.066,-2.342 0.066,-5.467 0.066,-9.504c0,-3.971 0,-7.096 -0.066,-9.442c-0.067,-2.275 -0.325,-4.033 -0.65,-5.208c-0.717,-2.342 -2.15,-2.604 -4.559,-2.604l0,34.57Z" style="fill:#00f;fill-rule:nonzero;"/><path d="M768.672,788.438l-0,-7.55c-0,-1.304 -0.259,-2.279 -0.909,-3.058c-0.325,-0.329 -0.912,-0.521 -1.5,-0.521c-1.237,0 -1.821,0.908 -2.146,1.754c-0.195,0.588 -0.262,1.175 -0.262,1.825l-0,29.492c-0,1.367 0.392,2.279 1.042,3.058c0.325,0.329 0.783,0.521 1.366,0.521c1.304,0 1.888,-0.779 2.15,-1.821c0.196,-0.454 0.259,-1.041 0.259,-1.758l-0,-8.921l-2.863,0l0,-6.054l10.092,-0l-0,24.417l-4.296,-0l-0.85,-2.346c-1.367,1.691 -3.254,2.866 -5.596,2.866c-2.346,0 -3.971,-0.587 -5.146,-1.629c-1.171,-1.041 -2.016,-2.279 -2.537,-3.646c-0.588,-1.495 -0.846,-3.32 -0.784,-5.337l0,-28.842c0.067,-1.954 0.459,-3.712 1.175,-5.275c0.584,-1.3 1.496,-2.666 2.8,-3.646c1.367,-1.041 3.188,-1.691 5.596,-1.691c2.409,-0 4.234,0.65 5.534,1.691c1.37,0.98 2.279,2.346 2.866,3.646c0.779,1.563 1.171,3.321 1.238,5.275l-0,7.55l-7.229,0Z" style="fill:#00f;fill-rule:nonzero;"/><path d="M781.159,770.797l16.471,-0l-0,7.42l-9.246,0l0,12.892l6.642,0l-0,7.813l-6.642,-0l0,13.475l9.246,-0l-0,7.425l-16.471,-0l0,-49.025Z" style="fill:#00f;fill-rule:nonzero;"/><path d="M799.076,778.217l-0,-7.42l20.833,-0l0,7.42l-6.833,0l-0,41.605l-7.229,-0l-0,-41.605l-6.771,0Z" style="fill:#00f;fill-rule:nonzero;"/><path d="M834.609,783.947c0,-1.563 -0.067,-3.384 -0.521,-4.817c-0.458,-1.3 -1.175,-2.213 -2.346,-2.213c-1.82,0.063 -2.475,1.955 -2.475,4.817c0,1.692 0.784,3.45 1.825,5.275c1.042,1.888 2.475,3.842 3.842,5.858c1.692,2.475 3.383,5.013 4.621,7.488c1.237,2.475 2.15,5.012 2.15,7.683c-0,3.254 -0.521,6.313 -2.083,8.592c-1.5,2.279 -3.971,3.712 -7.946,3.712c-4.554,0 -7.159,-1.695 -8.659,-4.362c-1.429,-2.671 -1.82,-6.25 -1.82,-9.896l7.095,-0.65c0,2.083 0.067,4.1 0.588,5.663c0.454,1.562 1.3,2.67 2.796,2.67c2.15,0 2.933,-2.279 2.933,-5.404c0,-1.629 -0.783,-3.45 -1.825,-5.404c-0.65,-0.912 -1.237,-1.954 -1.887,-2.929c-1.434,-2.021 -2.93,-4.3 -4.559,-6.771c-1.562,-2.408 -2.8,-4.95 -3.512,-7.554c-0.392,-1.3 -0.588,-2.604 -0.588,-3.971c0,-2.671 0.588,-5.533 2.146,-7.683c1.5,-2.146 3.842,-3.709 7.229,-3.775c4.363,-0.067 6.9,1.758 8.267,4.362c1.433,2.671 1.825,5.925 1.825,8.659l-7.096,0.65Z" style="fill:#00f;fill-rule:nonzero;"/><path d="M285.697,278.038l-3.321,9.117l6.708,-0l-3.387,-9.117Zm-1.367,-2.425l2.8,0l6.967,18.229l-2.605,0l-1.629,-4.687l-8.266,-0l-1.63,4.687l-2.604,0l6.967,-18.229Z" style="fill:#00f;fill-rule:nonzero;"/><path d="M317.192,285.138l0,6.704l3.905,0c1.337,0 2.312,-0.262 2.933,-0.783c0.65,-0.55 0.975,-1.429 0.975,-2.604c-0,-1.138 -0.325,-1.95 -0.975,-2.471c-0.621,-0.554 -1.596,-0.846 -2.933,-0.846l-3.905,0Zm0,-7.487l0,5.533l3.646,0c1.171,0 2.05,-0.212 2.671,-0.654c0.6,-0.488 0.908,-1.188 0.908,-2.146c0,-0.929 -0.308,-1.579 -0.908,-2.021c-0.621,-0.487 -1.5,-0.712 -2.671,-0.712l-3.646,-0Zm-2.475,-2.038l6.25,0c1.905,0 3.355,0.409 4.363,1.192c1.042,0.779 1.562,1.887 1.562,3.317c0,1.141 -0.258,2.02 -0.779,2.654c-0.521,0.65 -1.304,1.091 -2.346,1.254c1.205,0.258 2.15,0.796 2.8,1.625c0.684,0.833 1.042,1.875 1.042,3.125c0,1.596 -0.571,2.867 -1.692,3.779c-1.091,0.879 -2.654,1.283 -4.687,1.283l-6.513,0l0,-18.229Z" style="fill:#00f;fill-rule:nonzero;"/><path d="M363.922,277.047l-0,2.604c-0.83,-0.779 -1.725,-1.367 -2.671,-1.759c-0.913,-0.375 -1.888,-0.583 -2.929,-0.583c-2.084,0 -3.696,0.65 -4.817,1.95c-1.092,1.271 -1.629,3.096 -1.629,5.471c-0,2.442 0.537,4.279 1.629,5.533c1.121,1.271 2.733,1.888 4.817,1.888c1.041,-0 2.016,-0.163 2.929,-0.521c0.946,-0.392 1.841,-0.975 2.671,-1.758l-0,2.541c-0.88,0.617 -1.792,1.088 -2.734,1.367c-0.962,0.258 -1.987,0.404 -3.062,0.404c-2.734,0 -4.917,-0.829 -6.509,-2.487c-1.562,-1.68 -2.345,-4.005 -2.345,-6.967c-0,-2.883 0.783,-5.208 2.345,-6.9c1.592,-1.696 3.775,-2.542 6.509,-2.542c1.075,0 2.1,0.163 3.062,0.459c0.992,0.258 1.904,0.712 2.734,1.3Z" style="fill:#00f;fill-rule:nonzero;"/><path d="M386.855,277.651l-0,14.191l2.929,0c2.504,0 4.363,-0.57 5.533,-1.691c1.171,-1.175 1.759,-2.963 1.759,-5.404c-0,-2.492 -0.588,-4.267 -1.759,-5.405c-1.17,-1.125 -3.029,-1.691 -5.533,-1.691l-2.929,-0Zm-2.475,-2.038l5.079,0c3.513,0 6.088,0.767 7.746,2.234c1.646,1.479 2.475,3.775 2.475,6.9c-0,3.125 -0.829,5.433 -2.475,6.883c-1.658,1.496 -4.233,2.212 -7.746,2.212l-5.079,0l-0,-18.229Z" style="fill:#00f;fill-rule:nonzero;"/><path d="M421.605,275.613l11.521,0l-0,2.084l-9.05,-0l-0,5.404l8.658,-0l0,2.083l-8.658,0l-0,6.575l9.246,0l-0,2.083l-11.717,0l-0,-18.229Z" style="fill:#00f;fill-rule:nonzero;"/><path d="M333.713,697.263l9.7,0l0,2.084l-7.421,-0l0,4.491c0.342,-0.129 0.684,-0.212 1.042,-0.262c0.388,-0.079 0.746,-0.129 1.104,-0.129c2.038,-0 3.646,0.57 4.821,1.691c1.204,1.092 1.821,2.588 1.821,4.492c-0,1.954 -0.617,3.483 -1.821,4.558c-1.221,1.092 -2.962,1.629 -5.208,1.629c-0.75,0 -1.534,-0.066 -2.346,-0.195c-0.779,-0.13 -1.596,-0.325 -2.408,-0.588l-0,-2.471c0.733,0.438 1.495,0.763 2.279,0.975c0.779,0.179 1.596,0.259 2.475,0.259c1.383,-0 2.487,-0.359 3.316,-1.105c0.817,-0.783 1.238,-1.791 1.238,-3.062c-0,-1.25 -0.421,-2.246 -1.238,-2.992c-0.829,-0.733 -1.933,-1.108 -3.316,-1.108c-0.7,-0 -1.371,0.096 -2.021,0.262c-0.65,0.13 -1.333,0.355 -2.017,0.65l0,-9.179Z" style="fill:#00f;fill-rule:nonzero;"/><path d="M375.884,699.572l-6.183,9.7l6.183,-0l0,-9.7Zm-0.65,-2.146l3.125,-0l0,11.846l2.604,-0l0,2.083l-2.604,-0l0,4.3l-2.475,-0l0,-4.3l-8.204,-0l-0,-2.408l7.554,-11.521Z" style="fill:#00f;fill-rule:nonzero;"/><path d="M412.001,705.822c1.171,0.262 2.083,0.816 2.733,1.629c0.683,0.779 1.042,1.758 1.042,2.929c-0,1.792 -0.634,3.175 -1.888,4.167c-1.221,0.962 -2.979,1.433 -5.275,1.433c-0.779,-0 -1.591,-0.1 -2.408,-0.263c-0.779,-0.129 -1.613,-0.325 -2.475,-0.583l-0,-2.408c0.687,0.387 1.45,0.7 2.279,0.908c0.817,0.229 1.663,0.325 2.542,0.325c1.562,0 2.733,-0.292 3.512,-0.908c0.817,-0.654 1.238,-1.529 1.238,-2.671c-0,-1.075 -0.388,-1.921 -1.171,-2.538c-0.75,-0.604 -1.792,-0.912 -3.125,-0.912l-2.083,-0l-0,-2.017l2.212,0c1.204,0 2.117,-0.229 2.738,-0.716c0.65,-0.521 0.975,-1.238 0.975,-2.15c-0,-0.913 -0.325,-1.596 -0.975,-2.084c-0.655,-0.521 -1.613,-0.779 -2.867,-0.779c-0.65,0 -1.367,0.096 -2.15,0.258c-0.779,0.13 -1.625,0.359 -2.538,0.65l0,-2.212c0.913,-0.258 1.775,-0.454 2.605,-0.588c0.812,-0.129 1.595,-0.191 2.345,-0.191c1.855,-0 3.334,0.437 4.425,1.3c1.075,0.829 1.63,1.987 1.63,3.45c-0,1.008 -0.313,1.858 -0.913,2.541c-0.571,0.7 -1.367,1.171 -2.408,1.43Z" style="fill:#00f;fill-rule:nonzero;"/><path d="M442.388,713.734l8.592,0l-0,2.083l-11.588,0l0,-2.083c0.946,-0.946 2.23,-2.229 3.842,-3.842c1.596,-1.645 2.621,-2.704 3.058,-3.191c0.784,-0.909 1.321,-1.659 1.63,-2.279c0.291,-0.6 0.454,-1.205 0.454,-1.821c-0,-0.946 -0.359,-1.725 -1.042,-2.346c-0.65,-0.6 -1.529,-0.908 -2.604,-0.908c-0.779,-0 -1.608,0.129 -2.471,0.387c-0.833,0.263 -1.742,0.683 -2.737,1.238l-0,-2.471c0.995,-0.425 1.92,-0.734 2.8,-0.913c0.862,-0.212 1.645,-0.325 2.345,-0.325c1.905,0 3.4,0.488 4.492,1.429c1.121,0.913 1.692,2.184 1.692,3.78c-0,0.745 -0.163,1.462 -0.454,2.145c-0.263,0.655 -0.767,1.434 -1.5,2.346c-0.18,0.225 -0.83,0.896 -1.95,2.017c-1.092,1.142 -2.605,2.717 -4.559,4.754Z" style="fill:#00f;fill-rule:nonzero;"/><path d="M475.576,713.572l4.033,-0l0,-13.867l-4.425,0.846l0,-2.217l4.363,-0.908l2.475,-0l-0,16.146l4.033,-0l-0,2.083l-10.479,-0l-0,-2.083Z" style="fill:#00f;fill-rule:nonzero;"/><path d="M516.051,699.051c-1.267,-0 -2.213,0.637 -2.863,1.887c-0.65,1.271 -0.975,3.125 -0.975,5.6c0,2.525 0.325,4.413 0.975,5.667c0.65,1.221 1.596,1.821 2.863,1.821c1.304,-0 2.25,-0.6 2.866,-1.821c0.65,-1.254 0.975,-3.142 0.975,-5.667c0,-2.475 -0.325,-4.329 -0.975,-5.6c-0.616,-1.25 -1.562,-1.887 -2.866,-1.887Zm-0,-1.95c2.037,-0 3.6,0.812 4.691,2.408c1.071,1.608 1.625,3.954 1.625,7.029c0,3.092 -0.554,5.438 -1.625,7.034c-1.091,1.608 -2.654,2.408 -4.691,2.408c-2.05,-0 -3.613,-0.8 -4.684,-2.408c-1.091,-1.596 -1.629,-3.942 -1.629,-7.034c0,-3.075 0.538,-5.421 1.629,-7.029c1.071,-1.596 2.634,-2.408 4.684,-2.408Z" style="fill:#00f;fill-rule:nonzero;"/></g><g id="Top-Labels" serif:id="Top Labels"><g transform="matrix(4.16667,0,0,4.16667,-195.456,-1521.22)"><g transform="matrix(8,0,0,8,46.3742,411.653)"><path d="M0.633,-0.47c-0,0.044 -0.01,0.084 -0.03,0.118c-0.021,0.035 -0.05,0.062 -0.087,0.081c-0.038,0.019 -0.082,0.029 -0.134,0.029l-0.171,-0l-0,0.242l-0.144,0l-0,-0.688l0.309,0c0.082,0 0.146,0.019 0.19,0.057c0.045,0.038 0.067,0.091 0.067,0.161Zm-0.145,0.002c-0,-0.072 -0.043,-0.108 -0.128,-0.108l-0.149,-0l-0,0.223l0.153,-0c0.039,-0 0.07,-0.01 0.092,-0.03c0.021,-0.019 0.032,-0.048 0.032,-0.085Z" style="fill:#00f;fill-rule:nonzero;"/></g><g transform="matrix(8,0,0,8,51.7101,411.653)"><path d="M0.54,-0l-0.16,-0.261l-0.169,-0l-0,0.261l-0.144,-0l-0,-0.688l0.344,0c0.082,0 0.145,0.018 0.19,0.053c0.044,0.035 0.066,0.086 0.066,0.152c0,0.048 -0.013,0.09 -0.041,0.125c-0.027,0.035 -0.064,0.058 -0.11,0.069l0.186,0.289l-0.162,-0Zm-0.018,-0.477c0,-0.066 -0.042,-0.099 -0.126,-0.099l-0.185,-0l-0,0.203l0.188,-0c0.041,-0 0.071,-0.009 0.092,-0.027c0.021,-0.019 0.031,-0.044 0.031,-0.077Z" style="fill:#00f;fill-rule:nonzero;"/></g><g transform="matrix(8,0,0,8,57.4874,411.653)"><path d="M0.736,-0.347c-0,0.071 -0.014,0.134 -0.043,0.189c-0.028,0.054 -0.068,0.096 -0.121,0.125c-0.053,0.028 -0.114,0.043 -0.185,0.043c-0.108,-0 -0.193,-0.032 -0.254,-0.096c-0.061,-0.063 -0.092,-0.15 -0.092,-0.261c0,-0.111 0.031,-0.197 0.092,-0.258c0.061,-0.062 0.146,-0.093 0.255,-0.093c0.109,-0 0.194,0.031 0.256,0.094c0.061,0.062 0.092,0.148 0.092,0.257Zm-0.147,-0c-0,-0.074 -0.018,-0.133 -0.053,-0.175c-0.035,-0.042 -0.084,-0.063 -0.148,-0.063c-0.064,0 -0.114,0.021 -0.149,0.063c-0.035,0.042 -0.053,0.1 -0.053,0.175c0,0.075 0.018,0.135 0.054,0.178c0.036,0.044 0.085,0.065 0.147,0.065c0.065,0 0.114,-0.021 0.149,-0.063c0.035,-0.042 0.053,-0.102 0.053,-0.18Z" style="fill:#00f;fill-rule:nonzero;"/></g><g transform="matrix(8,0,0,8,63.7101,411.653)"><path d="M0.394,-0.103c0.037,-0 0.073,-0.005 0.108,-0.016c0.036,-0.011 0.063,-0.025 0.082,-0.042l-0,-0.095l-0.168,-0l0,-0.107l0.3,0l-0,0.253c-0.037,0.038 -0.084,0.067 -0.143,0.088c-0.058,0.021 -0.119,0.032 -0.183,0.032c-0.112,-0 -0.198,-0.031 -0.259,-0.093c-0.06,-0.062 -0.09,-0.15 -0.09,-0.264c0,-0.113 0.03,-0.2 0.091,-0.261c0.06,-0.06 0.147,-0.09 0.261,-0.09c0.162,-0 0.264,0.059 0.308,0.179l-0.133,0.04c-0.014,-0.035 -0.036,-0.061 -0.067,-0.079c-0.031,-0.018 -0.067,-0.027 -0.108,-0.027c-0.068,0 -0.119,0.021 -0.154,0.062c-0.035,0.041 -0.053,0.099 -0.053,0.176c0,0.078 0.018,0.138 0.054,0.18c0.037,0.043 0.088,0.064 0.154,0.064Z" style="fill:#00f;fill-rule:nonzero;"/></g><g transform="matrix(8,0,0,8,69.9328,411.653)"><path d="M0.54,-0l-0.16,-0.261l-0.169,-0l-0,0.261l-0.144,-0l-0,-0.688l0.344,0c0.082,0 0.145,0.018 0.19,0.053c0.044,0.035 0.066,0.086 0.066,0.152c0,0.048 -0.013,0.09 -0.041,0.125c-0.027,0.035 -0.064,0.058 -0.11,0.069l0.186,0.289l-0.162,-0Zm-0.018,-0.477c0,-0.066 -0.042,-0.099 -0.126,-0.099l-0.185,-0l-0,0.203l0.188,-0c0.041,-0 0.071,-0.009 0.092,-0.027c0.021,-0.019 0.031,-0.044 0.031,-0.077Z" style="fill:#00f;fill-rule:nonzero;"/></g><g transform="matrix(8,0,0,8,75.7101,411.653)"><path d="M0.553,-0l-0.061,-0.176l-0.262,0l-0.061,0.176l-0.144,-0l0.251,-0.688l0.17,0l0.25,0.688l-0.143,-0Zm-0.192,-0.582l-0.003,0.011c-0.003,0.011 -0.007,0.025 -0.012,0.04c-0.004,0.015 -0.032,0.097 -0.084,0.247l0.198,-0l-0.068,-0.198l-0.021,-0.066l-0.01,-0.034Z" style="fill:#00f;fill-rule:nonzero;"/></g><g transform="matrix(8,0,0,8,81.4874,411.653)"><path d="M0.638,-0l0,-0.417c0,-0.009 0,-0.019 0,-0.028c0.001,-0.01 0.002,-0.05 0.005,-0.122c-0.023,0.088 -0.04,0.149 -0.051,0.183l-0.124,0.384l-0.103,-0l-0.124,-0.384l-0.052,-0.183c0.004,0.076 0.006,0.126 0.006,0.15l-0,0.417l-0.128,-0l-0,-0.688l0.193,0l0.123,0.385l0.011,0.037l0.023,0.092l0.031,-0.11l0.126,-0.404l0.192,0l0,0.688l-0.128,-0Z" style="fill:#00f;fill-rule:nonzero;"/></g><g transform="matrix(8,0,0,8,54.9679,419.915)"><path d="M0.677,-0.196c-0,0.062 -0.024,0.111 -0.071,0.145c-0.046,0.034 -0.112,0.051 -0.195,0.051l-0.344,0l-0,-0.688l0.315,0c0.084,0 0.147,0.015 0.191,0.044c0.043,0.029 0.064,0.072 0.064,0.129c0,0.039 -0.011,0.072 -0.032,0.099c-0.022,0.027 -0.055,0.045 -0.099,0.054c0.056,0.007 0.098,0.024 0.127,0.053c0.029,0.028 0.044,0.066 0.044,0.113Zm-0.185,-0.3c0,-0.031 -0.01,-0.053 -0.029,-0.066c-0.02,-0.013 -0.049,-0.019 -0.088,-0.019l-0.164,-0l-0,0.17l0.165,0c0.041,0 0.07,-0.007 0.089,-0.021c0.018,-0.014 0.027,-0.035 0.027,-0.064Zm0.04,0.288c0,-0.064 -0.046,-0.096 -0.138,-0.096l-0.183,-0l-0,0.197l0.188,0c0.046,0 0.08,-0.008 0.101,-0.025c0.022,-0.017 0.032,-0.042 0.032,-0.076Z" style="fill:#00f;fill-rule:nonzero;"/></g><g transform="matrix(8,0,0,8,60.7453,419.915)"><path d="M0.353,0.01c-0.095,-0 -0.167,-0.023 -0.218,-0.07c-0.05,-0.046 -0.075,-0.112 -0.075,-0.198l0,-0.43l0.144,0l0,0.419c0,0.054 0.013,0.096 0.039,0.124c0.026,0.028 0.064,0.042 0.114,0.042c0.051,-0 0.091,-0.015 0.119,-0.044c0.027,-0.03 0.041,-0.072 0.041,-0.127l0,-0.414l0.144,0l0,0.423c0,0.087 -0.027,0.155 -0.081,0.203c-0.054,0.048 -0.129,0.072 -0.227,0.072Z" style="fill:#00f;fill-rule:nonzero;"/></g><g transform="matrix(8,0,0,8,66.5226,419.915)"><path d="M0.377,-0.577l0,0.577l-0.144,-0l0,-0.577l-0.222,0l0,-0.111l0.589,0l0,0.111l-0.223,0Z" style="fill:#00f;fill-rule:nonzero;"/></g><g transform="matrix(8,0,0,8,71.4093,419.915)"><path d="M0.377,-0.577l0,0.577l-0.144,-0l0,-0.577l-0.222,0l0,-0.111l0.589,0l0,0.111l-0.223,0Z" style="fill:#00f;fill-rule:nonzero;"/></g><g transform="matrix(8,0,0,8,76.1515,419.915)"><path d="M0.736,-0.347c-0,0.071 -0.014,0.134 -0.043,0.189c-0.028,0.054 -0.068,0.096 -0.121,0.125c-0.053,0.028 -0.114,0.043 -0.185,0.043c-0.108,-0 -0.193,-0.032 -0.254,-0.096c-0.061,-0.063 -0.092,-0.15 -0.092,-0.261c0,-0.111 0.031,-0.197 0.092,-0.258c0.061,-0.062 0.146,-0.093 0.255,-0.093c0.109,-0 0.194,0.031 0.256,0.094c0.061,0.062 0.092,0.148 0.092,0.257Zm-0.147,-0c-0,-0.074 -0.018,-0.133 -0.053,-0.175c-0.035,-0.042 -0.084,-0.063 -0.148,-0.063c-0.064,0 -0.114,0.021 -0.149,0.063c-0.035,0.042 -0.053,0.1 -0.053,0.175c0,0.075 0.018,0.135 0.054,0.178c0.036,0.044 0.085,0.065 0.147,0.065c0.065,0 0.114,-0.021 0.149,-0.063c0.035,-0.042 0.053,-0.102 0.053,-0.18Z" style="fill:#00f;fill-rule:nonzero;"/></g><g transform="matrix(8,0,0,8,82.3742,419.915)"><path d="M0.486,-0l-0.3,-0.53c0.006,0.052 0.009,0.093 0.009,0.124l-0,0.406l-0.128,-0l-0,-0.688l0.164,0l0.305,0.534c-0.006,-0.049 -0.009,-0.094 -0.009,-0.134l-0,-0.4l0.128,0l-0,0.688l-0.169,-0Z" style="fill:#00f;fill-rule:nonzero;"/></g></g><g transform="matrix(4.16667,0,0,4.16667,-197.262,-1379.26)"><g transform="matrix(8,0,0,8,48.7453,411.653)"><path d="M0.388,-0.104c0.087,0 0.147,-0.043 0.181,-0.13l0.126,0.047c-0.027,0.066 -0.067,0.116 -0.119,0.148c-0.052,0.033 -0.115,0.049 -0.188,0.049c-0.11,-0 -0.196,-0.032 -0.256,-0.094c-0.061,-0.063 -0.091,-0.151 -0.091,-0.263c0,-0.113 0.029,-0.2 0.087,-0.26c0.059,-0.061 0.143,-0.091 0.254,-0.091c0.081,-0 0.146,0.016 0.197,0.048c0.051,0.033 0.087,0.08 0.107,0.143l-0.127,0.035c-0.011,-0.035 -0.032,-0.062 -0.063,-0.082c-0.032,-0.021 -0.069,-0.031 -0.111,-0.031c-0.065,0 -0.115,0.02 -0.148,0.061c-0.034,0.04 -0.051,0.099 -0.051,0.177c0,0.079 0.017,0.139 0.052,0.181c0.035,0.042 0.085,0.062 0.15,0.062Z" style="fill:#00f;fill-rule:nonzero;"/></g><g transform="matrix(8,0,0,8,54.5226,411.653)"><path d="M0.736,-0.347c-0,0.071 -0.014,0.134 -0.043,0.189c-0.028,0.054 -0.068,0.096 -0.121,0.125c-0.053,0.028 -0.114,0.043 -0.185,0.043c-0.108,-0 -0.193,-0.032 -0.254,-0.096c-0.061,-0.063 -0.092,-0.15 -0.092,-0.261c0,-0.111 0.031,-0.197 0.092,-0.258c0.061,-0.062 0.146,-0.093 0.255,-0.093c0.109,-0 0.194,0.031 0.256,0.094c0.061,0.062 0.092,0.148 0.092,0.257Zm-0.147,-0c-0,-0.074 -0.018,-0.133 -0.053,-0.175c-0.035,-0.042 -0.084,-0.063 -0.148,-0.063c-0.064,0 -0.114,0.021 -0.149,0.063c-0.035,0.042 -0.053,0.1 -0.053,0.175c0,0.075 0.018,0.135 0.054,0.178c0.036,0.044 0.085,0.065 0.147,0.065c0.065,0 0.114,-0.021 0.149,-0.063c0.035,-0.042 0.053,-0.102 0.053,-0.18Z" style="fill:#00f;fill-rule:nonzero;"/></g><g transform="matrix(8,0,0,8,60.7453,411.653)"><path d="M0.486,-0l-0.3,-0.53c0.006,0.052 0.009,0.093 0.009,0.124l-0,0.406l-0.128,-0l-0,-0.688l0.164,0l0.305,0.534c-0.006,-0.049 -0.009,-0.094 -0.009,-0.134l-0,-0.4l0.128,0l-0,0.688l-0.169,-0Z" style="fill:#00f;fill-rule:nonzero;"/></g><g transform="matrix(8,0,0,8,66.5226,411.653)"><path d="M0.377,-0.577l0,0.577l-0.144,-0l0,-0.577l-0.222,0l0,-0.111l0.589,0l0,0.111l-0.223,0Z" style="fill:#00f;fill-rule:nonzero;"/></g><g transform="matrix(8,0,0,8,71.4093,411.653)"><path d="M0.54,-0l-0.16,-0.261l-0.169,-0l-0,0.261l-0.144,-0l-0,-0.688l0.344,0c0.082,0 0.145,0.018 0.19,0.053c0.044,0.035 0.066,0.086 0.066,0.152c0,0.048 -0.013,0.09 -0.041,0.125c-0.027,0.035 -0.064,0.058 -0.11,0.069l0.186,0.289l-0.162,-0Zm-0.018,-0.477c0,-0.066 -0.042,-0.099 -0.126,-0.099l-0.185,-0l-0,0.203l0.188,-0c0.041,-0 0.071,-0.009 0.092,-0.027c0.021,-0.019 0.031,-0.044 0.031,-0.077Z" style="fill:#00f;fill-rule:nonzero;"/></g><g transform="matrix(8,0,0,8,77.1867,411.653)"><path d="M0.736,-0.347c-0,0.071 -0.014,0.134 -0.043,0.189c-0.028,0.054 -0.068,0.096 -0.121,0.125c-0.053,0.028 -0.114,0.043 -0.185,0.043c-0.108,-0 -0.193,-0.032 -0.254,-0.096c-0.061,-0.063 -0.092,-0.15 -0.092,-0.261c0,-0.111 0.031,-0.197 0.092,-0.258c0.061,-0.062 0.146,-0.093 0.255,-0.093c0.109,-0 0.194,0.031 0.256,0.094c0.061,0.062 0.092,0.148 0.092,0.257Zm-0.147,-0c-0,-0.074 -0.018,-0.133 -0.053,-0.175c-0.035,-0.042 -0.084,-0.063 -0.148,-0.063c-0.064,0 -0.114,0.021 -0.149,0.063c-0.035,0.042 -0.053,0.1 -0.053,0.175c0,0.075 0.018,0.135 0.054,0.178c0.036,0.044 0.085,0.065 0.147,0.065c0.065,0 0.114,-0.021 0.149,-0.063c0.035,-0.042 0.053,-0.102 0.053,-0.18Z" style="fill:#00f;fill-rule:nonzero;"/></g><g transform="matrix(8,0,0,8,83.4093,411.653)"><path d="M0.067,-0l-0,-0.688l0.144,0l-0,0.577l0.369,-0l0,0.111l-0.513,0Z" style="fill:#00f;fill-rule:nonzero;"/></g><g transform="matrix(8,0,0,8,62.8195,419.915)"><path d="M0.353,0.01c-0.095,-0 -0.167,-0.023 -0.218,-0.07c-0.05,-0.046 -0.075,-0.112 -0.075,-0.198l0,-0.43l0.144,0l0,0.419c0,0.054 0.013,0.096 0.039,0.124c0.026,0.028 0.064,0.042 0.114,0.042c0.051,-0 0.091,-0.015 0.119,-0.044c0.027,-0.03 0.041,-0.072 0.041,-0.127l0,-0.414l0.144,0l0,0.423c0,0.087 -0.027,0.155 -0.081,0.203c-0.054,0.048 -0.129,0.072 -0.227,0.072Z" style="fill:#00f;fill-rule:nonzero;"/></g><g transform="matrix(8,0,0,8,68.5968,419.915)"><path d="M0.628,-0.198c-0,0.067 -0.025,0.119 -0.075,0.154c-0.05,0.036 -0.123,0.054 -0.22,0.054c-0.088,-0 -0.157,-0.016 -0.208,-0.047c-0.05,-0.031 -0.082,-0.079 -0.096,-0.142l0.139,-0.023c0.009,0.036 0.028,0.063 0.055,0.079c0.027,0.017 0.065,0.025 0.114,0.025c0.1,-0 0.151,-0.031 0.151,-0.092c-0,-0.019 -0.006,-0.036 -0.018,-0.048c-0.011,-0.013 -0.027,-0.024 -0.048,-0.032c-0.021,-0.008 -0.062,-0.019 -0.121,-0.031c-0.052,-0.012 -0.087,-0.022 -0.108,-0.029c-0.02,-0.007 -0.038,-0.016 -0.054,-0.026c-0.017,-0.01 -0.03,-0.022 -0.042,-0.036c-0.011,-0.014 -0.02,-0.03 -0.026,-0.049c-0.007,-0.019 -0.01,-0.04 -0.01,-0.065c0,-0.062 0.023,-0.11 0.07,-0.143c0.047,-0.033 0.115,-0.049 0.204,-0.049c0.085,-0 0.149,0.013 0.192,0.04c0.043,0.026 0.07,0.071 0.083,0.132l-0.14,0.019c-0.007,-0.029 -0.022,-0.052 -0.043,-0.067c-0.022,-0.015 -0.054,-0.022 -0.095,-0.022c-0.087,-0 -0.131,0.027 -0.131,0.082c0,0.018 0.005,0.032 0.014,0.044c0.009,0.011 0.023,0.021 0.041,0.029c0.019,0.008 0.056,0.018 0.111,0.03c0.066,0.014 0.114,0.027 0.142,0.039c0.029,0.012 0.051,0.025 0.068,0.041c0.016,0.016 0.029,0.035 0.038,0.057c0.009,0.022 0.013,0.047 0.013,0.076Z" style="fill:#00f;fill-rule:nonzero;"/></g><g transform="matrix(8,0,0,8,73.9328,419.915)"><path d="M0.677,-0.196c-0,0.062 -0.024,0.111 -0.071,0.145c-0.046,0.034 -0.112,0.051 -0.195,0.051l-0.344,0l-0,-0.688l0.315,0c0.084,0 0.147,0.015 0.191,0.044c0.043,0.029 0.064,0.072 0.064,0.129c0,0.039 -0.011,0.072 -0.032,0.099c-0.022,0.027 -0.055,0.045 -0.099,0.054c0.056,0.007 0.098,0.024 0.127,0.053c0.029,0.028 0.044,0.066 0.044,0.113Zm-0.185,-0.3c0,-0.031 -0.01,-0.053 -0.029,-0.066c-0.02,-0.013 -0.049,-0.019 -0.088,-0.019l-0.164,-0l-0,0.17l0.165,0c0.041,0 0.07,-0.007 0.089,-0.021c0.018,-0.014 0.027,-0.035 0.027,-0.064Zm0.04,0.288c0,-0.064 -0.046,-0.096 -0.138,-0.096l-0.183,-0l-0,0.197l0.188,0c0.046,0 0.08,-0.008 0.101,-0.025c0.022,-0.017 0.032,-0.042 0.032,-0.076Z" style="fill:#00f;fill-rule:nonzero;"/></g><g transform="matrix(8,0,0,8,79.7101,419.915)"><rect x="0.039" y="-0.319" width="0.254" height="0.119" style="fill:#00f;fill-rule:nonzero;"/></g><g transform="matrix(8,0,0,8,82.3742,419.915)"><path d="M0.388,-0.104c0.087,0 0.147,-0.043 0.181,-0.13l0.126,0.047c-0.027,0.066 -0.067,0.116 -0.119,0.148c-0.052,0.033 -0.115,0.049 -0.188,0.049c-0.11,-0 -0.196,-0.032 -0.256,-0.094c-0.061,-0.063 -0.091,-0.151 -0.091,-0.263c0,-0.113 0.029,-0.2 0.087,-0.26c0.059,-0.061 0.143,-0.091 0.254,-0.091c0.081,-0 0.146,0.016 0.197,0.048c0.051,0.033 0.087,0.08 0.107,0.143l-0.127,0.035c-0.011,-0.035 -0.032,-0.062 -0.063,-0.082c-0.032,-0.021 -0.069,-0.031 -0.111,-0.031c-0.065,0 -0.115,0.02 -0.148,0.061c-0.034,0.04 -0.051,0.099 -0.051,0.177c0,0.079 0.017,0.139 0.052,0.181c0.035,0.042 0.085,0.062 0.15,0.062Z" style="fill:#00f;fill-rule:nonzero;"/></g></g><g transform="matrix(4.16667,0,0,4.16667,-197.002,-1229.47)"><g transform="matrix(8,0,0,8,65.9249,411.653)"><path d="M0.353,0.01c-0.095,-0 -0.167,-0.023 -0.218,-0.07c-0.05,-0.046 -0.075,-0.112 -0.075,-0.198l0,-0.43l0.144,0l0,0.419c0,0.054 0.013,0.096 0.039,0.124c0.026,0.028 0.064,0.042 0.114,0.042c0.051,-0 0.091,-0.015 0.119,-0.044c0.027,-0.03 0.041,-0.072 0.041,-0.127l0,-0.414l0.144,0l0,0.423c0,0.087 -0.027,0.155 -0.081,0.203c-0.054,0.048 -0.129,0.072 -0.227,0.072Z" style="fill:#00f;fill-rule:nonzero;"/></g><g transform="matrix(8,0,0,8,71.7023,411.653)"><path d="M0.628,-0.198c-0,0.067 -0.025,0.119 -0.075,0.154c-0.05,0.036 -0.123,0.054 -0.22,0.054c-0.088,-0 -0.157,-0.016 -0.208,-0.047c-0.05,-0.031 -0.082,-0.079 -0.096,-0.142l0.139,-0.023c0.009,0.036 0.028,0.063 0.055,0.079c0.027,0.017 0.065,0.025 0.114,0.025c0.1,-0 0.151,-0.031 0.151,-0.092c-0,-0.019 -0.006,-0.036 -0.018,-0.048c-0.011,-0.013 -0.027,-0.024 -0.048,-0.032c-0.021,-0.008 -0.062,-0.019 -0.121,-0.031c-0.052,-0.012 -0.087,-0.022 -0.108,-0.029c-0.02,-0.007 -0.038,-0.016 -0.054,-0.026c-0.017,-0.01 -0.03,-0.022 -0.042,-0.036c-0.011,-0.014 -0.02,-0.03 -0.026,-0.049c-0.007,-0.019 -0.01,-0.04 -0.01,-0.065c0,-0.062 0.023,-0.11 0.07,-0.143c0.047,-0.033 0.115,-0.049 0.204,-0.049c0.085,-0 0.149,0.013 0.192,0.04c0.043,0.026 0.07,0.071 0.083,0.132l-0.14,0.019c-0.007,-0.029 -0.022,-0.052 -0.043,-0.067c-0.022,-0.015 -0.054,-0.022 -0.095,-0.022c-0.087,-0 -0.131,0.027 -0.131,0.082c0,0.018 0.005,0.032 0.014,0.044c0.009,0.011 0.023,0.021 0.041,0.029c0.019,0.008 0.056,0.018 0.111,0.03c0.066,0.014 0.114,0.027 0.142,0.039c0.029,0.012 0.051,0.025 0.068,0.041c0.016,0.016 0.029,0.035 0.038,0.057c0.009,0.022 0.013,0.047 0.013,0.076Z" style="fill:#00f;fill-rule:nonzero;"/></g><g transform="matrix(8,0,0,8,77.0382,411.653)"><path d="M0.067,-0l-0,-0.688l0.541,0l-0,0.111l-0.397,0l-0,0.173l0.367,0l0,0.112l-0.367,-0l-0,0.181l0.417,-0l-0,0.111l-0.561,0Z" style="fill:#00f;fill-rule:nonzero;"/></g><g transform="matrix(8,0,0,8,82.3742,411.653)"><path d="M0.54,-0l-0.16,-0.261l-0.169,-0l-0,0.261l-0.144,-0l-0,-0.688l0.344,0c0.082,0 0.145,0.018 0.19,0.053c0.044,0.035 0.066,0.086 0.066,0.152c0,0.048 -0.013,0.09 -0.041,0.125c-0.027,0.035 -0.064,0.058 -0.11,0.069l0.186,0.289l-0.162,-0Zm-0.018,-0.477c0,-0.066 -0.042,-0.099 -0.126,-0.099l-0.185,-0l-0,0.203l0.188,-0c0.041,-0 0.071,-0.009 0.092,-0.027c0.021,-0.019 0.031,-0.044 0.031,-0.077Z" style="fill:#00f;fill-rule:nonzero;"/></g><g transform="matrix(8,0,0,8,54.9679,419.915)"><path d="M0.677,-0.196c-0,0.062 -0.024,0.111 -0.071,0.145c-0.046,0.034 -0.112,0.051 -0.195,0.051l-0.344,0l-0,-0.688l0.315,0c0.084,0 0.147,0.015 0.191,0.044c0.043,0.029 0.064,0.072 0.064,0.129c0,0.039 -0.011,0.072 -0.032,0.099c-0.022,0.027 -0.055,0.045 -0.099,0.054c0.056,0.007 0.098,0.024 0.127,0.053c0.029,0.028 0.044,0.066 0.044,0.113Zm-0.185,-0.3c0,-0.031 -0.01,-0.053 -0.029,-0.066c-0.02,-0.013 -0.049,-0.019 -0.088,-0.019l-0.164,-0l-0,0.17l0.165,0c0.041,0 0.07,-0.007 0.089,-0.021c0.018,-0.014 0.027,-0.035 0.027,-0.064Zm0.04,0.288c0,-0.064 -0.046,-0.096 -0.138,-0.096l-0.183,-0l-0,0.197l0.188,0c0.046,0 0.08,-0.008 0.101,-0.025c0.022,-0.017 0.032,-0.042 0.032,-0.076Z" style="fill:#00f;fill-rule:nonzero;"/></g><g transform="matrix(8,0,0,8,60.7453,419.915)"><path d="M0.353,0.01c-0.095,-0 -0.167,-0.023 -0.218,-0.07c-0.05,-0.046 -0.075,-0.112 -0.075,-0.198l0,-0.43l0.144,0l0,0.419c0,0.054 0.013,0.096 0.039,0.124c0.026,0.028 0.064,0.042 0.114,0.042c0.051,-0 0.091,-0.015 0.119,-0.044c0.027,-0.03 0.041,-0.072 0.041,-0.127l0,-0.414l0.144,0l0,0.423c0,0.087 -0.027,0.155 -0.081,0.203c-0.054,0.048 -0.129,0.072 -0.227,0.072Z" style="fill:#00f;fill-rule:nonzero;"/></g><g transform="matrix(8,0,0,8,66.5226,419.915)"><path d="M0.377,-0.577l0,0.577l-0.144,-0l0,-0.577l-0.222,0l0,-0.111l0.589,0l0,0.111l-0.223,0Z" style="fill:#00f;fill-rule:nonzero;"/></g><g transform="matrix(8,0,0,8,71.4093,419.915)"><path d="M0.377,-0.577l0,0.577l-0.144,-0l0,-0.577l-0.222,0l0,-0.111l0.589,0l0,0.111l-0.223,0Z" style="fill:#00f;fill-rule:nonzero;"/></g><g transform="matrix(8,0,0,8,76.1515,419.915)"><path d="M0.736,-0.347c-0,0.071 -0.014,0.134 -0.043,0.189c-0.028,0.054 -0.068,0.096 -0.121,0.125c-0.053,0.028 -0.114,0.043 -0.185,0.043c-0.108,-0 -0.193,-0.032 -0.254,-0.096c-0.061,-0.063 -0.092,-0.15 -0.092,-0.261c0,-0.111 0.031,-0.197 0.092,-0.258c0.061,-0.062 0.146,-0.093 0.255,-0.093c0.109,-0 0.194,0.031 0.256,0.094c0.061,0.062 0.092,0.148 0.092,0.257Zm-0.147,-0c-0,-0.074 -0.018,-0.133 -0.053,-0.175c-0.035,-0.042 -0.084,-0.063 -0.148,-0.063c-0.064,0 -0.114,0.021 -0.149,0.063c-0.035,0.042 -0.053,0.1 -0.053,0.175c0,0.075 0.018,0.135 0.054,0.178c0.036,0.044 0.085,0.065 0.147,0.065c0.065,0 0.114,-0.021 0.149,-0.063c0.035,-0.042 0.053,-0.102 0.053,-0.18Z" style="fill:#00f;fill-rule:nonzero;"/></g><g transform="matrix(8,0,0,8,82.3742,419.915)"><path d="M0.486,-0l-0.3,-0.53c0.006,0.052 0.009,0.093 0.009,0.124l-0,0.406l-0.128,-0l-0,-0.688l0.164,0l0.305,0.534c-0.006,-0.049 -0.009,-0.094 -0.009,-0.134l-0,-0.4l0.128,0l-0,0.688l-0.169,-0Z" style="fill:#00f;fill-rule:nonzero;"/></g></g><g transform="matrix(4.16667,0,0,4.16667,-197.392,-1079.92)"><g transform="matrix(8,0,0,8,71.2609,411.653)"><path d="M0.553,-0l-0.061,-0.176l-0.262,0l-0.061,0.176l-0.144,-0l0.251,-0.688l0.17,0l0.25,0.688l-0.143,-0Zm-0.192,-0.582l-0.003,0.011c-0.003,0.011 -0.007,0.025 -0.012,0.04c-0.004,0.015 -0.032,0.097 -0.084,0.247l0.198,-0l-0.068,-0.198l-0.021,-0.066l-0.01,-0.034Z" style="fill:#00f;fill-rule:nonzero;"/></g><g transform="matrix(8,0,0,8,77.0382,411.653)"><path d="M0.353,0.01c-0.095,-0 -0.167,-0.023 -0.218,-0.07c-0.05,-0.046 -0.075,-0.112 -0.075,-0.198l0,-0.43l0.144,0l0,0.419c0,0.054 0.013,0.096 0.039,0.124c0.026,0.028 0.064,0.042 0.114,0.042c0.051,-0 0.091,-0.015 0.119,-0.044c0.027,-0.03 0.041,-0.072 0.041,-0.127l0,-0.414l0.144,0l0,0.423c0,0.087 -0.027,0.155 -0.081,0.203c-0.054,0.048 -0.129,0.072 -0.227,0.072Z" style="fill:#00f;fill-rule:nonzero;"/></g><g transform="matrix(8,0,0,8,82.8156,411.653)"><path d="M0.507,-0l-0.173,-0.274l-0.173,0.274l-0.152,-0l0.238,-0.362l-0.218,-0.326l0.152,0l0.153,0.243l0.153,-0.243l0.151,0l-0.209,0.326l0.229,0.362l-0.151,-0Z" style="fill:#00f;fill-rule:nonzero;"/></g><g transform="matrix(8,0,0,8,62.8195,419.915)"><path d="M0.353,0.01c-0.095,-0 -0.167,-0.023 -0.218,-0.07c-0.05,-0.046 -0.075,-0.112 -0.075,-0.198l0,-0.43l0.144,0l0,0.419c0,0.054 0.013,0.096 0.039,0.124c0.026,0.028 0.064,0.042 0.114,0.042c0.051,-0 0.091,-0.015 0.119,-0.044c0.027,-0.03 0.041,-0.072 0.041,-0.127l0,-0.414l0.144,0l0,0.423c0,0.087 -0.027,0.155 -0.081,0.203c-0.054,0.048 -0.129,0.072 -0.227,0.072Z" style="fill:#00f;fill-rule:nonzero;"/></g><g transform="matrix(8,0,0,8,68.5968,419.915)"><path d="M0.628,-0.198c-0,0.067 -0.025,0.119 -0.075,0.154c-0.05,0.036 -0.123,0.054 -0.22,0.054c-0.088,-0 -0.157,-0.016 -0.208,-0.047c-0.05,-0.031 -0.082,-0.079 -0.096,-0.142l0.139,-0.023c0.009,0.036 0.028,0.063 0.055,0.079c0.027,0.017 0.065,0.025 0.114,0.025c0.1,-0 0.151,-0.031 0.151,-0.092c-0,-0.019 -0.006,-0.036 -0.018,-0.048c-0.011,-0.013 -0.027,-0.024 -0.048,-0.032c-0.021,-0.008 -0.062,-0.019 -0.121,-0.031c-0.052,-0.012 -0.087,-0.022 -0.108,-0.029c-0.02,-0.007 -0.038,-0.016 -0.054,-0.026c-0.017,-0.01 -0.03,-0.022 -0.042,-0.036c-0.011,-0.014 -0.02,-0.03 -0.026,-0.049c-0.007,-0.019 -0.01,-0.04 -0.01,-0.065c0,-0.062 0.023,-0.11 0.07,-0.143c0.047,-0.033 0.115,-0.049 0.204,-0.049c0.085,-0 0.149,0.013 0.192,0.04c0.043,0.026 0.07,0.071 0.083,0.132l-0.14,0.019c-0.007,-0.029 -0.022,-0.052 -0.043,-0.067c-0.022,-0.015 -0.054,-0.022 -0.095,-0.022c-0.087,-0 -0.131,0.027 -0.131,0.082c0,0.018 0.005,0.032 0.014,0.044c0.009,0.011 0.023,0.021 0.041,0.029c0.019,0.008 0.056,0.018 0.111,0.03c0.066,0.014 0.114,0.027 0.142,0.039c0.029,0.012 0.051,0.025 0.068,0.041c0.016,0.016 0.029,0.035 0.038,0.057c0.009,0.022 0.013,0.047 0.013,0.076Z" style="fill:#00f;fill-rule:nonzero;"/></g><g transform="matrix(8,0,0,8,73.9328,419.915)"><path d="M0.677,-0.196c-0,0.062 -0.024,0.111 -0.071,0.145c-0.046,0.034 -0.112,0.051 -0.195,0.051l-0.344,0l-0,-0.688l0.315,0c0.084,0 0.147,0.015 0.191,0.044c0.043,0.029 0.064,0.072 0.064,0.129c0,0.039 -0.011,0.072 -0.032,0.099c-0.022,0.027 -0.055,0.045 -0.099,0.054c0.056,0.007 0.098,0.024 0.127,0.053c0.029,0.028 0.044,0.066 0.044,0.113Zm-0.185,-0.3c0,-0.031 -0.01,-0.053 -0.029,-0.066c-0.02,-0.013 -0.049,-0.019 -0.088,-0.019l-0.164,-0l-0,0.17l0.165,0c0.041,0 0.07,-0.007 0.089,-0.021c0.018,-0.014 0.027,-0.035 0.027,-0.064Zm0.04,0.288c0,-0.064 -0.046,-0.096 -0.138,-0.096l-0.183,-0l-0,0.197l0.188,0c0.046,0 0.08,-0.008 0.101,-0.025c0.022,-0.017 0.032,-0.042 0.032,-0.076Z" style="fill:#00f;fill-rule:nonzero;"/></g><g transform="matrix(8,0,0,8,79.7101,419.915)"><rect x="0.039" y="-0.319" width="0.254" height="0.119" style="fill:#00f;fill-rule:nonzero;"/></g><g transform="matrix(8,0,0,8,82.3742,419.915)"><path d="M0.388,-0.104c0.087,0 0.147,-0.043 0.181,-0.13l0.126,0.047c-0.027,0.066 -0.067,0.116 -0.119,0.148c-0.052,0.033 -0.115,0.049 -0.188,0.049c-0.11,-0 -0.196,-0.032 -0.256,-0.094c-0.061,-0.063 -0.091,-0.151 -0.091,-0.263c0,-0.113 0.029,-0.2 0.087,-0.26c0.059,-0.061 0.143,-0.091 0.254,-0.091c0.081,-0 0.146,0.016 0.197,0.048c0.051,0.033 0.087,0.08 0.107,0.143l-0.127,0.035c-0.011,-0.035 -0.032,-0.062 -0.063,-0.082c-0.032,-0.021 -0.069,-0.031 -0.111,-0.031c-0.065,0 -0.115,0.02 -0.148,0.061c-0.034,0.04 -0.051,0.099 -0.051,0.177c0,0.079 0.017,0.139 0.052,0.181c0.035,0.042 0.085,0.062 0.15,0.062Z" style="fill:#00f;fill-rule:nonzero;"/></g></g><g transform="matrix(4.16667,0,0,4.16667,685.567,-1079.92)"><g transform="matrix(8,0,0,8,55.8585,411.653)"><path d="M0.377,-0.577l0,0.577l-0.144,-0l0,-0.577l-0.222,0l0,-0.111l0.589,0l0,0.111l-0.223,0Z" style="fill:#00f;fill-rule:nonzero;"/></g><g transform="matrix(8,0,0,8,60.1515,411.653)"><path d="M0.553,-0l-0.061,-0.176l-0.262,0l-0.061,0.176l-0.144,-0l0.251,-0.688l0.17,0l0.25,0.688l-0.143,-0Zm-0.192,-0.582l-0.003,0.011c-0.003,0.011 -0.007,0.025 -0.012,0.04c-0.004,0.015 -0.032,0.097 -0.084,0.247l0.198,-0l-0.068,-0.198l-0.021,-0.066l-0.01,-0.034Z" style="fill:#00f;fill-rule:nonzero;"/></g><g transform="matrix(8,0,0,8,65.9289,411.653)"><path d="M0.54,-0l-0.16,-0.261l-0.169,-0l-0,0.261l-0.144,-0l-0,-0.688l0.344,0c0.082,0 0.145,0.018 0.19,0.053c0.044,0.035 0.066,0.086 0.066,0.152c0,0.048 -0.013,0.09 -0.041,0.125c-0.027,0.035 -0.064,0.058 -0.11,0.069l0.186,0.289l-0.162,-0Zm-0.018,-0.477c0,-0.066 -0.042,-0.099 -0.126,-0.099l-0.185,-0l-0,0.203l0.188,-0c0.041,-0 0.071,-0.009 0.092,-0.027c0.021,-0.019 0.031,-0.044 0.031,-0.077Z" style="fill:#00f;fill-rule:nonzero;"/></g><g transform="matrix(8,0,0,8,71.7062,411.653)"><path d="M0.394,-0.103c0.037,-0 0.073,-0.005 0.108,-0.016c0.036,-0.011 0.063,-0.025 0.082,-0.042l-0,-0.095l-0.168,-0l0,-0.107l0.3,0l-0,0.253c-0.037,0.038 -0.084,0.067 -0.143,0.088c-0.058,0.021 -0.119,0.032 -0.183,0.032c-0.112,-0 -0.198,-0.031 -0.259,-0.093c-0.06,-0.062 -0.09,-0.15 -0.09,-0.264c0,-0.113 0.03,-0.2 0.091,-0.261c0.06,-0.06 0.147,-0.09 0.261,-0.09c0.162,-0 0.264,0.059 0.308,0.179l-0.133,0.04c-0.014,-0.035 -0.036,-0.061 -0.067,-0.079c-0.031,-0.018 -0.067,-0.027 -0.108,-0.027c-0.068,0 -0.119,0.021 -0.154,0.062c-0.035,0.041 -0.053,0.099 -0.053,0.176c0,0.078 0.018,0.138 0.054,0.18c0.037,0.043 0.088,0.064 0.154,0.064Z" style="fill:#00f;fill-rule:nonzero;"/></g><g transform="matrix(8,0,0,8,77.9289,411.653)"><path d="M0.067,-0l-0,-0.688l0.541,0l-0,0.111l-0.397,0l-0,0.173l0.367,0l0,0.112l-0.367,-0l-0,0.181l0.417,-0l-0,0.111l-0.561,0Z" style="fill:#00f;fill-rule:nonzero;"/></g><g transform="matrix(8,0,0,8,83.2648,411.653)"><path d="M0.377,-0.577l0,0.577l-0.144,-0l0,-0.577l-0.222,0l0,-0.111l0.589,0l0,0.111l-0.223,0Z" style="fill:#00f;fill-rule:nonzero;"/></g><g transform="matrix(8,0,0,8,55.8585,419.915)"><path d="M0.353,0.01c-0.095,-0 -0.167,-0.023 -0.218,-0.07c-0.05,-0.046 -0.075,-0.112 -0.075,-0.198l0,-0.43l0.144,0l0,0.419c0,0.054 0.013,0.096 0.039,0.124c0.026,0.028 0.064,0.042 0.114,0.042c0.051,-0 0.091,-0.015 0.119,-0.044c0.027,-0.03 0.041,-0.072 0.041,-0.127l0,-0.414l0.144,0l0,0.423c0,0.087 -0.027,0.155 -0.081,0.203c-0.054,0.048 -0.129,0.072 -0.227,0.072Z" style="fill:#00f;fill-rule:nonzero;"/></g><g transform="matrix(8,0,0,8,61.6359,419.915)"><path d="M0.628,-0.198c-0,0.067 -0.025,0.119 -0.075,0.154c-0.05,0.036 -0.123,0.054 -0.22,0.054c-0.088,-0 -0.157,-0.016 -0.208,-0.047c-0.05,-0.031 -0.082,-0.079 -0.096,-0.142l0.139,-0.023c0.009,0.036 0.028,0.063 0.055,0.079c0.027,0.017 0.065,0.025 0.114,0.025c0.1,-0 0.151,-0.031 0.151,-0.092c-0,-0.019 -0.006,-0.036 -0.018,-0.048c-0.011,-0.013 -0.027,-0.024 -0.048,-0.032c-0.021,-0.008 -0.062,-0.019 -0.121,-0.031c-0.052,-0.012 -0.087,-0.022 -0.108,-0.029c-0.02,-0.007 -0.038,-0.016 -0.054,-0.026c-0.017,-0.01 -0.03,-0.022 -0.042,-0.036c-0.011,-0.014 -0.02,-0.03 -0.026,-0.049c-0.007,-0.019 -0.01,-0.04 -0.01,-0.065c0,-0.062 0.023,-0.11 0.07,-0.143c0.047,-0.033 0.115,-0.049 0.204,-0.049c0.085,-0 0.149,0.013 0.192,0.04c0.043,0.026 0.07,0.071 0.083,0.132l-0.14,0.019c-0.007,-0.029 -0.022,-0.052 -0.043,-0.067c-0.022,-0.015 -0.054,-0.022 -0.095,-0.022c-0.087,-0 -0.131,0.027 -0.131,0.082c0,0.018 0.005,0.032 0.014,0.044c0.009,0.011 0.023,0.021 0.041,0.029c0.019,0.008 0.056,0.018 0.111,0.03c0.066,0.014 0.114,0.027 0.142,0.039c0.029,0.012 0.051,0.025 0.068,0.041c0.016,0.016 0.029,0.035 0.038,0.057c0.009,0.022 0.013,0.047 0.013,0.076Z" style="fill:#00f;fill-rule:nonzero;"/></g><g transform="matrix(8,0,0,8,66.9718,419.915)"><path d="M0.677,-0.196c-0,0.062 -0.024,0.111 -0.071,0.145c-0.046,0.034 -0.112,0.051 -0.195,0.051l-0.344,0l-0,-0.688l0.315,0c0.084,0 0.147,0.015 0.191,0.044c0.043,0.029 0.064,0.072 0.064,0.129c0,0.039 -0.011,0.072 -0.032,0.099c-0.022,0.027 -0.055,0.045 -0.099,0.054c0.056,0.007 0.098,0.024 0.127,0.053c0.029,0.028 0.044,0.066 0.044,0.113Zm-0.185,-0.3c0,-0.031 -0.01,-0.053 -0.029,-0.066c-0.02,-0.013 -0.049,-0.019 -0.088,-0.019l-0.164,-0l-0,0.17l0.165,0c0.041,0 0.07,-0.007 0.089,-0.021c0.018,-0.014 0.027,-0.035 0.027,-0.064Zm0.04,0.288c0,-0.064 -0.046,-0.096 -0.138,-0.096l-0.183,-0l-0,0.197l0.188,0c0.046,0 0.08,-0.008 0.101,-0.025c0.022,-0.017 0.032,-0.042 0.032,-0.076Z" style="fill:#00f;fill-rule:nonzero;"/></g><g transform="matrix(8,0,0,8,72.7492,419.915)"><rect x="0.039" y="-0.319" width="0.254" height="0.119" style="fill:#00f;fill-rule:nonzero;"/></g><g transform="matrix(8,0,0,8,75.4132,419.915)"><path d="M0.388,-0.104c0.087,0 0.147,-0.043 0.181,-0.13l0.126,0.047c-0.027,0.066 -0.067,0.116 -0.119,0.148c-0.052,0.033 -0.115,0.049 -0.188,0.049c-0.11,-0 -0.196,-0.032 -0.256,-0.094c-0.061,-0.063 -0.091,-0.151 -0.091,-0.263c0,-0.113 0.029,-0.2 0.087,-0.26c0.059,-0.061 0.143,-0.091 0.254,-0.091c0.081,-0 0.146,0.016 0.197,0.048c0.051,0.033 0.087,0.08 0.107,0.143l-0.127,0.035c-0.011,-0.035 -0.032,-0.062 -0.063,-0.082c-0.032,-0.021 -0.069,-0.031 -0.111,-0.031c-0.065,0 -0.115,0.02 -0.148,0.061c-0.034,0.04 -0.051,0.099 -0.051,0.177c0,0.079 0.017,0.139 0.052,0.181c0.035,0.042 0.085,0.062 0.15,0.062Z" style="fill:#00f;fill-rule:nonzero;"/></g></g><g transform="matrix(4.16667,0,0,4.16667,687.423,-1521.14)"><g transform="matrix(8,0,0,8,54.9679,411.653)"><path d="M0.54,-0l-0.16,-0.261l-0.169,-0l-0,0.261l-0.144,-0l-0,-0.688l0.344,0c0.082,0 0.145,0.018 0.19,0.053c0.044,0.035 0.066,0.086 0.066,0.152c0,0.048 -0.013,0.09 -0.041,0.125c-0.027,0.035 -0.064,0.058 -0.11,0.069l0.186,0.289l-0.162,-0Zm-0.018,-0.477c0,-0.066 -0.042,-0.099 -0.126,-0.099l-0.185,-0l-0,0.203l0.188,-0c0.041,-0 0.071,-0.009 0.092,-0.027c0.021,-0.019 0.031,-0.044 0.031,-0.077Z" style="fill:#00f;fill-rule:nonzero;"/></g><g transform="matrix(8,0,0,8,60.7453,411.653)"><path d="M0.067,-0l-0,-0.688l0.541,0l-0,0.111l-0.397,0l-0,0.173l0.367,0l0,0.112l-0.367,-0l-0,0.181l0.417,-0l-0,0.111l-0.561,0Z" style="fill:#00f;fill-rule:nonzero;"/></g><g transform="matrix(8,0,0,8,66.0812,411.653)"><path d="M0.628,-0.198c-0,0.067 -0.025,0.119 -0.075,0.154c-0.05,0.036 -0.123,0.054 -0.22,0.054c-0.088,-0 -0.157,-0.016 -0.208,-0.047c-0.05,-0.031 -0.082,-0.079 -0.096,-0.142l0.139,-0.023c0.009,0.036 0.028,0.063 0.055,0.079c0.027,0.017 0.065,0.025 0.114,0.025c0.1,-0 0.151,-0.031 0.151,-0.092c-0,-0.019 -0.006,-0.036 -0.018,-0.048c-0.011,-0.013 -0.027,-0.024 -0.048,-0.032c-0.021,-0.008 -0.062,-0.019 -0.121,-0.031c-0.052,-0.012 -0.087,-0.022 -0.108,-0.029c-0.02,-0.007 -0.038,-0.016 -0.054,-0.026c-0.017,-0.01 -0.03,-0.022 -0.042,-0.036c-0.011,-0.014 -0.02,-0.03 -0.026,-0.049c-0.007,-0.019 -0.01,-0.04 -0.01,-0.065c0,-0.062 0.023,-0.11 0.07,-0.143c0.047,-0.033 0.115,-0.049 0.204,-0.049c0.085,-0 0.149,0.013 0.192,0.04c0.043,0.026 0.07,0.071 0.083,0.132l-0.14,0.019c-0.007,-0.029 -0.022,-0.052 -0.043,-0.067c-0.022,-0.015 -0.054,-0.022 -0.095,-0.022c-0.087,-0 -0.131,0.027 -0.131,0.082c0,0.018 0.005,0.032 0.014,0.044c0.009,0.011 0.023,0.021 0.041,0.029c0.019,0.008 0.056,0.018 0.111,0.03c0.066,0.014 0.114,0.027 0.142,0.039c0.029,0.012 0.051,0.025 0.068,0.041c0.016,0.016 0.029,0.035 0.038,0.057c0.009,0.022 0.013,0.047 0.013,0.076Z" style="fill:#00f;fill-rule:nonzero;"/></g><g transform="matrix(8,0,0,8,71.4171,411.653)"><path d="M0.067,-0l-0,-0.688l0.541,0l-0,0.111l-0.397,0l-0,0.173l0.367,0l0,0.112l-0.367,-0l-0,0.181l0.417,-0l-0,0.111l-0.561,0Z" style="fill:#00f;fill-rule:nonzero;"/></g><g transform="matrix(8,0,0,8,76.7531,411.653)"><path d="M0.377,-0.577l0,0.577l-0.144,-0l0,-0.577l-0.222,0l0,-0.111l0.589,0l0,0.111l-0.223,0Z" style="fill:#00f;fill-rule:nonzero;"/></g><g transform="matrix(8,0,0,8,54.9679,419.915)"><path d="M0.677,-0.196c-0,0.062 -0.024,0.111 -0.071,0.145c-0.046,0.034 -0.112,0.051 -0.195,0.051l-0.344,0l-0,-0.688l0.315,0c0.084,0 0.147,0.015 0.191,0.044c0.043,0.029 0.064,0.072 0.064,0.129c0,0.039 -0.011,0.072 -0.032,0.099c-0.022,0.027 -0.055,0.045 -0.099,0.054c0.056,0.007 0.098,0.024 0.127,0.053c0.029,0.028 0.044,0.066 0.044,0.113Zm-0.185,-0.3c0,-0.031 -0.01,-0.053 -0.029,-0.066c-0.02,-0.013 -0.049,-0.019 -0.088,-0.019l-0.164,-0l-0,0.17l0.165,0c0.041,0 0.07,-0.007 0.089,-0.021c0.018,-0.014 0.027,-0.035 0.027,-0.064Zm0.04,0.288c0,-0.064 -0.046,-0.096 -0.138,-0.096l-0.183,-0l-0,0.197l0.188,0c0.046,0 0.08,-0.008 0.101,-0.025c0.022,-0.017 0.032,-0.042 0.032,-0.076Z" style="fill:#00f;fill-rule:nonzero;"/></g><g transform="matrix(8,0,0,8,60.7453,419.915)"><path d="M0.353,0.01c-0.095,-0 -0.167,-0.023 -0.218,-0.07c-0.05,-0.046 -0.075,-0.112 -0.075,-0.198l0,-0.43l0.144,0l0,0.419c0,0.054 0.013,0.096 0.039,0.124c0.026,0.028 0.064,0.042 0.114,0.042c0.051,-0 0.091,-0.015 0.119,-0.044c0.027,-0.03 0.041,-0.072 0.041,-0.127l0,-0.414l0.144,0l0,0.423c0,0.087 -0.027,0.155 -0.081,0.203c-0.054,0.048 -0.129,0.072 -0.227,0.072Z" style="fill:#00f;fill-rule:nonzero;"/></g><g transform="matrix(8,0,0,8,66.5226,419.915)"><path d="M0.377,-0.577l0,0.577l-0.144,-0l0,-0.577l-0.222,0l0,-0.111l0.589,0l0,0.111l-0.223,0Z" style="fill:#00f;fill-rule:nonzero;"/></g><g transform="matrix(8,0,0,8,71.4093,419.915)"><path d="M0.377,-0.577l0,0.577l-0.144,-0l0,-0.577l-0.222,0l0,-0.111l0.589,0l0,0.111l-0.223,0Z" style="fill:#00f;fill-rule:nonzero;"/></g><g transform="matrix(8,0,0,8,76.1515,419.915)"><path d="M0.736,-0.347c-0,0.071 -0.014,0.134 -0.043,0.189c-0.028,0.054 -0.068,0.096 -0.121,0.125c-0.053,0.028 -0.114,0.043 -0.185,0.043c-0.108,-0 -0.193,-0.032 -0.254,-0.096c-0.061,-0.063 -0.092,-0.15 -0.092,-0.261c0,-0.111 0.031,-0.197 0.092,-0.258c0.061,-0.062 0.146,-0.093 0.255,-0.093c0.109,-0 0.194,0.031 0.256,0.094c0.061,0.062 0.092,0.148 0.092,0.257Zm-0.147,-0c-0,-0.074 -0.018,-0.133 -0.053,-0.175c-0.035,-0.042 -0.084,-0.063 -0.148,-0.063c-0.064,0 -0.114,0.021 -0.149,0.063c-0.035,0.042 -0.053,0.1 -0.053,0.175c0,0.075 0.018,0.135 0.054,0.178c0.036,0.044 0.085,0.065 0.147,0.065c0.065,0 0.114,-0.021 0.149,-0.063c0.035,-0.042 0.053,-0.102 0.053,-0.18Z" style="fill:#00f;fill-rule:nonzero;"/></g><g transform="matrix(8,0,0,8,82.3742,419.915)"><path d="M0.486,-0l-0.3,-0.53c0.006,0.052 0.009,0.093 0.009,0.124l-0,0.406l-0.128,-0l-0,-0.688l0.164,0l0.305,0.534c-0.006,-0.049 -0.009,-0.094 -0.009,-0.134l-0,-0.4l0.128,0l-0,0.688l-0.169,-0Z" style="fill:#00f;fill-rule:nonzero;"/></g></g><g transform="matrix(4.16667,0,0,4.16667,685.567,-1379.69)"><g transform="matrix(8,0,0,8,55.8585,411.653)"><path d="M0.377,-0.577l0,0.577l-0.144,-0l0,-0.577l-0.222,0l0,-0.111l0.589,0l0,0.111l-0.223,0Z" style="fill:#00f;fill-rule:nonzero;"/></g><g transform="matrix(8,0,0,8,60.1515,411.653)"><path d="M0.553,-0l-0.061,-0.176l-0.262,0l-0.061,0.176l-0.144,-0l0.251,-0.688l0.17,0l0.25,0.688l-0.143,-0Zm-0.192,-0.582l-0.003,0.011c-0.003,0.011 -0.007,0.025 -0.012,0.04c-0.004,0.015 -0.032,0.097 -0.084,0.247l0.198,-0l-0.068,-0.198l-0.021,-0.066l-0.01,-0.034Z" style="fill:#00f;fill-rule:nonzero;"/></g><g transform="matrix(8,0,0,8,65.9289,411.653)"><path d="M0.54,-0l-0.16,-0.261l-0.169,-0l-0,0.261l-0.144,-0l-0,-0.688l0.344,0c0.082,0 0.145,0.018 0.19,0.053c0.044,0.035 0.066,0.086 0.066,0.152c0,0.048 -0.013,0.09 -0.041,0.125c-0.027,0.035 -0.064,0.058 -0.11,0.069l0.186,0.289l-0.162,-0Zm-0.018,-0.477c0,-0.066 -0.042,-0.099 -0.126,-0.099l-0.185,-0l-0,0.203l0.188,-0c0.041,-0 0.071,-0.009 0.092,-0.027c0.021,-0.019 0.031,-0.044 0.031,-0.077Z" style="fill:#00f;fill-rule:nonzero;"/></g><g transform="matrix(8,0,0,8,71.7062,411.653)"><path d="M0.394,-0.103c0.037,-0 0.073,-0.005 0.108,-0.016c0.036,-0.011 0.063,-0.025 0.082,-0.042l-0,-0.095l-0.168,-0l0,-0.107l0.3,0l-0,0.253c-0.037,0.038 -0.084,0.067 -0.143,0.088c-0.058,0.021 -0.119,0.032 -0.183,0.032c-0.112,-0 -0.198,-0.031 -0.259,-0.093c-0.06,-0.062 -0.09,-0.15 -0.09,-0.264c0,-0.113 0.03,-0.2 0.091,-0.261c0.06,-0.06 0.147,-0.09 0.261,-0.09c0.162,-0 0.264,0.059 0.308,0.179l-0.133,0.04c-0.014,-0.035 -0.036,-0.061 -0.067,-0.079c-0.031,-0.018 -0.067,-0.027 -0.108,-0.027c-0.068,0 -0.119,0.021 -0.154,0.062c-0.035,0.041 -0.053,0.099 -0.053,0.176c0,0.078 0.018,0.138 0.054,0.18c0.037,0.043 0.088,0.064 0.154,0.064Z" style="fill:#00f;fill-rule:nonzero;"/></g><g transform="matrix(8,0,0,8,77.9289,411.653)"><path d="M0.067,-0l-0,-0.688l0.541,0l-0,0.111l-0.397,0l-0,0.173l0.367,0l0,0.112l-0.367,-0l-0,0.181l0.417,-0l-0,0.111l-0.561,0Z" style="fill:#00f;fill-rule:nonzero;"/></g><g transform="matrix(8,0,0,8,83.2648,411.653)"><path d="M0.377,-0.577l0,0.577l-0.144,-0l0,-0.577l-0.222,0l0,-0.111l0.589,0l0,0.111l-0.223,0Z" style="fill:#00f;fill-rule:nonzero;"/></g><g transform="matrix(8,0,0,8,55.8585,419.915)"><path d="M0.353,0.01c-0.095,-0 -0.167,-0.023 -0.218,-0.07c-0.05,-0.046 -0.075,-0.112 -0.075,-0.198l0,-0.43l0.144,0l0,0.419c0,0.054 0.013,0.096 0.039,0.124c0.026,0.028 0.064,0.042 0.114,0.042c0.051,-0 0.091,-0.015 0.119,-0.044c0.027,-0.03 0.041,-0.072 0.041,-0.127l0,-0.414l0.144,0l0,0.423c0,0.087 -0.027,0.155 -0.081,0.203c-0.054,0.048 -0.129,0.072 -0.227,0.072Z" style="fill:#00f;fill-rule:nonzero;"/></g><g transform="matrix(8,0,0,8,61.6359,419.915)"><path d="M0.628,-0.198c-0,0.067 -0.025,0.119 -0.075,0.154c-0.05,0.036 -0.123,0.054 -0.22,0.054c-0.088,-0 -0.157,-0.016 -0.208,-0.047c-0.05,-0.031 -0.082,-0.079 -0.096,-0.142l0.139,-0.023c0.009,0.036 0.028,0.063 0.055,0.079c0.027,0.017 0.065,0.025 0.114,0.025c0.1,-0 0.151,-0.031 0.151,-0.092c-0,-0.019 -0.006,-0.036 -0.018,-0.048c-0.011,-0.013 -0.027,-0.024 -0.048,-0.032c-0.021,-0.008 -0.062,-0.019 -0.121,-0.031c-0.052,-0.012 -0.087,-0.022 -0.108,-0.029c-0.02,-0.007 -0.038,-0.016 -0.054,-0.026c-0.017,-0.01 -0.03,-0.022 -0.042,-0.036c-0.011,-0.014 -0.02,-0.03 -0.026,-0.049c-0.007,-0.019 -0.01,-0.04 -0.01,-0.065c0,-0.062 0.023,-0.11 0.07,-0.143c0.047,-0.033 0.115,-0.049 0.204,-0.049c0.085,-0 0.149,0.013 0.192,0.04c0.043,0.026 0.07,0.071 0.083,0.132l-0.14,0.019c-0.007,-0.029 -0.022,-0.052 -0.043,-0.067c-0.022,-0.015 -0.054,-0.022 -0.095,-0.022c-0.087,-0 -0.131,0.027 -0.131,0.082c0,0.018 0.005,0.032 0.014,0.044c0.009,0.011 0.023,0.021 0.041,0.029c0.019,0.008 0.056,0.018 0.111,0.03c0.066,0.014 0.114,0.027 0.142,0.039c0.029,0.012 0.051,0.025 0.068,0.041c0.016,0.016 0.029,0.035 0.038,0.057c0.009,0.022 0.013,0.047 0.013,0.076Z" style="fill:#00f;fill-rule:nonzero;"/></g><g transform="matrix(8,0,0,8,66.9718,419.915)"><path d="M0.677,-0.196c-0,0.062 -0.024,0.111 -0.071,0.145c-0.046,0.034 -0.112,0.051 -0.195,0.051l-0.344,0l-0,-0.688l0.315,0c0.084,0 0.147,0.015 0.191,0.044c0.043,0.029 0.064,0.072 0.064,0.129c0,0.039 -0.011,0.072 -0.032,0.099c-0.022,0.027 -0.055,0.045 -0.099,0.054c0.056,0.007 0.098,0.024 0.127,0.053c0.029,0.028 0.044,0.066 0.044,0.113Zm-0.185,-0.3c0,-0.031 -0.01,-0.053 -0.029,-0.066c-0.02,-0.013 -0.049,-0.019 -0.088,-0.019l-0.164,-0l-0,0.17l0.165,0c0.041,0 0.07,-0.007 0.089,-0.021c0.018,-0.014 0.027,-0.035 0.027,-0.064Zm0.04,0.288c0,-0.064 -0.046,-0.096 -0.138,-0.096l-0.183,-0l-0,0.197l0.188,0c0.046,0 0.08,-0.008 0.101,-0.025c0.022,-0.017 0.032,-0.042 0.032,-0.076Z" style="fill:#00f;fill-rule:nonzero;"/></g><g transform="matrix(8,0,0,8,72.7492,419.915)"><rect x="0.039" y="-0.319" width="0.254" height="0.119" style="fill:#00f;fill-rule:nonzero;"/></g><g transform="matrix(8,0,0,8,75.4132,419.915)"><path d="M0.553,-0l-0.061,-0.176l-0.262,0l-0.061,0.176l-0.144,-0l0.251,-0.688l0.17,0l0.25,0.688l-0.143,-0Zm-0.192,-0.582l-0.003,0.011c-0.003,0.011 -0.007,0.025 -0.012,0.04c-0.004,0.015 -0.032,0.097 -0.084,0.247l0.198,-0l-0.068,-0.198l-0.021,-0.066l-0.01,-0.034Z" style="fill:#00f;fill-rule:nonzero;"/></g></g><path d="M365.495,892.32c-0,1.476 -0.337,2.794 -1.01,3.955c-0.672,1.161 -1.635,2.059 -2.889,2.694c-1.253,0.634 -2.742,0.952 -4.467,0.952l-5.697,-0l0,8.073l-4.801,-0l-0,-22.933l10.302,-0c2.746,-0 4.859,0.632 6.34,1.896c1.481,1.264 2.222,3.052 2.222,5.363Zm-4.834,0.081c-0,-2.409 -1.422,-3.613 -4.265,-3.613l-4.964,-0l0,7.438l5.094,0c1.324,0 2.344,-0.328 3.06,-0.985c0.716,-0.656 1.075,-1.603 1.075,-2.84Z" style="fill:#00f;fill-rule:nonzero;"/><path d="M387.907,907.994l-0,-13.9c-0,-0.315 0.002,-0.629 0.008,-0.944c0.005,-0.315 0.057,-1.666 0.154,-4.053c-0.77,2.919 -1.34,4.954 -1.709,6.104l-4.134,12.793l-3.418,-0l-4.134,-12.793l-1.741,-6.104c0.13,2.518 0.195,4.183 0.195,4.997l0,13.9l-4.264,-0l-0,-22.933l6.429,-0l4.101,12.825l0.358,1.237l0.782,3.076l1.025,-3.678l4.215,-13.46l6.397,-0l-0,22.933l-4.264,-0Z" style="fill:#00f;fill-rule:nonzero;"/><path d="M418.929,896.421c-0,2.388 -0.472,4.487 -1.416,6.299c-0.944,1.812 -2.295,3.198 -4.053,4.159c-1.758,0.96 -3.809,1.44 -6.152,1.44c-3.603,0 -6.427,-1.06 -8.472,-3.182c-2.045,-2.121 -3.068,-5.026 -3.068,-8.716c-0,-3.678 1.02,-6.548 3.06,-8.61c2.04,-2.061 4.877,-3.092 8.512,-3.092c3.635,-0 6.475,1.042 8.521,3.125c2.045,2.083 3.068,4.942 3.068,8.577Zm-4.899,0c-0,-2.474 -0.586,-4.413 -1.758,-5.818c-1.172,-1.405 -2.816,-2.108 -4.932,-2.108c-2.148,-0 -3.808,0.697 -4.98,2.091c-1.172,1.395 -1.758,3.34 -1.758,5.835c-0,2.518 0.599,4.501 1.798,5.949c1.199,1.449 2.835,2.173 4.908,2.173c2.148,0 3.806,-0.705 4.972,-2.116c1.166,-1.41 1.75,-3.412 1.75,-6.006Z" style="fill:#00f;fill-rule:nonzero;"/><path d="M443.001,896.356c0,2.366 -0.464,4.43 -1.392,6.193c-0.927,1.764 -2.24,3.112 -3.938,4.045c-1.698,0.933 -3.643,1.4 -5.835,1.4l-9.278,-0l0,-22.933l8.301,-0c3.863,-0 6.852,0.974 8.968,2.921c2.116,1.948 3.174,4.739 3.174,8.374Zm-4.834,0c0,-2.463 -0.64,-4.343 -1.921,-5.639c-1.28,-1.297 -3.108,-1.945 -5.485,-1.945l-3.401,-0l-0,15.511l4.069,-0c2.061,-0 3.7,-0.711 4.915,-2.132c1.215,-1.422 1.823,-3.353 1.823,-5.795Z" style="fill:#00f;fill-rule:nonzero;"/><path d="M470.866,907.994l-2.035,-5.86l-8.74,0l-2.035,5.86l-4.801,-0l8.366,-22.933l5.664,-0l8.333,22.933l-4.752,-0Zm-6.413,-19.401l-0.098,0.358c-0.108,0.39 -0.238,0.835 -0.39,1.334c-0.152,0.499 -1.085,3.245 -2.8,8.236l6.592,-0l-2.262,-6.592l-0.7,-2.213l-0.342,-1.123Z" style="fill:#00f;fill-rule:nonzero;"/><path d="M635.304,892.387c-0,1.475 -0.337,2.794 -1.009,3.955c-0.673,1.161 -1.636,2.059 -2.889,2.694c-1.254,0.634 -2.743,0.952 -4.468,0.952l-5.697,-0l0,8.073l-4.801,-0l-0,-22.933l10.302,-0c2.746,-0 4.859,0.632 6.34,1.896c1.481,1.264 2.222,3.052 2.222,5.363Zm-4.834,0.081c-0,-2.409 -1.422,-3.613 -4.265,-3.613l-4.964,-0l0,7.438l5.095,0c1.323,0 2.343,-0.328 3.059,-0.985c0.717,-0.656 1.075,-1.603 1.075,-2.84Z" style="fill:#00f;fill-rule:nonzero;"/><path d="M657.716,908.061l-0,-13.9c-0,-0.315 0.002,-0.629 0.008,-0.944c0.005,-0.315 0.057,-1.666 0.155,-4.053c-0.771,2.919 -1.341,4.953 -1.709,6.104l-4.135,12.793l-3.418,-0l-4.134,-12.793l-1.741,-6.104c0.13,2.517 0.195,4.183 0.195,4.997l0,13.9l-4.264,-0l-0,-22.933l6.429,-0l4.101,12.825l0.358,1.237l0.782,3.076l1.025,-3.678l4.216,-13.46l6.396,-0l0,22.933l-4.264,-0Z" style="fill:#00f;fill-rule:nonzero;"/><path d="M688.738,896.488c-0,2.387 -0.472,4.487 -1.416,6.299c-0.944,1.812 -2.295,3.198 -4.053,4.159c-1.758,0.96 -3.808,1.44 -6.152,1.44c-3.603,0 -6.427,-1.061 -8.472,-3.182c-2.045,-2.121 -3.068,-5.026 -3.068,-8.716c0,-3.678 1.02,-6.548 3.06,-8.61c2.04,-2.061 4.877,-3.092 8.512,-3.092c3.635,-0 6.475,1.042 8.521,3.125c2.045,2.083 3.068,4.942 3.068,8.577Zm-4.899,0c-0,-2.474 -0.586,-4.413 -1.758,-5.818c-1.172,-1.406 -2.816,-2.108 -4.932,-2.108c-2.148,-0 -3.808,0.697 -4.98,2.091c-1.172,1.395 -1.758,3.34 -1.758,5.835c0,2.518 0.6,4.501 1.799,5.949c1.199,1.449 2.834,2.173 4.907,2.173c2.148,0 3.806,-0.705 4.972,-2.116c1.167,-1.41 1.75,-3.412 1.75,-6.006Z" style="fill:#00f;fill-rule:nonzero;"/><path d="M712.81,896.423c0,2.366 -0.464,4.43 -1.391,6.193c-0.928,1.763 -2.241,3.112 -3.939,4.045c-1.698,0.933 -3.643,1.4 -5.835,1.4l-9.278,-0l0,-22.933l8.301,-0c3.863,-0 6.852,0.973 8.968,2.921c2.116,1.948 3.174,4.739 3.174,8.374Zm-4.834,0c0,-2.463 -0.64,-4.343 -1.92,-5.639c-1.281,-1.297 -3.109,-1.945 -5.485,-1.945l-3.402,-0l-0,15.511l4.069,-0c2.062,-0 3.7,-0.711 4.915,-2.133c1.216,-1.421 1.823,-3.352 1.823,-5.794Z" style="fill:#00f;fill-rule:nonzero;"/><path d="M746.03,901.518c-0,2.083 -0.782,3.694 -2.344,4.834c-1.563,1.139 -3.733,1.709 -6.511,1.709l-11.474,-0l-0,-22.933l10.498,-0c2.799,-0 4.918,0.485 6.356,1.456c1.437,0.971 2.156,2.406 2.156,4.305c0,1.302 -0.361,2.401 -1.082,3.296c-0.722,0.895 -1.82,1.5 -3.296,1.815c1.855,0.217 3.269,0.8 4.24,1.75c0.971,0.949 1.457,2.205 1.457,3.768Zm-6.153,-9.978c0,-1.03 -0.328,-1.763 -0.984,-2.197c-0.657,-0.434 -1.631,-0.651 -2.922,-0.651l-5.469,0l0,5.68l5.502,0c1.356,0 2.341,-0.236 2.954,-0.708c0.613,-0.472 0.919,-1.18 0.919,-2.124Zm1.335,9.603c-0,-2.148 -1.541,-3.222 -4.623,-3.222l-6.087,-0l0,6.575l6.266,0c1.541,0 2.667,-0.279 3.378,-0.838c0.71,-0.559 1.066,-1.397 1.066,-2.515Z" style="fill:#00f;fill-rule:nonzero;"/><g><g><path d="M185.885,598.393c0,-11.408 2.223,-20.671 4.961,-20.671" style="fill:none;fill-rule:nonzero;stroke:#000;stroke-width:3.13px;"/><path d="M185.885,597.805c0,-11.425 2.223,-20.67 4.961,-20.67" style="fill:none;fill-rule:nonzero;stroke:#000;stroke-width:3.13px;"/><path d="M185.319,597.805c0,-6.12 0.582,-11.962 1.617,-16.291c1.039,-4.313 2.445,-6.738 3.91,-6.738" style="fill:none;fill-rule:nonzero;stroke:#000;stroke-width:3.13px;"/><path d="M185.319,673.976l0,-76.171" style="fill:none;fill-rule:nonzero;stroke:#000;stroke-width:3.13px;"/><path d="M185.885,597.805l0,76.171" style="fill:none;fill-rule:nonzero;stroke:#000;stroke-width:3.13px;"/><path d="M190.846,694.647c-2.738,0 -4.961,-9.242 -4.961,-20.671" style="fill:none;fill-rule:nonzero;stroke:#000;stroke-width:3.13px;"/><path d="M190.846,697.01c-1.465,-0 -2.871,-2.425 -3.91,-6.738c-1.035,-4.317 -1.617,-10.175 -1.617,-16.296" style="fill:none;fill-rule:nonzero;stroke:#000;stroke-width:3.13px;"/><path d="M184.92,485.664c0,-9.784 1.907,-17.709 4.254,-17.709" style="fill:none;fill-rule:nonzero;stroke:#000;stroke-width:3.12px;"/><path d="M184.354,485.664c0,-11.084 2.156,-20.067 4.82,-20.067" style="fill:none;fill-rule:nonzero;stroke:#000;stroke-width:3.13px;"/><path d="M184.354,491.426l0,-5.762" style="fill:none;fill-rule:nonzero;stroke:#000;stroke-width:3.13px;"/><path d="M184.92,485.664l0,5.762" style="fill:none;fill-rule:nonzero;stroke:#000;stroke-width:3.13px;"/><path d="M189.174,509.151c-2.347,0 -4.254,-7.941 -4.254,-17.725" style="fill:none;fill-rule:nonzero;stroke:#000;stroke-width:3.13px;"/><path d="M189.174,511.51c-2.664,-0 -4.82,-8.984 -4.82,-20.084" style="fill:none;fill-rule:nonzero;stroke:#000;stroke-width:3.13px;"/><path d="M185.885,302.526c0,-11.408 2.223,-20.671 4.961,-20.671" style="fill:none;fill-rule:nonzero;stroke:#000;stroke-width:3.13px;"/><path d="M185.319,302.526c0,-6.104 0.582,-11.962 1.617,-16.291c1.039,-4.313 2.445,-6.738 3.91,-6.738" style="fill:none;fill-rule:nonzero;stroke:#000;stroke-width:3.13px;"/><path d="M185.319,378.714l0,-76.188" style="fill:none;fill-rule:nonzero;stroke:#000;stroke-width:3.13px;"/><path d="M185.885,302.526l0,76.188" style="fill:none;fill-rule:nonzero;stroke:#000;stroke-width:3.13px;"/><path d="M190.846,399.368c-2.738,-0 -4.961,-9.246 -4.961,-20.654" style="fill:none;fill-rule:nonzero;stroke:#000;stroke-width:3.13px;"/><path d="M190.846,401.743c-1.465,-0 -2.871,-2.425 -3.91,-6.754c-1.035,-4.313 -1.617,-10.171 -1.617,-16.275" style="fill:none;fill-rule:nonzero;stroke:#000;stroke-width:3.13px;"/><path d="M184.92,196.293c0,-9.783 1.907,-17.708 4.254,-17.708" style="fill:none;fill-rule:nonzero;stroke:#000;stroke-width:3.13px;"/><path d="M184.354,196.293c0,-11.083 2.156,-20.071 4.82,-20.071" style="fill:none;fill-rule:nonzero;stroke:#000;stroke-width:3.13px;"/><path d="M184.354,202.055l0,-5.762" style="fill:none;fill-rule:nonzero;stroke:#000;stroke-width:3.13px;"/><path d="M184.92,196.293l0,5.762" style="fill:none;fill-rule:nonzero;stroke:#000;stroke-width:3.13px;"/><path d="M189.174,219.78c-2.347,0 -4.254,-7.945 -4.254,-17.725" style="fill:none;fill-rule:nonzero;stroke:#000;stroke-width:3.13px;"/><path d="M189.174,222.139c-2.664,-0 -4.82,-8.984 -4.82,-20.084" style="fill:none;fill-rule:nonzero;stroke:#000;stroke-width:3.13px;"/></g><path d="M905.982,598.393c-0,-11.408 -2.223,-20.671 -4.961,-20.671" style="fill:none;fill-rule:nonzero;stroke:#000;stroke-width:3.13px;"/><path d="M905.982,597.805c-0,-11.425 -2.223,-20.67 -4.961,-20.67" style="fill:none;fill-rule:nonzero;stroke:#000;stroke-width:3.13px;"/><path d="M906.548,597.805c-0,-6.12 -0.582,-11.962 -1.617,-16.291c-1.039,-4.313 -2.445,-6.738 -3.91,-6.738" style="fill:none;fill-rule:nonzero;stroke:#000;stroke-width:3.13px;"/><path d="M906.548,673.976l-0,-76.171" style="fill:none;fill-rule:nonzero;stroke:#000;stroke-width:3.13px;"/><path d="M905.982,597.805l-0,76.171" style="fill:none;fill-rule:nonzero;stroke:#000;stroke-width:3.13px;"/><path d="M901.021,694.647c2.738,0 4.961,-9.242 4.961,-20.671" style="fill:none;fill-rule:nonzero;stroke:#000;stroke-width:3.13px;"/><path d="M901.021,697.01c1.465,-0 2.871,-2.425 3.91,-6.738c1.035,-4.317 1.617,-10.175 1.617,-16.296" style="fill:none;fill-rule:nonzero;stroke:#000;stroke-width:3.13px;"/><path d="M905.982,302.526c-0,-11.408 -2.223,-20.671 -4.961,-20.671" style="fill:none;fill-rule:nonzero;stroke:#000;stroke-width:3.13px;"/><path d="M906.548,302.526c-0,-6.104 -0.582,-11.962 -1.617,-16.291c-1.039,-4.313 -2.445,-6.738 -3.91,-6.738" style="fill:none;fill-rule:nonzero;stroke:#000;stroke-width:3.13px;"/><path d="M906.548,378.714l-0,-76.188" style="fill:none;fill-rule:nonzero;stroke:#000;stroke-width:3.13px;"/><path d="M905.982,302.526l-0,76.188" style="fill:none;fill-rule:nonzero;stroke:#000;stroke-width:3.13px;"/><path d="M901.021,399.368c2.738,-0 4.961,-9.246 4.961,-20.654" style="fill:none;fill-rule:nonzero;stroke:#000;stroke-width:3.13px;"/><path d="M901.021,401.743c1.465,-0 2.871,-2.425 3.91,-6.754c1.035,-4.313 1.617,-10.171 1.617,-16.275" style="fill:none;fill-rule:nonzero;stroke:#000;stroke-width:3.13px;"/><path d="M906.947,196.293c-0,-9.783 -1.907,-17.708 -4.254,-17.708" style="fill:none;fill-rule:nonzero;stroke:#000;stroke-width:3.13px;"/><path d="M907.513,196.293c-0,-11.083 -2.156,-20.071 -4.82,-20.071" style="fill:none;fill-rule:nonzero;stroke:#000;stroke-width:3.13px;"/><path d="M907.513,202.055l-0,-5.762" style="fill:none;fill-rule:nonzero;stroke:#000;stroke-width:3.13px;"/><path d="M906.947,196.293l-0,5.762" style="fill:none;fill-rule:nonzero;stroke:#000;stroke-width:3.13px;"/><path d="M902.693,219.78c2.347,0 4.254,-7.945 4.254,-17.725" style="fill:none;fill-rule:nonzero;stroke:#000;stroke-width:3.13px;"/><path d="M902.693,222.139c2.664,-0 4.82,-8.984 4.82,-20.084" style="fill:none;fill-rule:nonzero;stroke:#000;stroke-width:3.13px;"/></g><path d="M776.169,868.965c0,0.164 -2.654,0.297 -5.908,0.297" style="fill:none;fill-rule:nonzero;stroke:#000;stroke-width:3.13px;"/><path d="M776.169,868.965l0,-3.125" style="fill:none;fill-rule:nonzero;stroke:#000;stroke-width:3.13px;"/><path d="M778.511,865.84l0,3.125" style="fill:none;fill-rule:nonzero;stroke:#000;stroke-width:3.13px;"/><path d="M311.99,868.965l0,-3.125" style="fill:none;fill-rule:nonzero;stroke:#000;stroke-width:3.13px;"/><path d="M320.261,869.381c-4.575,0 -8.271,-0.186 -8.271,-0.416" style="fill:none;fill-rule:nonzero;stroke:#000;stroke-width:3.13px;"/><path d="M500.257,869.381l-179.996,0" style="fill:none;fill-rule:nonzero;stroke:#000;stroke-width:3.13px;"/><path d="M508.524,868.965c-0,0.23 -3.709,0.416 -8.267,0.416" style="fill:none;fill-rule:nonzero;stroke:#000;stroke-width:3.13px;"/><path d="M508.524,868.965l-0,-3.154" style="fill:none;fill-rule:nonzero;stroke:#000;stroke-width:3.13px;"/><path d="M581.994,868.965l0,-3.154" style="fill:none;fill-rule:nonzero;stroke:#000;stroke-width:3.13px;"/><path d="M590.249,869.381c-4.559,0 -8.255,-0.186 -8.255,-0.416" style="fill:none;fill-rule:nonzero;stroke:#000;stroke-width:3.13px;"/><path d="M770.261,869.381l-179.996,0" style="fill:none;fill-rule:nonzero;stroke:#000;stroke-width:3.13px;"/><path d="M778.528,868.965c-0,0.23 -3.709,0.416 -8.267,0.416" style="fill:none;fill-rule:nonzero;stroke:#000;stroke-width:3.13px;"/><path d="M314.353,865.84l-0,3.125" style="fill:none;fill-rule:nonzero;stroke:#000;stroke-width:3.13px;"/><path d="M320.261,869.262c-3.271,0 -5.908,-0.133 -5.908,-0.297" style="fill:none;fill-rule:nonzero;stroke:#000;stroke-width:3.13px;"/><path d="M320.261,869.262l179.996,0" style="fill:none;fill-rule:nonzero;stroke:#000;stroke-width:3.13px;"/><path d="M506.165,868.965c0,0.164 -2.654,0.297 -5.908,0.297" style="fill:none;fill-rule:nonzero;stroke:#000;stroke-width:3.13px;"/><path d="M506.165,868.965l0,-3.154" style="fill:none;fill-rule:nonzero;stroke:#000;stroke-width:3.13px;"/><path d="M584.357,865.811l-0,3.154" style="fill:none;fill-rule:nonzero;stroke:#000;stroke-width:3.13px;"/><path d="M590.249,869.262c-3.259,0 -5.892,-0.133 -5.892,-0.297" style="fill:none;fill-rule:nonzero;stroke:#000;stroke-width:3.13px;"/><path d="M590.265,869.262l179.996,0" style="fill:none;fill-rule:nonzero;stroke:#000;stroke-width:3.13px;"/></g></svg>