<?xml version="1.0" encoding="UTF-8" standalone="no"?><!DOCTYPE svg PUBLIC "-//W3C//DTD SVG 1.1//EN" "http://www.w3.org/Graphics/SVG/1.1/DTD/svg11.dtd"><svg width="100%" height="100%" viewBox="0 0 722 871" version="1.1" xmlns="http://www.w3.org/2000/svg" xmlns:xlink="http://www.w3.org/1999/xlink" xml:space="preserve" xmlns:serif="http://www.serif.com/" style="fill-rule:evenodd;clip-rule:evenodd;stroke-linecap:round;"><g id="Top"><path d="M679.672,863.93c9.391,-0 18.408,-3.729 25.045,-10.388c6.659,-6.637 10.388,-15.654 10.388,-25.045" style="fill:none;fill-rule:nonzero;stroke:#000;stroke-width:3.13px;"/><path d="M41.876,863.93l637.796,-0" style="fill:none;fill-rule:nonzero;stroke:#000;stroke-width:3.13px;"/><path d="M715.105,828.497l-0,-786.605" style="fill:none;fill-rule:nonzero;stroke:#000;stroke-width:3.13px;"/><path d="M207.226,260.088c10.629,0 10.629,-15.933 -0,-15.933c-10.629,-0 -10.629,15.933 -0,15.933Zm-0,0l-0,0" style="fill:none;fill-rule:nonzero;stroke:#000;stroke-width:3.13px;"/><path d="M207.226,257.905c7.7,-0.017 7.7,-11.554 -0,-11.571c-7.7,0.017 -7.7,11.554 -0,11.571Zm-0,-0l-0,-0" style="fill:none;fill-rule:nonzero;stroke:#000;stroke-width:3.13px;"/><path d="M136.359,260.088c10.629,0 10.629,-15.933 0,-15.933c-10.629,-0 -10.629,15.933 0,15.933Zm0,0l0,0" style="fill:none;fill-rule:nonzero;stroke:#000;stroke-width:3.13px;"/><path d="M136.359,257.905c7.7,-0.017 7.7,-11.554 0,-11.571c-7.7,0.017 -7.7,11.554 0,11.571Zm0,-0l0,-0" style="fill:none;fill-rule:nonzero;stroke:#000;stroke-width:3.13px;"/><path d="M331.247,679.392c10.629,0 10.629,-15.954 -0,-15.954c-10.625,0 -10.625,15.954 -0,15.954Zm-0,0l-0,0" style="fill:none;fill-rule:nonzero;stroke:#000;stroke-width:3.13px;"/><path d="M331.247,677.192c7.7,-0.016 7.7,-11.554 -0,-11.57c-7.696,0.016 -7.696,11.554 -0,11.57Zm-0,0l-0,0" style="fill:none;fill-rule:nonzero;stroke:#000;stroke-width:3.13px;"/><path d="M260.384,679.392c10.625,0 10.625,-15.954 0,-15.954c-10.629,0 -10.629,15.954 0,15.954Zm0,0l0,0" style="fill:none;fill-rule:nonzero;stroke:#000;stroke-width:3.13px;"/><path d="M260.384,677.192c7.696,-0.016 7.696,-11.554 0,-11.57c-7.7,0.016 -7.7,11.554 0,11.57Zm0,0l0,0" style="fill:none;fill-rule:nonzero;stroke:#000;stroke-width:3.13px;"/><path d="M189.517,679.392c10.63,0 10.63,-15.954 0,-15.954c-10.629,0 -10.629,15.954 0,15.954Zm0,0l0,0" style="fill:none;fill-rule:nonzero;stroke:#000;stroke-width:3.13px;"/><path d="M189.517,677.192c7.7,-0.016 7.7,-11.554 0,-11.57c-7.7,0.016 -7.7,11.554 0,11.57Zm0,0l0,0" style="fill:none;fill-rule:nonzero;stroke:#000;stroke-width:3.13px;"/><path d="M154.084,679.392c10.629,0 10.629,-15.954 0,-15.954c-10.629,0 -10.629,15.954 0,15.954Zm0,0l0,0" style="fill:none;fill-rule:nonzero;stroke:#000;stroke-width:3.13px;"/><path d="M154.084,677.192c7.7,-0.016 7.7,-11.554 0,-11.57c-7.7,0.016 -7.7,11.554 0,11.57Zm0,0l0,0" style="fill:none;fill-rule:nonzero;stroke:#000;stroke-width:3.13px;"/><path d="M224.951,679.392c10.629,0 10.629,-15.954 -0,-15.954c-10.629,0 -10.629,15.954 -0,15.954Zm-0,0l-0,0" style="fill:none;fill-rule:nonzero;stroke:#000;stroke-width:3.13px;"/><path d="M224.951,677.192c7.696,-0.016 7.696,-11.554 -0,-11.57c-7.7,0.016 -7.7,11.554 -0,11.57Zm-0,0l-0,0" style="fill:none;fill-rule:nonzero;stroke:#000;stroke-width:3.13px;"/><path d="M295.817,679.392c10.625,0 10.625,-15.954 0,-15.954c-10.629,0 -10.629,15.954 0,15.954Zm0,0l0,0" style="fill:none;fill-rule:nonzero;stroke:#000;stroke-width:3.13px;"/><path d="M295.817,677.192c7.696,-0.016 7.696,-11.554 0,-11.57c-7.7,0.016 -7.7,11.554 0,11.57Zm0,0l0,0" style="fill:none;fill-rule:nonzero;stroke:#000;stroke-width:3.13px;"/><path d="M100.926,260.088c10.629,0 10.629,-15.933 -0,-15.933c-10.629,-0 -10.629,15.933 -0,15.933Zm-0,0l-0,0" style="fill:none;fill-rule:nonzero;stroke:#000;stroke-width:3.13px;"/><path d="M100.926,257.905c7.7,-0.017 7.7,-11.554 -0,-11.571c-7.696,0.017 -7.696,11.554 -0,11.571Zm-0,-0l-0,-0" style="fill:none;fill-rule:nonzero;stroke:#000;stroke-width:3.13px;"/><path d="M171.792,260.088c10.63,0 10.63,-15.933 0,-15.933c-10.629,-0 -10.629,15.933 0,15.933Zm0,0l0,0" style="fill:none;fill-rule:nonzero;stroke:#000;stroke-width:3.13px;"/><path d="M171.792,257.905c7.7,-0.017 7.7,-11.554 0,-11.571c-7.7,0.017 -7.7,11.554 0,11.571Zm0,-0l0,-0" style="fill:none;fill-rule:nonzero;stroke:#000;stroke-width:3.13px;"/><path d="M242.659,260.088c10.629,0 10.629,-15.933 0,-15.933c-10.629,-0 -10.629,15.933 0,15.933Zm0,0l0,0" style="fill:none;fill-rule:nonzero;stroke:#000;stroke-width:3.13px;"/><path d="M242.659,257.905c7.696,-0.017 7.696,-11.554 0,-11.571c-7.7,0.017 -7.7,11.554 0,11.571Zm0,-0l0,-0" style="fill:none;fill-rule:nonzero;stroke:#000;stroke-width:3.13px;"/><path d="M711.555,41.892l-0,786.605" style="fill:none;fill-rule:nonzero;stroke:#000;stroke-width:3.13px;"/><path d="M711.555,41.892c-0,-8.466 -3.354,-16.57 -9.342,-22.558c-5.975,-5.975 -14.079,-9.346 -22.541,-9.346" style="fill:none;fill-rule:nonzero;stroke:#000;stroke-width:3.13px;"/><path d="M715.105,41.892c-0,-9.408 -3.729,-18.425 -10.388,-25.066c-6.637,-6.642 -15.654,-10.367 -25.045,-10.367" style="fill:none;fill-rule:nonzero;stroke:#000;stroke-width:3.13px;"/><path d="M41.876,9.988l637.796,0" style="fill:none;fill-rule:nonzero;stroke:#000;stroke-width:3.13px;"/><path d="M679.672,6.442l-637.796,0" style="fill:none;fill-rule:nonzero;stroke:#000;stroke-width:3.13px;"/><path d="M41.876,9.988c-8.463,0 -16.567,3.371 -22.559,9.346c-5.97,5.988 -9.325,14.092 -9.325,22.558" style="fill:none;fill-rule:nonzero;stroke:#000;stroke-width:3.13px;"/><path d="M41.876,6.459c-9.392,0 -18.409,3.725 -25.046,10.367c-6.658,6.641 -10.388,15.658 -10.388,25.066" style="fill:none;fill-rule:nonzero;stroke:#000;stroke-width:3.13px;"/><path d="M9.992,828.497l0,-786.605" style="fill:none;fill-rule:nonzero;stroke:#000;stroke-width:3.13px;"/><path d="M6.442,41.892l0,786.605" style="fill:none;fill-rule:nonzero;stroke:#000;stroke-width:3.13px;"/><path d="M9.992,828.497c0,8.462 3.355,16.566 9.325,22.558c5.992,5.971 14.096,9.325 22.559,9.325" style="fill:none;fill-rule:nonzero;stroke:#000;stroke-width:3.13px;"/><path d="M6.442,828.497c0,9.391 3.73,18.408 10.388,25.045c6.637,6.659 15.654,10.388 25.046,10.388" style="fill:none;fill-rule:nonzero;stroke:#000;stroke-width:3.13px;"/><path d="M679.672,860.38l-637.796,-0" style="fill:none;fill-rule:nonzero;stroke:#000;stroke-width:3.13px;"/><path d="M679.672,860.38c8.462,-0 16.566,-3.354 22.541,-9.325c5.988,-5.992 9.342,-14.096 9.342,-22.558" style="fill:none;fill-rule:nonzero;stroke:#000;stroke-width:3.13px;"/><path d="M352.897,135.447l-0,15.166c-0.196,4.492 -1.109,8.529 -2.734,11.979c-1.371,2.996 -3.454,5.863 -6.446,8.138c-2.995,2.412 -7.033,3.712 -12.437,3.712c-5.404,0 -9.633,-1.3 -12.629,-3.712c-2.996,-2.275 -4.946,-5.142 -6.25,-8.138c-1.692,-3.45 -2.604,-7.487 -2.734,-11.979l0,-64.971c0.13,-4.3 1.042,-8.4 2.734,-11.85c1.304,-2.995 3.254,-5.991 6.25,-8.204c2.996,-2.279 7.225,-3.775 12.629,-3.775c5.404,0 9.442,1.496 12.437,3.775c2.992,2.213 5.075,5.209 6.446,8.204c1.625,3.45 2.538,7.55 2.734,11.85l-0,15.167l-15.171,0l-0,-15.167c-0,-2.995 -0.779,-5.079 -2.409,-6.904c-0.779,-0.716 -2.083,-1.171 -3.775,-1.171c-2.8,0 -4.166,2.084 -4.95,4.038c-0.454,1.237 -0.583,2.537 -0.716,4.037l-0,64.971c0.133,3.125 1.041,5.275 2.541,6.904c0.78,0.78 1.821,1.234 3.125,1.234c3.45,-0 4.817,-1.821 5.6,-4.1c0.455,-1.042 0.584,-2.409 0.584,-4.038l-0,-15.166l15.171,-0Z" style="fill:#00f;fill-rule:nonzero;"/><path d="M359.017,188.897c0.13,0.129 0.455,0.129 0.909,0.129c0.716,0.129 4.491,0.454 6.904,-1.367c2.408,-1.758 4.033,-4.362 4.946,-7.487c0.454,-1.496 0.587,-2.996 0.587,-4.492l-13.933,-84.442l14.842,0l5.991,50.392l0.325,4.167l0.588,-0l0.258,-4.167l5.992,-50.392l14.908,0l-14.583,88.154c-0.717,5.859 -2.996,11.588 -6.575,15.95c-3.646,4.363 -8.4,7.355 -14.388,7.355l-1.825,-0c-1.366,-0 -3.125,-0.196 -4.946,-0.325l0,-13.475Z" style="fill:#00f;fill-rule:nonzero;"/><path d="M424.267,173.272l-15.17,-0l-0,-82.034l15.17,0l0,6.904c0.259,-0.195 0.909,-0.783 1.821,-1.695c1.629,-1.625 3.842,-3.905 6.575,-5.405c1.367,-0.712 2.542,-1.041 3.909,-1.041c4.037,-0 6.9,2.412 8.658,5.404c1.821,3.192 2.733,7.229 2.733,10.679l0,67.188l-15.166,-0l-0,-64.975c-0,-3.125 -1.759,-3.58 -3.584,-3.58c-1.625,0 -2.537,0.909 -3.579,1.95c-0.458,0.588 -0.912,1.175 -1.367,1.955l0,64.65Z" style="fill:#00f;fill-rule:nonzero;"/><path d="M477.051,70.992l-0,20.246l10.35,0l-0,13.609l-10.35,-0l-0,40.82c-0,2.538 -0,5.859 0.583,8.53c0.654,2.733 1.825,4.945 4.233,4.945c1.171,0 2.671,-0.129 3.775,-0.258c0.588,-0.133 1.171,-0.133 1.759,-0.325l-0,14.842c-0.717,0.196 -1.496,0.454 -2.213,0.65c-1.5,0.262 -3.45,0.391 -5.858,0.391c-8.854,0 -13.088,-4.491 -15.171,-10.154c-2.083,-5.729 -2.212,-12.633 -2.212,-17.45l-0,-41.991l-7.684,-0l0,-13.609l7.684,0l-0,-20.246l15.104,0Z" style="fill:#00f;fill-rule:nonzero;"/><path d="M510.676,173.272l-15.171,-0l-0,-110.221l15.171,-0l-0,35.091c0.262,-0.195 0.912,-0.783 1.821,-1.695c1.629,-1.625 3.841,-3.905 6.579,-5.405c1.366,-0.712 2.537,-1.041 3.904,-1.041c4.037,-0 6.9,2.412 8.658,5.404c1.825,3.192 2.734,7.229 2.734,10.679l-0,67.188l-15.167,-0l-0,-64.975c-0,-3.125 -1.758,-3.58 -3.583,-3.58c-1.625,0 -2.538,0.909 -3.58,1.95c-0.454,0.588 -0.912,1.175 -1.366,1.955l-0,64.65Z" style="fill:#00f;fill-rule:nonzero;"/><path d="M546.042,63.051l15.171,-0l0,15.104l-15.171,-0l0,-15.104Zm0,110.221l0,-82.034l15.171,0l0,82.034l-15.171,-0Z" style="fill:#00f;fill-rule:nonzero;"/><path d="M610.401,153.351c-0.459,7.941 -2.867,13.475 -8.075,17.837c-2.734,2.213 -6.446,3.254 -11.392,3.254c-9.767,0 -14.583,-5.404 -16.992,-10.741c-1.304,-3.192 -2.216,-6.771 -2.412,-10.809l-0,-41.275c0.458,-7.941 2.867,-13.804 8.142,-18.295c2.537,-2.28 6.312,-3.321 11.262,-3.321c9.7,-0 14.646,5.404 17.054,10.679c1.371,3.125 2.279,6.575 2.413,10.483l-0,42.188Zm-14.259,-41.734c0.196,-3.125 -0.458,-5.404 -1.954,-7.225c-0.716,-0.716 -1.954,-1.175 -3.254,-1.175c-2.867,0 -4.104,1.955 -4.687,4.234c-0.459,1.171 -0.588,2.537 -0.459,4.166l0,41.275c-0.129,3.125 0.654,5.405 1.954,7.034c0.784,0.716 1.825,1.171 3.192,1.171c2.8,-0 4.167,-1.759 4.75,-4.038c0.458,-1.171 0.654,-2.537 0.458,-4.167l0,-41.275Z" style="fill:#00f;fill-rule:nonzero;"/><path d="M635.922,173.272l-15.171,-0l-0,-82.034l15.171,0l-0,6.904c0.258,-0.195 0.908,-0.783 1.82,-1.695c1.63,-1.625 3.842,-3.905 6.575,-5.405c1.367,-0.712 2.542,-1.041 3.909,-1.041c4.033,-0 6.9,2.412 8.658,5.404c1.821,3.192 2.733,7.229 2.733,10.679l0,67.188l-15.17,-0l-0,-64.975c-0,-3.125 -1.755,-3.58 -3.58,-3.58c-1.629,0 -2.537,0.909 -3.579,1.95c-0.458,0.588 -0.912,1.175 -1.366,1.955l-0,64.65Z" style="fill:#00f;fill-rule:nonzero;"/><path d="M426.547,183.963l5.4,0c2.345,0 4.687,0.588 6.512,2.279c1.758,1.692 2.996,4.492 2.996,8.659c-0,4.233 -1.238,6.966 -2.996,8.658c-1.825,1.696 -4.167,2.413 -6.512,2.413l-0,14.712l-5.4,0l-0,-36.721Zm5.4,16.538c1.629,-0 2.67,-0.325 3.258,-1.171c0.65,-0.783 0.779,-2.15 0.779,-4.167c0,-2.083 -0.129,-3.516 -0.779,-4.429c-0.588,-0.912 -1.629,-1.3 -3.258,-1.3l-0,11.067Z" style="fill:#00f;fill-rule:nonzero;"/><path d="M456.038,214.042c-0.196,2.671 -0.979,4.492 -2.737,5.925c-0.909,0.78 -2.146,1.105 -3.775,1.105c-3.254,-0 -4.884,-1.821 -5.663,-3.58c-0.458,-1.041 -0.716,-2.279 -0.783,-3.579l-0,-13.804c0.133,-2.604 0.912,-4.554 2.671,-6.054c0.846,-0.779 2.15,-1.108 3.775,-1.108c3.254,-0 4.883,1.758 5.666,3.516c0.455,1.042 0.78,2.217 0.846,3.517l0,14.062Zm-4.754,-13.933c0.067,-1.042 -0.196,-1.758 -0.65,-2.408c-0.262,-0.196 -0.65,-0.392 -1.108,-0.392c-0.975,0 -1.367,0.654 -1.563,1.433c-0.129,0.392 -0.196,0.846 -0.129,1.367l0,13.804c-0.067,1.042 0.196,1.759 0.65,2.342c0.263,0.196 0.588,0.392 1.042,0.392c0.912,-0 1.366,-0.588 1.562,-1.367c0.196,-0.392 0.263,-0.846 0.196,-1.367l0,-13.804Z" style="fill:#00f;fill-rule:nonzero;"/><path d="M470.667,220.684l-1.95,-13.021l-0.262,-1.562l-0.196,-0l-0.258,1.562l-1.954,13.021l-4.167,0l-4.038,-27.346l4.559,0l1.629,14.325l0.196,1.496l0.325,0l0.196,-1.496l2.145,-14.325l2.996,0l2.084,14.325l0.258,1.496l0.262,0l0.259,-1.496l1.562,-14.325l4.625,0l-4.037,27.346l-4.234,0Z" style="fill:#00f;fill-rule:nonzero;"/><path d="M493.913,210.851l0,3.191c-0.133,2.671 -0.979,4.492 -2.737,5.925c-0.909,0.78 -2.146,1.105 -3.842,1.105c-3.254,-0 -4.879,-1.821 -5.662,-3.58c-0.455,-1.041 -0.78,-2.279 -0.78,-3.579l0,-13.804c0.13,-2.604 0.975,-4.554 2.796,-6.054c0.85,-0.779 2.084,-1.108 3.713,-1.108c3.254,-0 4.883,1.758 5.729,3.516c0.454,1.042 0.717,2.217 0.783,3.517l0,7.942l-8.333,-0l-0,5.991c0.062,1.042 0.325,1.759 0.779,2.342c0.263,0.196 0.588,0.392 1.042,0.392c0.975,-0 1.433,-0.588 1.629,-1.367c0.129,-0.392 0.196,-0.846 0.196,-1.367l-0,-3.062l4.687,-0Zm-8.333,-6.9l3.646,-0l-0,-3.842c-0,-1.042 -0.196,-1.758 -0.717,-2.408c-0.262,-0.196 -0.654,-0.392 -1.108,-0.392c-0.913,0 -1.367,0.654 -1.563,1.433c-0.196,0.392 -0.196,0.846 -0.258,1.367l-0,3.842Z" style="fill:#00f;fill-rule:nonzero;"/><path d="M507.372,198.547c-0.455,-0.196 -0.975,-0.196 -1.434,-0.196c-0.779,-0 -1.758,0.066 -2.537,0.846c-0.913,0.783 -1.109,1.629 -1.109,2.475l0,19.012l-5.012,0l-0,-27.346l5.012,0l0,3.063c0.067,-0.392 0.392,-1.238 1.238,-2.021c0.783,-0.717 1.954,-1.433 3.842,-1.433l-0,5.6Z" style="fill:#00f;fill-rule:nonzero;"/><path d="M522.022,210.851l-0,3.191c-0.134,2.671 -0.98,4.492 -2.738,5.925c-0.908,0.78 -2.146,1.105 -3.837,1.105c-3.259,-0 -4.884,-1.821 -5.667,-3.58c-0.454,-1.041 -0.779,-2.279 -0.779,-3.579l-0,-13.804c0.129,-2.604 0.975,-4.554 2.8,-6.054c0.846,-0.779 2.083,-1.108 3.708,-1.108c3.254,-0 4.883,1.758 5.729,3.516c0.459,1.042 0.717,2.217 0.784,3.517l-0,7.942l-8.334,-0l0,5.991c0.063,1.042 0.325,1.759 0.779,2.342c0.263,0.196 0.588,0.392 1.042,0.392c0.979,-0 1.433,-0.588 1.629,-1.367c0.129,-0.392 0.196,-0.846 0.196,-1.367l0,-3.062l4.688,-0Zm-8.334,-6.9l3.646,-0l0,-3.842c0,-1.042 -0.196,-1.758 -0.717,-2.408c-0.262,-0.196 -0.65,-0.392 -1.108,-0.392c-0.912,0 -1.367,0.654 -1.562,1.433c-0.196,0.392 -0.196,0.846 -0.259,1.367l0,3.842Z" style="fill:#00f;fill-rule:nonzero;"/><path d="M538.247,220.684l-5.08,0l0,-1.825c-0.845,0.846 -1.625,1.433 -2.537,1.888c-0.521,0.262 -1.042,0.325 -1.433,0.325c-1.43,-0 -2.409,-0.78 -2.992,-1.821c-0.654,-1.042 -0.913,-2.346 -0.913,-3.517l0,-17.446c0,-1.175 0.259,-2.475 0.913,-3.583c0.583,-0.975 1.562,-1.758 2.992,-1.758c0.912,-0 1.954,0.525 2.67,1.108c0.455,0.325 0.846,0.65 1.3,1.108l0,-11.2l5.08,0l-0,36.721Zm-5.08,-21.354c0,-0.783 -0.779,-1.629 -1.495,-1.629c-0.78,-0 -1.367,0.65 -1.367,1.629l-0,15.362c-0,0.913 0.587,1.63 1.367,1.63c0.716,-0 1.495,-0.717 1.495,-1.63l0,-15.362Z" style="fill:#00f;fill-rule:nonzero;"/><path d="M549.934,183.963l5.013,0l-0,11.2c0.845,-0.846 1.629,-1.433 2.604,-1.887c0.454,-0.263 0.975,-0.329 1.433,-0.329c1.367,-0 2.342,0.783 2.996,1.758c0.583,1.108 0.908,2.408 0.908,3.583l0,17.446c0,1.171 -0.325,2.475 -0.908,3.517c-0.654,1.041 -1.629,1.821 -2.996,1.821c-0.979,-0 -1.954,-0.517 -2.737,-1.105c-0.455,-0.325 -0.846,-0.716 -1.3,-1.108l-0,1.825l-5.013,0l0,-36.721Zm5.013,30.729c-0,0.913 0.783,1.63 1.495,1.63c0.784,-0 1.371,-0.717 1.371,-1.63l0,-15.362c0,-0.979 -0.587,-1.629 -1.371,-1.629c-0.712,-0 -1.495,0.846 -1.495,1.629l-0,15.362Z" style="fill:#00f;fill-rule:nonzero;"/><path d="M565.447,225.892c0.062,0.063 0.191,0.063 0.325,0.063c0.258,-0 1.495,0.133 2.279,-0.454c0.846,-0.588 1.366,-1.496 1.691,-2.538c0.13,-0.458 0.196,-0.962 0.196,-1.483l-4.687,-28.125l4.946,-0l2.02,16.783l0.13,1.367l0.195,-0l0.063,-1.367l2.021,-16.783l4.946,-0l-4.884,29.362c-0.196,1.938 -0.975,3.892 -2.146,5.321c-1.237,1.45 -2.8,2.492 -4.82,2.492l-0.584,-0c-0.458,-0 -1.041,-0.083 -1.691,-0.146l-0,-4.492Z" style="fill:#00f;fill-rule:nonzero;"/><path d="M589.892,183.963l5.405,0l-0,31.709l7.095,-0l0,5.012l-12.5,0l0,-36.721Z" style="fill:#00f;fill-rule:nonzero;"/><path d="M618.959,183.963l0,29.167c-0.062,1.5 -0.325,2.867 -0.908,3.971c-0.459,1.041 -1.109,1.954 -2.15,2.737c-0.975,0.779 -2.346,1.234 -4.1,1.234c-1.825,-0 -3.259,-0.455 -4.234,-1.234c-0.975,-0.783 -1.629,-1.696 -2.083,-2.737c-0.587,-1.104 -0.846,-2.471 -0.912,-3.971l-0,-29.167l5.404,0l-0,29.167c-0,1.042 0.262,1.758 0.716,2.279c0.259,0.263 0.65,0.454 1.109,0.454c0.908,0 1.366,-0.65 1.562,-1.366c0.129,-0.388 0.192,-0.846 0.192,-1.367l-0,-29.167l5.404,0Z" style="fill:#00f;fill-rule:nonzero;"/><path d="M628.597,201.542l-0.459,-1.691l-0.258,-0l-0,20.833l-4.95,0l-0,-36.721l4.754,0l5.275,19.142l0.454,1.692l0.325,-0l0,-20.834l4.95,0l0,36.721l-4.821,0l-5.27,-19.142Z" style="fill:#00f;fill-rule:nonzero;"/><path d="M641.192,220.684l5.534,-36.721l6.575,0l5.6,36.721l-5.271,0l-0.979,-7.487l-5.209,-0l-1.041,7.487l-5.209,0Zm9.117,-24.804l-0.133,-0.979l-0.325,-0l-0.129,0.979l-1.563,11.587l3.713,0l-1.563,-11.587Z" style="fill:#00f;fill-rule:nonzero;"/><path d="M654.605,72.813l10.287,0l0,1.434l-4.3,-0l0,10.741l-1.625,0l0,-10.741l-4.362,-0l-0,-1.434Z" style="fill:#00f;fill-rule:nonzero;"/><path d="M666.472,72.813l2.47,0l3.063,8.271l3.125,-8.271l2.475,0l-0,12.175l-1.629,0l-0,-10.675l-3.125,8.334l-1.629,-0l-3.125,-8.334l-0,10.675l-1.625,0l-0,-12.175Z" style="fill:#00f;fill-rule:nonzero;"/><path d="M659.455,761.634l10.287,0l0,1.433l-4.295,0l-0,10.742l-1.63,0l0,-10.742l-4.362,0l-0,-1.433Z" style="fill:#00f;fill-rule:nonzero;"/><path d="M671.338,761.634l2.471,0l3.063,8.267l3.125,-8.267l2.47,0l0,12.175l-1.625,0l0,-10.679l-3.125,8.333l-1.629,0l-3.125,-8.333l0,10.679l-1.625,0l0,-12.175Z" style="fill:#00f;fill-rule:nonzero;"/><path d="M522.901,701.134l1.104,-0.096l2.946,0.488l4.104,1.725l-0,2.866l-4.104,1.709l-2.946,0.487l-1.104,-0.083l-0.588,4.412l1.092,0.213l2.733,1.221l3.517,2.716l-0.75,2.784l-4.413,0.587l-2.962,-0.296l-1.054,-0.37l-1.713,4.133l1.013,0.471l2.308,1.887l2.704,3.534l-1.45,2.491l-4.396,-0.554l-2.795,-1.058l-0.913,-0.638l-2.721,3.55l0.85,0.717l1.742,2.425l1.675,4.1l-2.021,2.037l-4.117,-1.679l-2.425,-1.741l-0.716,-0.846l-3.546,2.716l0.633,0.913l1.059,2.783l0.554,4.413l-2.492,1.433l-3.533,-2.687l-1.888,-2.313l-0.471,-1.008l-4.133,1.708l0.375,1.058l0.308,2.963l-0.604,4.412l-2.783,0.73l-2.717,-3.513l-1.221,-2.721l-0.195,-1.087l-4.425,0.583l0.079,1.108l-0.471,2.946l-1.725,4.1l-2.867,0l-1.725,-4.1l-0.471,-2.946l0.084,-1.108l-4.429,-0.583l-0.196,1.087l-1.238,2.721l-2.716,3.513l-2.767,-0.73l-0.604,-4.412l0.296,-2.963l0.375,-1.058l-4.121,-1.708l-0.471,1.008l-1.904,2.313l-3.534,2.687l-2.487,-1.433l0.567,-4.413l1.058,-2.783l0.637,-0.913l-3.55,-2.716l-0.716,0.846l-2.425,1.741l-4.117,1.679l-2.033,-2.037l1.691,-4.1l1.742,-2.425l0.846,-0.717l-2.717,-3.55l-0.912,0.638l-2.8,1.058l-4.413,0.554l-1.429,-2.491l2.7,-3.534l2.313,-1.887l0.991,-0.471l-1.708,-4.133l-1.042,0.37l-2.979,0.296l-4.396,-0.587l-0.746,-2.784l3.513,-2.716l2.737,-1.221l1.088,-0.213l-0.583,-4.412l-1.109,0.083l-2.946,-0.487l-4.1,-1.709l0,-2.866l4.1,-1.725l2.946,-0.488l1.109,0.096l0.583,-4.425l-1.088,-0.196l-2.737,-1.237l-3.513,-2.717l0.746,-2.767l4.396,-0.604l2.979,0.292l1.042,0.375l1.708,-4.117l-0.991,-0.471l-2.313,-1.904l-2.7,-3.533l1.429,-2.492l4.413,0.571l2.8,1.058l0.912,0.634l2.717,-3.546l-0.846,-0.717l-1.742,-2.425l-1.691,-4.116l2.033,-2.038l4.117,1.696l2.425,1.742l0.716,0.845l3.55,-2.72l-0.637,-0.909l-1.058,-2.8l-0.567,-4.412l2.487,-1.434l3.534,2.705l1.904,2.308l0.471,0.996l4.121,-1.709l-0.375,-1.041l-0.296,-2.979l0.604,-4.396l2.767,-0.75l2.716,3.516l1.238,2.721l0.196,1.088l4.429,-0.571l-0.084,-1.104l0.471,-2.946l1.725,-4.104l2.867,-0l1.725,4.104l0.471,2.946l-0.079,1.104l4.425,0.571l0.195,-1.088l1.221,-2.721l2.717,-3.516l2.783,0.75l0.604,4.396l-0.308,2.979l-0.375,1.041l4.133,1.709l0.471,-0.996l1.888,-2.308l3.533,-2.705l2.492,1.434l-0.554,4.412l-1.059,2.8l-0.633,0.909l3.546,2.72l0.716,-0.845l2.425,-1.742l4.117,-1.696l2.021,2.038l-1.675,4.116l-1.742,2.425l-9.866,9.946l-27.471,-7.487l-22.054,24.82l24.866,29.134l17.025,-12.729l-13.654,-9.23l2.717,-8.345l37.975,-0.313Z" style="fill:#00f;fill-rule:nonzero;"/><path d="M362.351,764.742l-1.104,-0.095l-2.946,0.487l-4.104,1.708l-0,2.88l4.104,1.708l2.946,0.492l1.104,-0.1l0.587,4.429l-1.091,0.208l-2.717,1.221l-3.517,2.721l0.734,2.783l4.412,0.583l2.975,-0.291l1.042,-0.375l1.712,4.121l-1.012,0.487l-2.309,1.888l-2.687,3.529l1.433,2.491l4.409,-0.57l2.783,-1.059l0.929,-0.616l2.717,3.533l-0.846,0.717l-1.758,2.441l-1.675,4.1l2.033,2.034l4.104,-1.692l2.425,-1.742l0.733,-0.846l3.53,2.717l-0.634,0.913l-1.041,2.8l-0.571,4.408l2.491,1.433l3.53,-2.683l1.891,-2.313l0.471,-1.008l4.133,1.708l-0.375,1.042l-0.291,2.979l0.587,4.392l2.784,0.75l2.716,-3.517l1.221,-2.716l0.213,-1.092l4.408,0.587l-0.079,1.109l0.487,2.946l1.709,4.1l2.879,-0l1.712,-4.1l0.488,-2.946l-0.1,-1.109l4.429,-0.587l0.196,1.092l1.237,2.716l2.717,3.517l2.767,-0.75l0.6,-4.392l-0.292,-2.979l-0.375,-1.042l4.121,-1.708l0.471,1.008l1.904,2.313l3.533,2.683l2.488,-1.433l-0.567,-4.408l-1.058,-2.8l-0.621,-0.913l3.533,-2.717l0.717,0.846l2.425,1.742l4.116,1.692l2.034,-2.034l-1.692,-4.1l-1.742,-2.441l-0.845,-0.717l2.716,-3.533l0.913,0.616l2.8,1.059l4.412,0.57l1.429,-2.491l-2.683,-3.529l-2.312,-1.888l-1.009,-0.487l1.709,-4.121l1.041,0.375l2.979,0.291l4.396,-0.583l0.746,-2.783l-3.512,-2.721l-2.721,-1.221l-1.092,-0.208l0.571,-4.429l1.108,0.1l2.963,-0.492l4.083,-1.708l0,-2.88l-4.083,-1.708l-2.963,-0.487l-1.108,0.095l-0.571,-4.429l1.092,-0.208l2.721,-1.221l3.512,-2.721l-0.746,-2.783l-4.396,-0.583l-2.979,0.291l-1.041,0.375l-1.709,-4.116l1.009,-0.492l2.312,-1.888l2.683,-3.529l-1.429,-2.491l-4.412,0.57l-2.8,1.059l-0.913,0.616l-2.716,-3.533l0.845,-0.712l1.742,-2.442l1.692,-4.104l-2.034,-2.034l-4.116,1.692l-2.425,1.742l-0.717,0.846l-3.533,-2.717l0.621,-0.913l1.058,-2.8l0.567,-4.408l-2.488,-1.433l-3.533,2.687l-1.904,2.309l-0.471,1.008l-4.121,-1.708l0.375,-1.042l0.292,-2.979l-0.6,-4.392l-2.767,-0.75l-2.717,3.517l-1.237,2.716l-0.196,1.092l-4.429,-0.587l0.1,-1.105l-0.488,-2.945l-1.712,-4.105l-2.879,0l-1.709,4.105l-0.487,2.945l0.079,1.105l-4.408,0.587l-0.213,-1.092l-1.221,-2.716l-2.716,-3.517l-2.784,0.75l-0.587,4.392l0.291,2.979l0.375,1.042l-4.133,1.708l-0.471,-1.008l-1.891,-2.309l-3.53,-2.687l-2.491,1.433l0.571,4.408l1.041,2.8l0.634,0.913l-3.53,2.717l-0.733,-0.846l-2.425,-1.742l-4.104,-1.692l-2.033,2.034l1.675,4.104l1.758,2.442l9.85,9.941l27.471,-7.487l22.054,24.821l-24.867,29.137l-17.025,-12.729l13.671,-9.229l-2.717,-8.367l-37.991,-0.292Z" style="fill:#00f;fill-rule:nonzero;"/><path d="M558.105,673.776l-0,-7.554c-0,-1.3 -0.263,-2.275 -0.913,-3.059c-0.325,-0.325 -0.912,-0.521 -1.495,-0.521c-1.238,0 -1.825,0.913 -2.15,1.759c-0.196,0.587 -0.259,1.171 -0.259,1.821l0,29.495c0,1.367 0.388,2.275 1.042,3.059c0.325,0.325 0.779,0.521 1.367,0.521c1.3,-0 1.887,-0.784 2.145,-1.825c0.196,-0.455 0.263,-1.042 0.263,-1.755l-0,-8.92l-2.867,-0l0,-6.055l10.092,0l-0,24.413l-4.296,-0l-0.846,-2.342c-1.366,1.692 -3.254,2.863 -5.6,2.863c-2.341,-0 -3.971,-0.584 -5.141,-1.625c-1.175,-1.042 -2.021,-2.279 -2.542,-3.646c-0.583,-1.5 -0.846,-3.321 -0.779,-5.342l-0,-28.841c0.062,-1.95 0.454,-3.709 1.171,-5.271c0.587,-1.304 1.495,-2.671 2.8,-3.646c1.366,-1.042 3.191,-1.692 5.6,-1.692c2.408,0 4.229,0.65 5.533,1.692c1.367,0.975 2.279,2.342 2.862,3.646c0.784,1.562 1.175,3.321 1.238,5.271l-0,7.554l-7.225,-0Z" style="fill:#00f;fill-rule:nonzero;"/><path d="M583.48,705.155l-3.779,-20.638l-1.888,0l0,20.638l-7.225,-0l0,-49.021l7.225,0c8.596,0 12.242,4.879 12.242,14.125c-0,4.883 -1.238,9.313 -3.971,11.133l4.554,23.763l-7.158,-0Zm-5.667,-27.342c0.979,0 2.279,-0.133 3.388,-1.041c1.041,-0.98 1.887,-2.738 1.887,-6.188c0,-3.512 -0.846,-5.337 -1.887,-6.312c-1.109,-0.913 -2.409,-0.98 -3.388,-0.98l0,14.521Z" style="fill:#00f;fill-rule:nonzero;"/><path d="M594.642,656.134l16.471,0l0,7.421l-9.241,-0l-0,12.892l6.637,-0l0,7.812l-6.637,0l-0,13.475l9.241,0l0,7.421l-16.471,-0l0,-49.021Z" style="fill:#00f;fill-rule:nonzero;"/><path d="M613.23,705.155l7.425,-49.021l8.787,0l7.421,49.021l-7.029,-0l-1.304,-10.025l-6.967,-0l-1.3,10.025l-7.033,-0Zm12.242,-33.071l-0.196,-1.237l-0.454,-0l-0.196,1.237l-2.021,15.492l4.883,-0l-2.016,-15.492Z" style="fill:#00f;fill-rule:nonzero;"/><path d="M636.18,663.555l-0,-7.421l20.833,0l0,7.421l-6.837,-0l-0,41.6l-7.225,-0l-0,-41.6l-6.771,-0Z" style="fill:#00f;fill-rule:nonzero;"/><path d="M560.105,727.455c-0,-1.563 -0.063,-3.388 -0.521,-4.817c-0.454,-1.304 -1.171,-2.216 -2.342,-2.216c-1.825,0.066 -2.475,1.954 -2.475,4.816c0,1.696 0.784,3.454 1.825,5.275c1.042,1.888 2.471,3.842 3.838,5.859c1.696,2.475 3.387,5.016 4.625,7.487c1.237,2.475 2.146,5.013 2.146,7.683c-0,3.255 -0.521,6.317 -2.084,8.596c-1.495,2.275 -3.97,3.709 -7.941,3.709c-4.559,-0 -7.163,-1.692 -8.659,-4.363c-1.433,-2.667 -1.82,-6.25 -1.82,-9.896l7.095,-0.65c0,2.084 0.063,4.1 0.584,5.663c0.458,1.562 1.304,2.671 2.8,2.671c2.15,-0 2.929,-2.28 2.929,-5.405c-0,-1.629 -0.779,-3.45 -1.821,-5.404c-0.65,-0.908 -1.237,-1.95 -1.887,-2.929c-1.434,-2.017 -2.93,-4.296 -4.559,-6.771c-1.562,-2.408 -2.8,-4.946 -3.516,-7.55c-0.392,-1.304 -0.584,-2.604 -0.584,-3.975c0,-2.666 0.584,-5.533 2.146,-7.679c1.5,-2.15 3.842,-3.712 7.229,-3.779c4.359,-0.063 6.9,1.758 8.267,4.362c1.433,2.671 1.821,5.925 1.821,8.663l-7.096,0.65Z" style="fill:#00f;fill-rule:nonzero;"/><path d="M589.809,746.53l0,6.704c-0.062,2.021 -0.454,3.842 -1.237,5.338c-0.584,1.37 -1.496,2.608 -2.863,3.65c-1.304,1.041 -3.125,1.625 -5.533,1.625c-2.409,-0 -4.234,-0.584 -5.6,-1.625c-1.304,-1.042 -2.213,-2.28 -2.8,-3.65c-0.717,-1.496 -1.109,-3.317 -1.171,-5.338l-0,-28.842c0.062,-1.95 0.454,-3.708 1.171,-5.27c0.587,-1.305 1.496,-2.671 2.8,-3.646c1.366,-1.042 3.191,-1.696 5.6,-1.696c2.408,-0 4.229,0.654 5.533,1.696c1.367,0.975 2.279,2.341 2.863,3.646c0.783,1.562 1.175,3.32 1.237,5.27l0,6.709l-6.771,-0l0,-6.709c0,-1.3 -0.325,-2.279 -1.041,-3.058c-0.325,-0.325 -0.913,-0.521 -1.692,-0.521c-1.238,0 -1.825,0.913 -2.15,1.759c-0.258,0.583 -0.325,1.17 -0.388,1.82l0,28.842c0.063,1.433 0.521,2.346 1.171,3.063c0.325,0.387 0.779,0.583 1.367,0.583c1.562,-0 2.15,-0.846 2.475,-1.821c0.196,-0.458 0.258,-1.042 0.258,-1.825l0,-6.704l6.771,-0Z" style="fill:#00f;fill-rule:nonzero;"/><path d="M612.888,753.234c-0.062,2.021 -0.454,3.842 -1.237,5.338c-0.584,1.37 -1.496,2.608 -2.863,3.65c-1.304,1.041 -3.125,1.625 -5.533,1.625c-2.408,-0 -4.233,-0.584 -5.6,-1.625c-1.3,-1.042 -2.213,-2.28 -2.8,-3.65c-0.717,-1.496 -1.108,-3.317 -1.171,-5.338l0,-28.842c0.063,-1.95 0.454,-3.708 1.171,-5.27c0.587,-1.305 1.5,-2.671 2.8,-3.646c1.367,-1.042 3.192,-1.696 5.6,-1.696c2.408,-0 4.229,0.654 5.533,1.696c1.367,0.975 2.279,2.341 2.863,3.646c0.783,1.562 1.175,3.32 1.237,5.27l0,28.842Zm-7.225,-28.842c0,-1.3 -0.262,-2.279 -0.912,-3.058c-0.325,-0.325 -0.913,-0.521 -1.496,-0.521c-1.238,0 -1.825,0.913 -2.15,1.759c-0.196,0.583 -0.258,1.17 -0.258,1.82l-0,28.842c-0,1.433 0.387,2.346 1.041,3.063c0.325,0.387 0.779,0.583 1.367,0.583c1.3,-0 1.887,-0.846 2.146,-1.821c0.196,-0.458 0.262,-1.042 0.262,-1.825l0,-28.842Z" style="fill:#00f;fill-rule:nonzero;"/><path d="M614.534,721.726l0,-7.421l20.833,-0l0,7.421l-6.837,-0l-0,41.6l-7.225,-0l-0,-41.6l-6.771,-0Z" style="fill:#00f;fill-rule:nonzero;"/><path d="M636.13,721.726l-0,-7.421l20.833,-0l0,7.421l-6.833,-0l-0,41.6l-7.229,-0l-0,-41.6l-6.771,-0Z" style="fill:#00f;fill-rule:nonzero;"/><path d="M510.138,788.438l0,-7.55c0,-1.304 -0.258,-2.279 -0.912,-3.058c-0.325,-0.329 -0.909,-0.521 -1.496,-0.521c-1.238,0 -1.825,0.908 -2.15,1.754c-0.196,0.588 -0.258,1.175 -0.258,1.825l-0,29.492c-0,1.367 0.391,2.279 1.041,3.058c0.325,0.329 0.779,0.521 1.367,0.521c1.3,0 1.887,-0.779 2.15,-1.821c0.192,-0.454 0.258,-1.041 0.258,-1.758l0,-8.921l-2.862,0l-0,-6.054l10.087,-0l0,24.417l-4.296,-0l-0.845,-2.346c-1.367,1.691 -3.255,2.866 -5.6,2.866c-2.342,0 -3.971,-0.587 -5.142,-1.629c-1.171,-1.041 -2.017,-2.279 -2.538,-3.646c-0.587,-1.495 -0.85,-3.32 -0.783,-5.337l0,-28.842c0.067,-1.954 0.454,-3.712 1.171,-5.275c0.587,-1.3 1.5,-2.666 2.8,-3.646c1.367,-1.041 3.192,-1.691 5.6,-1.691c2.408,-0 4.233,0.65 5.533,1.691c1.367,0.98 2.279,2.346 2.867,3.646c0.779,1.563 1.171,3.321 1.233,5.275l0,7.55l-7.225,0Z" style="fill:#00f;fill-rule:nonzero;"/><path d="M520.605,819.822l7.421,-49.025l8.787,-0l7.425,49.025l-7.033,-0l-1.3,-10.03l-6.967,0l-1.304,10.03l-7.029,-0Zm12.237,-33.075l-0.195,-1.238l-0.455,0l-0.195,1.238l-2.017,15.495l4.883,0l-2.021,-15.495Z" style="fill:#00f;fill-rule:nonzero;"/><path d="M547.559,819.822l0,-49.025l5.663,-0c6.641,-0 10.287,1.366 12.175,5.079c1.887,3.775 2.145,9.896 2.145,19.466c0,9.634 -0.258,15.688 -2.145,19.4c-1.888,3.775 -5.534,5.08 -12.175,5.08l-5.663,-0Zm7.225,-7.23c2.408,0 3.842,-0.258 4.558,-2.666c0.325,-1.109 0.584,-2.867 0.65,-5.146c0.067,-2.342 0.067,-5.467 0.067,-9.504c0,-3.971 0,-7.096 -0.067,-9.442c-0.066,-2.275 -0.325,-4.033 -0.65,-5.208c-0.716,-2.342 -2.15,-2.604 -4.558,-2.604l0,34.57Z" style="fill:#00f;fill-rule:nonzero;"/><path d="M583.867,788.438l0,-7.55c0,-1.304 -0.258,-2.279 -0.908,-3.058c-0.325,-0.329 -0.912,-0.521 -1.5,-0.521c-1.237,0 -1.821,0.908 -2.146,1.754c-0.196,0.588 -0.262,1.175 -0.262,1.825l-0,29.492c-0,1.367 0.391,2.279 1.041,3.058c0.325,0.329 0.784,0.521 1.367,0.521c1.304,0 1.888,-0.779 2.15,-1.821c0.196,-0.454 0.258,-1.041 0.258,-1.758l0,-8.921l-2.862,0l-0,-6.054l10.092,-0l-0,24.417l-4.296,-0l-0.85,-2.346c-1.367,1.691 -3.254,2.866 -5.596,2.866c-2.346,0 -3.971,-0.587 -5.146,-1.629c-1.171,-1.041 -2.017,-2.279 -2.537,-3.646c-0.588,-1.495 -0.846,-3.32 -0.784,-5.337l0,-28.842c0.067,-1.954 0.459,-3.712 1.175,-5.275c0.584,-1.3 1.496,-2.666 2.8,-3.646c1.367,-1.041 3.188,-1.691 5.596,-1.691c2.408,-0 4.233,0.65 5.533,1.691c1.371,0.98 2.28,2.346 2.867,3.646c0.779,1.563 1.171,3.321 1.238,5.275l-0,7.55l-7.23,0Z" style="fill:#00f;fill-rule:nonzero;"/><path d="M596.355,770.797l16.471,-0l-0,7.42l-9.246,0l-0,12.892l6.642,0l-0,7.813l-6.642,-0l-0,13.475l9.246,-0l-0,7.425l-16.471,-0l-0,-49.025Z" style="fill:#00f;fill-rule:nonzero;"/><path d="M614.272,778.217l-0,-7.42l20.833,-0l-0,7.42l-6.833,0l-0,41.605l-7.23,-0l0,-41.605l-6.77,0Z" style="fill:#00f;fill-rule:nonzero;"/><path d="M649.805,783.947c-0,-1.563 -0.067,-3.384 -0.521,-4.817c-0.458,-1.3 -1.175,-2.213 -2.346,-2.213c-1.821,0.063 -2.475,1.955 -2.475,4.817c0,1.692 0.784,3.45 1.825,5.275c1.042,1.888 2.475,3.842 3.842,5.858c1.692,2.475 3.383,5.013 4.621,7.488c1.237,2.475 2.15,5.012 2.15,7.683c-0,3.254 -0.521,6.313 -2.084,8.592c-1.5,2.279 -3.97,3.712 -7.945,3.712c-4.555,0 -7.159,-1.695 -8.659,-4.362c-1.429,-2.671 -1.821,-6.25 -1.821,-9.896l7.096,-0.65c0,2.083 0.067,4.1 0.588,5.663c0.454,1.562 1.3,2.67 2.796,2.67c2.15,0 2.933,-2.279 2.933,-5.404c-0,-1.629 -0.783,-3.45 -1.825,-5.404c-0.65,-0.912 -1.238,-1.954 -1.888,-2.929c-1.433,-2.021 -2.929,-4.3 -4.558,-6.771c-1.562,-2.408 -2.8,-4.95 -3.512,-7.554c-0.392,-1.3 -0.588,-2.604 -0.588,-3.971c0,-2.671 0.588,-5.533 2.146,-7.683c1.5,-2.146 3.842,-3.709 7.229,-3.775c4.363,-0.067 6.9,1.758 8.267,4.362c1.433,2.671 1.825,5.925 1.825,8.659l-7.096,0.65Z" style="fill:#00f;fill-rule:nonzero;"/><path d="M100.892,278.038l-3.32,9.117l6.708,-0l-3.388,-9.117Zm-1.366,-2.425l2.8,0l6.966,18.229l-2.604,0l-1.629,-4.687l-8.267,-0l-1.629,4.687l-2.604,0l6.967,-18.229Z" style="fill:#00f;fill-rule:nonzero;"/><path d="M132.388,285.138l0,6.704l3.904,0c1.338,0 2.313,-0.262 2.934,-0.783c0.65,-0.55 0.975,-1.429 0.975,-2.604c-0,-1.138 -0.325,-1.95 -0.975,-2.471c-0.621,-0.554 -1.596,-0.846 -2.934,-0.846l-3.904,0Zm0,-7.487l0,5.533l3.646,0c1.171,0 2.05,-0.212 2.671,-0.654c0.6,-0.488 0.908,-1.188 0.908,-2.146c0,-0.929 -0.308,-1.579 -0.908,-2.021c-0.621,-0.487 -1.5,-0.712 -2.671,-0.712l-3.646,-0Zm-2.475,-2.038l6.25,0c1.904,0 3.354,0.409 4.363,1.192c1.041,0.779 1.562,1.887 1.562,3.317c0,1.141 -0.258,2.02 -0.779,2.654c-0.521,0.65 -1.304,1.091 -2.346,1.254c1.204,0.258 2.15,0.796 2.8,1.625c0.684,0.833 1.042,1.875 1.042,3.125c-0,1.596 -0.571,2.867 -1.692,3.779c-1.091,0.879 -2.654,1.283 -4.687,1.283l-6.513,0l0,-18.229Z" style="fill:#00f;fill-rule:nonzero;"/><path d="M179.117,277.047l0,2.604c-0.829,-0.779 -1.725,-1.367 -2.67,-1.759c-0.913,-0.375 -1.888,-0.583 -2.93,-0.583c-2.083,0 -3.695,0.65 -4.816,1.95c-1.092,1.271 -1.629,3.096 -1.629,5.471c-0,2.442 0.537,4.279 1.629,5.533c1.121,1.271 2.733,1.888 4.816,1.888c1.042,-0 2.017,-0.163 2.93,-0.521c0.945,-0.392 1.841,-0.975 2.67,-1.758l0,2.541c-0.879,0.617 -1.791,1.088 -2.733,1.367c-0.962,0.258 -1.987,0.404 -3.062,0.404c-2.734,0 -4.917,-0.829 -6.509,-2.487c-1.562,-1.68 -2.346,-4.005 -2.346,-6.967c0,-2.883 0.784,-5.208 2.346,-6.9c1.592,-1.696 3.775,-2.542 6.509,-2.542c1.075,0 2.1,0.163 3.062,0.459c0.992,0.258 1.904,0.712 2.733,1.3Z" style="fill:#00f;fill-rule:nonzero;"/><path d="M202.051,277.651l-0,14.191l2.929,0c2.504,0 4.362,-0.57 5.533,-1.691c1.171,-1.175 1.759,-2.963 1.759,-5.404c-0,-2.492 -0.588,-4.267 -1.759,-5.405c-1.171,-1.125 -3.029,-1.691 -5.533,-1.691l-2.929,-0Zm-2.475,-2.038l5.079,0c3.512,0 6.087,0.767 7.746,2.234c1.646,1.479 2.475,3.775 2.475,6.9c-0,3.125 -0.829,5.433 -2.475,6.883c-1.659,1.496 -4.234,2.212 -7.746,2.212l-5.079,0l-0,-18.229Z" style="fill:#00f;fill-rule:nonzero;"/><path d="M236.801,275.613l11.521,0l-0,2.084l-9.05,-0l-0,5.404l8.658,-0l-0,2.083l-8.658,0l-0,6.575l9.245,0l0,2.083l-11.716,0l-0,-18.229Z" style="fill:#00f;fill-rule:nonzero;"/><path d="M148.909,697.263l9.7,0l0,2.084l-7.421,-0l0,4.491c0.342,-0.129 0.684,-0.212 1.042,-0.262c0.387,-0.079 0.746,-0.129 1.104,-0.129c2.038,-0 3.646,0.57 4.821,1.691c1.204,1.092 1.821,2.588 1.821,4.492c-0,1.954 -0.617,3.483 -1.821,4.558c-1.221,1.092 -2.963,1.629 -5.208,1.629c-0.75,0 -1.534,-0.066 -2.346,-0.195c-0.779,-0.13 -1.596,-0.325 -2.409,-0.588l0,-2.471c0.734,0.438 1.496,0.763 2.28,0.975c0.779,0.179 1.595,0.259 2.475,0.259c1.383,-0 2.487,-0.359 3.316,-1.105c0.817,-0.783 1.238,-1.791 1.238,-3.062c-0,-1.25 -0.421,-2.246 -1.238,-2.992c-0.829,-0.733 -1.933,-1.108 -3.316,-1.108c-0.7,-0 -1.371,0.096 -2.021,0.262c-0.65,0.13 -1.334,0.355 -2.017,0.65l0,-9.179Z" style="fill:#00f;fill-rule:nonzero;"/><path d="M191.08,699.572l-6.183,9.7l6.183,-0l-0,-9.7Zm-0.65,-2.146l3.125,-0l-0,11.846l2.604,-0l0,2.083l-2.604,-0l-0,4.3l-2.475,-0l-0,-4.3l-8.204,-0l-0,-2.408l7.554,-11.521Z" style="fill:#00f;fill-rule:nonzero;"/><path d="M227.197,705.822c1.17,0.262 2.083,0.816 2.733,1.629c0.683,0.779 1.042,1.758 1.042,2.929c-0,1.792 -0.634,3.175 -1.888,4.167c-1.221,0.962 -2.979,1.433 -5.275,1.433c-0.779,-0 -1.592,-0.1 -2.408,-0.263c-0.779,-0.129 -1.613,-0.325 -2.475,-0.583l-0,-2.408c0.687,0.387 1.45,0.7 2.279,0.908c0.817,0.229 1.662,0.325 2.542,0.325c1.562,0 2.733,-0.292 3.512,-0.908c0.817,-0.654 1.238,-1.529 1.238,-2.671c-0,-1.075 -0.388,-1.921 -1.171,-2.538c-0.75,-0.604 -1.792,-0.912 -3.125,-0.912l-2.084,-0l0,-2.017l2.213,0c1.204,0 2.117,-0.229 2.737,-0.716c0.65,-0.521 0.975,-1.238 0.975,-2.15c0,-0.913 -0.325,-1.596 -0.975,-2.084c-0.654,-0.521 -1.612,-0.779 -2.866,-0.779c-0.65,0 -1.367,0.096 -2.15,0.258c-0.779,0.13 -1.625,0.359 -2.538,0.65l0,-2.212c0.913,-0.258 1.775,-0.454 2.604,-0.588c0.813,-0.129 1.596,-0.191 2.346,-0.191c1.854,-0 3.334,0.437 4.425,1.3c1.075,0.829 1.629,1.987 1.629,3.45c0,1.008 -0.312,1.858 -0.912,2.541c-0.571,0.7 -1.367,1.171 -2.408,1.43Z" style="fill:#00f;fill-rule:nonzero;"/><path d="M257.584,713.734l8.592,0l-0,2.083l-11.588,0l0,-2.083c0.946,-0.946 2.229,-2.229 3.842,-3.842c1.596,-1.645 2.621,-2.704 3.058,-3.191c0.784,-0.909 1.321,-1.659 1.629,-2.279c0.292,-0.6 0.455,-1.205 0.455,-1.821c-0,-0.946 -0.359,-1.725 -1.042,-2.346c-0.65,-0.6 -1.529,-0.908 -2.604,-0.908c-0.779,-0 -1.609,0.129 -2.471,0.387c-0.833,0.263 -1.742,0.683 -2.738,1.238l0,-2.471c0.996,-0.425 1.921,-0.734 2.8,-0.913c0.863,-0.212 1.646,-0.325 2.346,-0.325c1.904,0 3.4,0.488 4.492,1.429c1.121,0.913 1.692,2.184 1.692,3.78c-0,0.745 -0.163,1.462 -0.455,2.145c-0.262,0.655 -0.766,1.434 -1.5,2.346c-0.179,0.225 -0.829,0.896 -1.95,2.017c-1.091,1.142 -2.604,2.717 -4.558,4.754Z" style="fill:#00f;fill-rule:nonzero;"/><path d="M290.772,713.572l4.033,-0l-0,-13.867l-4.425,0.846l-0,-2.217l4.362,-0.908l2.475,-0l0,16.146l4.034,-0l-0,2.083l-10.479,-0l-0,-2.083Z" style="fill:#00f;fill-rule:nonzero;"/><path d="M331.247,699.051c-1.267,-0 -2.213,0.637 -2.863,1.887c-0.65,1.271 -0.975,3.125 -0.975,5.6c0,2.525 0.325,4.413 0.975,5.667c0.65,1.221 1.596,1.821 2.863,1.821c1.304,-0 2.25,-0.6 2.866,-1.821c0.65,-1.254 0.975,-3.142 0.975,-5.667c0,-2.475 -0.325,-4.329 -0.975,-5.6c-0.616,-1.25 -1.562,-1.887 -2.866,-1.887Zm-0,-1.95c2.037,-0 3.6,0.812 4.691,2.408c1.071,1.608 1.625,3.954 1.625,7.029c0,3.092 -0.554,5.438 -1.625,7.034c-1.091,1.608 -2.654,2.408 -4.691,2.408c-2.05,-0 -3.613,-0.8 -4.684,-2.408c-1.091,-1.596 -1.629,-3.942 -1.629,-7.034c0,-3.075 0.538,-5.421 1.629,-7.029c1.071,-1.596 2.634,-2.408 4.684,-2.408Z" style="fill:#00f;fill-rule:nonzero;"/></g></svg>