<?xml version="1.0" encoding="UTF-8" standalone="no"?><!DOCTYPE svg PUBLIC "-//W3C//DTD SVG 1.1//EN" "http://www.w3.org/Graphics/SVG/1.1/DTD/svg11.dtd"><svg width="100%" height="100%" viewBox="0 0 722 191" version="1.1" xmlns="http://www.w3.org/2000/svg" xmlns:xlink="http://www.w3.org/1999/xlink" xml:space="preserve" xmlns:serif="http://www.serif.com/" style="fill-rule:evenodd;clip-rule:evenodd;stroke-linecap:round;"><g id="Front"><path d="M83.722,135.592l-5.6,15.105l11.195,-0l-5.595,-15.105Zm-2.346,-4.1l4.687,0l11.588,30.405l-4.296,-0l-2.8,-7.813l-13.671,0l-2.733,7.813l-4.363,-0l11.588,-30.405Z" style="fill:#00f;fill-rule:nonzero;"/><path d="M634.322,147.376l-0,11.133l6.575,0c2.216,0 3.841,-0.454 4.883,-1.367c1.075,-0.912 1.629,-2.308 1.629,-4.229c0,-1.858 -0.554,-3.258 -1.629,-4.166c-1.042,-0.913 -2.667,-1.371 -4.883,-1.371l-6.575,-0Zm-0,-12.5l-0,9.183l6.054,0c2.037,0 3.533,-0.358 4.491,-1.108c0.996,-0.784 1.5,-1.921 1.5,-3.45c0,-1.563 -0.504,-2.704 -1.5,-3.45c-0.958,-0.784 -2.454,-1.175 -4.491,-1.175l-6.054,-0Zm-4.1,-3.384l10.479,0c3.125,0 5.537,0.65 7.229,1.955c1.692,1.3 2.537,3.17 2.537,5.595c0,1.875 -0.437,3.355 -1.3,4.43c-0.879,1.091 -2.133,1.758 -3.779,2.016c1.988,0.442 3.55,1.354 4.688,2.738c1.125,1.4 1.696,3.108 1.696,5.141c-0,2.734 -0.946,4.85 -2.8,6.317c-1.825,1.479 -4.463,2.213 -7.88,2.213l-10.87,-0l-0,-30.405Z" style="fill:#00f;fill-rule:nonzero;"/><path d="M711.551,183.609l-31.867,0" style="fill:none;fill-rule:nonzero;stroke:#000;stroke-width:3.13px;"/><path d="M41.876,183.609l637.808,0" style="fill:none;fill-rule:nonzero;stroke:#000;stroke-width:3.13px;"/><path d="M41.876,183.609l-31.904,0" style="fill:none;fill-rule:nonzero;stroke:#000;stroke-width:3.13px;"/><path d="M7.026,114.63l34.85,-0" style="fill:none;fill-rule:nonzero;stroke:#000;stroke-width:3.13px;"/><path d="M679.684,114.63l-281.592,-0" style="fill:none;fill-rule:nonzero;stroke:#000;stroke-width:3.13px;"/><path d="M323.434,114.63l-281.558,-0" style="fill:none;fill-rule:nonzero;stroke:#000;stroke-width:3.13px;"/><path d="M679.684,114.63l34.829,-0" style="fill:none;fill-rule:nonzero;stroke:#000;stroke-width:3.13px;"/><path d="M6.442,115.234l0.584,-0.604" style="fill:none;fill-rule:nonzero;stroke:#000;stroke-width:3.13px;"/><path d="M41.876,115.234l-35.434,0" style="fill:none;fill-rule:nonzero;stroke:#000;stroke-width:3.13px;"/><path d="M41.876,115.234l637.808,0" style="fill:none;fill-rule:nonzero;stroke:#000;stroke-width:3.13px;"/><path d="M715.084,115.234l-0.571,-0.604" style="fill:none;fill-rule:nonzero;stroke:#000;stroke-width:3.13px;"/><path d="M715.084,115.234l-35.4,0" style="fill:none;fill-rule:nonzero;stroke:#000;stroke-width:3.13px;"/><path d="M679.684,180.076l35.4,-0" style="fill:none;fill-rule:nonzero;stroke:#000;stroke-width:3.13px;"/><path d="M715.084,115.234l0,64.842" style="fill:none;fill-rule:nonzero;stroke:#000;stroke-width:3.13px;"/><path d="M679.684,180.076l-637.808,-0" style="fill:none;fill-rule:nonzero;stroke:#000;stroke-width:3.13px;"/><path d="M6.442,115.234l0,64.842" style="fill:none;fill-rule:nonzero;stroke:#000;stroke-width:3.13px;"/><path d="M6.442,180.076l35.434,-0" style="fill:none;fill-rule:nonzero;stroke:#000;stroke-width:3.13px;"/><path d="M9.972,183.609l-3.53,-3.533" style="fill:none;fill-rule:nonzero;stroke:#000;stroke-width:3.13px;"/><path d="M715.084,180.076l-3.533,3.533" style="fill:none;fill-rule:nonzero;stroke:#000;stroke-width:3.13px;"/><path d="M594.267,114.63l85.417,-0" style="fill:none;fill-rule:nonzero;stroke:#000;stroke-width:3.13px;"/><path d="M679.684,114.042l-85.662,0" style="fill:none;fill-rule:nonzero;stroke:#000;stroke-width:3.13px;"/><path d="M594.022,114.042l0.245,0.588" style="fill:none;fill-rule:nonzero;stroke:#000;stroke-width:3.13px;"/><path d="M592.263,114.63l-0.583,-0.588" style="fill:none;fill-rule:nonzero;stroke:#000;stroke-width:3.13px;"/><path d="M594.022,114.042l-2.342,0" style="fill:none;fill-rule:nonzero;stroke:#000;stroke-width:3.13px;"/><path d="M714.513,114.63l0.571,-0.588" style="fill:none;fill-rule:nonzero;stroke:#000;stroke-width:3.13px;"/><path d="M679.684,114.042l35.4,0" style="fill:none;fill-rule:nonzero;stroke:#000;stroke-width:3.13px;"/><path d="M714.513,114.63l-34.829,-0" style="fill:none;fill-rule:nonzero;stroke:#000;stroke-width:3.13px;"/><path d="M398.092,114.63l-0.587,-0" style="fill:none;fill-rule:nonzero;stroke:#000;stroke-width:3.13px;"/><path d="M397.376,114.922l0.129,-0.292" style="fill:none;fill-rule:nonzero;stroke:#000;stroke-width:3.13px;"/><path d="M324.034,114.63l-0.6,-0" style="fill:none;fill-rule:nonzero;stroke:#000;stroke-width:3.13px;"/><path d="M324.151,114.922l-0.117,-0.292" style="fill:none;fill-rule:nonzero;stroke:#000;stroke-width:3.13px;"/><path d="M397.505,114.63l-73.471,-0" style="fill:none;fill-rule:nonzero;stroke:#000;stroke-width:3.13px;"/><path d="M7.026,114.63l-0.584,-0.588" style="fill:none;fill-rule:nonzero;stroke:#000;stroke-width:3.13px;"/><path d="M129.276,114.63l0.587,-0.588" style="fill:none;fill-rule:nonzero;stroke:#000;stroke-width:3.13px;"/><path d="M129.863,114.042l-2.362,0" style="fill:none;fill-rule:nonzero;stroke:#000;stroke-width:3.13px;"/><path d="M127.259,114.63l0.242,-0.588" style="fill:none;fill-rule:nonzero;stroke:#000;stroke-width:3.13px;"/><path d="M6.442,114.042l35.434,0" style="fill:none;fill-rule:nonzero;stroke:#000;stroke-width:3.13px;"/><path d="M41.876,114.63l-34.85,-0" style="fill:none;fill-rule:nonzero;stroke:#000;stroke-width:3.13px;"/><path d="M127.501,114.042l-85.625,0" style="fill:none;fill-rule:nonzero;stroke:#000;stroke-width:3.13px;"/><path d="M41.876,114.63l85.383,-0" style="fill:none;fill-rule:nonzero;stroke:#000;stroke-width:3.13px;"/><path d="M591.68,114.042l-191.813,0" style="fill:none;fill-rule:nonzero;stroke:#000;stroke-width:3.13px;"/><path d="M321.676,114.042l-191.813,0" style="fill:none;fill-rule:nonzero;stroke:#000;stroke-width:3.13px;"/><path d="M591.68,52.147c-0,-3.255 -2.654,-5.892 -5.908,-5.892" style="fill:none;fill-rule:nonzero;stroke:#000;stroke-width:3.13px;"/><path d="M591.68,52.147l-0,61.895" style="fill:none;fill-rule:nonzero;stroke:#000;stroke-width:3.13px;"/><path d="M594.022,114.042l-0,-61.895" style="fill:none;fill-rule:nonzero;stroke:#000;stroke-width:3.13px;"/><path d="M715.084,114.042l0,-104.05" style="fill:none;fill-rule:nonzero;stroke:#000;stroke-width:3.13px;"/><path d="M715.084,9.992l-35.4,0" style="fill:none;fill-rule:nonzero;stroke:#000;stroke-width:3.13px;"/><path d="M41.876,9.992l637.808,0" style="fill:none;fill-rule:nonzero;stroke:#000;stroke-width:3.13px;"/><path d="M127.501,52.147l-0,61.895" style="fill:none;fill-rule:nonzero;stroke:#000;stroke-width:3.13px;"/><path d="M135.772,43.892c-4.575,0 -8.271,3.696 -8.271,8.255" style="fill:none;fill-rule:nonzero;stroke:#000;stroke-width:3.13px;"/><path d="M315.767,43.892l-179.995,0" style="fill:none;fill-rule:nonzero;stroke:#000;stroke-width:3.13px;"/><path d="M324.034,52.147c0,-4.559 -3.708,-8.255 -8.267,-8.255" style="fill:none;fill-rule:nonzero;stroke:#000;stroke-width:3.13px;"/><path d="M324.034,52.147l0,62.483" style="fill:none;fill-rule:nonzero;stroke:#000;stroke-width:3.13px;"/><path d="M397.505,52.147l-0,62.483" style="fill:none;fill-rule:nonzero;stroke:#000;stroke-width:3.13px;"/><path d="M405.759,43.892c-4.558,0 -8.254,3.696 -8.254,8.255" style="fill:none;fill-rule:nonzero;stroke:#000;stroke-width:3.13px;"/><path d="M585.772,43.892l-179.996,0" style="fill:none;fill-rule:nonzero;stroke:#000;stroke-width:3.13px;"/><path d="M594.038,52.147c0,-4.559 -3.708,-8.255 -8.266,-8.255" style="fill:none;fill-rule:nonzero;stroke:#000;stroke-width:3.13px;"/><path d="M129.863,114.042l0,-61.895" style="fill:none;fill-rule:nonzero;stroke:#000;stroke-width:3.13px;"/><path d="M135.772,46.255c-3.271,-0 -5.909,2.637 -5.909,5.892" style="fill:none;fill-rule:nonzero;stroke:#000;stroke-width:3.13px;"/><path d="M135.772,46.255l179.995,-0" style="fill:none;fill-rule:nonzero;stroke:#000;stroke-width:3.13px;"/><path d="M321.676,52.147c-0,-3.255 -2.654,-5.892 -5.909,-5.892" style="fill:none;fill-rule:nonzero;stroke:#000;stroke-width:3.13px;"/><path d="M321.676,52.147l-0,62.483" style="fill:none;fill-rule:nonzero;stroke:#000;stroke-width:3.13px;"/><path d="M399.867,114.63l0,-62.483" style="fill:none;fill-rule:nonzero;stroke:#000;stroke-width:3.13px;"/><path d="M405.759,46.255c-3.258,-0 -5.892,2.637 -5.892,5.892" style="fill:none;fill-rule:nonzero;stroke:#000;stroke-width:3.13px;"/><path d="M405.776,46.255l179.996,-0" style="fill:none;fill-rule:nonzero;stroke:#000;stroke-width:3.13px;"/><path d="M711.551,6.442l3.533,3.55" style="fill:none;fill-rule:nonzero;stroke:#000;stroke-width:3.13px;"/><path d="M6.442,9.992l3.53,-3.55" style="fill:none;fill-rule:nonzero;stroke:#000;stroke-width:3.13px;"/><path d="M9.972,6.442l31.904,0" style="fill:none;fill-rule:nonzero;stroke:#000;stroke-width:3.13px;"/><path d="M41.876,9.992l-35.434,0" style="fill:none;fill-rule:nonzero;stroke:#000;stroke-width:3.13px;"/><path d="M679.684,6.442l-637.808,0" style="fill:none;fill-rule:nonzero;stroke:#000;stroke-width:3.13px;"/><path d="M679.684,6.442l31.867,0" style="fill:none;fill-rule:nonzero;stroke:#000;stroke-width:3.13px;"/><path d="M6.442,114.042l0,-104.05" style="fill:none;fill-rule:nonzero;stroke:#000;stroke-width:3.13px;"/><path d="M185.576,137.63l-0,-4.104l-3.321,-0l-0,-1.692l5.404,0l0,6.508c-0.829,0.571 -1.725,1.013 -2.671,1.305c-0.958,0.291 -1.983,0.454 -3.058,0.454c-2.346,-0 -4.2,-0.684 -5.533,-2.084c-1.35,-1.383 -2.021,-3.32 -2.021,-5.791c-0,-2.509 0.671,-4.463 2.021,-5.863c1.333,-1.383 3.187,-2.083 5.533,-2.083c0.992,-0 1.921,0.133 2.8,0.392c0.912,0.262 1.758,0.637 2.537,1.108l0,2.146c-0.779,-0.65 -1.612,-1.121 -2.475,-1.429c-0.829,-0.342 -1.725,-0.521 -2.666,-0.521c-1.871,-0 -3.288,0.521 -4.234,1.562c-0.912,1.042 -1.366,2.604 -1.366,4.688c-0,2.05 0.454,3.579 1.366,4.621c0.946,1.041 2.363,1.562 4.234,1.562c0.733,0 1.383,-0.067 1.954,-0.196c0.55,-0.129 1.054,-0.325 1.496,-0.583Z" style="fill:#00f;fill-rule:nonzero;"/><path d="M212.709,126.363l-5.208,8.142l5.208,-0l0,-8.142Zm-0.521,-1.754l2.538,0l-0,9.896l2.212,-0l0,1.692l-2.212,-0l-0,3.579l-2.017,-0l0,-3.579l-6.837,-0l-0,-1.955l6.316,-9.633Z" style="fill:#00f;fill-rule:nonzero;"/><path d="M243.942,131.722c0.992,0.225 1.759,0.683 2.28,1.366c0.55,0.65 0.845,1.463 0.845,2.409c0,1.529 -0.52,2.7 -1.562,3.516c-1.042,0.829 -2.508,1.238 -4.363,1.238c-0.65,-0 -1.333,-0.067 -2.016,-0.196c-0.654,-0.133 -1.354,-0.329 -2.084,-0.588l0,-2.016c0.6,0.358 1.234,0.616 1.888,0.779c0.683,0.179 1.4,0.262 2.146,0.262c1.254,0 2.229,-0.229 2.929,-0.716c0.683,-0.521 1.042,-1.271 1.042,-2.279c-0,-0.863 -0.325,-1.563 -0.975,-2.084c-0.617,-0.521 -1.48,-0.783 -2.605,-0.783l-1.758,-0l0,-1.692l1.825,0c0.992,0 1.758,-0.196 2.275,-0.587c0.554,-0.388 0.85,-0.975 0.85,-1.754c0,-0.784 -0.296,-1.371 -0.85,-1.759c-0.517,-0.425 -1.3,-0.654 -2.342,-0.654c-0.57,0 -1.17,0.067 -1.825,0.196c-0.65,0.133 -1.366,0.329 -2.145,0.587l-0,-1.887c0.779,-0.213 1.512,-0.358 2.212,-0.454c0.683,-0.134 1.333,-0.196 1.954,-0.196c1.563,-0 2.8,0.371 3.713,1.104c0.908,0.7 1.366,1.663 1.366,2.867c0,0.829 -0.262,1.546 -0.783,2.146c-0.487,0.57 -1.154,0.962 -2.017,1.175Z" style="fill:#00f;fill-rule:nonzero;"/><path d="M269.397,138.034l7.229,0l-0,1.758l-9.704,0l-0,-1.758c0.783,-0.779 1.841,-1.837 3.191,-3.187c1.334,-1.384 2.179,-2.28 2.538,-2.671c0.683,-0.734 1.175,-1.367 1.433,-1.888c0.263,-0.521 0.392,-1.008 0.392,-1.496c-0,-0.816 -0.292,-1.466 -0.846,-1.954c-0.571,-0.521 -1.304,-0.783 -2.213,-0.783c-0.654,-0 -1.354,0.117 -2.083,0.325c-0.7,0.229 -1.467,0.571 -2.279,1.042l-0,-2.084c0.812,-0.341 1.579,-0.6 2.279,-0.779c0.729,-0.162 1.396,-0.262 2.017,-0.262c1.562,-0 2.8,0.425 3.708,1.237c0.946,0.783 1.433,1.825 1.433,3.125c0,0.621 -0.112,1.204 -0.325,1.758c-0.229,0.571 -0.65,1.238 -1.3,2.017c-0.179,0.179 -0.716,0.75 -1.629,1.696c-0.879,0.958 -2.15,2.262 -3.841,3.904Z" style="fill:#00f;fill-rule:nonzero;"/><path d="M149.734,139.792l-5.792,-15.166l2.084,-0l4.816,12.758l4.817,-12.758l2.15,-0l-5.796,15.166l-2.279,0Z" style="fill:#00f;fill-rule:nonzero;"/><path d="M298.905,138.017l3.321,0l-0,-11.587l-3.646,0.783l-0,-1.891l3.646,-0.713l2.083,0l0,13.408l3.321,0l-0,1.759l-8.725,-0l-0,-1.759Z" style="fill:#00f;fill-rule:nonzero;"/><path d="M149.067,168.813l-5.791,-15.171l2.083,0l4.817,12.763l4.816,-12.763l2.15,0l-5.795,15.171l-2.28,0Z" style="fill:#00f;fill-rule:nonzero;"/><path d="M185.284,166.647l0,-4.1l-3.321,-0l0,-1.692l5.404,-0l0,6.508c-0.833,0.571 -1.725,1.013 -2.67,1.304c-0.959,0.292 -1.988,0.455 -3.059,0.455c-2.346,-0 -4.2,-0.684 -5.537,-2.084c-1.35,-1.383 -2.017,-3.321 -2.017,-5.791c0,-2.509 0.667,-4.463 2.017,-5.863c1.337,-1.383 3.191,-2.083 5.537,-2.083c0.992,-0 1.921,0.133 2.796,0.391c0.913,0.263 1.758,0.634 2.542,1.109l-0,2.146c-0.784,-0.65 -1.613,-1.121 -2.475,-1.43c-0.829,-0.341 -1.725,-0.52 -2.667,-0.52c-1.875,-0 -3.292,0.52 -4.233,1.562c-0.913,1.042 -1.367,2.604 -1.367,4.688c0,2.05 0.454,3.579 1.367,4.62c0.941,1.042 2.358,1.563 4.233,1.563c0.729,-0 1.383,-0.067 1.95,-0.196c0.554,-0.129 1.058,-0.325 1.5,-0.587Z" style="fill:#00f;fill-rule:nonzero;"/><path d="M200.272,167.055l3.32,-0l0,-11.588l-3.645,0.78l-0,-1.888l3.645,-0.717l2.084,0l-0,13.413l3.321,-0l-0,1.758l-8.725,0l-0,-1.758Z" style="fill:#00f;fill-rule:nonzero;"/><path d="M217.576,154.947c-1.092,-0 -1.892,0.52 -2.409,1.562c-0.525,1.042 -0.783,2.638 -0.783,4.75c0,2.083 0.258,3.646 0.783,4.688c0.517,1.041 1.317,1.562 2.409,1.562c1.041,0 1.821,-0.521 2.341,-1.562c0.555,-1.042 0.846,-2.605 0.846,-4.688c0,-2.112 -0.291,-3.708 -0.846,-4.75c-0.52,-1.042 -1.3,-1.562 -2.341,-1.562Zm-0,-1.63c1.691,0 2.962,0.7 3.841,2.084c0.909,1.35 1.367,3.304 1.367,5.858c0,2.525 -0.458,4.479 -1.367,5.863c-0.879,1.35 -2.15,2.016 -3.841,2.016c-1.696,0 -2.996,-0.666 -3.909,-2.016c-0.912,-1.384 -1.366,-3.338 -1.366,-5.863c-0,-2.554 0.454,-4.508 1.366,-5.858c0.913,-1.384 2.213,-2.084 3.909,-2.084Z" style="fill:#00f;fill-rule:nonzero;"/><path d="M237.317,168.472l0,-1.888c0.521,0.258 1.042,0.454 1.563,0.583c0.521,0.134 1.042,0.196 1.562,0.196c1.334,0 2.359,-0.454 3.059,-1.366c0.733,-0.913 1.175,-2.296 1.304,-4.167c-0.392,0.621 -0.896,1.075 -1.5,1.367c-0.617,0.312 -1.283,0.458 -2.017,0.458c-1.529,-0 -2.733,-0.458 -3.646,-1.367c-0.879,-0.912 -1.3,-2.166 -1.3,-3.779c0,-1.562 0.455,-2.812 1.367,-3.775c0.942,-0.942 2.179,-1.433 3.708,-1.433c1.725,-0 3.063,0.7 3.971,2.083c0.946,1.354 1.434,3.304 1.434,5.863c-0,2.391 -0.571,4.295 -1.692,5.729c-1.142,1.429 -2.654,2.146 -4.558,2.146c-0.521,-0 -1.075,-0.063 -1.625,-0.196c-0.521,-0.096 -1.075,-0.225 -1.63,-0.454Zm4.1,-6.446c0.913,-0 1.63,-0.292 2.15,-0.913c0.555,-0.65 0.846,-1.512 0.846,-2.604c0,-1.075 -0.291,-1.95 -0.846,-2.604c-0.52,-0.65 -1.237,-0.975 -2.15,-0.975c-0.908,-0 -1.658,0.325 -2.212,0.975c-0.521,0.654 -0.779,1.529 -0.779,2.604c-0,1.092 0.258,1.954 0.779,2.604c0.554,0.621 1.304,0.913 2.212,0.913Z" style="fill:#00f;fill-rule:nonzero;"/><path d="M272.359,161.438c-1.008,0 -1.792,0.263 -2.342,0.784c-0.57,0.52 -0.85,1.237 -0.85,2.15c0,0.908 0.28,1.658 0.85,2.212c0.55,0.521 1.334,0.779 2.342,0.779c0.946,0 1.708,-0.258 2.279,-0.779c0.554,-0.554 0.846,-1.304 0.846,-2.212c0,-0.913 -0.292,-1.63 -0.846,-2.15c-0.571,-0.521 -1.333,-0.784 -2.279,-0.784Zm-2.083,-0.846c-0.879,-0.208 -1.563,-0.616 -2.084,-1.237c-0.487,-0.6 -0.716,-1.333 -0.716,-2.213c-0,-1.204 0.425,-2.162 1.304,-2.862c0.862,-0.733 2.05,-1.108 3.579,-1.108c1.513,-0 2.688,0.375 3.517,1.108c0.862,0.7 1.3,1.658 1.3,2.862c-0,0.88 -0.242,1.613 -0.717,2.213c-0.487,0.621 -1.171,1.029 -2.083,1.237c0.996,0.23 1.775,0.684 2.346,1.367c0.554,0.654 0.845,1.467 0.845,2.413c0,1.479 -0.454,2.633 -1.366,3.45c-0.913,0.779 -2.196,1.17 -3.842,1.17c-1.692,0 -2.996,-0.391 -3.904,-1.17c-0.879,-0.817 -1.304,-1.971 -1.304,-3.45c-0,-0.946 0.262,-1.759 0.783,-2.413c0.55,-0.683 1.333,-1.137 2.342,-1.367Zm-0.717,-3.254c0,0.784 0.229,1.4 0.717,1.825c0.471,0.438 1.171,0.65 2.083,0.65c0.863,0 1.529,-0.212 2.017,-0.65c0.521,-0.425 0.783,-1.041 0.783,-1.825c0,-0.779 -0.262,-1.383 -0.783,-1.821c-0.488,-0.475 -1.154,-0.716 -2.017,-0.716c-0.912,-0 -1.612,0.241 -2.083,0.716c-0.488,0.438 -0.717,1.042 -0.717,1.821Z" style="fill:#00f;fill-rule:nonzero;"/><path d="M297.897,153.642l9.766,0l0,0.846l-5.471,14.325l-2.145,0l5.141,-13.475l-7.291,0l-0,-1.696Z" style="fill:#00f;fill-rule:nonzero;"/><path d="M419.463,139.792l-5.796,-15.166l2.084,-0l4.816,12.758l4.821,-12.758l2.146,-0l-5.792,15.166l-2.279,0Z" style="fill:#00f;fill-rule:nonzero;"/><path d="M455.58,137.63l-0,-4.104l-3.321,-0l0,-1.692l5.404,0l0,6.508c-0.829,0.571 -1.725,1.013 -2.671,1.305c-0.958,0.291 -1.983,0.454 -3.058,0.454c-2.346,-0 -4.2,-0.684 -5.533,-2.084c-1.354,-1.383 -2.021,-3.32 -2.021,-5.791c-0,-2.509 0.667,-4.463 2.021,-5.863c1.333,-1.383 3.187,-2.083 5.533,-2.083c0.992,-0 1.921,0.133 2.8,0.392c0.908,0.262 1.754,0.637 2.538,1.108l-0,2.146c-0.784,-0.65 -1.613,-1.121 -2.475,-1.429c-0.83,-0.342 -1.725,-0.521 -2.667,-0.521c-1.875,-0 -3.288,0.521 -4.233,1.562c-0.913,1.042 -1.367,2.604 -1.367,4.688c-0,2.05 0.454,3.579 1.367,4.621c0.945,1.041 2.358,1.562 4.233,1.562c0.729,0 1.383,-0.067 1.95,-0.196c0.554,-0.129 1.058,-0.325 1.5,-0.583Z" style="fill:#00f;fill-rule:nonzero;"/><path d="M482.709,126.363l-5.208,8.142l5.208,-0l0,-8.142Zm-0.521,-1.754l2.542,0l-0,9.896l2.212,-0l0,1.692l-2.212,-0l-0,3.579l-2.021,-0l0,-3.579l-6.833,-0l-0,-1.955l6.312,-9.633Z" style="fill:#00f;fill-rule:nonzero;"/><path d="M513.947,131.722c0.991,0.225 1.754,0.683 2.275,1.366c0.554,0.65 0.85,1.463 0.85,2.409c-0,1.529 -0.521,2.7 -1.563,3.516c-1.042,0.829 -2.508,1.238 -4.362,1.238c-0.655,-0 -1.338,-0.067 -2.021,-0.196c-0.65,-0.133 -1.35,-0.329 -2.084,-0.588l0,-2.016c0.605,0.358 1.238,0.616 1.888,0.779c0.683,0.179 1.4,0.262 2.15,0.262c1.254,0 2.229,-0.229 2.929,-0.716c0.683,-0.521 1.042,-1.271 1.042,-2.279c-0,-0.863 -0.325,-1.563 -0.975,-2.084c-0.621,-0.521 -1.484,-0.783 -2.604,-0.783l-1.759,-0l0,-1.692l1.821,0c0.996,0 1.758,-0.196 2.279,-0.587c0.554,-0.388 0.846,-0.975 0.846,-1.754c0,-0.784 -0.292,-1.371 -0.846,-1.759c-0.521,-0.425 -1.3,-0.654 -2.341,-0.654c-0.571,0 -1.171,0.067 -1.825,0.196c-0.65,0.133 -1.367,0.329 -2.146,0.587l-0,-1.887c0.779,-0.213 1.512,-0.358 2.212,-0.454c0.684,-0.134 1.334,-0.196 1.954,-0.196c1.563,-0 2.8,0.371 3.709,1.104c0.912,0.7 1.366,1.663 1.366,2.867c0,0.829 -0.258,1.546 -0.779,2.146c-0.487,0.57 -1.154,0.962 -2.016,1.175Z" style="fill:#00f;fill-rule:nonzero;"/><path d="M539.401,138.034l7.225,0l-0,1.758l-9.7,0l-0,-1.758c0.783,-0.779 1.841,-1.837 3.191,-3.187c1.334,-1.384 2.18,-2.28 2.538,-2.671c0.683,-0.734 1.171,-1.367 1.433,-1.888c0.259,-0.521 0.392,-1.008 0.392,-1.496c-0,-0.816 -0.296,-1.466 -0.846,-1.954c-0.571,-0.521 -1.304,-0.783 -2.217,-0.783c-0.65,-0 -1.35,0.117 -2.083,0.325c-0.7,0.229 -1.462,0.571 -2.279,1.042l-0,-2.084c0.817,-0.341 1.579,-0.6 2.279,-0.779c0.733,-0.162 1.4,-0.262 2.021,-0.262c1.562,-0 2.8,0.425 3.708,1.237c0.946,0.783 1.434,1.825 1.434,3.125c-0,0.621 -0.113,1.204 -0.325,1.758c-0.23,0.571 -0.65,1.238 -1.305,2.017c-0.179,0.179 -0.712,0.75 -1.625,1.696c-0.879,0.958 -2.15,2.262 -3.841,3.904Z" style="fill:#00f;fill-rule:nonzero;"/><path d="M568.634,138.017l3.317,0l-0,-11.587l-3.646,0.783l-0,-1.891l3.646,-0.713l2.083,0l0,13.408l3.321,0l-0,1.759l-8.721,-0l0,-1.759Z" style="fill:#00f;fill-rule:nonzero;"/><path d="M419.072,168.813l-5.796,-15.171l2.083,0l4.821,12.763l4.817,-12.763l2.145,0l-5.791,15.171l-2.279,0Z" style="fill:#00f;fill-rule:nonzero;"/><path d="M455.284,166.647l0,-4.1l-3.317,-0l0,-1.692l5.4,-0l0,6.508c-0.829,0.571 -1.725,1.013 -2.666,1.304c-0.963,0.292 -1.988,0.455 -3.063,0.455c-2.341,-0 -4.196,-0.684 -5.533,-2.084c-1.35,-1.383 -2.017,-3.321 -2.017,-5.791c0,-2.509 0.667,-4.463 2.017,-5.863c1.337,-1.383 3.192,-2.083 5.533,-2.083c0.996,-0 1.921,0.133 2.8,0.391c0.913,0.263 1.759,0.634 2.542,1.109l-0,2.146c-0.783,-0.65 -1.613,-1.121 -2.475,-1.43c-0.829,-0.341 -1.725,-0.52 -2.671,-0.52c-1.871,-0 -3.287,0.52 -4.229,1.562c-0.913,1.042 -1.367,2.604 -1.367,4.688c0,2.05 0.454,3.579 1.367,4.62c0.942,1.042 2.358,1.563 4.229,1.563c0.733,-0 1.383,-0.067 1.954,-0.196c0.554,-0.129 1.059,-0.325 1.496,-0.587Z" style="fill:#00f;fill-rule:nonzero;"/><path d="M470.276,167.055l3.321,-0l-0,-11.588l-3.646,0.78l-0,-1.888l3.646,-0.717l2.083,0l-0,13.413l3.321,-0l-0,1.758l-8.725,0l-0,-1.758Z" style="fill:#00f;fill-rule:nonzero;"/><path d="M487.559,154.947c-1.087,-0 -1.887,0.52 -2.408,1.562c-0.521,1.042 -0.779,2.638 -0.779,4.75c-0,2.083 0.258,3.646 0.779,4.688c0.521,1.041 1.321,1.562 2.408,1.562c1.042,0 1.825,-0.521 2.346,-1.562c0.554,-1.042 0.846,-2.605 0.846,-4.688c-0,-2.112 -0.292,-3.708 -0.846,-4.75c-0.521,-1.042 -1.304,-1.562 -2.346,-1.562Zm0,-1.63c1.696,0 2.963,0.7 3.842,2.084c0.912,1.35 1.366,3.304 1.366,5.858c0,2.525 -0.454,4.479 -1.366,5.863c-0.879,1.35 -2.146,2.016 -3.842,2.016c-1.692,0 -2.992,-0.666 -3.904,-2.016c-0.913,-1.384 -1.367,-3.338 -1.367,-5.863c0,-2.554 0.454,-4.508 1.367,-5.858c0.912,-1.384 2.212,-2.084 3.904,-2.084Z" style="fill:#00f;fill-rule:nonzero;"/><path d="M507.322,168.472l-0,-1.888c0.52,0.258 1.041,0.454 1.562,0.583c0.521,0.134 1.042,0.196 1.563,0.196c1.333,0 2.358,-0.454 3.058,-1.366c0.733,-0.913 1.171,-2.296 1.304,-4.167c-0.392,0.621 -0.896,1.075 -1.5,1.367c-0.617,0.312 -1.283,0.458 -2.017,0.458c-1.529,-0 -2.733,-0.458 -3.645,-1.367c-0.88,-0.912 -1.305,-2.166 -1.305,-3.779c0,-1.562 0.459,-2.812 1.367,-3.775c0.946,-0.942 2.183,-1.433 3.713,-1.433c1.725,-0 3.058,0.7 3.97,2.083c0.946,1.354 1.434,3.304 1.434,5.863c-0,2.391 -0.571,4.295 -1.692,5.729c-1.142,1.429 -2.654,2.146 -4.558,2.146c-0.521,-0 -1.075,-0.063 -1.629,-0.196c-0.521,-0.096 -1.071,-0.225 -1.625,-0.454Zm4.1,-6.446c0.912,-0 1.629,-0.292 2.15,-0.913c0.554,-0.65 0.845,-1.512 0.845,-2.604c0,-1.075 -0.291,-1.95 -0.845,-2.604c-0.521,-0.65 -1.238,-0.975 -2.15,-0.975c-0.913,-0 -1.659,0.325 -2.213,0.975c-0.521,0.654 -0.783,1.529 -0.783,2.604c-0,1.092 0.262,1.954 0.783,2.604c0.554,0.621 1.3,0.913 2.213,0.913Z" style="fill:#00f;fill-rule:nonzero;"/><path d="M542.363,161.438c-1.008,0 -1.791,0.263 -2.346,0.784c-0.566,0.52 -0.845,1.237 -0.845,2.15c-0,0.908 0.279,1.658 0.845,2.212c0.555,0.521 1.338,0.779 2.346,0.779c0.942,0 1.709,-0.258 2.279,-0.779c0.555,-0.554 0.846,-1.304 0.846,-2.212c0,-0.913 -0.291,-1.63 -0.846,-2.15c-0.57,-0.521 -1.337,-0.784 -2.279,-0.784Zm-2.083,-0.846c-0.879,-0.208 -1.563,-0.616 -2.083,-1.237c-0.488,-0.6 -0.717,-1.333 -0.717,-2.213c-0,-1.204 0.425,-2.162 1.3,-2.862c0.862,-0.733 2.054,-1.108 3.583,-1.108c1.513,-0 2.684,0.375 3.517,1.108c0.862,0.7 1.3,1.658 1.3,2.862c-0,0.88 -0.246,1.613 -0.717,2.213c-0.487,0.621 -1.171,1.029 -2.083,1.237c0.996,0.23 1.775,0.684 2.346,1.367c0.554,0.654 0.846,1.467 0.846,2.413c-0,1.479 -0.459,2.633 -1.367,3.45c-0.913,0.779 -2.2,1.17 -3.842,1.17c-1.691,0 -2.996,-0.391 -3.908,-1.17c-0.879,-0.817 -1.3,-1.971 -1.3,-3.45c-0,-0.946 0.258,-1.759 0.779,-2.413c0.554,-0.683 1.338,-1.137 2.346,-1.367Zm-0.717,-3.254c0,0.784 0.229,1.4 0.717,1.825c0.471,0.438 1.171,0.65 2.083,0.65c0.863,0 1.529,-0.212 2.017,-0.65c0.521,-0.425 0.783,-1.041 0.783,-1.825c0,-0.779 -0.262,-1.383 -0.783,-1.821c-0.488,-0.475 -1.154,-0.716 -2.017,-0.716c-0.912,-0 -1.612,0.241 -2.083,0.716c-0.488,0.438 -0.717,1.042 -0.717,1.821Z" style="fill:#00f;fill-rule:nonzero;"/><path d="M567.901,153.642l9.766,0l0,0.846l-5.47,14.325l-2.15,0l5.145,-13.475l-7.291,0l-0,-1.696Z" style="fill:#00f;fill-rule:nonzero;"/></g></svg>