<?xml version="1.0" encoding="UTF-8" standalone="no"?><!DOCTYPE svg PUBLIC "-//W3C//DTD SVG 1.1//EN" "http://www.w3.org/Graphics/SVG/1.1/DTD/svg11.dtd"><svg width="100%" height="100%" viewBox="0 0 871 191" version="1.1" xmlns="http://www.w3.org/2000/svg" xmlns:xlink="http://www.w3.org/1999/xlink" xml:space="preserve" xmlns:serif="http://www.serif.com/" style="fill-rule:evenodd;clip-rule:evenodd;stroke-linecap:round;"><g id="Right"><path d="M641.159,38.247c0.554,0.179 1.075,0.57 1.563,1.17c0.52,0.571 1.012,1.35 1.5,2.346l2.537,5.013l-2.667,-0l-2.345,-4.688c-0.617,-1.204 -1.205,-2.021 -1.759,-2.408c-0.571,-0.392 -1.333,-0.588 -2.279,-0.588l-2.667,0l0,7.684l-2.475,-0l0,-18.229l5.534,-0c2.083,-0 3.612,0.437 4.621,1.3c1.041,0.879 1.562,2.2 1.562,3.97c0,1.142 -0.258,2.084 -0.779,2.867c-0.521,0.75 -1.304,1.271 -2.346,1.563Zm-6.117,-7.684l0,6.513l3.059,-0c1.204,-0 2.116,-0.279 2.733,-0.846c0.604,-0.554 0.913,-1.371 0.913,-2.413c-0,-1.07 -0.309,-1.887 -0.913,-2.408c-0.617,-0.55 -1.529,-0.846 -2.733,-0.846l-3.059,0Z" style="fill:#00f;fill-rule:nonzero;"/><path d="M649.934,28.547l11.525,-0l0,2.083l-9.05,-0l0,5.404l8.658,0l0,2.083l-8.658,0l0,6.575l9.242,0l-0,2.084l-11.717,-0l0,-18.229Z" style="fill:#00f;fill-rule:nonzero;"/><path d="M676.676,29.13l-0,2.412c-0.963,-0.425 -1.854,-0.75 -2.671,-0.979c-0.829,-0.212 -1.625,-0.325 -2.408,-0.325c-1.35,0 -2.392,0.263 -3.125,0.784c-0.75,0.52 -1.109,1.266 -1.109,2.212c0,0.779 0.229,1.4 0.717,1.821c0.521,0.392 1.45,0.717 2.8,0.979l1.5,0.325c1.821,0.358 3.154,0.975 4.033,1.888c0.863,0.879 1.304,2.05 1.304,3.516c0,1.742 -0.587,3.059 -1.758,3.971c-1.171,0.913 -2.912,1.367 -5.208,1.367c-0.879,-0 -1.809,-0.113 -2.8,-0.325c-0.959,-0.163 -1.954,-0.425 -2.996,-0.784l-0,-2.537c1.042,0.571 2.037,1.008 2.996,1.3c0.946,0.262 1.887,0.392 2.8,0.392c1.433,-0 2.508,-0.275 3.254,-0.846c0.783,-0.554 1.175,-1.334 1.175,-2.342c-0,-0.912 -0.296,-1.596 -0.85,-2.083c-0.521,-0.521 -1.413,-0.913 -2.667,-1.175l-1.5,-0.325c-1.871,-0.342 -3.221,-0.913 -4.033,-1.692c-0.833,-0.783 -1.238,-1.854 -1.238,-3.254c0,-1.596 0.555,-2.867 1.692,-3.779c1.171,-0.942 2.75,-1.429 4.754,-1.429c0.813,-0 1.659,0.095 2.538,0.258c0.912,0.129 1.837,0.358 2.8,0.65Z" style="fill:#00f;fill-rule:nonzero;"/><path d="M681.605,28.547l11.525,-0l-0,2.083l-9.05,-0l-0,5.404l8.658,0l0,2.083l-8.658,0l-0,6.575l9.246,0l-0,2.084l-11.721,-0l-0,-18.229Z" style="fill:#00f;fill-rule:nonzero;"/><path d="M694.855,28.547l15.429,-0l0,2.083l-6.508,-0l-0,16.146l-2.475,-0l-0,-16.146l-6.446,-0l-0,-2.083Z" style="fill:#00f;fill-rule:nonzero;"/><path d="M860.384,183.609l-31.887,0" style="fill:none;fill-rule:nonzero;stroke:#000;stroke-width:3.13px;"/><path d="M41.892,183.609l786.605,0" style="fill:none;fill-rule:nonzero;stroke:#000;stroke-width:3.13px;"/><path d="M41.892,183.609l-31.9,0" style="fill:none;fill-rule:nonzero;stroke:#000;stroke-width:3.13px;"/><path d="M7.047,114.63l34.845,-0" style="fill:none;fill-rule:nonzero;stroke:#000;stroke-width:3.13px;"/><path d="M828.497,114.63l-786.605,-0" style="fill:none;fill-rule:nonzero;stroke:#000;stroke-width:3.13px;"/><path d="M828.497,114.63l34.85,-0" style="fill:none;fill-rule:nonzero;stroke:#000;stroke-width:3.13px;"/><path d="M6.442,115.217l0.605,-0.587" style="fill:none;fill-rule:nonzero;stroke:#000;stroke-width:3.13px;"/><path d="M41.892,115.217l-35.45,0" style="fill:none;fill-rule:nonzero;stroke:#000;stroke-width:3.13px;"/><path d="M41.892,115.217l786.605,0" style="fill:none;fill-rule:nonzero;stroke:#000;stroke-width:3.13px;"/><path d="M863.93,115.217l-0.583,-0.587" style="fill:none;fill-rule:nonzero;stroke:#000;stroke-width:3.13px;"/><path d="M863.93,115.217l-35.433,0" style="fill:none;fill-rule:nonzero;stroke:#000;stroke-width:3.13px;"/><path d="M6.442,115.217l0,64.842" style="fill:none;fill-rule:nonzero;stroke:#000;stroke-width:3.13px;"/><path d="M6.442,180.059l35.45,0" style="fill:none;fill-rule:nonzero;stroke:#000;stroke-width:3.13px;"/><path d="M863.93,180.059l-3.546,3.55" style="fill:none;fill-rule:nonzero;stroke:#000;stroke-width:3.13px;"/><path d="M828.497,180.059l35.433,0" style="fill:none;fill-rule:nonzero;stroke:#000;stroke-width:3.13px;"/><path d="M828.497,180.059l-786.605,0" style="fill:none;fill-rule:nonzero;stroke:#000;stroke-width:3.13px;"/><path d="M6.442,180.059l3.55,3.55" style="fill:none;fill-rule:nonzero;stroke:#000;stroke-width:3.13px;"/><path d="M863.93,115.217l-0,64.842" style="fill:none;fill-rule:nonzero;stroke:#000;stroke-width:3.13px;"/><path d="M458.217,30.059l142.921,0" style="fill:none;fill-rule:nonzero;stroke:#000;stroke-width:3.13px;"/><path d="M444.059,114.026l-148.829,-0" style="fill:none;fill-rule:nonzero;stroke:#000;stroke-width:3.13px;"/><path d="M295.23,114.026l0.246,0.604" style="fill:none;fill-rule:nonzero;stroke:#000;stroke-width:3.13px;"/><path d="M295.476,114.63l148.321,-0" style="fill:none;fill-rule:nonzero;stroke:#000;stroke-width:3.13px;"/><path d="M444.059,114.026l-0.262,0.604" style="fill:none;fill-rule:nonzero;stroke:#000;stroke-width:3.13px;"/><path d="M445.817,114.63l0.6,-0.604" style="fill:none;fill-rule:nonzero;stroke:#000;stroke-width:3.13px;"/><path d="M446.417,114.026l-2.358,-0" style="fill:none;fill-rule:nonzero;stroke:#000;stroke-width:3.13px;"/><path d="M7.047,114.63l-0.605,-0.604" style="fill:none;fill-rule:nonzero;stroke:#000;stroke-width:3.13px;"/><path d="M174.755,114.63l0.6,-0.604" style="fill:none;fill-rule:nonzero;stroke:#000;stroke-width:3.13px;"/><path d="M175.355,114.026l-2.375,-0" style="fill:none;fill-rule:nonzero;stroke:#000;stroke-width:3.13px;"/><path d="M172.98,114.026l-0.242,0.604" style="fill:none;fill-rule:nonzero;stroke:#000;stroke-width:3.13px;"/><path d="M293.455,114.63l-0.583,-0.604" style="fill:none;fill-rule:nonzero;stroke:#000;stroke-width:3.13px;"/><path d="M6.442,114.026l35.45,-0" style="fill:none;fill-rule:nonzero;stroke:#000;stroke-width:3.13px;"/><path d="M41.892,114.63l-34.845,-0" style="fill:none;fill-rule:nonzero;stroke:#000;stroke-width:3.13px;"/><path d="M172.98,114.026l-131.088,-0" style="fill:none;fill-rule:nonzero;stroke:#000;stroke-width:3.13px;"/><path d="M41.892,114.63l130.846,-0" style="fill:none;fill-rule:nonzero;stroke:#000;stroke-width:3.13px;"/><path d="M295.23,114.026l-2.358,-0" style="fill:none;fill-rule:nonzero;stroke:#000;stroke-width:3.13px;"/><path d="M7.047,114.63l-0.605,-0" style="fill:none;fill-rule:nonzero;stroke:#000;stroke-width:3.13px;"/><path d="M6.755,114.922l-0.313,-0.292" style="fill:none;fill-rule:nonzero;stroke:#000;stroke-width:3.13px;"/><path d="M175.942,114.026l-0.587,0.604" style="fill:none;fill-rule:nonzero;stroke:#000;stroke-width:3.13px;"/><path d="M175.355,114.026l0.587,-0" style="fill:none;fill-rule:nonzero;stroke:#000;stroke-width:3.13px;"/><path d="M175.355,114.63l-0,-0.604" style="fill:none;fill-rule:nonzero;stroke:#000;stroke-width:3.13px;"/><path d="M175.942,114.026l0,-24.446" style="fill:none;fill-rule:nonzero;stroke:#000;stroke-width:3.13px;"/><path d="M181.251,75.747c-3.421,3.791 -5.309,8.725 -5.309,13.833" style="fill:none;fill-rule:nonzero;stroke:#000;stroke-width:3.12px;"/><path d="M692.592,114.63l-0.583,-0.604" style="fill:none;fill-rule:nonzero;stroke:#000;stroke-width:3.13px;"/><path d="M694.613,114.63l133.884,-0" style="fill:none;fill-rule:nonzero;stroke:#000;stroke-width:3.13px;"/><path d="M828.497,114.026l-134.13,-0" style="fill:none;fill-rule:nonzero;stroke:#000;stroke-width:3.13px;"/><path d="M694.367,114.026l0.246,0.604" style="fill:none;fill-rule:nonzero;stroke:#000;stroke-width:3.13px;"/><path d="M863.347,114.63l0.583,-0.604" style="fill:none;fill-rule:nonzero;stroke:#000;stroke-width:3.13px;"/><path d="M828.497,114.026l35.433,-0" style="fill:none;fill-rule:nonzero;stroke:#000;stroke-width:3.13px;"/><path d="M863.347,114.63l-34.85,-0" style="fill:none;fill-rule:nonzero;stroke:#000;stroke-width:3.13px;"/><path d="M694.367,114.026l-2.358,-0" style="fill:none;fill-rule:nonzero;stroke:#000;stroke-width:3.13px;"/><path d="M613.542,114.63l-0.587,-0.604" style="fill:none;fill-rule:nonzero;stroke:#000;stroke-width:3.13px;"/><path d="M650.226,114.63l0.587,-0.604" style="fill:none;fill-rule:nonzero;stroke:#000;stroke-width:3.13px;"/><path d="M650.813,114.026l-2.362,-0" style="fill:none;fill-rule:nonzero;stroke:#000;stroke-width:3.13px;"/><path d="M648.451,114.026l-0.242,0.604" style="fill:none;fill-rule:nonzero;stroke:#000;stroke-width:3.13px;"/><path d="M615.559,114.63l32.65,-0" style="fill:none;fill-rule:nonzero;stroke:#000;stroke-width:3.13px;"/><path d="M648.451,114.026l-33.138,-0" style="fill:none;fill-rule:nonzero;stroke:#000;stroke-width:3.13px;"/><path d="M615.313,114.026l0.246,0.604" style="fill:none;fill-rule:nonzero;stroke:#000;stroke-width:3.13px;"/><path d="M615.313,114.026l-2.358,-0" style="fill:none;fill-rule:nonzero;stroke:#000;stroke-width:3.13px;"/><path d="M41.892,9.976l-35.45,-0" style="fill:none;fill-rule:nonzero;stroke:#000;stroke-width:3.13px;"/><path d="M6.442,114.026l0,-104.05" style="fill:none;fill-rule:nonzero;stroke:#000;stroke-width:3.13px;"/><path d="M175.355,114.026l-0,-24.446" style="fill:none;fill-rule:nonzero;stroke:#000;stroke-width:3.13px;"/><path d="M172.98,89.58l-0,24.446" style="fill:none;fill-rule:nonzero;stroke:#000;stroke-width:3.13px;"/><path d="M196.013,68.909c-11.412,0 -20.658,9.263 -20.658,20.671" style="fill:none;fill-rule:nonzero;stroke:#000;stroke-width:3.13px;"/><path d="M196.026,68.909l76.175,0" style="fill:none;fill-rule:nonzero;stroke:#000;stroke-width:3.13px;"/><path d="M292.872,89.58c-0,-11.408 -9.263,-20.671 -20.671,-20.671" style="fill:none;fill-rule:nonzero;stroke:#000;stroke-width:3.13px;"/><path d="M292.872,89.58l-0,24.446" style="fill:none;fill-rule:nonzero;stroke:#000;stroke-width:3.13px;"/><path d="M295.23,114.026l-0,-24.446" style="fill:none;fill-rule:nonzero;stroke:#000;stroke-width:3.13px;"/><path d="M446.417,114.026l0,-72.167" style="fill:none;fill-rule:nonzero;stroke:#000;stroke-width:3.13px;"/><path d="M444.059,41.859l0,72.167" style="fill:none;fill-rule:nonzero;stroke:#000;stroke-width:3.13px;"/><path d="M458.217,30.059c-6.508,0 -11.8,5.292 -11.8,11.817" style="fill:none;fill-rule:nonzero;stroke:#000;stroke-width:3.13px;"/><path d="M6.442,114.026l0,0.604" style="fill:none;fill-rule:nonzero;stroke:#000;stroke-width:3.13px;"/><path d="M196.013,66.551c-6.104,-0 -11.966,2.425 -16.279,6.754c-4.329,4.312 -6.754,10.171 -6.754,16.275" style="fill:none;fill-rule:nonzero;stroke:#000;stroke-width:3.13px;"/><path d="M272.201,66.551l-76.175,-0" style="fill:none;fill-rule:nonzero;stroke:#000;stroke-width:3.13px;"/><path d="M295.23,89.58c-0,-12.708 -10.304,-23.029 -23.029,-23.029" style="fill:none;fill-rule:nonzero;stroke:#000;stroke-width:3.13px;"/><path d="M458.217,27.701c-7.829,-0 -14.158,6.346 -14.158,14.175" style="fill:none;fill-rule:nonzero;stroke:#000;stroke-width:3.13px;"/><path d="M601.138,27.701l-142.921,-0" style="fill:none;fill-rule:nonzero;stroke:#000;stroke-width:3.13px;"/><path d="M615.313,41.876c0,-7.829 -6.346,-14.175 -14.175,-14.175" style="fill:none;fill-rule:nonzero;stroke:#000;stroke-width:3.13px;"/><path d="M615.313,114.026l0,-72.167" style="fill:none;fill-rule:nonzero;stroke:#000;stroke-width:3.13px;"/><path d="M648.451,82.613l-0,31.413" style="fill:none;fill-rule:nonzero;stroke:#000;stroke-width:3.13px;"/><path d="M668.538,62.53c-11.1,-0 -20.087,9 -20.087,20.083" style="fill:none;fill-rule:nonzero;stroke:#000;stroke-width:3.13px;"/><path d="M674.301,62.53l-5.763,-0" style="fill:none;fill-rule:nonzero;stroke:#000;stroke-width:3.13px;"/><path d="M694.367,82.613c0,-11.083 -8.983,-20.083 -20.066,-20.083" style="fill:none;fill-rule:nonzero;stroke:#000;stroke-width:3.13px;"/><path d="M694.367,114.026l0,-31.413" style="fill:none;fill-rule:nonzero;stroke:#000;stroke-width:3.13px;"/><path d="M41.892,9.976l786.605,-0" style="fill:none;fill-rule:nonzero;stroke:#000;stroke-width:3.13px;"/><path d="M650.813,114.026l0,-31.413" style="fill:none;fill-rule:nonzero;stroke:#000;stroke-width:3.13px;"/><path d="M668.538,64.905c-9.783,-0 -17.725,7.929 -17.725,17.708" style="fill:none;fill-rule:nonzero;stroke:#000;stroke-width:3.13px;"/><path d="M668.538,64.905l5.763,-0" style="fill:none;fill-rule:nonzero;stroke:#000;stroke-width:3.13px;"/><path d="M692.009,82.613c0,-9.779 -7.929,-17.708 -17.708,-17.708" style="fill:none;fill-rule:nonzero;stroke:#000;stroke-width:3.13px;"/><path d="M692.009,82.613l0,31.413" style="fill:none;fill-rule:nonzero;stroke:#000;stroke-width:3.13px;"/><path d="M612.955,41.876c-0,-6.525 -5.292,-11.817 -11.817,-11.817" style="fill:none;fill-rule:nonzero;stroke:#000;stroke-width:3.13px;"/><path d="M612.955,41.859l-0,72.167" style="fill:none;fill-rule:nonzero;stroke:#000;stroke-width:3.13px;"/><path d="M828.497,6.442l-786.605,0" style="fill:none;fill-rule:nonzero;stroke:#000;stroke-width:3.13px;"/><path d="M863.93,9.976l-3.546,-3.534" style="fill:none;fill-rule:nonzero;stroke:#000;stroke-width:3.13px;"/><path d="M828.497,6.442l31.887,0" style="fill:none;fill-rule:nonzero;stroke:#000;stroke-width:3.13px;"/><path d="M863.93,9.976l-35.433,-0" style="fill:none;fill-rule:nonzero;stroke:#000;stroke-width:3.13px;"/><path d="M6.442,9.976l3.55,-3.534" style="fill:none;fill-rule:nonzero;stroke:#000;stroke-width:3.13px;"/><path d="M9.992,6.442l31.9,0" style="fill:none;fill-rule:nonzero;stroke:#000;stroke-width:3.13px;"/><path d="M863.93,114.026l-0,-104.05" style="fill:none;fill-rule:nonzero;stroke:#000;stroke-width:3.13px;"/><path d="M53.955,28.547l15.429,-0l0,2.083l-6.512,-0l-0,16.146l-2.471,-0l-0,-16.146l-6.446,-0l-0,-2.083Z" style="fill:#00f;fill-rule:nonzero;"/><path d="M75.876,30.955l-3.317,9.112l6.704,0l-3.387,-9.112Zm-1.367,-2.408l2.8,-0l6.967,18.229l-2.604,-0l-1.63,-4.688l-8.266,0l-1.629,4.688l-2.605,-0l6.967,-18.229Z" style="fill:#00f;fill-rule:nonzero;"/><path d="M95.522,38.247c0.554,0.179 1.075,0.57 1.562,1.17c0.521,0.571 1.013,1.35 1.5,2.346l2.538,5.013l-2.671,-0l-2.342,-4.688c-0.621,-1.204 -1.204,-2.021 -1.758,-2.408c-0.571,-0.392 -1.334,-0.588 -2.279,-0.588l-2.667,0l-0,7.684l-2.475,-0l-0,-18.229l5.533,-0c2.084,-0 3.613,0.437 4.621,1.3c1.042,0.879 1.563,2.2 1.563,3.97c-0,1.142 -0.259,2.084 -0.78,2.867c-0.52,0.75 -1.304,1.271 -2.345,1.563Zm-6.117,-7.684l-0,6.513l3.058,-0c1.204,-0 2.117,-0.279 2.734,-0.846c0.604,-0.554 0.912,-1.371 0.912,-2.413c0,-1.07 -0.308,-1.887 -0.912,-2.408c-0.617,-0.55 -1.53,-0.846 -2.734,-0.846l-3.058,0Z" style="fill:#00f;fill-rule:nonzero;"/><path d="M116.73,44.172l-0,-4.884l-4.038,0l0,-2.016l6.446,-0l0,7.812c-0.958,0.65 -2.016,1.154 -3.187,1.496c-1.142,0.342 -2.346,0.521 -3.646,0.521c-2.833,-0 -5.046,-0.813 -6.642,-2.475c-1.612,-1.642 -2.408,-3.971 -2.408,-6.967c-0,-2.946 0.796,-5.237 2.408,-6.9c1.596,-1.692 3.809,-2.537 6.642,-2.537c1.204,-0 2.342,0.162 3.383,0.454c1.075,0.262 2.084,0.7 2.996,1.304l0,2.604c-0.912,-0.783 -1.887,-1.371 -2.929,-1.758c-1.008,-0.392 -2.083,-0.588 -3.254,-0.588c-2.217,0 -3.892,0.634 -5.017,1.888c-1.087,1.221 -1.625,3.062 -1.625,5.533c0,2.475 0.538,4.346 1.625,5.6c1.125,1.221 2.8,1.825 5.017,1.825c0.908,0 1.691,-0.067 2.341,-0.196c0.684,-0.162 1.317,-0.408 1.888,-0.716Z" style="fill:#00f;fill-rule:nonzero;"/><path d="M123.663,28.547l11.525,-0l0,2.083l-9.05,-0l0,5.404l8.659,0l-0,2.083l-8.659,0l0,6.575l9.246,0l0,2.084l-11.721,-0l0,-18.229Z" style="fill:#00f;fill-rule:nonzero;"/><path d="M136.93,28.547l15.429,-0l0,2.083l-6.512,-0l-0,16.146l-2.471,-0l-0,-16.146l-6.446,-0l-0,-2.083Z" style="fill:#00f;fill-rule:nonzero;"/><path d="M176.284,29.98l0,2.604c-0.829,-0.783 -1.725,-1.371 -2.671,-1.758c-0.908,-0.392 -1.887,-0.588 -2.929,-0.588c-2.083,0 -3.692,0.65 -4.817,1.954c-1.091,1.271 -1.629,3.092 -1.629,5.467c0,2.442 0.538,4.283 1.629,5.533c1.125,1.271 2.734,1.892 4.817,1.892c1.042,0 2.021,-0.162 2.929,-0.521c0.946,-0.391 1.842,-0.979 2.671,-1.758l0,2.537c-0.879,0.621 -1.792,1.075 -2.733,1.367c-0.963,0.263 -1.988,0.392 -3.063,0.392c-2.733,-0 -4.912,-0.813 -6.508,-2.475c-1.563,-1.692 -2.342,-4.004 -2.342,-6.967c0,-2.896 0.779,-5.208 2.342,-6.9c1.596,-1.692 3.775,-2.537 6.508,-2.537c1.075,-0 2.1,0.162 3.063,0.454c0.991,0.262 1.904,0.7 2.733,1.304Z" style="fill:#00f;fill-rule:nonzero;"/><path d="M306.722,28.547l15.429,-0l-0,2.083l-6.513,-0l0,16.146l-2.471,-0l0,-16.146l-6.445,-0l-0,-2.083Z" style="fill:#00f;fill-rule:nonzero;"/><path d="M328.647,30.955l-3.321,9.112l6.704,0l-3.383,-9.112Zm-1.371,-2.408l2.8,-0l6.966,18.229l-2.604,-0l-1.625,-4.688l-8.271,0l-1.625,4.688l-2.604,-0l6.963,-18.229Z" style="fill:#00f;fill-rule:nonzero;"/><path d="M348.288,38.247c0.554,0.179 1.075,0.57 1.563,1.17c0.521,0.571 1.012,1.35 1.5,2.346l2.537,5.013l-2.666,-0l-2.346,-4.688c-0.617,-1.204 -1.204,-2.021 -1.759,-2.408c-0.57,-0.392 -1.333,-0.588 -2.279,-0.588l-2.666,0l-0,7.684l-2.475,-0l-0,-18.229l5.533,-0c2.083,-0 3.612,0.437 4.621,1.3c1.041,0.879 1.562,2.2 1.562,3.97c0,1.142 -0.258,2.084 -0.779,2.867c-0.521,0.75 -1.304,1.271 -2.346,1.563Zm-6.116,-7.684l-0,6.513l3.058,-0c1.204,-0 2.117,-0.279 2.733,-0.846c0.604,-0.554 0.913,-1.371 0.913,-2.413c-0,-1.07 -0.309,-1.887 -0.913,-2.408c-0.616,-0.55 -1.529,-0.846 -2.733,-0.846l-3.058,0Z" style="fill:#00f;fill-rule:nonzero;"/><path d="M369.497,44.172l-0,-4.884l-4.038,0l0,-2.016l6.446,-0l-0,7.812c-0.958,0.65 -2.017,1.154 -3.188,1.496c-1.141,0.342 -2.345,0.521 -3.645,0.521c-2.834,-0 -5.046,-0.813 -6.642,-2.475c-1.613,-1.642 -2.408,-3.971 -2.408,-6.967c-0,-2.946 0.795,-5.237 2.408,-6.9c1.596,-1.692 3.808,-2.537 6.642,-2.537c1.204,-0 2.341,0.162 3.383,0.454c1.075,0.262 2.083,0.7 2.996,1.304l-0,2.604c-0.913,-0.783 -1.888,-1.371 -2.929,-1.758c-1.009,-0.392 -2.084,-0.588 -3.255,-0.588c-2.216,0 -3.891,0.634 -5.016,1.888c-1.088,1.221 -1.625,3.062 -1.625,5.533c-0,2.475 0.537,4.346 1.625,5.6c1.125,1.221 2.8,1.825 5.016,1.825c0.909,0 1.692,-0.067 2.342,-0.196c0.683,-0.162 1.321,-0.408 1.888,-0.716Z" style="fill:#00f;fill-rule:nonzero;"/><path d="M376.43,28.547l11.525,-0l-0,2.083l-9.05,-0l-0,5.404l8.658,0l0,2.083l-8.658,0l-0,6.575l9.246,0l-0,2.084l-11.721,-0l-0,-18.229Z" style="fill:#00f;fill-rule:nonzero;"/><path d="M389.697,28.547l15.429,-0l-0,2.083l-6.513,-0l0,16.146l-2.471,-0l0,-16.146l-6.445,-0l-0,-2.083Z" style="fill:#00f;fill-rule:nonzero;"/><path d="M421.501,30.955l-3.321,9.112l6.704,0l-3.383,-9.112Zm-1.367,-2.408l2.796,-0l6.967,18.229l-2.605,-0l-1.625,-4.688l-8.27,0l-1.625,4.688l-2.605,-0l6.967,-18.229Z" style="fill:#00f;fill-rule:nonzero;"/><path d="M365.851,57.209c-0.325,12.921 0.162,20.654 0.262,32.208l61.717,0.1" style="fill:none;fill-rule:nonzero;stroke:#000;stroke-width:1.9px;stroke-linecap:butt;stroke-linejoin:round;"/><path d="M417.868,84.893l12.485,4.607l-12.499,4.572c2,-2.701 2.002,-6.413 0.014,-9.179Z" style="stroke:#000;stroke-width:0.71px;stroke-linecap:butt;stroke-linejoin:round;"/><path d="M94.709,57.209c-0.342,12.921 0.146,20.654 0.263,32.208l13.195,0.034l48.505,0.066" style="fill:none;fill-rule:nonzero;stroke:#000;stroke-width:1.9px;stroke-linecap:butt;stroke-linejoin:round;"/><path d="M146.725,84.894l12.468,4.607l-12.482,4.573c1.987,-2.701 1.985,-6.414 0.014,-9.18Z" style="stroke:#000;stroke-width:0.71px;stroke-linecap:butt;stroke-linejoin:round;"/></g></svg>