<?xml version="1.0" encoding="UTF-8" standalone="no"?>
<svg
   width="1980"
   height="930"
   viewBox="0 0 1980 930"
   version="1.1"
   xml:space="preserve"
   style="clip-rule:evenodd;fill-rule:evenodd;stroke-linecap:round"
   id="svg504"
   xmlns="http://www.w3.org/2000/svg"
   xmlns:svg="http://www.w3.org/2000/svg"
   xmlns:serif="http://www.serif.com/"><defs
     id="defs508"><marker
       style="overflow:visible"
       id="marker7656"
       refX="0"
       refY="0"
       orient="auto-start-reverse"
       markerWidth="4.5003748"
       markerHeight="3.273"
       viewBox="0 0 7.7 5.6"
       preserveAspectRatio="xMidYMid"><path
         transform="scale(0.7)"
         d="M -2,-4 9,0 -2,4 c 2,-2.33 2,-5.66 0,-8 z"
         style="fill:context-stroke;fill-rule:evenodd;stroke:none"
         id="path7654" /></marker><marker
       style="overflow:visible"
       id="marker7592"
       refX="0"
       refY="0"
       orient="auto-start-reverse"
       markerWidth="4.5003748"
       markerHeight="3.273"
       viewBox="0 0 7.7 5.6"
       preserveAspectRatio="xMidYMid"><path
         transform="scale(0.7)"
         d="M -2,-4 9,0 -2,4 c 2,-2.33 2,-5.66 0,-8 z"
         style="fill:context-stroke;fill-rule:evenodd;stroke:none"
         id="path7590" /></marker><marker
       style="overflow:visible"
       id="marker7210"
       refX="0"
       refY="0"
       orient="auto-start-reverse"
       markerWidth="4.5003748"
       markerHeight="3.273"
       viewBox="0 0 7.7 5.6"
       preserveAspectRatio="xMidYMid"><path
         transform="scale(0.7)"
         d="M -2,-4 9,0 -2,4 c 2,-2.33 2,-5.66 0,-8 z"
         style="fill:context-stroke;fill-rule:evenodd;stroke:none"
         id="path7208" /></marker><marker
       style="overflow:visible"
       id="Arrow2"
       refX="0"
       refY="0"
       orient="auto-start-reverse"
       markerWidth="4.5003748"
       markerHeight="3.273"
       viewBox="0 0 7.7 5.6"
       preserveAspectRatio="xMidYMid"><path
         transform="scale(0.7)"
         d="M -2,-4 9,0 -2,4 c 2,-2.33 2,-5.66 0,-8 z"
         style="fill:context-stroke;fill-rule:evenodd;stroke:none"
         id="arrow2L" /></marker></defs><g
     id="g502"><g
       id="g406"><g
         id="Top"><path
           d="m 1624.69,859.034 c 9.391,0 18.408,-3.73 25.045,-10.388 6.659,-6.637 10.388,-15.654 10.388,-25.046"
           style="fill:none;fill-rule:nonzero;stroke:#000000;stroke-width:0.75px"
           id="path2" /><path
           d="m 986.899,859.034 h 637.796"
           style="fill:none;fill-rule:nonzero;stroke:#000000;stroke-width:0.75px"
           id="path4" /><path
           d="M 1660.13,823.6 V 36.996"
           style="fill:none;fill-rule:nonzero;stroke:#000000;stroke-width:0.75px"
           id="path6" /><path
           d="m 1152.25,255.192 c 10.629,0 10.629,-15.933 0,-15.933 -10.629,0 -10.629,15.933 0,15.933 z m 0,0 v 0"
           style="fill:none;fill-rule:nonzero;stroke:#000000;stroke-width:0.75px"
           id="path8" /><path
           d="m 1152.25,253.009 c 7.7,-0.017 7.7,-11.555 0,-11.571 -7.7,0.016 -7.7,11.554 0,11.571 z m 0,0 v 0"
           style="fill:none;fill-rule:nonzero;stroke:#000000;stroke-width:0.75px"
           id="path10" /><path
           d="m 1081.38,255.192 c 10.629,0 10.629,-15.933 0,-15.933 -10.629,0 -10.629,15.933 0,15.933 z m 0,0 v 0"
           style="fill:none;fill-rule:nonzero;stroke:#000000;stroke-width:0.75px"
           id="path12" /><path
           d="m 1081.38,253.009 c 7.7,-0.017 7.7,-11.555 0,-11.571 -7.7,0.016 -7.7,11.554 0,11.571 z m 0,0 v 0"
           style="fill:none;fill-rule:nonzero;stroke:#000000;stroke-width:0.75px"
           id="path14" /><path
           d="m 1276.27,674.496 c 10.629,0 10.629,-15.954 0,-15.954 -10.625,0 -10.625,15.954 0,15.954 z m 0,0 v 0"
           style="fill:none;fill-rule:nonzero;stroke:#000000;stroke-width:0.75px"
           id="path16" /><path
           d="m 1276.27,672.296 c 7.7,-0.017 7.7,-11.554 0,-11.571 -7.696,0.017 -7.696,11.554 0,11.571 z m 0,0 v 0"
           style="fill:none;fill-rule:nonzero;stroke:#000000;stroke-width:0.75px"
           id="path18" /><path
           d="m 1205.41,674.496 c 10.625,0 10.625,-15.954 0,-15.954 -10.629,0 -10.629,15.954 0,15.954 z m 0,0 v 0"
           style="fill:none;fill-rule:nonzero;stroke:#000000;stroke-width:0.75px"
           id="path20" /><path
           d="m 1205.41,672.296 c 7.696,-0.017 7.696,-11.554 0,-11.571 -7.7,0.017 -7.7,11.554 0,11.571 z m 0,0 v 0"
           style="fill:none;fill-rule:nonzero;stroke:#000000;stroke-width:0.75px"
           id="path22" /><path
           d="m 1134.54,674.496 c 10.63,0 10.63,-15.954 0,-15.954 -10.629,0 -10.629,15.954 0,15.954 z m 0,0 v 0"
           style="fill:none;fill-rule:nonzero;stroke:#000000;stroke-width:0.75px"
           id="path24" /><path
           d="m 1134.54,672.296 c 7.7,-0.017 7.7,-11.554 0,-11.571 -7.7,0.017 -7.7,11.554 0,11.571 z m 0,0 v 0"
           style="fill:none;fill-rule:nonzero;stroke:#000000;stroke-width:0.75px"
           id="path26" /><path
           d="m 1099.11,674.496 c 10.629,0 10.629,-15.954 0,-15.954 -10.629,0 -10.629,15.954 0,15.954 z m 0,0 v 0"
           style="fill:none;fill-rule:nonzero;stroke:#000000;stroke-width:0.75px"
           id="path28" /><path
           d="m 1099.11,672.296 c 7.7,-0.017 7.7,-11.554 0,-11.571 -7.7,0.017 -7.7,11.554 0,11.571 z m 0,0 v 0"
           style="fill:none;fill-rule:nonzero;stroke:#000000;stroke-width:0.75px"
           id="path30" /><path
           d="m 1169.97,674.496 c 10.629,0 10.629,-15.954 0,-15.954 -10.629,0 -10.629,15.954 0,15.954 z m 0,0 v 0"
           style="fill:none;fill-rule:nonzero;stroke:#000000;stroke-width:0.75px"
           id="path32" /><path
           d="m 1169.97,672.296 c 7.696,-0.017 7.696,-11.554 0,-11.571 -7.7,0.017 -7.7,11.554 0,11.571 z m 0,0 v 0"
           style="fill:none;fill-rule:nonzero;stroke:#000000;stroke-width:0.75px"
           id="path34" /><path
           d="m 1240.84,674.496 c 10.625,0 10.625,-15.954 0,-15.954 -10.629,0 -10.629,15.954 0,15.954 z m 0,0 v 0"
           style="fill:none;fill-rule:nonzero;stroke:#000000;stroke-width:0.75px"
           id="path36" /><path
           d="m 1240.84,672.296 c 7.696,-0.017 7.696,-11.554 0,-11.571 -7.7,0.017 -7.7,11.554 0,11.571 z m 0,0 v 0"
           style="fill:none;fill-rule:nonzero;stroke:#000000;stroke-width:0.75px"
           id="path38" /><path
           d="m 1045.95,255.192 c 10.629,0 10.629,-15.933 0,-15.933 -10.629,0 -10.629,15.933 0,15.933 z m 0,0 v 0"
           style="fill:none;fill-rule:nonzero;stroke:#000000;stroke-width:0.75px"
           id="path40" /><path
           d="m 1045.95,253.009 c 7.7,-0.017 7.7,-11.555 0,-11.571 -7.696,0.016 -7.696,11.554 0,11.571 z m 0,0 v 0"
           style="fill:none;fill-rule:nonzero;stroke:#000000;stroke-width:0.75px"
           id="path42" /><path
           d="m 1116.82,255.192 c 10.63,0 10.63,-15.933 0,-15.933 -10.629,0 -10.629,15.933 0,15.933 z m 0,0 v 0"
           style="fill:none;fill-rule:nonzero;stroke:#000000;stroke-width:0.75px"
           id="path44" /><path
           d="m 1116.82,253.009 c 7.7,-0.017 7.7,-11.555 0,-11.571 -7.7,0.016 -7.7,11.554 0,11.571 z m 0,0 v 0"
           style="fill:none;fill-rule:nonzero;stroke:#000000;stroke-width:0.75px"
           id="path46" /><path
           d="m 1187.68,255.192 c 10.629,0 10.629,-15.933 0,-15.933 -10.629,0 -10.629,15.933 0,15.933 z m 0,0 v 0"
           style="fill:none;fill-rule:nonzero;stroke:#000000;stroke-width:0.75px"
           id="path48" /><path
           d="m 1187.68,253.009 c 7.696,-0.017 7.696,-11.555 0,-11.571 -7.7,0.016 -7.7,11.554 0,11.571 z m 0,0 v 0"
           style="fill:none;fill-rule:nonzero;stroke:#000000;stroke-width:0.75px"
           id="path50" /><path
           d="M 1656.58,36.996 V 823.6"
           style="fill:none;fill-rule:nonzero;stroke:#000000;stroke-width:0.75px"
           id="path52" /><path
           d="m 1656.58,36.996 c 0,-8.467 -3.354,-16.571 -9.342,-22.558 -5.975,-5.975 -14.079,-9.346 -22.541,-9.346"
           style="fill:none;fill-rule:nonzero;stroke:#000000;stroke-width:0.75px"
           id="path54" /><path
           d="m 1660.13,36.996 c 0,-9.408 -3.729,-18.425 -10.388,-25.067 -6.637,-6.641 -15.654,-10.366 -25.045,-10.366"
           style="fill:none;fill-rule:nonzero;stroke:#000000;stroke-width:0.75px"
           id="path56" /><path
           d="m 986.899,5.092 h 637.796"
           style="fill:none;fill-rule:nonzero;stroke:#000000;stroke-width:0.75px"
           id="path58" /><path
           d="M 1624.69,1.546 H 986.894"
           style="fill:none;fill-rule:nonzero;stroke:#000000;stroke-width:0.75px"
           id="path60" /><path
           d="m 986.899,5.092 c -8.463,0 -16.567,3.371 -22.559,9.346 -5.97,5.987 -9.325,14.091 -9.325,22.558"
           style="fill:none;fill-rule:nonzero;stroke:#000000;stroke-width:0.75px"
           id="path62" /><path
           d="m 986.899,1.563 c -9.392,0 -18.409,3.725 -25.046,10.366 -6.658,6.642 -10.388,15.659 -10.388,25.067"
           style="fill:none;fill-rule:nonzero;stroke:#000000;stroke-width:0.75px"
           id="path64" /><path
           d="M 955.015,823.6 V 36.996"
           style="fill:none;fill-rule:nonzero;stroke:#000000;stroke-width:0.75px"
           id="path66" /><path
           d="M 951.465,36.996 V 823.6"
           style="fill:none;fill-rule:nonzero;stroke:#000000;stroke-width:0.75px"
           id="path68" /><path
           d="m 955.015,823.6 c 0,8.463 3.355,16.567 9.325,22.559 5.992,5.97 14.096,9.325 22.559,9.325"
           style="fill:none;fill-rule:nonzero;stroke:#000000;stroke-width:0.75px"
           id="path70" /><path
           d="m 951.465,823.6 c 0,9.392 3.73,18.409 10.388,25.046 6.637,6.658 15.654,10.388 25.046,10.388"
           style="fill:none;fill-rule:nonzero;stroke:#000000;stroke-width:0.75px"
           id="path72" /><path
           d="M 1624.69,855.484 H 986.894"
           style="fill:none;fill-rule:nonzero;stroke:#000000;stroke-width:0.75px"
           id="path74" /><path
           d="m 1624.69,855.484 c 8.462,0 16.566,-3.355 22.541,-9.325 5.988,-5.992 9.342,-14.096 9.342,-22.559"
           style="fill:none;fill-rule:nonzero;stroke:#000000;stroke-width:0.75px"
           id="path76" /><path
           d="m 1297.92,130.55 v 15.167 c -0.196,4.492 -1.109,8.529 -2.734,11.979 -1.371,2.996 -3.454,5.863 -6.446,8.138 -2.995,2.412 -7.033,3.712 -12.437,3.712 -5.404,0 -9.633,-1.3 -12.629,-3.712 -2.996,-2.275 -4.946,-5.142 -6.25,-8.138 -1.692,-3.45 -2.604,-7.487 -2.734,-11.979 V 80.746 c 0.13,-4.3 1.042,-8.4 2.734,-11.85 1.304,-2.996 3.254,-5.992 6.25,-8.204 2.996,-2.279 7.225,-3.775 12.629,-3.775 5.404,0 9.442,1.496 12.437,3.775 2.992,2.212 5.075,5.208 6.446,8.204 1.625,3.45 2.538,7.55 2.734,11.85 v 15.167 h -15.171 V 80.746 c 0,-2.996 -0.779,-5.079 -2.409,-6.904 -0.779,-0.717 -2.083,-1.171 -3.775,-1.171 -2.8,0 -4.166,2.083 -4.95,4.038 -0.454,1.237 -0.583,2.537 -0.716,4.037 v 64.971 c 0.133,3.125 1.041,5.275 2.541,6.904 0.78,0.779 1.821,1.233 3.125,1.233 3.45,0 4.817,-1.82 5.6,-4.1 0.455,-1.041 0.584,-2.408 0.584,-4.037 V 130.55 Z"
           style="fill:#0000ff;fill-rule:nonzero"
           id="path78" /><path
           d="m 1304.04,184 c 0.13,0.129 0.455,0.129 0.909,0.129 0.716,0.13 4.491,0.455 6.904,-1.366 2.408,-1.759 4.033,-4.363 4.946,-7.488 0.454,-1.496 0.587,-2.996 0.587,-4.491 l -13.933,-84.442 h 14.842 l 5.991,50.392 0.325,4.166 h 0.588 l 0.258,-4.166 5.992,-50.392 h 14.908 l -14.583,88.154 c -0.717,5.858 -2.996,11.588 -6.575,15.95 -3.646,4.363 -8.4,7.354 -14.388,7.354 h -1.825 c -1.366,0 -3.125,-0.196 -4.946,-0.325 z"
           style="fill:#0000ff;fill-rule:nonzero"
           id="path80" /><path
           d="m 1369.29,168.375 h -15.17 V 86.342 h 15.17 v 6.904 c 0.259,-0.196 0.909,-0.783 1.821,-1.696 1.629,-1.625 3.842,-3.904 6.575,-5.404 1.367,-0.712 2.542,-1.042 3.909,-1.042 4.037,0 6.9,2.413 8.658,5.405 1.821,3.191 2.733,7.229 2.733,10.679 v 67.187 H 1377.82 V 103.4 c 0,-3.125 -1.759,-3.579 -3.584,-3.579 -1.625,0 -2.537,0.908 -3.579,1.95 -0.458,0.588 -0.912,1.175 -1.367,1.954 z"
           style="fill:#0000ff;fill-rule:nonzero"
           id="path82" /><path
           d="m 1422.07,66.096 v 20.246 h 10.35 V 99.95 h -10.35 v 40.821 c 0,2.538 0,5.858 0.583,8.529 0.654,2.734 1.825,4.946 4.233,4.946 1.171,0 2.671,-0.129 3.775,-0.258 0.588,-0.134 1.171,-0.134 1.759,-0.325 v 14.841 c -0.717,0.196 -1.496,0.455 -2.213,0.65 -1.5,0.263 -3.45,0.392 -5.858,0.392 -8.854,0 -13.088,-4.492 -15.171,-10.154 -2.083,-5.729 -2.212,-12.633 -2.212,-17.45 V 99.95 h -7.684 V 86.342 h 7.684 V 66.096 Z"
           style="fill:#0000ff;fill-rule:nonzero"
           id="path84" /><path
           d="m 1455.7,168.375 h -15.171 V 58.154 h 15.171 v 35.092 c 0.262,-0.196 0.912,-0.783 1.821,-1.696 1.629,-1.625 3.841,-3.904 6.579,-5.404 1.366,-0.712 2.537,-1.042 3.904,-1.042 4.037,0 6.9,2.413 8.658,5.405 1.825,3.191 2.734,7.229 2.734,10.679 v 67.187 h -15.167 V 103.4 c 0,-3.125 -1.758,-3.579 -3.583,-3.579 -1.625,0 -2.538,0.908 -3.58,1.95 -0.454,0.588 -0.912,1.175 -1.366,1.954 z"
           style="fill:#0000ff;fill-rule:nonzero"
           id="path86" /><path
           d="m 1491.07,58.154 h 15.171 v 15.105 h -15.171 z m 0,110.221 V 86.342 h 15.171 v 82.033 z"
           style="fill:#0000ff;fill-rule:nonzero"
           id="path88" /><path
           d="m 1555.42,148.454 c -0.459,7.942 -2.867,13.475 -8.075,17.838 -2.734,2.212 -6.446,3.254 -11.392,3.254 -9.767,0 -14.583,-5.404 -16.992,-10.742 -1.304,-3.191 -2.216,-6.77 -2.412,-10.808 v -41.275 c 0.458,-7.942 2.867,-13.804 8.142,-18.296 2.537,-2.279 6.312,-3.321 11.262,-3.321 9.7,0 14.646,5.405 17.054,10.68 1.371,3.125 2.279,6.575 2.413,10.483 z m -14.259,-41.733 c 0.196,-3.125 -0.458,-5.404 -1.954,-7.225 -0.716,-0.717 -1.954,-1.175 -3.254,-1.175 -2.867,0 -4.104,1.954 -4.687,4.233 -0.459,1.171 -0.588,2.538 -0.459,4.167 v 41.275 c -0.129,3.125 0.654,5.404 1.954,7.033 0.784,0.717 1.825,1.171 3.192,1.171 2.8,0 4.167,-1.758 4.75,-4.037 0.458,-1.171 0.654,-2.538 0.458,-4.167 z"
           style="fill:#0000ff;fill-rule:nonzero"
           id="path90" /><path
           d="m 1580.94,168.375 h -15.171 V 86.342 h 15.171 v 6.904 c 0.258,-0.196 0.908,-0.783 1.82,-1.696 1.63,-1.625 3.842,-3.904 6.575,-5.404 1.367,-0.712 2.542,-1.042 3.909,-1.042 4.033,0 6.9,2.413 8.658,5.405 1.821,3.191 2.733,7.229 2.733,10.679 v 67.187 h -15.17 V 103.4 c 0,-3.125 -1.755,-3.579 -3.58,-3.579 -1.629,0 -2.537,0.908 -3.579,1.95 -0.458,0.588 -0.912,1.175 -1.366,1.954 z"
           style="fill:#0000ff;fill-rule:nonzero"
           id="path92" /><path
           d="m 1371.57,179.067 h 5.4 c 2.345,0 4.687,0.587 6.512,2.279 1.758,1.692 2.996,4.492 2.996,8.658 0,4.234 -1.238,6.967 -2.996,8.659 -1.825,1.696 -4.167,2.412 -6.512,2.412 v 14.713 h -5.4 z m 5.4,16.537 c 1.629,0 2.67,-0.325 3.258,-1.17 0.65,-0.784 0.779,-2.15 0.779,-4.167 0,-2.083 -0.129,-3.517 -0.779,-4.429 -0.588,-0.913 -1.629,-1.3 -3.258,-1.3 z"
           style="fill:#0000ff;fill-rule:nonzero"
           id="path94" /><path
           d="m 1401.06,209.146 c -0.196,2.671 -0.979,4.492 -2.737,5.925 -0.909,0.779 -2.146,1.104 -3.775,1.104 -3.254,0 -4.884,-1.821 -5.663,-3.579 -0.458,-1.042 -0.716,-2.279 -0.783,-3.579 v -13.804 c 0.133,-2.604 0.912,-4.554 2.671,-6.054 0.846,-0.78 2.15,-1.109 3.775,-1.109 3.254,0 4.883,1.759 5.666,3.517 0.455,1.042 0.78,2.217 0.846,3.517 z m -4.754,-13.933 c 0.067,-1.042 -0.196,-1.759 -0.65,-2.409 -0.262,-0.195 -0.65,-0.391 -1.108,-0.391 -0.975,0 -1.367,0.654 -1.563,1.433 -0.129,0.392 -0.196,0.846 -0.129,1.367 v 13.804 c -0.067,1.042 0.196,1.758 0.65,2.342 0.263,0.195 0.588,0.391 1.042,0.391 0.912,0 1.366,-0.587 1.562,-1.366 0.196,-0.392 0.263,-0.846 0.196,-1.367 z"
           style="fill:#0000ff;fill-rule:nonzero"
           id="path96" /><path
           d="m 1415.69,215.788 -1.95,-13.021 -0.262,-1.563 h -0.196 l -0.258,1.563 -1.954,13.021 h -4.167 l -4.038,-27.346 h 4.559 l 1.629,14.325 0.196,1.496 h 0.325 l 0.196,-1.496 2.145,-14.325 h 2.996 l 2.084,14.325 0.258,1.496 h 0.262 l 0.259,-1.496 1.562,-14.325 h 4.625 l -4.037,27.346 z"
           style="fill:#0000ff;fill-rule:nonzero"
           id="path98" /><path
           d="m 1438.94,205.954 v 3.192 c -0.133,2.671 -0.979,4.492 -2.737,5.925 -0.909,0.779 -2.146,1.104 -3.842,1.104 -3.254,0 -4.879,-1.821 -5.662,-3.579 -0.455,-1.042 -0.78,-2.279 -0.78,-3.579 v -13.804 c 0.13,-2.604 0.975,-4.554 2.796,-6.054 0.85,-0.78 2.084,-1.109 3.713,-1.109 3.254,0 4.883,1.759 5.729,3.517 0.454,1.042 0.717,2.217 0.783,3.517 v 7.941 h -8.333 v 5.992 c 0.062,1.042 0.325,1.758 0.779,2.342 0.263,0.195 0.588,0.391 1.042,0.391 0.975,0 1.433,-0.587 1.629,-1.366 0.129,-0.392 0.196,-0.846 0.196,-1.367 v -3.063 z m -8.333,-6.9 h 3.646 v -3.841 c 0,-1.042 -0.196,-1.759 -0.717,-2.409 -0.262,-0.195 -0.654,-0.391 -1.108,-0.391 -0.913,0 -1.367,0.654 -1.563,1.433 -0.196,0.392 -0.196,0.846 -0.258,1.367 z"
           style="fill:#0000ff;fill-rule:nonzero"
           id="path100" /><path
           d="m 1452.39,193.65 c -0.455,-0.196 -0.975,-0.196 -1.434,-0.196 -0.779,0 -1.758,0.067 -2.537,0.846 -0.913,0.784 -1.109,1.629 -1.109,2.475 v 19.013 h -5.012 v -27.346 h 5.012 v 3.062 c 0.067,-0.391 0.392,-1.237 1.238,-2.02 0.783,-0.717 1.954,-1.434 3.842,-1.434 z"
           style="fill:#0000ff;fill-rule:nonzero"
           id="path102" /><path
           d="m 1467.05,205.954 v 3.192 c -0.134,2.671 -0.98,4.492 -2.738,5.925 -0.908,0.779 -2.146,1.104 -3.837,1.104 -3.259,0 -4.884,-1.821 -5.667,-3.579 -0.454,-1.042 -0.779,-2.279 -0.779,-3.579 v -13.804 c 0.129,-2.604 0.975,-4.554 2.8,-6.054 0.846,-0.78 2.083,-1.109 3.708,-1.109 3.254,0 4.883,1.759 5.729,3.517 0.459,1.042 0.717,2.217 0.784,3.517 v 7.941 h -8.334 v 5.992 c 0.063,1.042 0.325,1.758 0.779,2.342 0.263,0.195 0.588,0.391 1.042,0.391 0.979,0 1.433,-0.587 1.629,-1.366 0.129,-0.392 0.196,-0.846 0.196,-1.367 v -3.063 z m -8.334,-6.9 h 3.646 v -3.841 c 0,-1.042 -0.196,-1.759 -0.717,-2.409 -0.262,-0.195 -0.65,-0.391 -1.108,-0.391 -0.912,0 -1.367,0.654 -1.562,1.433 -0.196,0.392 -0.196,0.846 -0.259,1.367 z"
           style="fill:#0000ff;fill-rule:nonzero"
           id="path104" /><path
           d="m 1483.27,215.788 h -5.08 v -1.825 c -0.845,0.846 -1.625,1.433 -2.537,1.887 -0.521,0.263 -1.042,0.325 -1.433,0.325 -1.43,0 -2.409,-0.779 -2.992,-1.821 -0.654,-1.041 -0.913,-2.345 -0.913,-3.516 v -17.446 c 0,-1.175 0.259,-2.475 0.913,-3.583 0.583,-0.975 1.562,-1.759 2.992,-1.759 0.912,0 1.954,0.525 2.67,1.109 0.455,0.325 0.846,0.65 1.3,1.108 v -11.2 h 5.08 z m -5.08,-21.354 c 0,-0.784 -0.779,-1.63 -1.495,-1.63 -0.78,0 -1.367,0.65 -1.367,1.63 v 15.362 c 0,0.913 0.587,1.629 1.367,1.629 0.716,0 1.495,-0.716 1.495,-1.629 z"
           style="fill:#0000ff;fill-rule:nonzero"
           id="path106" /><path
           d="m 1494.96,179.067 h 5.013 v 11.2 c 0.845,-0.846 1.629,-1.433 2.604,-1.888 0.454,-0.262 0.975,-0.329 1.433,-0.329 1.367,0 2.342,0.784 2.996,1.759 0.583,1.108 0.908,2.408 0.908,3.583 v 17.446 c 0,1.171 -0.325,2.475 -0.908,3.516 -0.654,1.042 -1.629,1.821 -2.996,1.821 -0.979,0 -1.954,-0.516 -2.737,-1.104 -0.455,-0.325 -0.846,-0.717 -1.3,-1.108 v 1.825 h -5.013 z m 5.013,30.729 c 0,0.913 0.783,1.629 1.495,1.629 0.784,0 1.371,-0.716 1.371,-1.629 v -15.362 c 0,-0.98 -0.587,-1.63 -1.371,-1.63 -0.712,0 -1.495,0.846 -1.495,1.63 z"
           style="fill:#0000ff;fill-rule:nonzero"
           id="path108" /><path
           d="m 1510.47,220.996 c 0.062,0.063 0.191,0.063 0.325,0.063 0.258,0 1.495,0.133 2.279,-0.455 0.846,-0.587 1.366,-1.495 1.691,-2.537 0.13,-0.458 0.196,-0.963 0.196,-1.483 l -4.687,-28.125 h 4.946 l 2.02,16.783 0.13,1.367 h 0.195 l 0.063,-1.367 2.021,-16.783 h 4.946 l -4.884,29.362 c -0.196,1.938 -0.975,3.892 -2.146,5.321 -1.237,1.45 -2.8,2.492 -4.82,2.492 h -0.584 c -0.458,0 -1.041,-0.084 -1.691,-0.146 z"
           style="fill:#0000ff;fill-rule:nonzero"
           id="path110" /><path
           d="m 1534.91,179.067 h 5.405 v 31.708 h 7.095 v 5.013 h -12.5 z"
           style="fill:#0000ff;fill-rule:nonzero"
           id="path112" /><path
           d="m 1563.98,179.067 v 29.167 c -0.062,1.5 -0.325,2.866 -0.908,3.97 -0.459,1.042 -1.109,1.955 -2.15,2.738 -0.975,0.779 -2.346,1.233 -4.1,1.233 -1.825,0 -3.259,-0.454 -4.234,-1.233 -0.975,-0.783 -1.629,-1.696 -2.083,-2.738 -0.587,-1.104 -0.846,-2.47 -0.912,-3.97 v -29.167 h 5.404 v 29.167 c 0,1.041 0.262,1.758 0.716,2.279 0.259,0.262 0.65,0.454 1.109,0.454 0.908,0 1.366,-0.65 1.562,-1.367 0.129,-0.387 0.192,-0.846 0.192,-1.366 v -29.167 z"
           style="fill:#0000ff;fill-rule:nonzero"
           id="path114" /><path
           d="m 1573.62,196.646 -0.459,-1.692 h -0.258 v 20.834 h -4.95 v -36.721 h 4.754 l 5.275,19.142 0.454,1.691 h 0.325 v -20.833 h 4.95 v 36.721 h -4.821 z"
           style="fill:#0000ff;fill-rule:nonzero"
           id="path116" /><path
           d="m 1586.22,215.788 5.534,-36.721 h 6.575 l 5.6,36.721 h -5.271 l -0.979,-7.488 h -5.209 l -1.041,7.488 z m 9.117,-24.804 -0.133,-0.98 h -0.325 l -0.129,0.98 -1.563,11.587 h 3.713 z"
           style="fill:#0000ff;fill-rule:nonzero"
           id="path118" /><path
           d="m 1599.63,67.917 h 10.287 v 1.433 h -4.3 v 10.742 h -1.625 V 69.35 h -4.362 z"
           style="fill:#0000ff;fill-rule:nonzero"
           id="path120" /><path
           d="m 1611.5,67.917 h 2.47 l 3.063,8.271 3.125,-8.271 h 2.475 v 12.175 h -1.629 V 69.417 l -3.125,8.333 h -1.629 l -3.125,-8.333 v 10.675 h -1.625 z"
           style="fill:#0000ff;fill-rule:nonzero"
           id="path122" /><path
           d="m 1604.48,756.738 h 10.287 v 1.433 h -4.295 v 10.742 h -1.63 v -10.742 h -4.362 z"
           style="fill:#0000ff;fill-rule:nonzero"
           id="path124" /><path
           d="m 1616.36,756.738 h 2.471 l 3.063,8.266 3.125,-8.266 h 2.47 v 12.175 h -1.625 v -10.679 l -3.125,8.333 h -1.629 l -3.125,-8.333 v 10.679 h -1.625 z"
           style="fill:#0000ff;fill-rule:nonzero"
           id="path126" /><path
           d="m 1467.92,696.238 1.104,-0.096 2.946,0.487 4.104,1.725 v 2.867 l -4.104,1.708 -2.946,0.488 -1.104,-0.083 -0.588,4.412 1.092,0.213 2.733,1.22 3.517,2.717 -0.75,2.783 -4.413,0.588 -2.962,-0.296 -1.054,-0.371 -1.713,4.134 1.013,0.47 2.308,1.888 2.704,3.533 -1.45,2.492 -4.396,-0.554 -2.795,-1.059 -0.913,-0.637 -2.721,3.55 0.85,0.717 1.742,2.425 1.675,4.1 -2.021,2.037 -4.117,-1.679 -2.425,-1.742 -0.716,-0.846 -3.546,2.717 0.633,0.913 1.059,2.783 0.554,4.412 -2.492,1.434 -3.533,-2.688 -1.888,-2.312 -0.471,-1.009 -4.133,1.709 0.375,1.058 0.308,2.963 -0.604,4.412 -2.783,0.729 -2.717,-3.512 -1.221,-2.721 -0.195,-1.088 -4.425,0.584 0.079,1.108 -0.471,2.946 -1.725,4.1 h -2.867 l -1.725,-4.1 -0.471,-2.946 0.084,-1.108 -4.429,-0.584 -0.196,1.088 -1.238,2.721 -2.716,3.512 -2.767,-0.729 -0.604,-4.412 0.296,-2.963 0.375,-1.058 -4.121,-1.709 -0.471,1.009 -1.904,2.312 -3.534,2.688 -2.487,-1.434 0.567,-4.412 1.058,-2.783 0.637,-0.913 -3.55,-2.717 -0.716,0.846 -2.425,1.742 -4.117,1.679 -2.033,-2.037 1.691,-4.1 1.742,-2.425 0.846,-0.717 -2.717,-3.55 -0.912,0.637 -2.8,1.059 -4.413,0.554 -1.429,-2.492 2.7,-3.533 2.313,-1.888 0.991,-0.47 -1.708,-4.134 -1.042,0.371 -2.979,0.296 -4.396,-0.588 -0.746,-2.783 3.513,-2.717 2.737,-1.22 1.088,-0.213 -0.583,-4.412 -1.109,0.083 -2.946,-0.488 -4.1,-1.708 v -2.867 l 4.1,-1.725 2.946,-0.487 1.109,0.096 0.583,-4.425 -1.088,-0.196 -2.737,-1.238 -3.513,-2.716 0.746,-2.767 4.396,-0.604 2.979,0.292 1.042,0.375 1.708,-4.117 -0.991,-0.471 -2.313,-1.904 -2.7,-3.533 1.429,-2.492 4.413,0.571 2.8,1.058 0.912,0.633 2.717,-3.545 -0.846,-0.717 -1.742,-2.425 -1.691,-4.117 2.033,-2.037 4.117,1.696 2.425,1.741 0.716,0.846 3.55,-2.721 -0.637,-0.908 -1.058,-2.8 -0.567,-4.413 2.487,-1.433 3.534,2.704 1.904,2.309 0.471,0.995 4.121,-1.708 -0.375,-1.042 -0.296,-2.979 0.604,-4.396 2.767,-0.75 2.716,3.517 1.238,2.721 0.196,1.087 4.429,-0.57 -0.084,-1.105 0.471,-2.945 1.725,-4.105 h 2.867 l 1.725,4.105 0.471,2.945 -0.079,1.105 4.425,0.57 0.195,-1.087 1.221,-2.721 2.717,-3.517 2.783,0.75 0.604,4.396 -0.308,2.979 -0.375,1.042 4.133,1.708 0.471,-0.995 1.888,-2.309 3.533,-2.704 2.492,1.433 -0.554,4.413 -1.059,2.8 -0.633,0.908 3.546,2.721 0.716,-0.846 2.425,-1.741 4.117,-1.696 2.021,2.037 -1.675,4.117 -1.742,2.425 -9.866,9.946 -27.471,-7.488 -22.054,24.821 24.866,29.133 17.025,-12.729 -13.654,-9.229 2.717,-8.346 z"
           style="fill:#0000ff;fill-rule:nonzero"
           id="path128" /><path
           d="m 1307.37,759.846 -1.104,-0.096 -2.946,0.488 -4.104,1.708 v 2.879 l 4.104,1.709 2.946,0.491 1.104,-0.1 0.587,4.429 -1.091,0.209 -2.717,1.221 -3.517,2.72 0.734,2.784 4.412,0.583 2.975,-0.292 1.042,-0.375 1.712,4.121 -1.012,0.488 -2.309,1.887 -2.687,3.529 1.433,2.492 4.409,-0.571 2.783,-1.058 0.929,-0.617 2.717,3.534 -0.846,0.716 -1.758,2.442 -1.675,4.1 2.033,2.033 4.104,-1.691 2.425,-1.742 0.733,-0.846 3.53,2.717 -0.634,0.912 -1.041,2.8 -0.571,4.409 2.491,1.433 3.53,-2.683 1.891,-2.313 0.471,-1.008 4.133,1.708 -0.375,1.042 -0.291,2.979 0.587,4.392 2.784,0.75 2.716,-3.517 1.221,-2.717 0.213,-1.091 4.408,0.587 -0.079,1.108 0.487,2.946 1.709,4.1 h 2.879 l 1.712,-4.1 0.488,-2.946 -0.1,-1.108 4.429,-0.587 0.196,1.091 1.237,2.717 2.717,3.517 2.767,-0.75 0.6,-4.392 -0.292,-2.979 -0.375,-1.042 4.121,-1.708 0.471,1.008 1.904,2.313 3.533,2.683 2.488,-1.433 -0.567,-4.409 -1.058,-2.8 -0.621,-0.912 3.533,-2.717 0.717,0.846 2.425,1.742 4.116,1.691 2.034,-2.033 -1.692,-4.1 -1.742,-2.442 -0.845,-0.716 2.716,-3.534 0.913,0.617 2.8,1.058 4.412,0.571 1.429,-2.492 -2.683,-3.529 -2.312,-1.887 -1.009,-0.488 1.709,-4.121 1.041,0.375 2.979,0.292 4.396,-0.583 0.746,-2.784 -3.512,-2.72 -2.721,-1.221 -1.092,-0.209 0.571,-4.429 1.108,0.1 2.963,-0.491 4.083,-1.709 v -2.879 l -4.083,-1.708 -2.963,-0.488 -1.108,0.096 -0.571,-4.429 1.092,-0.208 2.721,-1.221 3.512,-2.721 -0.746,-2.783 -4.396,-0.584 -2.979,0.292 -1.041,0.375 -1.709,-4.117 1.009,-0.491 2.312,-1.888 2.683,-3.529 -1.429,-2.492 -4.412,0.571 -2.8,1.058 -0.913,0.617 -2.716,-3.533 0.845,-0.713 1.742,-2.441 1.692,-4.105 -2.034,-2.033 -4.116,1.692 -2.425,1.741 -0.717,0.846 -3.533,-2.716 0.621,-0.913 1.058,-2.8 0.567,-4.408 -2.488,-1.434 -3.533,2.688 -1.904,2.308 -0.471,1.009 -4.121,-1.709 0.375,-1.041 0.292,-2.98 -0.6,-4.391 -2.767,-0.75 -2.717,3.516 -1.237,2.717 -0.196,1.092 -4.429,-0.588 0.1,-1.104 -0.488,-2.946 -1.712,-4.104 h -2.879 l -1.709,4.104 -0.487,2.946 0.079,1.104 -4.408,0.588 -0.213,-1.092 -1.221,-2.717 -2.716,-3.516 -2.784,0.75 -0.587,4.391 0.291,2.98 0.375,1.041 -4.133,1.709 -0.471,-1.009 -1.891,-2.308 -3.53,-2.688 -2.491,1.434 0.571,4.408 1.041,2.8 0.634,0.913 -3.53,2.716 -0.733,-0.846 -2.425,-1.741 -4.104,-1.692 -2.033,2.033 1.675,4.105 1.758,2.441 9.85,9.942 27.471,-7.488 22.054,24.821 -24.867,29.138 -17.025,-12.729 13.671,-9.23 -2.717,-8.366 z"
           style="fill:#0000ff;fill-rule:nonzero"
           id="path130" /><path
           d="m 1503.13,668.879 v -7.554 c 0,-1.3 -0.263,-2.275 -0.913,-3.058 -0.325,-0.325 -0.912,-0.521 -1.495,-0.521 -1.238,0 -1.825,0.913 -2.15,1.758 -0.196,0.588 -0.259,1.171 -0.259,1.821 v 29.496 c 0,1.367 0.388,2.275 1.042,3.058 0.325,0.325 0.779,0.521 1.367,0.521 1.3,0 1.887,-0.783 2.145,-1.825 0.196,-0.454 0.263,-1.041 0.263,-1.754 V 681.9 h -2.867 v -6.054 h 10.092 v 24.413 h -4.296 l -0.846,-2.342 c -1.366,1.692 -3.254,2.862 -5.6,2.862 -2.341,0 -3.971,-0.583 -5.141,-1.625 -1.175,-1.041 -2.021,-2.279 -2.542,-3.645 -0.583,-1.5 -0.846,-3.321 -0.779,-5.342 v -28.842 c 0.062,-1.95 0.454,-3.708 1.171,-5.271 0.587,-1.304 1.495,-2.67 2.8,-3.645 1.366,-1.042 3.191,-1.692 5.6,-1.692 2.408,0 4.229,0.65 5.533,1.692 1.367,0.975 2.279,2.341 2.862,3.645 0.784,1.563 1.175,3.321 1.238,5.271 v 7.554 z"
           style="fill:#0000ff;fill-rule:nonzero"
           id="path132" /><path
           d="m 1528.5,700.259 -3.779,-20.638 h -1.888 v 20.638 h -7.225 v -49.021 h 7.225 c 8.596,0 12.242,4.879 12.242,14.125 0,4.883 -1.238,9.312 -3.971,11.133 l 4.554,23.763 z m -5.667,-27.342 c 0.979,0 2.279,-0.133 3.388,-1.042 1.041,-0.979 1.887,-2.737 1.887,-6.187 0,-3.513 -0.846,-5.338 -1.887,-6.313 -1.109,-0.912 -2.409,-0.979 -3.388,-0.979 z"
           style="fill:#0000ff;fill-rule:nonzero"
           id="path134" /><path
           d="m 1539.66,651.238 h 16.471 v 7.421 h -9.241 v 12.891 h 6.637 v 7.813 h -6.637 v 13.475 h 9.241 v 7.421 h -16.471 z"
           style="fill:#0000ff;fill-rule:nonzero"
           id="path136" /><path
           d="m 1558.25,700.259 7.425,-49.021 h 8.787 l 7.421,49.021 h -7.029 l -1.304,-10.025 h -6.967 l -1.3,10.025 z m 12.242,-33.071 -0.196,-1.238 h -0.454 l -0.196,1.238 -2.021,15.491 h 4.883 z"
           style="fill:#0000ff;fill-rule:nonzero"
           id="path138" /><path
           d="m 1581.2,658.659 v -7.421 h 20.833 v 7.421 h -6.837 v 41.6 h -7.225 v -41.6 z"
           style="fill:#0000ff;fill-rule:nonzero"
           id="path140" /><path
           d="m 1505.13,722.559 c 0,-1.563 -0.063,-3.388 -0.521,-4.817 -0.454,-1.304 -1.171,-2.217 -2.342,-2.217 -1.825,0.067 -2.475,1.954 -2.475,4.817 0,1.696 0.784,3.454 1.825,5.275 1.042,1.887 2.471,3.842 3.838,5.858 1.696,2.475 3.387,5.017 4.625,7.488 1.237,2.475 2.146,5.012 2.146,7.683 0,3.254 -0.521,6.317 -2.084,8.596 -1.495,2.275 -3.97,3.708 -7.941,3.708 -4.559,0 -7.163,-1.691 -8.659,-4.362 -1.433,-2.667 -1.82,-6.25 -1.82,-9.896 l 7.095,-0.65 c 0,2.083 0.063,4.1 0.584,5.662 0.458,1.563 1.304,2.671 2.8,2.671 2.15,0 2.929,-2.279 2.929,-5.404 0,-1.629 -0.779,-3.45 -1.821,-5.404 -0.65,-0.908 -1.237,-1.95 -1.887,-2.929 -1.434,-2.017 -2.93,-4.296 -4.559,-6.771 -1.562,-2.408 -2.8,-4.946 -3.516,-7.55 -0.392,-1.304 -0.584,-2.604 -0.584,-3.975 0,-2.667 0.584,-5.533 2.146,-7.679 1.5,-2.15 3.842,-3.713 7.229,-3.779 4.359,-0.063 6.9,1.758 8.267,4.362 1.433,2.671 1.821,5.925 1.821,8.663 z"
           style="fill:#0000ff;fill-rule:nonzero"
           id="path142" /><path
           d="m 1534.83,741.634 v 6.704 c -0.062,2.021 -0.454,3.841 -1.237,5.337 -0.584,1.371 -1.496,2.609 -2.863,3.65 -1.304,1.042 -3.125,1.625 -5.533,1.625 -2.409,0 -4.234,-0.583 -5.6,-1.625 -1.304,-1.041 -2.213,-2.279 -2.8,-3.65 -0.717,-1.496 -1.109,-3.316 -1.171,-5.337 v -28.842 c 0.062,-1.95 0.454,-3.708 1.171,-5.271 0.587,-1.304 1.496,-2.671 2.8,-3.646 1.366,-1.041 3.191,-1.695 5.6,-1.695 2.408,0 4.229,0.654 5.533,1.695 1.367,0.975 2.279,2.342 2.863,3.646 0.783,1.563 1.175,3.321 1.237,5.271 v 6.708 h -6.771 v -6.708 c 0,-1.3 -0.325,-2.279 -1.041,-3.058 -0.325,-0.325 -0.913,-0.521 -1.692,-0.521 -1.238,0 -1.825,0.912 -2.15,1.758 -0.258,0.584 -0.325,1.171 -0.388,1.821 v 28.842 c 0.063,1.433 0.521,2.346 1.171,3.062 0.325,0.388 0.779,0.584 1.367,0.584 1.562,0 2.15,-0.846 2.475,-1.821 0.196,-0.459 0.258,-1.042 0.258,-1.825 v -6.704 z"
           style="fill:#0000ff;fill-rule:nonzero"
           id="path144" /><path
           d="m 1557.91,748.338 c -0.062,2.021 -0.454,3.841 -1.237,5.337 -0.584,1.371 -1.496,2.609 -2.863,3.65 -1.304,1.042 -3.125,1.625 -5.533,1.625 -2.408,0 -4.233,-0.583 -5.6,-1.625 -1.3,-1.041 -2.213,-2.279 -2.8,-3.65 -0.717,-1.496 -1.108,-3.316 -1.171,-5.337 v -28.842 c 0.063,-1.95 0.454,-3.708 1.171,-5.271 0.587,-1.304 1.5,-2.671 2.8,-3.646 1.367,-1.041 3.192,-1.695 5.6,-1.695 2.408,0 4.229,0.654 5.533,1.695 1.367,0.975 2.279,2.342 2.863,3.646 0.783,1.563 1.175,3.321 1.237,5.271 z m -7.225,-28.842 c 0,-1.3 -0.262,-2.279 -0.912,-3.058 -0.325,-0.325 -0.913,-0.521 -1.496,-0.521 -1.238,0 -1.825,0.912 -2.15,1.758 -0.196,0.584 -0.258,1.171 -0.258,1.821 v 28.842 c 0,1.433 0.387,2.346 1.041,3.062 0.325,0.388 0.779,0.584 1.367,0.584 1.3,0 1.887,-0.846 2.146,-1.821 0.196,-0.459 0.262,-1.042 0.262,-1.825 z"
           style="fill:#0000ff;fill-rule:nonzero"
           id="path146" /><path
           d="m 1559.56,716.829 v -7.42 h 20.833 v 7.42 h -6.837 v 41.6 h -7.225 v -41.6 z"
           style="fill:#0000ff;fill-rule:nonzero"
           id="path148" /><path
           d="m 1581.15,716.829 v -7.42 h 20.833 v 7.42 h -6.833 v 41.6 h -7.229 v -41.6 z"
           style="fill:#0000ff;fill-rule:nonzero"
           id="path150" /><path
           d="m 1455.16,783.542 v -7.55 c 0,-1.304 -0.258,-2.279 -0.912,-3.058 -0.325,-0.33 -0.909,-0.521 -1.496,-0.521 -1.238,0 -1.825,0.908 -2.15,1.754 -0.196,0.587 -0.258,1.175 -0.258,1.825 v 29.492 c 0,1.366 0.391,2.279 1.041,3.058 0.325,0.329 0.779,0.521 1.367,0.521 1.3,0 1.887,-0.779 2.15,-1.821 0.192,-0.454 0.258,-1.042 0.258,-1.758 v -8.921 h -2.862 v -6.054 h 10.087 v 24.416 h -4.296 l -0.845,-2.346 c -1.367,1.692 -3.255,2.867 -5.6,2.867 -2.342,0 -3.971,-0.587 -5.142,-1.629 -1.171,-1.042 -2.017,-2.279 -2.538,-3.646 -0.587,-1.496 -0.85,-3.321 -0.783,-5.337 v -28.842 c 0.067,-1.954 0.454,-3.713 1.171,-5.275 0.587,-1.3 1.5,-2.667 2.8,-3.646 1.367,-1.042 3.192,-1.692 5.6,-1.692 2.408,0 4.233,0.65 5.533,1.692 1.367,0.979 2.279,2.346 2.867,3.646 0.779,1.562 1.171,3.321 1.233,5.275 v 7.55 z"
           style="fill:#0000ff;fill-rule:nonzero"
           id="path152" /><path
           d="m 1465.63,814.925 7.421,-49.025 h 8.787 l 7.425,49.025 h -7.033 l -1.3,-10.029 h -6.967 l -1.304,10.029 z m 12.237,-33.075 -0.195,-1.237 h -0.455 l -0.195,1.237 -2.017,15.496 h 4.883 z"
           style="fill:#0000ff;fill-rule:nonzero"
           id="path154" /><path
           d="M 1492.58,814.925 V 765.9 h 5.663 c 6.641,0 10.287,1.367 12.175,5.079 1.887,3.775 2.145,9.896 2.145,19.467 0,9.633 -0.258,15.688 -2.145,19.4 -1.888,3.775 -5.534,5.079 -12.175,5.079 z m 7.225,-7.229 c 2.408,0 3.842,-0.258 4.558,-2.667 0.325,-1.108 0.584,-2.866 0.65,-5.145 0.067,-2.342 0.067,-5.467 0.067,-9.505 0,-3.97 0,-7.095 -0.067,-9.441 -0.066,-2.275 -0.325,-4.034 -0.65,-5.209 -0.716,-2.341 -2.15,-2.604 -4.558,-2.604 z"
           style="fill:#0000ff;fill-rule:nonzero"
           id="path156" /><path
           d="m 1528.89,783.542 v -7.55 c 0,-1.304 -0.258,-2.279 -0.908,-3.058 -0.325,-0.33 -0.912,-0.521 -1.5,-0.521 -1.237,0 -1.821,0.908 -2.146,1.754 -0.196,0.587 -0.262,1.175 -0.262,1.825 v 29.492 c 0,1.366 0.391,2.279 1.041,3.058 0.325,0.329 0.784,0.521 1.367,0.521 1.304,0 1.888,-0.779 2.15,-1.821 0.196,-0.454 0.258,-1.042 0.258,-1.758 v -8.921 h -2.862 v -6.054 h 10.092 v 24.416 h -4.296 l -0.85,-2.346 c -1.367,1.692 -3.254,2.867 -5.596,2.867 -2.346,0 -3.971,-0.587 -5.146,-1.629 -1.171,-1.042 -2.017,-2.279 -2.537,-3.646 -0.588,-1.496 -0.846,-3.321 -0.784,-5.337 v -28.842 c 0.067,-1.954 0.459,-3.713 1.175,-5.275 0.584,-1.3 1.496,-2.667 2.8,-3.646 1.367,-1.042 3.188,-1.692 5.596,-1.692 2.408,0 4.233,0.65 5.533,1.692 1.371,0.979 2.28,2.346 2.867,3.646 0.779,1.562 1.171,3.321 1.238,5.275 v 7.55 z"
           style="fill:#0000ff;fill-rule:nonzero"
           id="path158" /><path
           d="m 1541.38,765.9 h 16.471 v 7.421 h -9.246 v 12.892 h 6.642 v 7.812 h -6.642 V 807.5 h 9.246 v 7.425 h -16.471 z"
           style="fill:#0000ff;fill-rule:nonzero"
           id="path160" /><path
           d="M 1559.3,773.321 V 765.9 h 20.833 v 7.421 h -6.833 v 41.604 h -7.23 v -41.604 z"
           style="fill:#0000ff;fill-rule:nonzero"
           id="path162" /><path
           d="m 1594.83,779.05 c 0,-1.562 -0.067,-3.383 -0.521,-4.816 -0.458,-1.3 -1.175,-2.213 -2.346,-2.213 -1.821,0.063 -2.475,1.954 -2.475,4.817 0,1.691 0.784,3.45 1.825,5.275 1.042,1.887 2.475,3.841 3.842,5.858 1.692,2.475 3.383,5.013 4.621,7.488 1.237,2.475 2.15,5.012 2.15,7.683 0,3.254 -0.521,6.312 -2.084,8.592 -1.5,2.279 -3.97,3.712 -7.945,3.712 -4.555,0 -7.159,-1.696 -8.659,-4.362 -1.429,-2.671 -1.821,-6.25 -1.821,-9.896 l 7.096,-0.65 c 0,2.083 0.067,4.1 0.588,5.662 0.454,1.563 1.3,2.671 2.796,2.671 2.15,0 2.933,-2.279 2.933,-5.404 0,-1.629 -0.783,-3.45 -1.825,-5.404 -0.65,-0.913 -1.238,-1.954 -1.888,-2.929 -1.433,-2.021 -2.929,-4.3 -4.558,-6.771 -1.562,-2.409 -2.8,-4.95 -3.512,-7.554 -0.392,-1.3 -0.588,-2.605 -0.588,-3.971 0,-2.671 0.588,-5.534 2.146,-7.684 1.5,-2.145 3.842,-3.708 7.229,-3.775 4.363,-0.066 6.9,1.759 8.267,4.363 1.433,2.671 1.825,5.925 1.825,8.658 z"
           style="fill:#0000ff;fill-rule:nonzero"
           id="path164" /><path
           d="m 1045.91,273.142 -3.32,9.117 h 6.708 z m -1.366,-2.425 h 2.8 l 6.966,18.229 h -2.604 l -1.629,-4.687 h -8.267 l -1.629,4.687 h -2.604 z"
           style="fill:#0000ff;fill-rule:nonzero"
           id="path166" /><path
           d="m 1077.41,280.242 v 6.704 h 3.904 c 1.338,0 2.313,-0.262 2.934,-0.783 0.65,-0.55 0.975,-1.429 0.975,-2.604 0,-1.138 -0.325,-1.95 -0.975,-2.471 -0.621,-0.554 -1.596,-0.846 -2.934,-0.846 z m 0,-7.488 v 5.534 h 3.646 c 1.171,0 2.05,-0.213 2.671,-0.654 0.6,-0.488 0.908,-1.188 0.908,-2.146 0,-0.929 -0.308,-1.579 -0.908,-2.021 -0.621,-0.488 -1.5,-0.713 -2.671,-0.713 z m -2.475,-2.037 h 6.25 c 1.904,0 3.354,0.408 4.363,1.192 1.041,0.779 1.562,1.887 1.562,3.316 0,1.142 -0.258,2.021 -0.779,2.654 -0.521,0.65 -1.304,1.092 -2.346,1.255 1.204,0.258 2.15,0.795 2.8,1.625 0.684,0.833 1.042,1.875 1.042,3.125 0,1.595 -0.571,2.866 -1.692,3.779 -1.091,0.879 -2.654,1.283 -4.687,1.283 h -6.513 z"
           style="fill:#0000ff;fill-rule:nonzero"
           id="path168" /><path
           d="m 1124.14,272.15 v 2.604 c -0.829,-0.779 -1.725,-1.366 -2.67,-1.758 -0.913,-0.375 -1.888,-0.583 -2.93,-0.583 -2.083,0 -3.695,0.65 -4.816,1.95 -1.092,1.271 -1.629,3.096 -1.629,5.471 0,2.441 0.537,4.279 1.629,5.533 1.121,1.271 2.733,1.887 4.816,1.887 1.042,0 2.017,-0.162 2.93,-0.52 0.945,-0.392 1.841,-0.975 2.67,-1.759 v 2.542 c -0.879,0.617 -1.791,1.087 -2.733,1.367 -0.962,0.258 -1.987,0.404 -3.062,0.404 -2.734,0 -4.917,-0.829 -6.509,-2.488 -1.562,-1.679 -2.346,-4.004 -2.346,-6.966 0,-2.884 0.784,-5.209 2.346,-6.9 1.592,-1.696 3.775,-2.542 6.509,-2.542 1.075,0 2.1,0.162 3.062,0.458 0.992,0.259 1.904,0.713 2.733,1.3 z"
           style="fill:#0000ff;fill-rule:nonzero"
           id="path170" /><path
           d="m 1147.07,272.754 v 14.192 h 2.929 c 2.504,0 4.362,-0.571 5.533,-1.692 1.171,-1.175 1.759,-2.962 1.759,-5.404 0,-2.491 -0.588,-4.266 -1.759,-5.404 -1.171,-1.125 -3.029,-1.692 -5.533,-1.692 z m -2.475,-2.037 h 5.079 c 3.512,0 6.087,0.767 7.746,2.233 1.646,1.479 2.475,3.775 2.475,6.9 0,3.125 -0.829,5.434 -2.475,6.884 -1.659,1.495 -4.234,2.212 -7.746,2.212 h -5.079 z"
           style="fill:#0000ff;fill-rule:nonzero"
           id="path172" /><path
           d="m 1181.82,270.717 h 11.521 v 2.083 h -9.05 v 5.404 h 8.658 v 2.084 h -8.658 v 6.575 h 9.245 v 2.083 h -11.716 z"
           style="fill:#0000ff;fill-rule:nonzero"
           id="path174" /><path
           d="m 1093.93,692.367 h 9.7 v 2.083 h -7.421 v 4.492 c 0.342,-0.129 0.684,-0.213 1.042,-0.263 0.387,-0.079 0.746,-0.129 1.104,-0.129 2.038,0 3.646,0.571 4.821,1.692 1.204,1.092 1.821,2.587 1.821,4.492 0,1.954 -0.617,3.483 -1.821,4.558 -1.221,1.092 -2.963,1.629 -5.208,1.629 -0.75,0 -1.534,-0.067 -2.346,-0.196 -0.779,-0.129 -1.596,-0.325 -2.409,-0.587 v -2.471 c 0.734,0.437 1.496,0.762 2.28,0.975 0.779,0.179 1.595,0.258 2.475,0.258 1.383,0 2.487,-0.358 3.316,-1.104 0.817,-0.783 1.238,-1.792 1.238,-3.062 0,-1.25 -0.421,-2.246 -1.238,-2.992 -0.829,-0.733 -1.933,-1.108 -3.316,-1.108 -0.7,0 -1.371,0.095 -2.021,0.262 -0.65,0.129 -1.334,0.354 -2.017,0.65 z"
           style="fill:#0000ff;fill-rule:nonzero"
           id="path176" /><path
           d="m 1136.1,694.675 -6.183,9.7 h 6.183 z m -0.65,-2.146 h 3.125 v 11.846 h 2.604 v 2.084 h -2.604 v 4.3 h -2.475 v -4.3 h -8.204 v -2.409 z"
           style="fill:#0000ff;fill-rule:nonzero"
           id="path178" /><path
           d="m 1172.22,700.925 c 1.17,0.263 2.083,0.817 2.733,1.629 0.683,0.78 1.042,1.759 1.042,2.93 0,1.791 -0.634,3.175 -1.888,4.166 -1.221,0.963 -2.979,1.434 -5.275,1.434 -0.779,0 -1.592,-0.1 -2.408,-0.263 -0.779,-0.129 -1.613,-0.325 -2.475,-0.583 v -2.409 c 0.687,0.388 1.45,0.7 2.279,0.909 0.817,0.229 1.662,0.325 2.542,0.325 1.562,0 2.733,-0.292 3.512,-0.909 0.817,-0.654 1.238,-1.529 1.238,-2.67 0,-1.075 -0.388,-1.921 -1.171,-2.538 -0.75,-0.604 -1.792,-0.912 -3.125,-0.912 h -2.084 v -2.017 h 2.213 c 1.204,0 2.117,-0.229 2.737,-0.717 0.65,-0.521 0.975,-1.237 0.975,-2.15 0,-0.912 -0.325,-1.596 -0.975,-2.083 -0.654,-0.521 -1.612,-0.779 -2.866,-0.779 -0.65,0 -1.367,0.096 -2.15,0.258 -0.779,0.129 -1.625,0.358 -2.538,0.65 v -2.212 c 0.913,-0.259 1.775,-0.455 2.604,-0.588 0.813,-0.129 1.596,-0.192 2.346,-0.192 1.854,0 3.334,0.438 4.425,1.3 1.075,0.83 1.629,1.988 1.629,3.45 0,1.009 -0.312,1.859 -0.912,2.542 -0.571,0.7 -1.367,1.171 -2.408,1.429 z"
           style="fill:#0000ff;fill-rule:nonzero"
           id="path180" /><path
           d="m 1202.61,708.838 h 8.592 v 2.083 h -11.588 v -2.083 c 0.946,-0.946 2.229,-2.229 3.842,-3.842 1.596,-1.646 2.621,-2.704 3.058,-3.192 0.784,-0.908 1.321,-1.658 1.629,-2.279 0.292,-0.6 0.455,-1.204 0.455,-1.821 0,-0.945 -0.359,-1.725 -1.042,-2.345 -0.65,-0.6 -1.529,-0.909 -2.604,-0.909 -0.779,0 -1.609,0.129 -2.471,0.388 -0.833,0.262 -1.742,0.683 -2.738,1.237 v -2.471 c 0.996,-0.425 1.921,-0.733 2.8,-0.912 0.863,-0.213 1.646,-0.325 2.346,-0.325 1.904,0 3.4,0.487 4.492,1.429 1.121,0.913 1.692,2.183 1.692,3.779 0,0.746 -0.163,1.463 -0.455,2.146 -0.262,0.654 -0.766,1.433 -1.5,2.346 -0.179,0.225 -0.829,0.896 -1.95,2.017 -1.091,1.141 -2.604,2.716 -4.558,4.754 z"
           style="fill:#0000ff;fill-rule:nonzero"
           id="path182" /><path
           d="m 1235.8,708.675 h 4.033 v -13.866 l -4.425,0.845 v -2.216 l 4.362,-0.909 h 2.475 v 16.146 h 4.034 v 2.084 H 1235.8 Z"
           style="fill:#0000ff;fill-rule:nonzero"
           id="path184" /><path
           d="m 1276.27,694.154 c -1.267,0 -2.213,0.638 -2.863,1.888 -0.65,1.271 -0.975,3.125 -0.975,5.6 0,2.525 0.325,4.412 0.975,5.667 0.65,1.22 1.596,1.82 2.863,1.82 1.304,0 2.25,-0.6 2.866,-1.82 0.65,-1.255 0.975,-3.142 0.975,-5.667 0,-2.475 -0.325,-4.329 -0.975,-5.6 -0.616,-1.25 -1.562,-1.888 -2.866,-1.888 z m 0,-1.95 c 2.037,0 3.6,0.813 4.691,2.409 1.071,1.608 1.625,3.954 1.625,7.029 0,3.092 -0.554,5.437 -1.625,7.033 -1.091,1.609 -2.654,2.409 -4.691,2.409 -2.05,0 -3.613,-0.8 -4.684,-2.409 -1.091,-1.596 -1.629,-3.941 -1.629,-7.033 0,-3.075 0.538,-5.421 1.629,-7.029 1.071,-1.596 2.634,-2.409 4.684,-2.409 z"
           style="fill:#0000ff;fill-rule:nonzero"
           id="path186" /></g><g
         id="Top-Labels"
         serif:id="Top Labels"><path
           d="m 780.303,185.965 c 0,2.17 -0.708,3.896 -2.124,5.176 -1.416,1.28 -3.339,1.921 -5.769,1.921 h -6.739 v 8.935 h -3.108 v -22.933 h 9.651 c 2.572,0 4.563,0.602 5.974,1.807 1.41,1.204 2.115,2.902 2.115,5.094 z m -3.125,0.033 c 0,-2.962 -1.779,-4.444 -5.338,-4.444 h -6.169 v 9.05 h 6.299 c 3.472,0 5.208,-1.535 5.208,-4.606 z"
           style="fill:#0000ff;fill-rule:nonzero"
           id="path189" /><path
           d="m 801.007,201.997 -5.957,-9.521 h -7.146 v 9.521 h -3.108 v -22.933 h 10.791 c 2.582,0 4.576,0.578 5.981,1.734 1.405,1.155 2.108,2.764 2.108,4.825 0,1.704 -0.497,3.136 -1.489,4.297 -0.993,1.161 -2.363,1.894 -4.11,2.198 l 6.51,9.879 z m -0.456,-16.341 c 0,-1.335 -0.453,-2.352 -1.359,-3.052 -0.906,-0.7 -2.211,-1.05 -3.915,-1.05 h -7.373 v 8.464 h 7.504 c 1.638,0 2.905,-0.383 3.8,-1.147 0.895,-0.765 1.343,-1.837 1.343,-3.215 z"
           style="fill:#0000ff;fill-rule:nonzero"
           id="path191" /><path
           d="m 830.466,190.425 c 0,2.398 -0.458,4.497 -1.375,6.299 -0.917,1.801 -2.233,3.184 -3.947,4.15 -1.714,0.966 -3.738,1.449 -6.071,1.449 -2.355,0 -4.386,-0.478 -6.095,-1.433 -1.709,-0.954 -3.014,-2.335 -3.915,-4.142 -0.9,-1.807 -1.351,-3.914 -1.351,-6.323 0,-3.668 1.004,-6.535 3.011,-8.602 2.008,-2.067 4.802,-3.101 8.383,-3.101 2.332,0 4.356,0.464 6.07,1.392 1.715,0.928 3.025,2.276 3.931,4.045 0.906,1.768 1.359,3.857 1.359,6.266 z m -3.174,0 c 0,-2.854 -0.713,-5.095 -2.14,-6.722 -1.427,-1.628 -3.442,-2.442 -6.046,-2.442 -2.626,0 -4.655,0.803 -6.088,2.409 -1.432,1.606 -2.148,3.858 -2.148,6.755 0,2.875 0.724,5.157 2.173,6.844 1.448,1.687 3.458,2.531 6.03,2.531 2.648,0 4.679,-0.817 6.095,-2.45 1.416,-1.633 2.124,-3.941 2.124,-6.925 z"
           style="fill:#0000ff;fill-rule:nonzero"
           id="path193" /><path
           d="m 833.738,190.425 c 0,-3.722 0.998,-6.603 2.994,-8.643 1.997,-2.04 4.802,-3.06 8.415,-3.06 2.539,0 4.601,0.429 6.185,1.286 1.584,0.857 2.805,2.23 3.662,4.118 l -2.962,0.879 c -0.651,-1.302 -1.549,-2.252 -2.694,-2.848 -1.144,-0.597 -2.569,-0.896 -4.272,-0.896 -2.648,0 -4.671,0.801 -6.071,2.401 -1.4,1.601 -2.1,3.855 -2.1,6.763 0,2.897 0.744,5.184 2.23,6.86 1.487,1.677 3.543,2.515 6.169,2.515 1.497,0 2.894,-0.228 4.191,-0.684 1.296,-0.455 2.346,-1.074 3.149,-1.855 v -4.134 h -6.852 v -2.604 h 9.717 v 7.91 c -1.216,1.237 -2.705,2.194 -4.468,2.872 -1.763,0.679 -3.676,1.018 -5.737,1.018 -2.398,0 -4.465,-0.478 -6.202,-1.433 -1.736,-0.954 -3.062,-2.33 -3.979,-4.126 -0.917,-1.795 -1.375,-3.909 -1.375,-6.339 z"
           style="fill:#0000ff;fill-rule:nonzero"
           id="path195" /><path
           d="m 876.934,201.997 -5.957,-9.521 h -7.145 v 9.521 h -3.109 v -22.933 h 10.791 c 2.583,0 4.577,0.578 5.982,1.734 1.405,1.155 2.108,2.764 2.108,4.825 0,1.704 -0.497,3.136 -1.49,4.297 -0.993,1.161 -2.362,1.894 -4.109,2.198 l 6.51,9.879 z m -0.455,-16.341 c 0,-1.335 -0.453,-2.352 -1.359,-3.052 -0.907,-0.7 -2.211,-1.05 -3.915,-1.05 h -7.373 v 8.464 h 7.503 c 1.639,0 2.906,-0.383 3.801,-1.147 0.895,-0.765 1.343,-1.837 1.343,-3.215 z"
           style="fill:#0000ff;fill-rule:nonzero"
           id="path197" /><path
           d="m 901.055,201.997 -2.62,-6.706 h -10.449 l -2.637,6.706 h -3.223 l 9.359,-22.933 h 3.532 l 9.212,22.933 z m -7.845,-20.589 -0.146,0.456 c -0.271,0.9 -0.673,2.056 -1.205,3.466 l -2.929,7.536 h 8.577 l -2.946,-7.568 c -0.304,-0.749 -0.607,-1.595 -0.911,-2.539 z"
           style="fill:#0000ff;fill-rule:nonzero"
           id="path199" /><path
           d="m 926.527,201.997 v -15.299 c 0,-1.693 0.049,-3.321 0.147,-4.883 -0.532,1.942 -1.009,3.461 -1.432,4.557 l -5.925,15.625 h -2.181 l -6.006,-15.625 -0.911,-2.767 -0.537,-1.79 0.049,1.807 0.065,3.076 v 15.299 h -2.767 v -22.933 h 4.085 l 6.103,15.902 c 0.218,0.64 0.426,1.326 0.627,2.059 0.201,0.732 0.334,1.261 0.399,1.587 0.087,-0.434 0.268,-1.093 0.545,-1.978 0.277,-0.884 0.464,-1.44 0.562,-1.668 l 5.989,-15.902 h 3.988 v 22.933 z"
           style="fill:#0000ff;fill-rule:nonzero"
           id="path201" /><path
           d="m 779.324,322.994 c -2.539,0 -4.514,0.816 -5.925,2.449 -1.41,1.633 -2.115,3.871 -2.115,6.714 0,2.81 0.735,5.07 2.205,6.779 1.47,1.709 3.459,2.564 5.965,2.564 3.212,0 5.626,-1.59 7.243,-4.769 l 2.539,1.269 c -0.944,1.975 -2.27,3.478 -3.979,4.509 -1.709,1.031 -3.692,1.546 -5.949,1.546 -2.312,0 -4.311,-0.48 -5.998,-1.44 -1.687,-0.961 -2.973,-2.333 -3.857,-4.118 -0.885,-1.785 -1.327,-3.898 -1.327,-6.34 0,-3.657 0.987,-6.521 2.962,-8.594 1.975,-2.072 4.709,-3.108 8.203,-3.108 2.442,0 4.482,0.477 6.12,1.432 1.639,0.955 2.843,2.371 3.613,4.248 l -2.945,0.977 c -0.532,-1.335 -1.387,-2.355 -2.564,-3.06 -1.177,-0.706 -2.574,-1.058 -4.191,-1.058 z"
           style="fill:#0000ff;fill-rule:nonzero"
           id="path203" /><path
           d="m 814.838,332.157 c 0,2.398 -0.458,4.498 -1.375,6.299 -0.917,1.801 -2.233,3.185 -3.947,4.15 -1.714,0.966 -3.738,1.449 -6.071,1.449 -2.355,0 -4.386,-0.477 -6.095,-1.432 -1.709,-0.955 -3.014,-2.336 -3.915,-4.143 -0.9,-1.806 -1.351,-3.914 -1.351,-6.323 0,-3.667 1.004,-6.535 3.011,-8.602 2.008,-2.067 4.802,-3.1 8.383,-3.1 2.332,0 4.356,0.464 6.071,1.391 1.714,0.928 3.024,2.276 3.93,4.045 0.906,1.769 1.359,3.857 1.359,6.266 z m -3.174,0 c 0,-2.854 -0.713,-5.094 -2.14,-6.722 -1.427,-1.627 -3.442,-2.441 -6.046,-2.441 -2.626,0 -4.655,0.803 -6.088,2.409 -1.432,1.606 -2.148,3.857 -2.148,6.754 0,2.876 0.724,5.157 2.173,6.844 1.448,1.688 3.458,2.531 6.03,2.531 2.648,0 4.679,-0.816 6.095,-2.449 1.416,-1.633 2.124,-3.942 2.124,-6.926 z"
           style="fill:#0000ff;fill-rule:nonzero"
           id="path205" /><path
           d="m 834.044,343.729 -12.272,-19.531 0.081,1.579 0.082,2.718 v 15.234 h -2.767 v -22.933 h 3.613 l 12.402,19.662 c -0.13,-2.127 -0.195,-3.668 -0.195,-4.622 v -15.04 h 2.799 v 22.933 z"
           style="fill:#0000ff;fill-rule:nonzero"
           id="path207" /><path
           d="m 852.224,323.336 v 20.393 h -3.092 v -20.393 h -7.878 v -2.54 h 18.848 v 2.54 z"
           style="fill:#0000ff;fill-rule:nonzero"
           id="path209" /><path
           d="m 879.812,343.729 -5.957,-9.521 h -7.145 v 9.521 h -3.109 v -22.933 h 10.791 c 2.583,0 4.577,0.578 5.982,1.734 1.405,1.155 2.107,2.764 2.107,4.826 0,1.703 -0.496,3.136 -1.489,4.297 -0.993,1.161 -2.362,1.893 -4.109,2.197 l 6.51,9.879 z m -0.456,-16.341 c 0,-1.334 -0.453,-2.352 -1.359,-3.051 -0.906,-0.7 -2.21,-1.05 -3.914,-1.05 h -7.373 v 8.463 h 7.503 c 1.639,0 2.906,-0.382 3.801,-1.147 0.895,-0.765 1.342,-1.837 1.342,-3.215 z"
           style="fill:#0000ff;fill-rule:nonzero"
           id="path211" /><path
           d="m 909.272,332.157 c 0,2.398 -0.459,4.498 -1.375,6.299 -0.917,1.801 -2.233,3.185 -3.947,4.15 -1.715,0.966 -3.738,1.449 -6.071,1.449 -2.355,0 -4.387,-0.477 -6.096,-1.432 -1.709,-0.955 -3.014,-2.336 -3.914,-4.143 -0.901,-1.806 -1.351,-3.914 -1.351,-6.323 0,-3.667 1.004,-6.535 3.011,-8.602 2.007,-2.067 4.801,-3.1 8.382,-3.1 2.333,0 4.357,0.464 6.071,1.391 1.715,0.928 3.025,2.276 3.931,4.045 0.906,1.769 1.359,3.857 1.359,6.266 z m -3.174,0 c 0,-2.854 -0.713,-5.094 -2.14,-6.722 -1.427,-1.627 -3.443,-2.441 -6.047,-2.441 -2.626,0 -4.655,0.803 -6.087,2.409 -1.432,1.606 -2.148,3.857 -2.148,6.754 0,2.876 0.724,5.157 2.172,6.844 1.449,1.688 3.459,2.531 6.031,2.531 2.647,0 4.679,-0.816 6.095,-2.449 1.416,-1.633 2.124,-3.942 2.124,-6.926 z"
           style="fill:#0000ff;fill-rule:nonzero"
           id="path213" /><path
           d="m 913.601,343.729 v -22.933 h 3.109 v 20.394 h 11.589 v 2.539 z"
           style="fill:#0000ff;fill-rule:nonzero"
           id="path215" /><path
           d="m 849.16,495.029 c -1.877,0 -3.515,-0.342 -4.915,-1.025 -1.4,-0.684 -2.485,-1.677 -3.255,-2.979 -0.771,-1.302 -1.156,-2.853 -1.156,-4.655 v -14.599 h 3.109 v 14.339 c 0,2.094 0.531,3.684 1.595,4.769 1.063,1.085 2.599,1.627 4.606,1.627 2.062,0 3.665,-0.561 4.809,-1.684 1.145,-1.123 1.718,-2.764 1.718,-4.924 v -14.127 h 3.092 v 14.306 c 0,1.856 -0.393,3.456 -1.18,4.802 -0.787,1.345 -1.899,2.373 -3.337,3.084 -1.437,0.711 -3.133,1.066 -5.086,1.066 z"
           style="fill:#0000ff;fill-rule:nonzero"
           id="path217" /><path
           d="m 882.038,488.372 c 0,2.116 -0.828,3.755 -2.482,4.916 -1.655,1.161 -3.985,1.741 -6.991,1.741 -5.588,0 -8.827,-1.942 -9.717,-5.827 l 3.011,-0.602 c 0.348,1.378 1.085,2.39 2.214,3.036 1.128,0.645 2.664,0.968 4.606,0.968 2.007,0 3.556,-0.344 4.647,-1.033 1.09,-0.69 1.636,-1.701 1.636,-3.036 0,-0.749 -0.171,-1.356 -0.513,-1.823 -0.342,-0.466 -0.822,-0.852 -1.44,-1.155 -0.619,-0.304 -1.357,-0.559 -2.214,-0.765 -0.857,-0.207 -1.807,-0.429 -2.848,-0.668 -1.812,-0.401 -3.188,-0.803 -4.126,-1.204 -0.939,-0.402 -1.679,-0.849 -2.222,-1.343 -0.543,-0.494 -0.958,-1.071 -1.245,-1.733 -0.288,-0.662 -0.431,-1.422 -0.431,-2.279 0,-1.964 0.751,-3.478 2.254,-4.541 1.503,-1.063 3.654,-1.595 6.453,-1.595 2.604,0 4.596,0.399 5.974,1.196 1.378,0.798 2.343,2.157 2.897,4.077 l -3.06,0.537 c -0.337,-1.215 -0.977,-2.096 -1.921,-2.644 -0.944,-0.548 -2.251,-0.822 -3.922,-0.822 -1.834,0 -3.234,0.303 -4.2,0.911 -0.965,0.608 -1.448,1.514 -1.448,2.718 0,0.706 0.187,1.289 0.561,1.75 0.375,0.461 0.915,0.852 1.62,1.172 0.705,0.32 2.11,0.713 4.215,1.18 0.706,0.163 1.408,0.328 2.108,0.496 0.7,0.168 1.37,0.369 2.01,0.602 0.64,0.234 1.24,0.508 1.799,0.822 0.559,0.315 1.044,0.7 1.456,1.156 0.413,0.456 0.736,0.993 0.969,1.611 0.233,0.619 0.35,1.346 0.35,2.181 z"
           style="fill:#0000ff;fill-rule:nonzero"
           id="path219" /><path
           d="m 886.302,494.704 v -22.933 h 17.399 v 2.539 h -14.29 v 7.357 h 13.314 v 2.506 h -13.314 v 7.992 h 14.958 v 2.539 z"
           style="fill:#0000ff;fill-rule:nonzero"
           id="path221" /><path
           d="m 924.746,494.704 -5.957,-9.522 h -7.145 v 9.522 h -3.109 v -22.933 h 10.791 c 2.583,0 4.577,0.578 5.982,1.733 1.405,1.156 2.107,2.764 2.107,4.826 0,1.704 -0.496,3.136 -1.489,4.297 -0.993,1.161 -2.363,1.893 -4.11,2.197 l 6.511,9.88 z m -0.456,-16.342 c 0,-1.334 -0.453,-2.351 -1.359,-3.051 -0.906,-0.7 -2.21,-1.05 -3.914,-1.05 h -7.373 v 8.463 h 7.503 c 1.639,0 2.905,-0.382 3.801,-1.147 0.895,-0.765 1.342,-1.836 1.342,-3.215 z"
           style="fill:#0000ff;fill-rule:nonzero"
           id="path223" /><path
           d="m 879.482,642.035 -2.62,-6.706 h -10.449 l -2.637,6.706 h -3.223 l 9.359,-22.933 h 3.532 l 9.212,22.933 z m -7.845,-20.589 -0.146,0.456 c -0.271,0.9 -0.673,2.056 -1.204,3.466 l -2.93,7.536 h 8.577 l -2.946,-7.568 c -0.303,-0.749 -0.607,-1.595 -0.911,-2.539 z"
           style="fill:#0000ff;fill-rule:nonzero"
           id="path225" /><path
           d="m 894.619,642.361 c -1.877,0 -3.515,-0.342 -4.915,-1.026 -1.4,-0.683 -2.485,-1.676 -3.255,-2.978 -0.771,-1.302 -1.156,-2.854 -1.156,-4.655 v -14.6 h 3.109 v 14.339 c 0,2.095 0.531,3.684 1.595,4.769 1.063,1.085 2.599,1.628 4.606,1.628 2.062,0 3.665,-0.562 4.809,-1.685 1.145,-1.123 1.718,-2.764 1.718,-4.923 v -14.128 h 3.092 v 14.307 c 0,1.855 -0.393,3.456 -1.18,4.801 -0.787,1.346 -1.899,2.374 -3.337,3.085 -1.437,0.71 -3.133,1.066 -5.086,1.066 z"
           style="fill:#0000ff;fill-rule:nonzero"
           id="path227" /><path
           d="m 924.893,642.035 -6.885,-10.026 -7.031,10.026 h -3.435 l 8.724,-11.914 -8.056,-11.019 h 3.434 l 6.38,9.001 6.201,-9.001 h 3.435 l -7.845,10.905 8.512,12.028 z"
           style="fill:#0000ff;fill-rule:nonzero"
           id="path229" /><path
           d="m 1693.94,621.983 v 20.394 h -3.092 v -20.394 h -7.878 v -2.539 h 18.848 v 2.539 z"
           style="fill:#0000ff;fill-rule:nonzero"
           id="path231" /><path
           d="m 1719.1,642.377 -2.621,-6.706 h -10.449 l -2.636,6.706 h -3.223 l 9.359,-22.933 h 3.531 l 9.213,22.933 z m -7.845,-20.589 -0.147,0.455 c -0.271,0.901 -0.672,2.057 -1.204,3.467 l -2.93,7.536 h 8.578 l -2.946,-7.568 c -0.304,-0.749 -0.608,-1.595 -0.912,-2.539 z"
           style="fill:#0000ff;fill-rule:nonzero"
           id="path233" /><path
           d="m 1741.28,642.377 -5.957,-9.522 h -7.145 v 9.522 h -3.109 v -22.933 h 10.791 c 2.583,0 4.577,0.578 5.982,1.733 1.405,1.156 2.107,2.765 2.107,4.826 0,1.704 -0.496,3.136 -1.489,4.297 -0.993,1.161 -2.363,1.893 -4.11,2.197 l 6.511,9.88 z m -0.456,-16.341 c 0,-1.335 -0.453,-2.352 -1.359,-3.052 -0.906,-0.7 -2.21,-1.05 -3.914,-1.05 h -7.373 v 8.464 h 7.503 c 1.639,0 2.905,-0.383 3.801,-1.148 0.895,-0.765 1.342,-1.836 1.342,-3.214 z"
           style="fill:#0000ff;fill-rule:nonzero"
           id="path235" /><path
           d="m 1748.09,630.805 c 0,-3.722 0.998,-6.603 2.994,-8.643 1.997,-2.04 4.802,-3.06 8.415,-3.06 2.539,0 4.601,0.429 6.185,1.286 1.584,0.857 2.805,2.23 3.662,4.118 l -2.962,0.879 c -0.651,-1.302 -1.549,-2.252 -2.694,-2.849 -1.145,-0.596 -2.569,-0.895 -4.272,-0.895 -2.648,0 -4.672,0.8 -6.071,2.401 -1.4,1.6 -2.1,3.855 -2.1,6.763 0,2.897 0.743,5.184 2.23,6.86 1.486,1.676 3.543,2.515 6.169,2.515 1.497,0 2.894,-0.228 4.191,-0.684 1.296,-0.456 2.346,-1.074 3.149,-1.855 v -4.135 h -6.852 v -2.604 h 9.717 v 7.91 c -1.216,1.237 -2.705,2.195 -4.468,2.873 -1.763,0.678 -3.676,1.017 -5.737,1.017 -2.398,0 -4.466,-0.477 -6.202,-1.432 -1.736,-0.955 -3.062,-2.33 -3.979,-4.126 -0.917,-1.796 -1.375,-3.909 -1.375,-6.339 z"
           style="fill:#0000ff;fill-rule:nonzero"
           id="path237" /><path
           d="m 1775.07,642.377 v -22.933 h 17.399 v 2.539 h -14.29 v 7.357 h 13.314 v 2.506 h -13.314 v 7.992 h 14.958 v 2.539 z"
           style="fill:#0000ff;fill-rule:nonzero"
           id="path239" /><path
           d="m 1806.29,621.983 v 20.394 h -3.093 v -20.394 h -7.877 v -2.539 h 18.847 v 2.539 z"
           style="fill:#0000ff;fill-rule:nonzero"
           id="path241" /><path
           d="m 1836.48,621.641 c -2.539,0 -4.514,0.817 -5.925,2.45 -1.41,1.633 -2.116,3.871 -2.116,6.714 0,2.81 0.735,5.07 2.206,6.779 1.47,1.709 3.458,2.563 5.965,2.563 3.212,0 5.626,-1.59 7.243,-4.769 l 2.539,1.27 c -0.944,1.975 -2.271,3.477 -3.98,4.508 -1.709,1.031 -3.692,1.546 -5.949,1.546 -2.311,0 -4.31,-0.48 -5.997,-1.44 -1.688,-0.96 -2.973,-2.333 -3.858,-4.118 -0.884,-1.785 -1.326,-3.898 -1.326,-6.339 0,-3.657 0.987,-6.522 2.962,-8.594 1.975,-2.073 4.709,-3.109 8.203,-3.109 2.442,0 4.481,0.478 6.12,1.432 1.638,0.955 2.843,2.371 3.613,4.248 l -2.946,0.977 c -0.531,-1.335 -1.386,-2.355 -2.563,-3.06 -1.178,-0.705 -2.575,-1.058 -4.191,-1.058 z"
           style="fill:#0000ff;fill-rule:nonzero"
           id="path243" /><path
           d="m 1700.41,201.997 -5.957,-9.521 h -7.145 v 9.521 h -3.109 v -22.933 h 10.791 c 2.583,0 4.576,0.578 5.982,1.734 1.405,1.155 2.107,2.764 2.107,4.825 0,1.704 -0.496,3.136 -1.489,4.297 -0.993,1.161 -2.363,1.894 -4.11,2.198 l 6.511,9.879 z m -0.456,-16.341 c 0,-1.335 -0.453,-2.352 -1.359,-3.052 -0.906,-0.7 -2.211,-1.05 -3.914,-1.05 h -7.373 v 8.464 h 7.503 c 1.639,0 2.905,-0.383 3.801,-1.147 0.895,-0.765 1.342,-1.837 1.342,-3.215 z"
           style="fill:#0000ff;fill-rule:nonzero"
           id="path245" /><path
           d="m 1708.28,201.997 v -22.933 h 17.399 v 2.539 h -14.29 v 7.357 h 13.314 v 2.507 h -13.314 v 7.991 h 14.958 v 2.539 z"
           style="fill:#0000ff;fill-rule:nonzero"
           id="path247" /><path
           d="m 1748.48,195.666 c 0,2.116 -0.827,3.754 -2.482,4.915 -1.655,1.161 -3.985,1.742 -6.99,1.742 -5.589,0 -8.828,-1.943 -9.717,-5.827 l 3.011,-0.602 c 0.347,1.378 1.085,2.39 2.213,3.035 1.129,0.646 2.664,0.969 4.606,0.969 2.008,0 3.557,-0.345 4.647,-1.034 1.091,-0.689 1.636,-1.701 1.636,-3.035 0,-0.749 -0.171,-1.357 -0.513,-1.823 -0.342,-0.467 -0.822,-0.852 -1.44,-1.156 -0.619,-0.304 -1.356,-0.559 -2.214,-0.765 -0.857,-0.206 -1.806,-0.429 -2.848,-0.667 -1.812,-0.402 -3.187,-0.803 -4.126,-1.205 -0.939,-0.401 -1.679,-0.849 -2.222,-1.342 -0.542,-0.494 -0.957,-1.072 -1.245,-1.734 -0.287,-0.662 -0.431,-1.421 -0.431,-2.279 0,-1.963 0.751,-3.477 2.254,-4.541 1.503,-1.063 3.654,-1.595 6.454,-1.595 2.604,0 4.595,0.399 5.973,1.197 1.378,0.797 2.344,2.156 2.897,4.077 l -3.06,0.537 c -0.336,-1.215 -0.976,-2.097 -1.92,-2.645 -0.944,-0.548 -2.252,-0.822 -3.923,-0.822 -1.834,0 -3.233,0.304 -4.199,0.912 -0.966,0.607 -1.449,1.513 -1.449,2.718 0,0.705 0.187,1.288 0.562,1.749 0.374,0.462 0.914,0.852 1.619,1.172 0.706,0.32 2.111,0.714 4.216,1.18 0.705,0.163 1.408,0.329 2.107,0.497 0.7,0.168 1.37,0.369 2.011,0.602 0.64,0.233 1.239,0.507 1.798,0.822 0.559,0.315 1.044,0.7 1.457,1.155 0.412,0.456 0.735,0.993 0.968,1.612 0.234,0.618 0.35,1.345 0.35,2.181 z"
           style="fill:#0000ff;fill-rule:nonzero"
           id="path249" /><path
           d="m 1752.74,201.997 v -22.933 h 17.4 v 2.539 h -14.291 v 7.357 h 13.314 v 2.507 h -13.314 v 7.991 h 14.958 v 2.539 z"
           style="fill:#0000ff;fill-rule:nonzero"
           id="path251" /><path
           d="m 1783.96,181.603 v 20.394 h -3.093 v -20.394 h -7.877 v -2.539 h 18.848 v 2.539 z"
           style="fill:#0000ff;fill-rule:nonzero"
           id="path253" /><path
           d="m 1695.17,323.336 v 20.393 h -3.092 v -20.393 h -7.878 v -2.54 h 18.848 v 2.54 z"
           style="fill:#0000ff;fill-rule:nonzero"
           id="path255" /><path
           d="m 1720.34,343.729 -2.621,-6.705 h -10.449 l -2.636,6.705 h -3.223 l 9.359,-22.933 h 3.531 l 9.213,22.933 z m -7.845,-20.589 -0.147,0.456 c -0.271,0.901 -0.672,2.056 -1.204,3.467 l -2.93,7.536 h 8.578 l -2.946,-7.569 c -0.304,-0.748 -0.608,-1.595 -0.912,-2.539 z"
           style="fill:#0000ff;fill-rule:nonzero"
           id="path257" /><path
           d="m 1742.52,343.729 -5.957,-9.521 h -7.145 v 9.521 h -3.109 v -22.933 h 10.791 c 2.583,0 4.576,0.578 5.982,1.734 1.405,1.155 2.107,2.764 2.107,4.826 0,1.703 -0.496,3.136 -1.489,4.297 -0.993,1.161 -2.363,1.893 -4.11,2.197 l 6.511,9.879 z m -0.456,-16.341 c 0,-1.334 -0.453,-2.352 -1.359,-3.051 -0.906,-0.7 -2.21,-1.05 -3.914,-1.05 h -7.373 v 8.463 h 7.503 c 1.639,0 2.905,-0.382 3.801,-1.147 0.895,-0.765 1.342,-1.837 1.342,-3.215 z"
           style="fill:#0000ff;fill-rule:nonzero"
           id="path259" /><path
           d="m 1749.33,332.157 c 0,-3.722 0.998,-6.602 2.994,-8.642 1.997,-2.04 4.802,-3.06 8.415,-3.06 2.539,0 4.601,0.428 6.185,1.286 1.584,0.857 2.805,2.229 3.662,4.117 l -2.962,0.879 c -0.651,-1.302 -1.549,-2.251 -2.694,-2.848 -1.145,-0.597 -2.569,-0.895 -4.272,-0.895 -2.648,0 -4.672,0.8 -6.071,2.4 -1.4,1.601 -2.1,3.855 -2.1,6.763 0,2.897 0.743,5.184 2.23,6.861 1.486,1.676 3.543,2.514 6.169,2.514 1.497,0 2.894,-0.228 4.191,-0.683 1.296,-0.456 2.346,-1.075 3.149,-1.856 v -4.134 h -6.852 v -2.604 h 9.717 v 7.91 c -1.216,1.237 -2.705,2.195 -4.468,2.873 -1.763,0.678 -3.676,1.017 -5.737,1.017 -2.399,0 -4.466,-0.477 -6.202,-1.432 -1.736,-0.955 -3.062,-2.331 -3.979,-4.126 -0.917,-1.796 -1.375,-3.909 -1.375,-6.34 z"
           style="fill:#0000ff;fill-rule:nonzero"
           id="path261" /><path
           d="m 1776.31,343.729 v -22.933 h 17.399 v 2.54 h -14.29 v 7.356 h 13.314 v 2.507 h -13.314 v 7.991 h 14.958 v 2.539 z"
           style="fill:#0000ff;fill-rule:nonzero"
           id="path263" /><path
           d="m 1807.53,323.336 v 20.393 h -3.093 v -20.393 h -7.877 v -2.54 h 18.847 v 2.54 z"
           style="fill:#0000ff;fill-rule:nonzero"
           id="path265" /><path
           d="m 1841.98,343.729 -2.62,-6.705 h -10.45 l -2.636,6.705 h -3.223 l 9.359,-22.933 h 3.532 l 9.212,22.933 z m -7.845,-20.589 -0.147,0.456 c -0.271,0.901 -0.672,2.056 -1.204,3.467 l -2.93,7.536 h 8.578 l -2.946,-7.569 c -0.304,-0.748 -0.608,-1.595 -0.912,-2.539 z"
           style="fill:#0000ff;fill-rule:nonzero"
           id="path267" /><path
           d="m 1178.55,903.097 -2.62,-6.705 h -10.449 l -2.637,6.705 h -3.223 l 9.359,-22.932 h 3.532 l 9.212,22.932 z m -7.845,-20.589 -0.146,0.456 c -0.271,0.901 -0.673,2.056 -1.205,3.467 l -2.929,7.536 h 8.577 l -2.946,-7.569 c -0.304,-0.748 -0.607,-1.595 -0.911,-2.539 z"
           style="fill:#0000ff;fill-rule:nonzero"
           id="path269" /><path
           d="m 1450.45,896.703 c 0,2.04 -0.743,3.627 -2.23,4.761 -1.486,1.133 -3.553,1.7 -6.201,1.7 h -9.31 v -22.933 h 8.334 c 5.381,0 8.072,1.856 8.072,5.567 0,1.356 -0.379,2.496 -1.139,3.418 -0.759,0.922 -1.834,1.541 -3.223,1.855 1.823,0.217 3.229,0.828 4.216,1.831 0.987,1.004 1.481,2.271 1.481,3.801 z m -4.46,-10.531 c 0,-1.237 -0.423,-2.121 -1.269,-2.653 -0.846,-0.531 -2.073,-0.797 -3.678,-0.797 h -5.225 v 7.259 h 5.225 c 1.66,0 2.899,-0.312 3.719,-0.936 0.819,-0.624 1.228,-1.582 1.228,-2.873 z m 1.319,10.287 c 0,-2.702 -1.899,-4.053 -5.697,-4.053 h -5.794 v 8.268 h 6.038 c 1.899,0 3.283,-0.352 4.151,-1.058 0.868,-0.705 1.302,-1.758 1.302,-3.157 z"
           style="fill:#0000ff;fill-rule:nonzero"
           id="path271" /><g
           id="g363"><g
             id="g323"><path
               d="m 946.104,593.497 c 0,-11.409 2.223,-20.671 4.961,-20.671"
               style="fill:none;fill-rule:nonzero;stroke:#000000;stroke-width:0.75px"
               id="path273" /><path
               d="m 946.104,592.909 c 0,-11.425 2.223,-20.671 4.961,-20.671"
               style="fill:none;fill-rule:nonzero;stroke:#000000;stroke-width:0.75px"
               id="path275" /><path
               d="m 945.538,592.909 c 0,-6.121 0.582,-11.962 1.617,-16.292 1.039,-4.312 2.445,-6.737 3.91,-6.737"
               style="fill:none;fill-rule:nonzero;stroke:#000000;stroke-width:0.75px"
               id="path277" /><path
               d="M 945.538,669.08 V 592.909"
               style="fill:none;fill-rule:nonzero;stroke:#000000;stroke-width:0.75px"
               id="path279" /><path
               d="M 946.104,592.909 V 669.08"
               style="fill:none;fill-rule:nonzero;stroke:#000000;stroke-width:0.75px"
               id="path281" /><path
               d="m 951.065,689.751 c -2.738,0 -4.961,-9.242 -4.961,-20.671"
               style="fill:none;fill-rule:nonzero;stroke:#000000;stroke-width:0.75px"
               id="path283" /><path
               d="m 951.065,692.113 c -1.465,0 -2.871,-2.425 -3.91,-6.737 -1.035,-4.317 -1.617,-10.175 -1.617,-16.296"
               style="fill:none;fill-rule:nonzero;stroke:#000000;stroke-width:0.75px"
               id="path285" /><path
               d="m 945.139,480.767 c 0,-9.783 1.907,-17.708 4.254,-17.708"
               style="fill:none;fill-rule:nonzero;stroke:#000000;stroke-width:0.75px"
               id="path287" /><path
               d="m 944.573,480.767 c 0,-11.083 2.156,-20.066 4.82,-20.066"
               style="fill:none;fill-rule:nonzero;stroke:#000000;stroke-width:0.75px"
               id="path289" /><path
               d="m 944.573,486.53 v -5.763"
               style="fill:none;fill-rule:nonzero;stroke:#000000;stroke-width:0.75px"
               id="path291" /><path
               d="m 945.139,480.767 v 5.763"
               style="fill:none;fill-rule:nonzero;stroke:#000000;stroke-width:0.75px"
               id="path293" /><path
               d="m 949.393,504.255 c -2.347,0 -4.254,-7.942 -4.254,-17.725"
               style="fill:none;fill-rule:nonzero;stroke:#000000;stroke-width:0.75px"
               id="path295" /><path
               d="m 949.393,506.613 c -2.664,0 -4.82,-8.983 -4.82,-20.083"
               style="fill:none;fill-rule:nonzero;stroke:#000000;stroke-width:0.75px"
               id="path297" /><path
               d="m 946.104,297.63 c 0,-11.408 2.223,-20.671 4.961,-20.671"
               style="fill:none;fill-rule:nonzero;stroke:#000000;stroke-width:0.75px"
               id="path299" /><path
               d="m 945.538,297.63 c 0,-6.104 0.582,-11.963 1.617,-16.292 1.039,-4.312 2.445,-6.737 3.91,-6.737"
               style="fill:none;fill-rule:nonzero;stroke:#000000;stroke-width:0.75px"
               id="path301" /><path
               d="M 945.538,373.817 V 297.63"
               style="fill:none;fill-rule:nonzero;stroke:#000000;stroke-width:0.75px"
               id="path303" /><path
               d="m 946.104,297.63 v 76.187"
               style="fill:none;fill-rule:nonzero;stroke:#000000;stroke-width:0.75px"
               id="path305" /><path
               d="m 951.065,394.472 c -2.738,0 -4.961,-9.246 -4.961,-20.655"
               style="fill:none;fill-rule:nonzero;stroke:#000000;stroke-width:0.75px"
               id="path307" /><path
               d="m 951.065,396.847 c -1.465,0 -2.871,-2.425 -3.91,-6.755 -1.035,-4.312 -1.617,-10.17 -1.617,-16.275"
               style="fill:none;fill-rule:nonzero;stroke:#000000;stroke-width:0.75px"
               id="path309" /><path
               d="m 945.139,191.397 c 0,-9.784 1.907,-17.709 4.254,-17.709"
               style="fill:none;fill-rule:nonzero;stroke:#000000;stroke-width:0.75px"
               id="path311" /><path
               d="m 944.573,191.397 c 0,-11.084 2.156,-20.071 4.82,-20.071"
               style="fill:none;fill-rule:nonzero;stroke:#000000;stroke-width:0.75px"
               id="path313" /><path
               d="m 944.573,197.159 v -5.762"
               style="fill:none;fill-rule:nonzero;stroke:#000000;stroke-width:0.75px"
               id="path315" /><path
               d="m 945.139,191.397 v 5.762"
               style="fill:none;fill-rule:nonzero;stroke:#000000;stroke-width:0.75px"
               id="path317" /><path
               d="m 949.393,214.884 c -2.347,0 -4.254,-7.946 -4.254,-17.725"
               style="fill:none;fill-rule:nonzero;stroke:#000000;stroke-width:0.75px"
               id="path319" /><path
               d="m 949.393,217.242 c -2.664,0 -4.82,-8.983 -4.82,-20.083"
               style="fill:none;fill-rule:nonzero;stroke:#000000;stroke-width:0.75px"
               id="path321" /></g><path
             d="m 1666.2,593.497 c 0,-11.409 -2.222,-20.671 -4.96,-20.671"
             style="fill:none;fill-rule:nonzero;stroke:#000000;stroke-width:0.75px"
             id="path325" /><path
             d="m 1666.2,592.909 c 0,-11.425 -2.222,-20.671 -4.96,-20.671"
             style="fill:none;fill-rule:nonzero;stroke:#000000;stroke-width:0.75px"
             id="path327" /><path
             d="m 1666.77,592.909 c 0,-6.121 -0.582,-11.962 -1.617,-16.292 -1.038,-4.312 -2.444,-6.737 -3.909,-6.737"
             style="fill:none;fill-rule:nonzero;stroke:#000000;stroke-width:0.75px"
             id="path329" /><path
             d="M 1666.77,669.08 V 592.909"
             style="fill:none;fill-rule:nonzero;stroke:#000000;stroke-width:0.75px"
             id="path331" /><path
             d="M 1666.2,592.909 V 669.08"
             style="fill:none;fill-rule:nonzero;stroke:#000000;stroke-width:0.75px"
             id="path333" /><path
             d="m 1661.24,689.751 c 2.738,0 4.96,-9.242 4.96,-20.671"
             style="fill:none;fill-rule:nonzero;stroke:#000000;stroke-width:0.75px"
             id="path335" /><path
             d="m 1661.24,692.113 c 1.465,0 2.871,-2.425 3.909,-6.737 1.035,-4.317 1.617,-10.175 1.617,-16.296"
             style="fill:none;fill-rule:nonzero;stroke:#000000;stroke-width:0.75px"
             id="path337" /><path
             d="m 1666.2,297.63 c 0,-11.408 -2.222,-20.671 -4.96,-20.671"
             style="fill:none;fill-rule:nonzero;stroke:#000000;stroke-width:0.75px"
             id="path339" /><path
             d="m 1666.77,297.63 c 0,-6.104 -0.582,-11.963 -1.617,-16.292 -1.038,-4.312 -2.444,-6.737 -3.909,-6.737"
             style="fill:none;fill-rule:nonzero;stroke:#000000;stroke-width:0.75px"
             id="path341" /><path
             d="M 1666.77,373.817 V 297.63"
             style="fill:none;fill-rule:nonzero;stroke:#000000;stroke-width:0.75px"
             id="path343" /><path
             d="m 1666.2,297.63 v 76.187"
             style="fill:none;fill-rule:nonzero;stroke:#000000;stroke-width:0.75px"
             id="path345" /><path
             d="m 1661.24,394.472 c 2.738,0 4.96,-9.246 4.96,-20.655"
             style="fill:none;fill-rule:nonzero;stroke:#000000;stroke-width:0.75px"
             id="path347" /><path
             d="m 1661.24,396.847 c 1.465,0 2.871,-2.425 3.909,-6.755 1.035,-4.312 1.617,-10.17 1.617,-16.275"
             style="fill:none;fill-rule:nonzero;stroke:#000000;stroke-width:0.75px"
             id="path349" /><path
             d="m 1667.16,191.397 c 0,-9.784 -1.907,-17.709 -4.253,-17.709"
             style="fill:none;fill-rule:nonzero;stroke:#000000;stroke-width:0.75px"
             id="path351" /><path
             d="m 1667.73,191.397 c 0,-11.084 -2.156,-20.071 -4.819,-20.071"
             style="fill:none;fill-rule:nonzero;stroke:#000000;stroke-width:0.75px"
             id="path353" /><path
             d="m 1667.73,197.159 v -5.762"
             style="fill:none;fill-rule:nonzero;stroke:#000000;stroke-width:0.75px"
             id="path355" /><path
             d="m 1667.16,191.397 v 5.762"
             style="fill:none;fill-rule:nonzero;stroke:#000000;stroke-width:0.75px"
             id="path357" /><path
             d="m 1662.91,214.884 c 2.346,0 4.253,-7.946 4.253,-17.725"
             style="fill:none;fill-rule:nonzero;stroke:#000000;stroke-width:0.75px"
             id="path359" /><path
             d="m 1662.91,217.242 c 2.663,0 4.819,-8.983 4.819,-20.083"
             style="fill:none;fill-rule:nonzero;stroke:#000000;stroke-width:0.75px"
             id="path361" /></g><path
           d="m 1536.39,864.068 c 0,0.165 -2.654,0.298 -5.908,0.298"
           style="fill:none;fill-rule:nonzero;stroke:#000000;stroke-width:0.75px"
           id="path365" /><path
           d="m 1536.39,864.068 v -3.124"
           style="fill:none;fill-rule:nonzero;stroke:#000000;stroke-width:0.75px"
           id="path367" /><path
           d="m 1538.73,860.944 v 3.124"
           style="fill:none;fill-rule:nonzero;stroke:#000000;stroke-width:0.75px"
           id="path369" /><path
           d="m 1072.21,864.068 v -3.124"
           style="fill:none;fill-rule:nonzero;stroke:#000000;stroke-width:0.75px"
           id="path371" /><path
           d="m 1080.48,864.485 c -4.575,0 -8.271,-0.186 -8.271,-0.417"
           style="fill:none;fill-rule:nonzero;stroke:#000000;stroke-width:0.75px"
           id="path373" /><path
           d="M 1260.48,864.485 H 1080.484"
           style="fill:none;fill-rule:nonzero;stroke:#000000;stroke-width:0.75px"
           id="path375" /><path
           d="m 1268.74,864.068 c 0,0.231 -3.708,0.417 -8.266,0.417"
           style="fill:none;fill-rule:nonzero;stroke:#000000;stroke-width:0.75px"
           id="path377" /><path
           d="m 1268.74,864.068 v -3.153"
           style="fill:none;fill-rule:nonzero;stroke:#000000;stroke-width:0.75px"
           id="path379" /><path
           d="m 1342.21,864.068 v -3.153"
           style="fill:none;fill-rule:nonzero;stroke:#000000;stroke-width:0.75px"
           id="path381" /><path
           d="m 1350.47,864.485 c -4.558,0 -8.254,-0.186 -8.254,-0.417"
           style="fill:none;fill-rule:nonzero;stroke:#000000;stroke-width:0.75px"
           id="path383" /><path
           d="M 1530.48,864.485 H 1350.484"
           style="fill:none;fill-rule:nonzero;stroke:#000000;stroke-width:0.75px"
           id="path385" /><path
           d="m 1538.75,864.068 c 0,0.231 -3.709,0.417 -8.267,0.417"
           style="fill:none;fill-rule:nonzero;stroke:#000000;stroke-width:0.75px"
           id="path387" /><path
           d="m 1074.57,860.944 v 3.124"
           style="fill:none;fill-rule:nonzero;stroke:#000000;stroke-width:0.75px"
           id="path389" /><path
           d="m 1080.48,864.366 c -3.271,0 -5.908,-0.133 -5.908,-0.298"
           style="fill:none;fill-rule:nonzero;stroke:#000000;stroke-width:0.75px"
           id="path391" /><path
           d="m 1080.48,864.366 h 179.996"
           style="fill:none;fill-rule:nonzero;stroke:#000000;stroke-width:0.75px"
           id="path393" /><path
           d="m 1266.38,864.068 c 0,0.165 -2.654,0.298 -5.908,0.298"
           style="fill:none;fill-rule:nonzero;stroke:#000000;stroke-width:0.75px"
           id="path395" /><path
           d="m 1266.38,864.068 v -3.153"
           style="fill:none;fill-rule:nonzero;stroke:#000000;stroke-width:0.75px"
           id="path397" /><path
           d="m 1344.58,860.915 v 3.153"
           style="fill:none;fill-rule:nonzero;stroke:#000000;stroke-width:0.75px"
           id="path399" /><path
           d="m 1350.47,864.366 c -3.258,0 -5.891,-0.133 -5.891,-0.298"
           style="fill:none;fill-rule:nonzero;stroke:#000000;stroke-width:0.75px"
           id="path401" /><path
           d="m 1350.48,864.366 h 179.996"
           style="fill:none;fill-rule:nonzero;stroke:#000000;stroke-width:0.75px"
           id="path403" /></g></g><g
       id="g4702"
       transform="translate(0,-2.543)"><path
         d="M 522.87903,644.20492 C 701.99251,642.66558 565.19725,331.38284 705.429,334.798"
         style="fill:none;stroke:#333333;stroke-width:8.33px;stroke-linecap:butt;stroke-linejoin:round;stroke-miterlimit:1.5;marker-start:url(#marker7656);marker-end:url(#marker7592)"
         id="path412" /></g><path
       d="M 525.36316,812.92386 C 1898.737,1141.694 2120.3572,634.68145 1898.036,630.798"
       style="fill:none;stroke:#333333;stroke-width:8.33px;stroke-linecap:butt;stroke-linejoin:round;stroke-miterlimit:1.5;marker-start:url(#Arrow2);marker-end:url(#marker7210)"
       id="path470" /><g
       id="g480"
       transform="translate(-2136.1113,53.528526)"><rect
         x="2185.6001"
         y="497.64899"
         width="374.26199"
         height="259.104"
         style="fill:none;stroke:#333333;stroke-width:0.83px;stroke-linecap:butt;stroke-linejoin:round;stroke-miterlimit:1.5"
         id="rect472" /><path
         d="m 2171.21,493.064 v 278.084 h 403.051 V 493.064 c 0,-5.414 -4.395,-9.81 -9.81,-9.81 H 2181.02 c -5.414,0 -9.81,4.396 -9.81,9.81 z"
         style="fill:none;stroke:#333333;stroke-width:0.83px;stroke-linecap:butt;stroke-linejoin:round;stroke-miterlimit:1.5"
         id="path474" /><path
         d="m 2142.42,771.148 v 13.784 c 0,1.926 1.563,3.49 3.489,3.49 h 453.651 c 1.926,0 3.49,-1.564 3.49,-3.49 v -13.784 z"
         style="fill:none;stroke:#333333;stroke-width:0.83px;stroke-linecap:butt;stroke-linejoin:round;stroke-miterlimit:1.5"
         id="path476" /><circle
         cx="2372.73"
         cy="489.94101"
         r="2.8789999"
         style="fill:none;stroke:#333333;stroke-width:0.83px;stroke-linecap:butt;stroke-linejoin:round;stroke-miterlimit:1.5"
         id="circle478" /></g><g
       id="g4669"
       transform="translate(-2192.8358,53.528526)"><path
         d="m 2412.19,834.499 v -10.628 h -12.402 v 10.628 h -3.109 v -22.933 h 3.109 v 9.7 h 12.402 v -9.7 h 3.109 v 22.933 z"
         style="fill:#0000ff;fill-rule:nonzero"
         id="path494" /><path
         d="m 2435.15,825.677 c 0,3.082 -0.679,5.377 -2.035,6.885 -1.356,1.508 -3.326,2.262 -5.908,2.262 -2.572,0 -4.514,-0.784 -5.827,-2.351 -1.313,-1.568 -1.969,-3.833 -1.969,-6.796 0,-6.076 2.631,-9.114 7.894,-9.114 2.691,0 4.671,0.74 5.94,2.221 1.27,1.482 1.905,3.779 1.905,6.893 z m -3.077,0 c 0,-2.43 -0.36,-4.196 -1.082,-5.298 -0.721,-1.101 -1.934,-1.652 -3.638,-1.652 -1.714,0 -2.954,0.562 -3.719,1.685 -0.765,1.123 -1.147,2.878 -1.147,5.265 0,2.322 0.377,4.067 1.131,5.233 0.754,1.167 1.94,1.75 3.556,1.75 1.758,0 3.014,-0.565 3.768,-1.693 0.754,-1.128 1.131,-2.892 1.131,-5.29 z"
         style="fill:#0000ff;fill-rule:nonzero"
         id="path496" /><path
         d="m 2452.01,829.632 c 0,1.661 -0.627,2.941 -1.88,3.842 -1.254,0.9 -3.009,1.35 -5.266,1.35 -2.191,0 -3.881,-0.36 -5.07,-1.082 -1.188,-0.721 -1.961,-1.847 -2.319,-3.377 l 2.588,-0.505 c 0.25,0.944 0.765,1.636 1.546,2.075 0.781,0.44 1.867,0.66 3.255,0.66 1.487,0 2.575,-0.228 3.264,-0.684 0.689,-0.456 1.033,-1.139 1.033,-2.051 0,-0.694 -0.238,-1.258 -0.716,-1.692 -0.477,-0.434 -1.248,-0.793 -2.311,-1.075 l -2.1,-0.553 c -1.682,-0.434 -2.878,-0.86 -3.589,-1.278 -0.71,-0.417 -1.266,-0.925 -1.668,-1.522 -0.401,-0.596 -0.602,-1.329 -0.602,-2.197 0,-1.606 0.572,-2.829 1.717,-3.67 1.145,-0.841 2.813,-1.261 5.005,-1.261 1.942,0 3.486,0.341 4.631,1.025 1.144,0.684 1.869,1.779 2.172,3.288 l -2.636,0.325 c -0.163,-0.781 -0.6,-1.381 -1.311,-1.798 -0.71,-0.418 -1.662,-0.627 -2.856,-0.627 -1.324,0 -2.3,0.201 -2.93,0.602 -0.629,0.402 -0.944,1.009 -0.944,1.823 0,0.499 0.13,0.912 0.391,1.237 0.26,0.326 0.646,0.602 1.155,0.83 0.51,0.228 1.585,0.543 3.223,0.944 1.552,0.391 2.669,0.752 3.353,1.083 0.684,0.331 1.223,0.697 1.619,1.098 0.397,0.402 0.703,0.866 0.92,1.392 0.217,0.526 0.326,1.126 0.326,1.798 z"
         style="fill:#0000ff;fill-rule:nonzero"
         id="path498" /><path
         d="m 2462.24,834.369 c -0.966,0.26 -1.953,0.39 -2.962,0.39 -2.344,0 -3.516,-1.329 -3.516,-3.987 V 819.02 h -2.034 v -2.132 h 2.148 l 0.863,-3.939 h 1.953 v 3.939 h 3.255 v 2.132 h -3.255 v 11.117 c 0,0.846 0.138,1.44 0.415,1.782 0.277,0.342 0.757,0.513 1.44,0.513 0.391,0 0.955,-0.076 1.693,-0.228 z"
         style="fill:#0000ff;fill-rule:nonzero"
         id="path500" /></g></g></svg>
